<?xml version="1.0" standalone="no"?>
 <!DOCTYPE svg PUBLIC "-//W3C//DTD SVG 1.1//EN" 
 "http://www.w3.org/Graphics/SVG/1.1/DTD/svg11.dtd"> 
<svg xmlns="http://www.w3.org/2000/svg" version="1.1" 
    width="29.7002cm" height="21.0007cm" viewBox="0 0 116930 82680 ">
<title>SVG Picture created as Single_transistor_AMP-F_Cu.svg date 2020/12/09 09:39:17 </title>
  <desc>Picture generated by PCBNEW </desc>
<g style="fill:#000000; fill-opacity:1;stroke:#000000; stroke-opacity:1;
stroke-linecap:round; stroke-linejoin:round; "
 transform="translate(0 0) scale(1 1)">
</g>
<g style="fill:#000000; fill-opacity:0.0; 
stroke:#000000; stroke-width:-0.000393701; stroke-opacity:1; 
stroke-linecap:round; stroke-linejoin:round;">
</g>
<g style="fill:#000000; fill-opacity:0.0; 
stroke:#000000; stroke-width:39.3701; stroke-opacity:1; 
stroke-linecap:round; stroke-linejoin:round;">
</g>
<g style="fill:#000000; fill-opacity:0.0; 
stroke:#000000; stroke-width:59.0551; stroke-opacity:1; 
stroke-linecap:round; stroke-linejoin:round;">
<rect x="69685.9" y="65357.2" width="42519.7" height="12598.4" rx="0" />
</g>
<g style="fill:#000000; fill-opacity:0.0; 
stroke:#000000; stroke-width:39.3701; stroke-opacity:1; 
stroke-linecap:round; stroke-linejoin:round;">
</g>
<g style="fill:#000000; fill-opacity:0.0; 
stroke:#000000; stroke-width:59.0551; stroke-opacity:1; 
stroke-linecap:round; stroke-linejoin:round;">
<rect x="3937.01" y="3937.01" width="109056" height="74806" rx="0" />
</g>
<g style="fill:#000000; fill-opacity:0.0; 
stroke:#000000; stroke-width:39.3701; stroke-opacity:1; 
stroke-linecap:round; stroke-linejoin:round;">
</g>
<g style="fill:#000000; fill-opacity:0.0; 
stroke:#000000; stroke-width:59.0551; stroke-opacity:1; 
stroke-linecap:round; stroke-linejoin:round;">
<rect x="4724.41" y="4724.41" width="107481" height="73231.2" rx="0" />
</g>
<g style="fill:#000000; fill-opacity:0.0; 
stroke:#000000; stroke-width:39.3701; stroke-opacity:1; 
stroke-linecap:round; stroke-linejoin:round;">
</g>
<g style="fill:#000000; fill-opacity:0.0; 
stroke:#000000; stroke-width:59.0551; stroke-opacity:1; 
stroke-linecap:round; stroke-linejoin:round;">
<path d="M23622 4724
L23622 3937
" />
</g>
<g style="fill:#000000; fill-opacity:0.0; 
stroke:#000000; stroke-width:39.3701; stroke-opacity:1; 
stroke-linecap:round; stroke-linejoin:round;">
</g>
<g style="fill:#000000; fill-opacity:0.0; 
stroke:#000000; stroke-width:59.0551; stroke-opacity:1; 
stroke-linecap:round; stroke-linejoin:round;">
<path d="M43307 4724
L43307 3937
" />
</g>
<g style="fill:#000000; fill-opacity:0.0; 
stroke:#000000; stroke-width:39.3701; stroke-opacity:1; 
stroke-linecap:round; stroke-linejoin:round;">
</g>
<g style="fill:#000000; fill-opacity:0.0; 
stroke:#000000; stroke-width:59.0551; stroke-opacity:1; 
stroke-linecap:round; stroke-linejoin:round;">
<path d="M62992 4724
L62992 3937
" />
</g>
<g style="fill:#000000; fill-opacity:0.0; 
stroke:#000000; stroke-width:39.3701; stroke-opacity:1; 
stroke-linecap:round; stroke-linejoin:round;">
</g>
<g style="fill:#000000; fill-opacity:0.0; 
stroke:#000000; stroke-width:59.0551; stroke-opacity:1; 
stroke-linecap:round; stroke-linejoin:round;">
<path d="M82677 4724
L82677 3937
" />
</g>
<g style="fill:#000000; fill-opacity:0.0; 
stroke:#000000; stroke-width:39.3701; stroke-opacity:1; 
stroke-linecap:round; stroke-linejoin:round;">
</g>
<g style="fill:#000000; fill-opacity:0.0; 
stroke:#000000; stroke-width:59.0551; stroke-opacity:1; 
stroke-linecap:round; stroke-linejoin:round;">
<path d="M102362 4724
L102362 3937
" />
</g>
<g style="fill:#000000; fill-opacity:0.0; 
stroke:#000000; stroke-width:39.3701; stroke-opacity:1; 
stroke-linecap:round; stroke-linejoin:round;">
</g>
<g style="fill:#000000; fill-opacity:0.0; 
stroke:#000000; stroke-width:59.0551; stroke-opacity:1; 
stroke-linecap:round; stroke-linejoin:round;">
<path d="M14199 4562
L13906 4562
" />
<path d="M14052 4562
L14052 4050
L14004 4123
L13955 4172
L13906 4196
" />
</g>
<g style="fill:#000000; fill-opacity:0.0; 
stroke:#000000; stroke-width:39.3701; stroke-opacity:1; 
stroke-linecap:round; stroke-linejoin:round;">
</g>
<g style="fill:#000000; fill-opacity:0.0; 
stroke:#000000; stroke-width:59.0551; stroke-opacity:1; 
stroke-linecap:round; stroke-linejoin:round;">
<path d="M33591 4099
L33615 4074
L33664 4050
L33786 4050
L33835 4074
L33859 4099
L33884 4147
L33884 4196
L33859 4269
L33567 4562
L33884 4562
" />
</g>
<g style="fill:#000000; fill-opacity:0.0; 
stroke:#000000; stroke-width:39.3701; stroke-opacity:1; 
stroke-linecap:round; stroke-linejoin:round;">
</g>
<g style="fill:#000000; fill-opacity:0.0; 
stroke:#000000; stroke-width:59.0551; stroke-opacity:1; 
stroke-linecap:round; stroke-linejoin:round;">
<path d="M53252 4050
L53569 4050
L53398 4245
L53471 4245
L53520 4269
L53544 4294
L53569 4342
L53569 4464
L53544 4513
L53520 4537
L53471 4562
L53325 4562
L53276 4537
L53252 4513
" />
</g>
<g style="fill:#000000; fill-opacity:0.0; 
stroke:#000000; stroke-width:39.3701; stroke-opacity:1; 
stroke-linecap:round; stroke-linejoin:round;">
</g>
<g style="fill:#000000; fill-opacity:0.0; 
stroke:#000000; stroke-width:59.0551; stroke-opacity:1; 
stroke-linecap:round; stroke-linejoin:round;">
<path d="M73205 4221
L73205 4562
" />
<path d="M73083 4026
L72961 4391
L73278 4391
" />
</g>
<g style="fill:#000000; fill-opacity:0.0; 
stroke:#000000; stroke-width:39.3701; stroke-opacity:1; 
stroke-linecap:round; stroke-linejoin:round;">
</g>
<g style="fill:#000000; fill-opacity:0.0; 
stroke:#000000; stroke-width:59.0551; stroke-opacity:1; 
stroke-linecap:round; stroke-linejoin:round;">
<path d="M92914 4050
L92671 4050
L92646 4294
L92671 4269
L92719 4245
L92841 4245
L92890 4269
L92914 4294
L92939 4342
L92939 4464
L92914 4513
L92890 4537
L92841 4562
L92719 4562
L92671 4537
L92646 4513
" />
</g>
<g style="fill:#000000; fill-opacity:0.0; 
stroke:#000000; stroke-width:39.3701; stroke-opacity:1; 
stroke-linecap:round; stroke-linejoin:round;">
</g>
<g style="fill:#000000; fill-opacity:0.0; 
stroke:#000000; stroke-width:59.0551; stroke-opacity:1; 
stroke-linecap:round; stroke-linejoin:round;">
<path d="M112575 4050
L112477 4050
L112429 4074
L112404 4099
L112356 4172
L112331 4269
L112331 4464
L112356 4513
L112380 4537
L112429 4562
L112526 4562
L112575 4537
L112599 4513
L112624 4464
L112624 4342
L112599 4294
L112575 4269
L112526 4245
L112429 4245
L112380 4269
L112356 4294
L112331 4342
" />
</g>
<g style="fill:#000000; fill-opacity:0.0; 
stroke:#000000; stroke-width:39.3701; stroke-opacity:1; 
stroke-linecap:round; stroke-linejoin:round;">
</g>
<g style="fill:#000000; fill-opacity:0.0; 
stroke:#000000; stroke-width:59.0551; stroke-opacity:1; 
stroke-linecap:round; stroke-linejoin:round;">
<path d="M23622 77955
L23622 78742
" />
</g>
<g style="fill:#000000; fill-opacity:0.0; 
stroke:#000000; stroke-width:39.3701; stroke-opacity:1; 
stroke-linecap:round; stroke-linejoin:round;">
</g>
<g style="fill:#000000; fill-opacity:0.0; 
stroke:#000000; stroke-width:59.0551; stroke-opacity:1; 
stroke-linecap:round; stroke-linejoin:round;">
<path d="M43307 77955
L43307 78742
" />
</g>
<g style="fill:#000000; fill-opacity:0.0; 
stroke:#000000; stroke-width:39.3701; stroke-opacity:1; 
stroke-linecap:round; stroke-linejoin:round;">
</g>
<g style="fill:#000000; fill-opacity:0.0; 
stroke:#000000; stroke-width:59.0551; stroke-opacity:1; 
stroke-linecap:round; stroke-linejoin:round;">
<path d="M62992 77955
L62992 78742
" />
</g>
<g style="fill:#000000; fill-opacity:0.0; 
stroke:#000000; stroke-width:39.3701; stroke-opacity:1; 
stroke-linecap:round; stroke-linejoin:round;">
</g>
<g style="fill:#000000; fill-opacity:0.0; 
stroke:#000000; stroke-width:59.0551; stroke-opacity:1; 
stroke-linecap:round; stroke-linejoin:round;">
<path d="M82677 77955
L82677 78742
" />
</g>
<g style="fill:#000000; fill-opacity:0.0; 
stroke:#000000; stroke-width:39.3701; stroke-opacity:1; 
stroke-linecap:round; stroke-linejoin:round;">
</g>
<g style="fill:#000000; fill-opacity:0.0; 
stroke:#000000; stroke-width:59.0551; stroke-opacity:1; 
stroke-linecap:round; stroke-linejoin:round;">
<path d="M102362 77955
L102362 78742
" />
</g>
<g style="fill:#000000; fill-opacity:0.0; 
stroke:#000000; stroke-width:39.3701; stroke-opacity:1; 
stroke-linecap:round; stroke-linejoin:round;">
</g>
<g style="fill:#000000; fill-opacity:0.0; 
stroke:#000000; stroke-width:59.0551; stroke-opacity:1; 
stroke-linecap:round; stroke-linejoin:round;">
<path d="M14199 78580
L13906 78580
" />
<path d="M14052 78580
L14052 78069
L14004 78142
L13955 78190
L13906 78215
" />
</g>
<g style="fill:#000000; fill-opacity:0.0; 
stroke:#000000; stroke-width:39.3701; stroke-opacity:1; 
stroke-linecap:round; stroke-linejoin:round;">
</g>
<g style="fill:#000000; fill-opacity:0.0; 
stroke:#000000; stroke-width:59.0551; stroke-opacity:1; 
stroke-linecap:round; stroke-linejoin:round;">
<path d="M33591 78117
L33615 78093
L33664 78069
L33786 78069
L33835 78093
L33859 78117
L33884 78166
L33884 78215
L33859 78288
L33567 78580
L33884 78580
" />
</g>
<g style="fill:#000000; fill-opacity:0.0; 
stroke:#000000; stroke-width:39.3701; stroke-opacity:1; 
stroke-linecap:round; stroke-linejoin:round;">
</g>
<g style="fill:#000000; fill-opacity:0.0; 
stroke:#000000; stroke-width:59.0551; stroke-opacity:1; 
stroke-linecap:round; stroke-linejoin:round;">
<path d="M53252 78069
L53569 78069
L53398 78263
L53471 78263
L53520 78288
L53544 78312
L53569 78361
L53569 78483
L53544 78532
L53520 78556
L53471 78580
L53325 78580
L53276 78556
L53252 78532
" />
</g>
<g style="fill:#000000; fill-opacity:0.0; 
stroke:#000000; stroke-width:39.3701; stroke-opacity:1; 
stroke-linecap:round; stroke-linejoin:round;">
</g>
<g style="fill:#000000; fill-opacity:0.0; 
stroke:#000000; stroke-width:59.0551; stroke-opacity:1; 
stroke-linecap:round; stroke-linejoin:round;">
<path d="M73205 78239
L73205 78580
" />
<path d="M73083 78044
L72961 78410
L73278 78410
" />
</g>
<g style="fill:#000000; fill-opacity:0.0; 
stroke:#000000; stroke-width:39.3701; stroke-opacity:1; 
stroke-linecap:round; stroke-linejoin:round;">
</g>
<g style="fill:#000000; fill-opacity:0.0; 
stroke:#000000; stroke-width:59.0551; stroke-opacity:1; 
stroke-linecap:round; stroke-linejoin:round;">
<path d="M92914 78069
L92671 78069
L92646 78312
L92671 78288
L92719 78263
L92841 78263
L92890 78288
L92914 78312
L92939 78361
L92939 78483
L92914 78532
L92890 78556
L92841 78580
L92719 78580
L92671 78556
L92646 78532
" />
</g>
<g style="fill:#000000; fill-opacity:0.0; 
stroke:#000000; stroke-width:39.3701; stroke-opacity:1; 
stroke-linecap:round; stroke-linejoin:round;">
</g>
<g style="fill:#000000; fill-opacity:0.0; 
stroke:#000000; stroke-width:59.0551; stroke-opacity:1; 
stroke-linecap:round; stroke-linejoin:round;">
<path d="M112575 78069
L112477 78069
L112429 78093
L112404 78117
L112356 78190
L112331 78288
L112331 78483
L112356 78532
L112380 78556
L112429 78580
L112526 78580
L112575 78556
L112599 78532
L112624 78483
L112624 78361
L112599 78312
L112575 78288
L112526 78263
L112429 78263
L112380 78288
L112356 78312
L112331 78361
" />
</g>
<g style="fill:#000000; fill-opacity:0.0; 
stroke:#000000; stroke-width:39.3701; stroke-opacity:1; 
stroke-linecap:round; stroke-linejoin:round;">
</g>
<g style="fill:#000000; fill-opacity:0.0; 
stroke:#000000; stroke-width:59.0551; stroke-opacity:1; 
stroke-linecap:round; stroke-linejoin:round;">
<path d="M3937 23622
L4724 23622
" />
</g>
<g style="fill:#000000; fill-opacity:0.0; 
stroke:#000000; stroke-width:39.3701; stroke-opacity:1; 
stroke-linecap:round; stroke-linejoin:round;">
</g>
<g style="fill:#000000; fill-opacity:0.0; 
stroke:#000000; stroke-width:59.0551; stroke-opacity:1; 
stroke-linecap:round; stroke-linejoin:round;">
<path d="M3937 43307
L4724 43307
" />
</g>
<g style="fill:#000000; fill-opacity:0.0; 
stroke:#000000; stroke-width:39.3701; stroke-opacity:1; 
stroke-linecap:round; stroke-linejoin:round;">
</g>
<g style="fill:#000000; fill-opacity:0.0; 
stroke:#000000; stroke-width:59.0551; stroke-opacity:1; 
stroke-linecap:round; stroke-linejoin:round;">
<path d="M3937 62992
L4724 62992
" />
</g>
<g style="fill:#000000; fill-opacity:0.0; 
stroke:#000000; stroke-width:39.3701; stroke-opacity:1; 
stroke-linecap:round; stroke-linejoin:round;">
</g>
<g style="fill:#000000; fill-opacity:0.0; 
stroke:#000000; stroke-width:59.0551; stroke-opacity:1; 
stroke-linecap:round; stroke-linejoin:round;">
<path d="M4208 13864
L4452 13864
" />
<path d="M4160 14011
L4330 13499
L4501 14011
" />
</g>
<g style="fill:#000000; fill-opacity:0.0; 
stroke:#000000; stroke-width:39.3701; stroke-opacity:1; 
stroke-linecap:round; stroke-linejoin:round;">
</g>
<g style="fill:#000000; fill-opacity:0.0; 
stroke:#000000; stroke-width:59.0551; stroke-opacity:1; 
stroke-linecap:round; stroke-linejoin:round;">
<path d="M4367 33428
L4440 33452
L4464 33476
L4489 33525
L4489 33598
L4464 33647
L4440 33671
L4391 33696
L4196 33696
L4196 33184
L4367 33184
L4416 33208
L4440 33233
L4464 33281
L4464 33330
L4440 33379
L4416 33403
L4367 33428
L4196 33428
" />
</g>
<g style="fill:#000000; fill-opacity:0.0; 
stroke:#000000; stroke-width:39.3701; stroke-opacity:1; 
stroke-linecap:round; stroke-linejoin:round;">
</g>
<g style="fill:#000000; fill-opacity:0.0; 
stroke:#000000; stroke-width:59.0551; stroke-opacity:1; 
stroke-linecap:round; stroke-linejoin:round;">
<path d="M4489 53332
L4464 53356
L4391 53381
L4342 53381
L4269 53356
L4221 53308
L4196 53259
L4172 53161
L4172 53088
L4196 52991
L4221 52942
L4269 52893
L4342 52869
L4391 52869
L4464 52893
L4489 52918
" />
</g>
<g style="fill:#000000; fill-opacity:0.0; 
stroke:#000000; stroke-width:39.3701; stroke-opacity:1; 
stroke-linecap:round; stroke-linejoin:round;">
</g>
<g style="fill:#000000; fill-opacity:0.0; 
stroke:#000000; stroke-width:59.0551; stroke-opacity:1; 
stroke-linecap:round; stroke-linejoin:round;">
<path d="M4196 73066
L4196 72554
L4318 72554
L4391 72578
L4440 72627
L4464 72676
L4489 72773
L4489 72846
L4464 72944
L4440 72993
L4391 73041
L4318 73066
L4196 73066
" />
</g>
<g style="fill:#000000; fill-opacity:0.0; 
stroke:#000000; stroke-width:39.3701; stroke-opacity:1; 
stroke-linecap:round; stroke-linejoin:round;">
</g>
<g style="fill:#000000; fill-opacity:0.0; 
stroke:#000000; stroke-width:59.0551; stroke-opacity:1; 
stroke-linecap:round; stroke-linejoin:round;">
<path d="M112992 23622
L112205 23622
" />
</g>
<g style="fill:#000000; fill-opacity:0.0; 
stroke:#000000; stroke-width:39.3701; stroke-opacity:1; 
stroke-linecap:round; stroke-linejoin:round;">
</g>
<g style="fill:#000000; fill-opacity:0.0; 
stroke:#000000; stroke-width:59.0551; stroke-opacity:1; 
stroke-linecap:round; stroke-linejoin:round;">
<path d="M112992 43307
L112205 43307
" />
</g>
<g style="fill:#000000; fill-opacity:0.0; 
stroke:#000000; stroke-width:39.3701; stroke-opacity:1; 
stroke-linecap:round; stroke-linejoin:round;">
</g>
<g style="fill:#000000; fill-opacity:0.0; 
stroke:#000000; stroke-width:59.0551; stroke-opacity:1; 
stroke-linecap:round; stroke-linejoin:round;">
<path d="M112992 62992
L112205 62992
" />
</g>
<g style="fill:#000000; fill-opacity:0.0; 
stroke:#000000; stroke-width:39.3701; stroke-opacity:1; 
stroke-linecap:round; stroke-linejoin:round;">
</g>
<g style="fill:#000000; fill-opacity:0.0; 
stroke:#000000; stroke-width:59.0551; stroke-opacity:1; 
stroke-linecap:round; stroke-linejoin:round;">
<path d="M112477 13864
L112721 13864
" />
<path d="M112428 14011
L112599 13499
L112769 14011
" />
</g>
<g style="fill:#000000; fill-opacity:0.0; 
stroke:#000000; stroke-width:39.3701; stroke-opacity:1; 
stroke-linecap:round; stroke-linejoin:round;">
</g>
<g style="fill:#000000; fill-opacity:0.0; 
stroke:#000000; stroke-width:59.0551; stroke-opacity:1; 
stroke-linecap:round; stroke-linejoin:round;">
<path d="M112635 33428
L112708 33452
L112733 33476
L112757 33525
L112757 33598
L112733 33647
L112708 33671
L112660 33696
L112465 33696
L112465 33184
L112635 33184
L112684 33208
L112708 33233
L112733 33281
L112733 33330
L112708 33379
L112684 33403
L112635 33428
L112465 33428
" />
</g>
<g style="fill:#000000; fill-opacity:0.0; 
stroke:#000000; stroke-width:39.3701; stroke-opacity:1; 
stroke-linecap:round; stroke-linejoin:round;">
</g>
<g style="fill:#000000; fill-opacity:0.0; 
stroke:#000000; stroke-width:59.0551; stroke-opacity:1; 
stroke-linecap:round; stroke-linejoin:round;">
<path d="M112757 53332
L112733 53356
L112660 53381
L112611 53381
L112538 53356
L112489 53308
L112465 53259
L112440 53161
L112440 53088
L112465 52991
L112489 52942
L112538 52893
L112611 52869
L112660 52869
L112733 52893
L112757 52918
" />
</g>
<g style="fill:#000000; fill-opacity:0.0; 
stroke:#000000; stroke-width:39.3701; stroke-opacity:1; 
stroke-linecap:round; stroke-linejoin:round;">
</g>
<g style="fill:#000000; fill-opacity:0.0; 
stroke:#000000; stroke-width:59.0551; stroke-opacity:1; 
stroke-linecap:round; stroke-linejoin:round;">
<path d="M112465 73066
L112465 72554
L112587 72554
L112660 72578
L112708 72627
L112733 72676
L112757 72773
L112757 72846
L112733 72944
L112708 72993
L112660 73041
L112587 73066
L112465 73066
" />
</g>
<g style="fill:#000000; fill-opacity:0.0; 
stroke:#000000; stroke-width:39.3701; stroke-opacity:1; 
stroke-linecap:round; stroke-linejoin:round;">
</g>
<g style="fill:#000000; fill-opacity:0.0; 
stroke:#000000; stroke-width:59.0551; stroke-opacity:1; 
stroke-linecap:round; stroke-linejoin:round;">
<path d="M78911 76293
L78911 75703
L79051 75703
L79136 75731
L79192 75787
L79220 75843
L79248 75956
L79248 76040
L79220 76153
L79192 76209
L79136 76265
L79051 76293
L78911 76293
" />
<path d="M79754 76293
L79754 75984
L79726 75928
L79670 75899
L79557 75899
L79501 75928
" />
<path d="M79754 76265
L79698 76293
L79557 76293
L79501 76265
L79473 76209
L79473 76153
L79501 76096
L79557 76068
L79698 76068
L79754 76040
" />
<path d="M79951 75899
L80176 75899
" />
<path d="M80036 75703
L80036 76209
L80064 76265
L80120 76293
L80176 76293
" />
<path d="M80598 76265
L80542 76293
L80429 76293
L80373 76265
L80345 76209
L80345 75984
L80373 75928
L80429 75899
L80542 75899
L80598 75928
L80626 75984
L80626 76040
L80345 76096
" />
<path d="M80879 76237
L80907 76265
L80879 76293
L80851 76265
L80879 76237
L80879 76293
" />
<path d="M80879 75928
L80907 75956
L80879 75984
L80851 75956
L80879 75928
L80879 75984
" />
<path d="M81723 75703
L81779 75703
L81835 75731
L81863 75759
L81892 75815
L81920 75928
L81920 76068
L81892 76181
L81863 76237
L81835 76265
L81779 76293
L81723 76293
L81667 76265
L81638 76237
L81610 76181
L81582 76068
L81582 75928
L81610 75815
L81638 75759
L81667 75731
L81723 75703
" />
<path d="M82145 75759
L82173 75731
L82229 75703
L82370 75703
L82426 75731
L82454 75759
L82482 75815
L82482 75871
L82454 75956
L82117 76293
L82482 76293
" />
<path d="M82735 76237
L82763 76265
L82735 76293
L82707 76265
L82735 76237
L82735 76293
" />
<path d="M83326 76293
L82988 76293
" />
<path d="M83157 76293
L83157 75703
L83101 75787
L83045 75843
L82988 75871
" />
<path d="M83888 76293
L83551 76293
" />
<path d="M83719 76293
L83719 75703
L83663 75787
L83607 75843
L83551 75871
" />
<path d="M84141 76237
L84169 76265
L84141 76293
L84113 76265
L84141 76237
L84141 76293
" />
<path d="M84394 75759
L84422 75731
L84479 75703
L84619 75703
L84676 75731
L84704 75759
L84732 75815
L84732 75871
L84704 75956
L84366 76293
L84732 76293
" />
<path d="M85097 75703
L85154 75703
L85210 75731
L85238 75759
L85266 75815
L85294 75928
L85294 76068
L85266 76181
L85238 76237
L85210 76265
L85154 76293
L85097 76293
L85041 76265
L85013 76237
L84985 76181
L84957 76068
L84957 75928
L84985 75815
L85013 75759
L85041 75731
L85097 75703
" />
<path d="M85519 75759
L85547 75731
L85604 75703
L85744 75703
L85800 75731
L85829 75759
L85857 75815
L85857 75871
L85829 75956
L85491 76293
L85857 76293
" />
<path d="M86222 75703
L86278 75703
L86335 75731
L86363 75759
L86391 75815
L86419 75928
L86419 76068
L86391 76181
L86363 76237
L86335 76265
L86278 76293
L86222 76293
L86166 76265
L86138 76237
L86110 76181
L86082 76068
L86082 75928
L86110 75815
L86138 75759
L86166 75731
L86222 75703
" />
</g>
<g style="fill:#000000; fill-opacity:0.0; 
stroke:#000000; stroke-width:39.3701; stroke-opacity:1; 
stroke-linecap:round; stroke-linejoin:round;">
</g>
<g style="fill:#000000; fill-opacity:0.0; 
stroke:#000000; stroke-width:59.0551; stroke-opacity:1; 
stroke-linecap:round; stroke-linejoin:round;">
<path d="M69685 76577
L112205 76577
" />
</g>
<g style="fill:#000000; fill-opacity:0.0; 
stroke:#000000; stroke-width:39.3701; stroke-opacity:1; 
stroke-linecap:round; stroke-linejoin:round;">
</g>
<g style="fill:#000000; fill-opacity:0.0; 
stroke:#000000; stroke-width:59.0551; stroke-opacity:1; 
stroke-linecap:round; stroke-linejoin:round;">
<path d="M70249 77395
L70249 76805
" />
<path d="M70587 77395
L70334 77058
" />
<path d="M70587 76805
L70249 77142
" />
<path d="M70840 77395
L70840 77002
" />
<path d="M70840 76805
L70812 76833
L70840 76861
L70868 76833
L70840 76805
L70840 76861
" />
<path d="M71458 77339
L71430 77367
L71346 77395
L71290 77395
L71205 77367
L71149 77311
L71121 77255
L71093 77142
L71093 77058
L71121 76946
L71149 76889
L71205 76833
L71290 76805
L71346 76805
L71430 76833
L71458 76861
" />
<path d="M71965 77395
L71965 77086
L71937 77030
L71880 77002
L71768 77002
L71712 77030
" />
<path d="M71965 77367
L71908 77395
L71768 77395
L71712 77367
L71683 77311
L71683 77255
L71712 77199
L71768 77171
L71908 77171
L71965 77142
" />
<path d="M72499 77395
L72499 76805
" />
<path d="M72499 77367
L72443 77395
L72330 77395
L72274 77367
L72246 77339
L72218 77283
L72218 77114
L72246 77058
L72274 77030
L72330 77002
L72443 77002
L72499 77030
" />
<path d="M73230 77086
L73427 77086
" />
<path d="M73511 77395
L73230 77395
L73230 76805
L73511 76805
" />
<path d="M73764 77339
L73793 77367
L73764 77395
L73736 77367
L73764 77339
L73764 77395
" />
<path d="M74046 77395
L74046 76805
L74186 76805
L74271 76833
L74327 76889
L74355 76946
L74383 77058
L74383 77142
L74355 77255
L74327 77311
L74271 77367
L74186 77395
L74046 77395
" />
<path d="M74636 77339
L74664 77367
L74636 77395
L74608 77367
L74636 77339
L74636 77395
" />
<path d="M74889 77227
L75171 77227
" />
<path d="M74833 77395
L75030 76805
L75227 77395
" />
<path d="M75424 77339
L75452 77367
L75424 77395
L75395 77367
L75424 77339
L75424 77395
" />
<path d="M76605 77395
L76605 76805
" />
<path d="M76661 77171
L76830 77395
" />
<path d="M76830 77002
L76605 77227
" />
<path d="M77083 77395
L77083 77002
" />
<path d="M77083 76805
L77055 76833
L77083 76861
L77111 76833
L77083 76805
L77083 76861
" />
<path d="M77617 77367
L77561 77395
L77448 77395
L77392 77367
L77364 77339
L77336 77283
L77336 77114
L77364 77058
L77392 77030
L77448 77002
L77561 77002
L77617 77030
" />
<path d="M78123 77395
L78123 77086
L78095 77030
L78039 77002
L77926 77002
L77870 77030
" />
<path d="M78123 77367
L78067 77395
L77926 77395
L77870 77367
L77842 77311
L77842 77255
L77870 77199
L77926 77171
L78067 77171
L78123 77142
" />
<path d="M78658 77395
L78658 76805
" />
<path d="M78658 77367
L78601 77395
L78489 77395
L78433 77367
L78404 77339
L78376 77283
L78376 77114
L78404 77058
L78433 77030
L78489 77002
L78601 77002
L78658 77030
" />
<path d="M79557 77620
L79529 77592
L79473 77508
L79445 77452
L79417 77367
L79389 77227
L79389 77114
L79417 76974
L79445 76889
L79473 76833
L79529 76749
L79557 76721
" />
<path d="M80064 76805
L79782 76805
L79754 77086
L79782 77058
L79839 77030
L79979 77030
L80036 77058
L80064 77086
L80092 77142
L80092 77283
L80064 77339
L80036 77367
L79979 77395
L79839 77395
L79782 77367
L79754 77339
" />
<path d="M80345 77339
L80373 77367
L80345 77395
L80317 77367
L80345 77339
L80345 77395
" />
<path d="M80935 77395
L80598 77395
" />
<path d="M80767 77395
L80767 76805
L80710 76889
L80654 76946
L80598 76974
" />
<path d="M81188 77339
L81217 77367
L81188 77395
L81160 77367
L81188 77339
L81188 77395
" />
<path d="M81582 76805
L81638 76805
L81695 76833
L81723 76861
L81751 76917
L81779 77030
L81779 77171
L81751 77283
L81723 77339
L81695 77367
L81638 77395
L81582 77395
L81526 77367
L81498 77339
L81470 77283
L81442 77171
L81442 77030
L81470 76917
L81498 76861
L81526 76833
L81582 76805
" />
<path d="M81976 77620
L82004 77592
L82060 77508
L82088 77452
L82117 77367
L82145 77227
L82145 77114
L82117 76974
L82088 76889
L82060 76833
L82004 76749
L81976 76721
" />
<path d="M82426 77171
L82876 77171
" />
<path d="M83466 77395
L83129 77395
" />
<path d="M83298 77395
L83298 76805
L83241 76889
L83185 76946
L83129 76974
" />
</g>
<g style="fill:#000000; fill-opacity:0.0; 
stroke:#000000; stroke-width:39.3701; stroke-opacity:1; 
stroke-linecap:round; stroke-linejoin:round;">
</g>
<g style="fill:#000000; fill-opacity:0.0; 
stroke:#000000; stroke-width:59.0551; stroke-opacity:1; 
stroke-linecap:round; stroke-linejoin:round;">
<path d="M69685 75396
L112205 75396
" />
</g>
<g style="fill:#000000; fill-opacity:0.0; 
stroke:#000000; stroke-width:39.3701; stroke-opacity:1; 
stroke-linecap:round; stroke-linejoin:round;">
</g>
<g style="fill:#000000; fill-opacity:0.0; 
stroke:#000000; stroke-width:118.11; stroke-opacity:1; 
stroke-linecap:round; stroke-linejoin:round;">
<path d="M104099 76293
L103902 76012
" />
<path d="M103761 76293
L103761 75703
L103986 75703
L104042 75731
L104070 75759
L104099 75815
L104099 75899
L104070 75956
L104042 75984
L103986 76012
L103761 76012
" />
<path d="M104577 76265
L104520 76293
L104408 76293
L104352 76265
L104323 76209
L104323 75984
L104352 75928
L104408 75899
L104520 75899
L104577 75928
L104605 75984
L104605 76040
L104323 76096
" />
<path d="M104802 75899
L104942 76293
L105083 75899
" />
<path d="M105308 76237
L105336 76265
L105308 76293
L105280 76265
L105308 76237
L105308 76293
" />
<path d="M105308 75928
L105336 75956
L105308 75984
L105280 75956
L105308 75928
L105308 75984
" />
<path d="M105955 75703
L106151 76293
L106348 75703
" />
<path d="M106854 76293
L106517 76293
" />
<path d="M106686 76293
L106686 75703
L106629 75787
L106573 75843
L106517 75871
" />
<path d="M107108 76237
L107136 76265
L107108 76293
L107079 76265
L107108 76237
L107108 76293
" />
<path d="M107501 75703
L107557 75703
L107614 75731
L107642 75759
L107670 75815
L107698 75928
L107698 76068
L107670 76181
L107642 76237
L107614 76265
L107557 76293
L107501 76293
L107445 76265
L107417 76237
L107389 76181
L107361 76068
L107361 75928
L107389 75815
L107417 75759
L107445 75731
L107501 75703
" />
</g>
<g style="fill:#000000; fill-opacity:0.0; 
stroke:#000000; stroke-width:39.3701; stroke-opacity:1; 
stroke-linecap:round; stroke-linejoin:round;">
</g>
<g style="fill:#000000; fill-opacity:0.0; 
stroke:#000000; stroke-width:59.0551; stroke-opacity:1; 
stroke-linecap:round; stroke-linejoin:round;">
<path d="M70221 76265
L70305 76293
L70446 76293
L70502 76265
L70530 76237
L70559 76181
L70559 76124
L70530 76068
L70502 76040
L70446 76012
L70334 75984
L70277 75956
L70249 75928
L70221 75871
L70221 75815
L70249 75759
L70277 75731
L70334 75703
L70474 75703
L70559 75731
" />
<path d="M70812 76293
L70812 75899
" />
<path d="M70812 75703
L70784 75731
L70812 75759
L70840 75731
L70812 75703
L70812 75759
" />
<path d="M71037 75899
L71346 75899
L71037 76293
L71346 76293
" />
<path d="M71796 76265
L71740 76293
L71627 76293
L71571 76265
L71543 76209
L71543 75984
L71571 75928
L71627 75899
L71740 75899
L71796 75928
L71824 75984
L71824 76040
L71543 76096
" />
<path d="M72077 76237
L72105 76265
L72077 76293
L72049 76265
L72077 76237
L72077 76293
" />
<path d="M72077 75928
L72105 75956
L72077 75984
L72049 75956
L72077 75928
L72077 75984
" />
<path d="M72780 76124
L73061 76124
" />
<path d="M72724 76293
L72921 75703
L73118 76293
" />
<path d="M73568 75899
L73568 76293
" />
<path d="M73427 75674
L73286 76096
L73652 76096
" />
</g>
<g style="fill:#000000; fill-opacity:0.0; 
stroke:#000000; stroke-width:39.3701; stroke-opacity:1; 
stroke-linecap:round; stroke-linejoin:round;">
</g>
<g style="fill:#000000; fill-opacity:0.0; 
stroke:#000000; stroke-width:59.0551; stroke-opacity:1; 
stroke-linecap:round; stroke-linejoin:round;">
<path d="M103714 77395
L103714 76805
" />
<path d="M104248 77395
L104248 76805
" />
<path d="M104248 77367
L104192 77395
L104079 77395
L104023 77367
L103995 77339
L103967 77283
L103967 77114
L103995 77058
L104023 77030
L104079 77002
L104192 77002
L104248 77030
" />
<path d="M104529 77339
L104557 77367
L104529 77395
L104501 77367
L104529 77339
L104529 77395
" />
<path d="M104529 77030
L104557 77058
L104529 77086
L104501 77058
L104529 77030
L104529 77086
" />
<path d="M105570 77395
L105232 77395
" />
<path d="M105401 77395
L105401 76805
L105345 76889
L105289 76946
L105232 76974
" />
<path d="M106245 76777
L105739 77536
" />
<path d="M106751 77395
L106413 77395
" />
<path d="M106582 77395
L106582 76805
L106526 76889
L106470 76946
L106413 76974
" />
</g>
<g style="fill:#000000; fill-opacity:0.0; 
stroke:#000000; stroke-width:39.3701; stroke-opacity:1; 
stroke-linecap:round; stroke-linejoin:round;">
</g>
<g style="fill:#000000; fill-opacity:0.0; 
stroke:#000000; stroke-width:59.0551; stroke-opacity:1; 
stroke-linecap:round; stroke-linejoin:round;">
<path d="M69685 73821
L112205 73821
" />
</g>
<g style="fill:#000000; fill-opacity:0.0; 
stroke:#000000; stroke-width:39.3701; stroke-opacity:1; 
stroke-linecap:round; stroke-linejoin:round;">
</g>
<g style="fill:#000000; fill-opacity:0.0; 
stroke:#000000; stroke-width:157.48; stroke-opacity:1; 
stroke-linecap:round; stroke-linejoin:round;">
<path d="M70360 74099
L70810 74099
" />
<path d="M70486 74886
L70585 74099
" />
<path d="M70974 74886
L71039 74361
" />
<path d="M71072 74099
L71030 74136
L71063 74174
L71105 74136
L71072 74099
L71063 74174
" />
<path d="M71302 74361
L71602 74361
" />
<path d="M71447 74099
L71363 74774
L71391 74849
L71461 74886
L71536 74886
" />
<path d="M71911 74886
L71841 74849
L71813 74774
L71897 74099
" />
<path d="M72516 74849
L72436 74886
L72286 74886
L72216 74849
L72187 74774
L72225 74474
L72272 74399
L72352 74361
L72501 74361
L72572 74399
L72600 74474
L72591 74549
L72206 74624
" />
<path d="M72895 74811
L72928 74849
L72886 74886
L72853 74849
L72895 74811
L72886 74886
" />
<path d="M72947 74399
L72980 74436
L72937 74474
L72905 74436
L72947 74399
L72937 74474
" />
<path d="M73912 74174
L73954 74136
L74034 74099
L74222 74099
L74292 74136
L74325 74174
L74353 74249
L74343 74324
L74292 74436
L73786 74886
L74273 74886
" />
<path d="M75553 74849
L75473 74886
L75323 74886
L75253 74849
L75220 74811
L75192 74736
L75220 74511
L75267 74436
L75309 74399
L75389 74361
L75539 74361
L75609 74399
" />
<path d="M76223 74886
L76274 74474
L76246 74399
L76176 74361
L76026 74361
L75946 74399
" />
<path d="M76228 74849
L76148 74886
L75960 74886
L75890 74849
L75862 74774
L75871 74699
L75918 74624
L75998 74586
L76185 74586
L76265 74549
" />
<path d="M76565 74849
L76635 74886
L76785 74886
L76865 74849
L76912 74774
L76917 74736
L76888 74661
L76818 74624
L76706 74624
L76635 74586
L76607 74511
L76612 74474
L76659 74399
L76738 74361
L76851 74361
L76921 74399
" />
<path d="M77577 74849
L77498 74886
L77348 74886
L77277 74849
L77245 74811
L77217 74736
L77245 74511
L77292 74436
L77334 74399
L77413 74361
L77563 74361
L77634 74399
" />
<path d="M78248 74886
L78299 74474
L78271 74399
L78201 74361
L78051 74361
L77971 74399
" />
<path d="M78252 74849
L78173 74886
L77985 74886
L77915 74849
L77887 74774
L77896 74699
L77943 74624
L78023 74586
L78210 74586
L78290 74549
" />
<path d="M78960 74886
L79058 74099
" />
<path d="M78965 74849
L78885 74886
L78735 74886
L78665 74849
L78632 74811
L78604 74736
L78632 74511
L78679 74436
L78721 74399
L78801 74361
L78951 74361
L79021 74399
" />
<path d="M79640 74849
L79560 74886
L79410 74886
L79340 74849
L79312 74774
L79349 74474
L79396 74399
L79476 74361
L79626 74361
L79696 74399
L79724 74474
L79715 74549
L79330 74624
" />
<path d="M80947 74886
L80999 74474
L80971 74399
L80900 74361
L80750 74361
L80671 74399
" />
<path d="M80952 74849
L80872 74886
L80685 74886
L80615 74849
L80586 74774
L80596 74699
L80643 74624
L80722 74586
L80910 74586
L80989 74549
" />
<path d="M81725 74361
L81660 74886
" />
<path d="M81388 74361
L81336 74774
L81364 74849
L81435 74886
L81547 74886
L81627 74849
L81669 74811
" />
<path d="M82372 74886
L82471 74099
" />
<path d="M82377 74849
L82297 74886
L82147 74886
L82077 74849
L82044 74811
L82016 74736
L82044 74511
L82091 74436
L82133 74399
L82213 74361
L82363 74361
L82433 74399
" />
<path d="M82747 74886
L82813 74361
" />
<path d="M82846 74099
L82803 74136
L82836 74174
L82878 74136
L82846 74099
L82836 74174
" />
<path d="M83235 74886
L83164 74849
L83131 74811
L83103 74736
L83131 74511
L83178 74436
L83220 74399
L83300 74361
L83413 74361
L83483 74399
L83516 74436
L83544 74511
L83516 74736
L83469 74811
L83427 74849
L83347 74886
L83235 74886
" />
<path d="M84772 74886
L84823 74474
L84795 74399
L84725 74361
L84575 74361
L84495 74399
" />
<path d="M84777 74849
L84697 74886
L84509 74886
L84439 74849
L84411 74774
L84420 74699
L84467 74624
L84547 74586
L84734 74586
L84814 74549
" />
<path d="M85147 74886
L85212 74361
" />
<path d="M85203 74436
L85245 74399
L85325 74361
L85437 74361
L85508 74399
L85536 74474
L85484 74886
" />
<path d="M85536 74474
L85583 74399
L85662 74361
L85775 74361
L85845 74399
L85873 74474
L85822 74886
" />
<path d="M86262 74361
L86164 75149
" />
<path d="M86258 74399
L86337 74361
L86487 74361
L86558 74399
L86590 74436
L86618 74511
L86590 74736
L86543 74811
L86501 74849
L86422 74886
L86272 74886
L86201 74849
" />
<path d="M87022 74886
L86951 74849
L86923 74774
L87007 74099
" />
<path d="M87322 74886
L87387 74361
" />
<path d="M87420 74099
L87378 74136
L87411 74174
L87453 74136
L87420 74099
L87411 74174
" />
<path d="M87650 74361
L87950 74361
" />
<path d="M87696 74886
L87781 74211
L87828 74136
L87907 74099
L87982 74099
" />
<path d="M88146 74886
L88212 74361
" />
<path d="M88245 74099
L88203 74136
L88235 74174
L88278 74136
L88245 74099
L88235 74174
" />
<path d="M88826 74849
L88746 74886
L88596 74886
L88526 74849
L88498 74774
L88535 74474
L88582 74399
L88662 74361
L88812 74361
L88882 74399
L88910 74474
L88901 74549
L88517 74624
" />
<path d="M89196 74886
L89262 74361
" />
<path d="M89243 74511
L89290 74436
L89332 74399
L89412 74361
L89487 74361
" />
</g>
<g style="fill:#000000; fill-opacity:0.0; 
stroke:#000000; stroke-width:39.3701; stroke-opacity:1; 
stroke-linecap:round; stroke-linejoin:round;">
</g>
<g style="fill:#000000; fill-opacity:0.0; 
stroke:#000000; stroke-width:59.0551; stroke-opacity:1; 
stroke-linecap:round; stroke-linejoin:round;">
<path d="M70446 73070
L70249 73070
" />
<path d="M70249 73380
L70249 72789
L70530 72789
" />
<path d="M70755 73380
L70755 72986
" />
<path d="M70755 72789
L70727 72817
L70755 72845
L70784 72817
L70755 72789
L70755 72845
" />
<path d="M71121 73380
L71065 73352
L71037 73295
L71037 72789
" />
<path d="M71571 73352
L71515 73380
L71402 73380
L71346 73352
L71318 73295
L71318 73070
L71346 73014
L71402 72986
L71515 72986
L71571 73014
L71599 73070
L71599 73127
L71318 73183
" />
<path d="M71852 73323
L71880 73352
L71852 73380
L71824 73352
L71852 73323
L71852 73380
" />
<path d="M71852 73014
L71880 73042
L71852 73070
L71824 73042
L71852 73014
L71852 73070
" />
<path d="M72555 73352
L72640 73380
L72780 73380
L72836 73352
L72865 73323
L72893 73267
L72893 73211
L72865 73155
L72836 73127
L72780 73099
L72668 73070
L72611 73042
L72583 73014
L72555 72958
L72555 72902
L72583 72845
L72611 72817
L72668 72789
L72808 72789
L72893 72817
" />
<path d="M73146 73380
L73146 72986
" />
<path d="M73146 72789
L73118 72817
L73146 72845
L73174 72817
L73146 72789
L73146 72845
" />
<path d="M73427 72986
L73427 73380
" />
<path d="M73427 73042
L73455 73014
L73511 72986
L73596 72986
L73652 73014
L73680 73070
L73680 73380
" />
<path d="M74214 72986
L74214 73464
L74186 73520
L74158 73548
L74102 73577
L74018 73577
L73961 73548
" />
<path d="M74214 73352
L74158 73380
L74046 73380
L73989 73352
L73961 73323
L73933 73267
L73933 73099
L73961 73042
L73989 73014
L74046 72986
L74158 72986
L74214 73014
" />
<path d="M74580 73380
L74524 73352
L74496 73295
L74496 72789
" />
<path d="M75030 73352
L74974 73380
L74861 73380
L74805 73352
L74777 73295
L74777 73070
L74805 73014
L74861 72986
L74974 72986
L75030 73014
L75058 73070
L75058 73127
L74777 73183
" />
<path d="M75171 73436
L75620 73436
" />
<path d="M75677 72986
L75902 72986
" />
<path d="M75761 72789
L75761 73295
L75789 73352
L75845 73380
L75902 73380
" />
<path d="M76099 73380
L76099 72986
" />
<path d="M76099 73099
L76127 73042
L76155 73014
L76211 72986
L76267 72986
" />
<path d="M76717 73380
L76717 73070
L76689 73014
L76633 72986
L76520 72986
L76464 73014
" />
<path d="M76717 73352
L76661 73380
L76520 73380
L76464 73352
L76436 73295
L76436 73239
L76464 73183
L76520 73155
L76661 73155
L76717 73127
" />
<path d="M76998 72986
L76998 73380
" />
<path d="M76998 73042
L77027 73014
L77083 72986
L77167 72986
L77223 73014
L77251 73070
L77251 73380
" />
<path d="M77505 73352
L77561 73380
L77673 73380
L77730 73352
L77758 73295
L77758 73267
L77730 73211
L77673 73183
L77589 73183
L77533 73155
L77505 73099
L77505 73070
L77533 73014
L77589 72986
L77673 72986
L77730 73014
" />
<path d="M78011 73380
L78011 72986
" />
<path d="M78011 72789
L77983 72817
L78011 72845
L78039 72817
L78011 72789
L78011 72845
" />
<path d="M78264 73352
L78320 73380
L78433 73380
L78489 73352
L78517 73295
L78517 73267
L78489 73211
L78433 73183
L78348 73183
L78292 73155
L78264 73099
L78264 73070
L78292 73014
L78348 72986
L78433 72986
L78489 73014
" />
<path d="M78686 72986
L78911 72986
" />
<path d="M78770 72789
L78770 73295
L78798 73352
L78854 73380
L78911 73380
" />
<path d="M79192 73380
L79136 73352
L79108 73323
L79079 73267
L79079 73099
L79108 73042
L79136 73014
L79192 72986
L79276 72986
L79332 73014
L79361 73042
L79389 73099
L79389 73267
L79361 73323
L79332 73352
L79276 73380
L79192 73380
" />
<path d="M79642 73380
L79642 72986
" />
<path d="M79642 73099
L79670 73042
L79698 73014
L79754 72986
L79811 72986
" />
<path d="M79867 73436
L80317 73436
" />
<path d="M80429 73211
L80710 73211
" />
<path d="M80373 73380
L80570 72789
L80767 73380
" />
<path d="M80964 73380
L80964 72789
L81160 73211
L81357 72789
L81357 73380
" />
<path d="M81638 73380
L81638 72789
L81863 72789
L81920 72817
L81948 72845
L81976 72902
L81976 72986
L81948 73042
L81920 73070
L81863 73099
L81638 73099
" />
<path d="M82229 73323
L82257 73352
L82229 73380
L82201 73352
L82229 73323
L82229 73380
" />
<path d="M82510 73380
L82510 72789
" />
<path d="M82566 73155
L82735 73380
" />
<path d="M82735 72986
L82510 73211
" />
<path d="M82988 73380
L82988 72986
" />
<path d="M82988 72789
L82960 72817
L82988 72845
L83016 72817
L82988 72789
L82988 72845
" />
<path d="M83523 73352
L83466 73380
L83354 73380
L83298 73352
L83269 73323
L83241 73267
L83241 73099
L83269 73042
L83298 73014
L83354 72986
L83466 72986
L83523 73014
" />
<path d="M84029 73380
L84029 73070
L84001 73014
L83944 72986
L83832 72986
L83776 73014
" />
<path d="M84029 73352
L83973 73380
L83832 73380
L83776 73352
L83748 73295
L83748 73239
L83776 73183
L83832 73155
L83973 73155
L84029 73127
" />
<path d="M84563 73380
L84563 72789
" />
<path d="M84563 73352
L84507 73380
L84394 73380
L84338 73352
L84310 73323
L84282 73267
L84282 73099
L84310 73042
L84338 73014
L84394 72986
L84507 72986
L84563 73014
" />
<path d="M84704 73436
L85154 73436
" />
<path d="M85294 72986
L85294 73577
" />
<path d="M85294 73014
L85350 72986
L85463 72986
L85519 73014
L85547 73042
L85575 73099
L85575 73267
L85547 73323
L85519 73352
L85463 73380
L85350 73380
L85294 73352
" />
<path d="M86082 73352
L86025 73380
L85913 73380
L85857 73352
L85829 73323
L85800 73267
L85800 73099
L85829 73042
L85857 73014
L85913 72986
L86025 72986
L86082 73014
" />
<path d="M86335 73380
L86335 72789
" />
<path d="M86335 73014
L86391 72986
L86503 72986
L86560 73014
L86588 73042
L86616 73099
L86616 73267
L86588 73323
L86560 73352
L86503 73380
L86391 73380
L86335 73352
" />
</g>
<g style="fill:#000000; fill-opacity:0.0; 
stroke:#000000; stroke-width:39.3701; stroke-opacity:1; 
stroke-linecap:round; stroke-linejoin:round;">
</g>
<g style="fill:#000000; fill-opacity:0.0; 
stroke:#000000; stroke-width:59.0551; stroke-opacity:1; 
stroke-linecap:round; stroke-linejoin:round;">
<path d="M69685 71459
L112205 71459
" />
</g>
<g style="fill:#000000; fill-opacity:0.0; 
stroke:#000000; stroke-width:39.3701; stroke-opacity:1; 
stroke-linecap:round; stroke-linejoin:round;">
</g>
<g style="fill:#000000; fill-opacity:0.0; 
stroke:#000000; stroke-width:59.0551; stroke-opacity:1; 
stroke-linecap:round; stroke-linejoin:round;">
<path d="M70221 72289
L70305 72317
L70446 72317
L70502 72289
L70530 72260
L70559 72204
L70559 72148
L70530 72092
L70502 72064
L70446 72036
L70334 72007
L70277 71979
L70249 71951
L70221 71895
L70221 71839
L70249 71782
L70277 71754
L70334 71726
L70474 71726
L70559 71754
" />
<path d="M70812 72317
L70812 71726
" />
<path d="M71065 72317
L71065 72007
L71037 71951
L70980 71923
L70896 71923
L70840 71951
L70812 71979
" />
<path d="M71571 72289
L71515 72317
L71402 72317
L71346 72289
L71318 72232
L71318 72007
L71346 71951
L71402 71923
L71515 71923
L71571 71951
L71599 72007
L71599 72064
L71318 72120
" />
<path d="M72077 72289
L72021 72317
L71908 72317
L71852 72289
L71824 72232
L71824 72007
L71852 71951
L71908 71923
L72021 71923
L72077 71951
L72105 72007
L72105 72064
L71824 72120
" />
<path d="M72274 71923
L72499 71923
" />
<path d="M72358 71726
L72358 72232
L72386 72289
L72443 72317
L72499 72317
" />
<path d="M72696 72260
L72724 72289
L72696 72317
L72668 72289
L72696 72260
L72696 72317
" />
<path d="M72696 71951
L72724 71979
L72696 72007
L72668 71979
L72696 71951
L72696 72007
" />
</g>
<g style="fill:#000000; fill-opacity:0.0; 
stroke:#000000; stroke-width:39.3701; stroke-opacity:1; 
stroke-linecap:round; stroke-linejoin:round;">
</g>
<g style="fill:#000000; fill-opacity:0.0; 
stroke:#000000; stroke-width:118.11; stroke-opacity:1; 
stroke-linecap:round; stroke-linejoin:round;">
<path d="M70212 70545
L70409 71136
L70606 70545
" />
<path d="M71028 71108
L70971 71136
L70859 71136
L70803 71108
L70775 71051
L70775 70826
L70803 70770
L70859 70742
L70971 70742
L71028 70770
L71056 70826
L71056 70883
L70775 70939
" />
<path d="M71281 70967
L71562 70967
" />
<path d="M71224 71136
L71421 70545
L71618 71136
" />
</g>
<g style="fill:#000000; fill-opacity:0.0; 
stroke:#000000; stroke-width:39.3701; stroke-opacity:1; 
stroke-linecap:round; stroke-linejoin:round;">
</g>
<g style="fill:#000000; fill-opacity:0.0; 
stroke:#000000; stroke-width:59.0551; stroke-opacity:1; 
stroke-linecap:round; stroke-linejoin:round;">
<path d="M70249 69955
L70249 69364
L70474 69364
L70530 69392
L70559 69420
L70587 69476
L70587 69561
L70559 69617
L70530 69645
L70474 69673
L70249 69673
" />
<path d="M71177 69898
L71149 69926
L71065 69955
L71009 69955
L70924 69926
L70868 69870
L70840 69814
L70812 69701
L70812 69617
L70840 69505
L70868 69448
L70924 69392
L71009 69364
L71065 69364
L71149 69392
L71177 69420
" />
<path d="M71627 69645
L71712 69673
L71740 69701
L71768 69758
L71768 69842
L71740 69898
L71712 69926
L71655 69955
L71430 69955
L71430 69364
L71627 69364
L71683 69392
L71712 69420
L71740 69476
L71740 69533
L71712 69589
L71683 69617
L71627 69645
L71430 69645
" />
<path d="M71880 70011
L72330 70011
" />
<path d="M72808 69898
L72780 69926
L72696 69955
L72640 69955
L72555 69926
L72499 69870
L72471 69814
L72443 69701
L72443 69617
L72471 69505
L72499 69448
L72555 69392
L72640 69364
L72696 69364
L72780 69392
L72808 69420
" />
<path d="M73033 69786
L73314 69786
" />
<path d="M72977 69955
L73174 69364
L73371 69955
" />
<path d="M73568 69955
L73568 69364
L73708 69364
L73793 69392
L73849 69448
L73877 69505
L73905 69617
L73905 69701
L73877 69814
L73849 69870
L73793 69926
L73708 69955
L73568 69955
" />
<path d="M74608 69955
L74608 69364
" />
<path d="M74664 69730
L74833 69955
" />
<path d="M74833 69561
L74608 69786
" />
<path d="M75339 69561
L75339 69955
" />
<path d="M75086 69561
L75086 69870
L75114 69926
L75171 69955
L75255 69955
L75311 69926
L75339 69898
" />
<path d="M75620 69955
L75620 69561
" />
<path d="M75620 69673
L75649 69617
L75677 69589
L75733 69561
L75789 69561
" />
<path d="M75958 69926
L76014 69955
L76127 69955
L76183 69926
L76211 69870
L76211 69842
L76183 69786
L76127 69758
L76042 69758
L75986 69730
L75958 69673
L75958 69645
L75986 69589
L76042 69561
L76127 69561
L76183 69589
" />
<path d="M76436 69926
L76492 69955
L76605 69955
L76661 69926
L76689 69870
L76689 69842
L76661 69786
L76605 69758
L76520 69758
L76464 69730
L76436 69673
L76436 69645
L76464 69589
L76520 69561
L76605 69561
L76661 69589
" />
</g>
<g style="fill:#000000; fill-opacity:0.0; 
stroke:#000000; stroke-width:39.3701; stroke-opacity:1; 
stroke-linecap:round; stroke-linejoin:round;">
</g>
<g style="fill:#000000; fill-opacity:0.0; 
stroke:#000000; stroke-width:59.0551; stroke-opacity:1; 
stroke-linecap:round; stroke-linejoin:round;">
<path d="M70587 68773
L70390 68492
" />
<path d="M70249 68773
L70249 68183
L70474 68183
L70530 68211
L70559 68239
L70587 68295
L70587 68380
L70559 68436
L70530 68464
L70474 68492
L70249 68492
" />
<path d="M70924 68773
L70868 68745
L70840 68717
L70812 68661
L70812 68492
L70840 68436
L70868 68408
L70924 68380
L71009 68380
L71065 68408
L71093 68436
L71121 68492
L71121 68661
L71093 68717
L71065 68745
L71009 68773
L70924 68773
" />
<path d="M71627 68773
L71627 68183
" />
<path d="M71627 68745
L71571 68773
L71458 68773
L71402 68745
L71374 68717
L71346 68661
L71346 68492
L71374 68436
L71402 68408
L71458 68380
L71571 68380
L71627 68408
" />
<path d="M71908 68773
L71908 68380
" />
<path d="M71908 68492
L71937 68436
L71965 68408
L72021 68380
L72077 68380
" />
<path d="M72274 68773
L72274 68380
" />
<path d="M72274 68183
L72246 68211
L72274 68239
L72302 68211
L72274 68183
L72274 68239
" />
<path d="M72808 68380
L72808 68858
L72780 68914
L72752 68942
L72696 68970
L72611 68970
L72555 68942
" />
<path d="M72808 68745
L72752 68773
L72640 68773
L72583 68745
L72555 68717
L72527 68661
L72527 68492
L72555 68436
L72583 68408
L72640 68380
L72752 68380
L72808 68408
" />
<path d="M73174 68773
L73118 68745
L73090 68717
L73061 68661
L73061 68492
L73090 68436
L73118 68408
L73174 68380
L73258 68380
L73314 68408
L73343 68436
L73371 68492
L73371 68661
L73343 68717
L73314 68745
L73258 68773
L73174 68773
" />
<path d="M74355 68773
L74074 68773
L74074 68183
" />
<path d="M74805 68773
L74805 68464
L74777 68408
L74721 68380
L74608 68380
L74552 68408
" />
<path d="M74805 68745
L74749 68773
L74608 68773
L74552 68745
L74524 68689
L74524 68633
L74552 68577
L74608 68548
L74749 68548
L74805 68520
" />
<path d="M75339 68380
L75339 68773
" />
<path d="M75086 68380
L75086 68689
L75114 68745
L75171 68773
L75255 68773
L75311 68745
L75339 68717
" />
<path d="M75620 68773
L75620 68380
" />
<path d="M75620 68492
L75649 68436
L75677 68408
L75733 68380
L75789 68380
" />
<path d="M75986 68773
L75986 68380
" />
<path d="M75986 68183
L75958 68211
L75986 68239
L76014 68211
L75986 68183
L75986 68239
" />
<path d="M76267 68380
L76267 68773
" />
<path d="M76267 68436
L76295 68408
L76352 68380
L76436 68380
L76492 68408
L76520 68464
L76520 68773
" />
<path d="M76886 68773
L76830 68745
L76802 68717
L76773 68661
L76773 68492
L76802 68436
L76830 68408
L76886 68380
L76970 68380
L77027 68408
L77055 68436
L77083 68492
L77083 68661
L77055 68717
L77027 68745
L76970 68773
L76886 68773
" />
<path d="M77280 68380
L77420 68773
L77561 68380
" />
<path d="M77786 68773
L77786 68380
" />
<path d="M77786 68183
L77758 68211
L77786 68239
L77814 68211
L77786 68183
L77786 68239
" />
<path d="M78320 68745
L78264 68773
L78151 68773
L78095 68745
L78067 68717
L78039 68661
L78039 68492
L78067 68436
L78095 68408
L78151 68380
L78264 68380
L78320 68408
" />
<path d="M78095 68155
L78208 68239
L78320 68155
" />
<path d="M78545 68745
L78601 68773
L78714 68773
L78770 68745
L78798 68689
L78798 68661
L78770 68605
L78714 68577
L78629 68577
L78573 68548
L78545 68492
L78545 68464
L78573 68408
L78629 68380
L78714 68380
L78770 68408
" />
</g>
<g style="fill:#000000; fill-opacity:0.0; 
stroke:#000000; stroke-width:39.3701; stroke-opacity:1; 
stroke-linecap:round; stroke-linejoin:round;">
</g>
<g style="fill:#000000; fill-opacity:0.0; 
stroke:#000000; stroke-width:59.0551; stroke-opacity:1; 
stroke-linecap:round; stroke-linejoin:round;">
<path d="M70221 67424
L70502 67424
" />
<path d="M70165 67592
L70362 67002
L70559 67592
" />
<path d="M71009 67199
L71009 67592
" />
<path d="M70755 67199
L70755 67508
L70784 67564
L70840 67592
L70924 67592
L70980 67564
L71009 67536
" />
<path d="M71205 67199
L71430 67199
" />
<path d="M71290 67002
L71290 67508
L71318 67564
L71374 67592
L71430 67592
" />
<path d="M71712 67592
L71655 67564
L71627 67536
L71599 67480
L71599 67311
L71627 67255
L71655 67227
L71712 67199
L71796 67199
L71852 67227
L71880 67255
L71908 67311
L71908 67480
L71880 67536
L71852 67564
L71796 67592
L71712 67592
" />
<path d="M72162 67592
L72162 67199
" />
<path d="M72162 67311
L72190 67255
L72218 67227
L72274 67199
L72330 67199
" />
<path d="M72499 67564
L72555 67592
L72668 67592
L72724 67564
L72752 67508
L72752 67480
L72724 67424
L72668 67395
L72583 67395
L72527 67367
L72499 67311
L72499 67283
L72527 67227
L72583 67199
L72668 67199
L72724 67227
" />
</g>
<g style="fill:#000000; fill-opacity:0.0; 
stroke:#000000; stroke-width:39.3701; stroke-opacity:1; 
stroke-linecap:round; stroke-linejoin:round;">
</g>
<g style="fill:#000000; fill-opacity:0.0; 
stroke:#000000; stroke-width:59.0551; stroke-opacity:1; 
stroke-linecap:round; stroke-linejoin:round;">
<path d="M77559 75396
L77559 76577
" />
</g>
<g style="fill:#000000; fill-opacity:0.0; 
stroke:#000000; stroke-width:39.3701; stroke-opacity:1; 
stroke-linecap:round; stroke-linejoin:round;">
</g>
<g style="fill:#000000; fill-opacity:0.0; 
stroke:#000000; stroke-width:59.0551; stroke-opacity:1; 
stroke-linecap:round; stroke-linejoin:round;">
<path d="M102756 75396
L102756 77955
" />
<g >
</g>
<g style="fill:#840000; fill-opacity:0.0; 
stroke:#840000; stroke-width:59.0551; stroke-opacity:1; 
stroke-linecap:round; stroke-linejoin:round;">
</g>
<g style="fill:#840000; fill-opacity:0.0; 
stroke:#840000; stroke-width:0; stroke-opacity:1; 
stroke-linecap:round; stroke-linejoin:round;">
</g>
<g style="fill:#840000; fill-opacity:1.0; 
stroke:#840000; stroke-width:0; stroke-opacity:1; 
stroke-linecap:round; stroke-linejoin:round;">
<path style="fill:#840000; fill-opacity:1.0; 
stroke:#840000; stroke-width:0; stroke-opacity:1; 
stroke-linecap:round; stroke-linejoin:round;fill-rule:evenodd;"
d="M 45284,45563
45292,45564
45301,45566
45309,45569
45316,45573
45323,45577
45330,45582
45336,45588
45342,45594
45347,45601
45352,45608
45355,45616
45358,45624
45360,45632
45361,45640
45362,45649
45362,45850
45361,45859
45360,45867
45358,45875
45355,45883
45352,45891
45347,45898
45342,45905
45336,45911
45330,45917
45323,45922
45316,45926
45309,45930
45301,45933
45292,45935
45284,45936
45276,45937
45103,45937
45095,45936
45087,45935
45078,45933
45070,45930
45063,45926
45055,45922
45049,45917
45042,45911
45037,45905
45032,45898
45027,45891
45024,45883
45021,45875
45019,45867
45018,45859
45017,45850
45017,45649
45018,45640
45019,45632
45021,45624
45024,45616
45027,45608
45032,45601
45037,45594
45042,45588
45049,45582
45055,45577
45063,45573
45070,45569
45078,45566
45087,45564
45095,45563
45103,45562
45276,45562
45284,45563
Z" /> 
<path style="fill:#840000; fill-opacity:1.0; 
stroke:#840000; stroke-width:0; stroke-opacity:1; 
stroke-linecap:round; stroke-linejoin:round;fill-rule:evenodd;"
d="M 45904,45563
45912,45564
45921,45566
45929,45569
45936,45573
45944,45577
45950,45582
45957,45588
45962,45594
45967,45601
45972,45608
45975,45616
45978,45624
45980,45632
45981,45640
45982,45649
45982,45850
45981,45859
45980,45867
45978,45875
45975,45883
45972,45891
45967,45898
45962,45905
45957,45911
45950,45917
45944,45922
45936,45926
45929,45930
45921,45933
45912,45935
45904,45936
45896,45937
45723,45937
45715,45936
45707,45935
45698,45933
45690,45930
45683,45926
45676,45922
45669,45917
45663,45911
45657,45905
45652,45898
45647,45891
45644,45883
45641,45875
45639,45867
45638,45859
45637,45850
45637,45649
45638,45640
45639,45632
45641,45624
45644,45616
45647,45608
45652,45601
45657,45594
45663,45588
45669,45582
45676,45577
45683,45573
45690,45569
45698,45566
45707,45564
45715,45563
45723,45562
45896,45562
45904,45563
Z" /> 
</g>
<g >
<path style="fill:#840000; fill-opacity:1.0; 
stroke:#840000; stroke-width:0; stroke-opacity:1; 
stroke-linecap:round; stroke-linejoin:round;fill-rule:evenodd;"
d="M 45284,47063
45292,47064
45301,47066
45309,47069
45316,47073
45323,47077
45330,47082
45336,47088
45342,47094
45347,47101
45352,47108
45355,47116
45358,47124
45360,47132
45361,47140
45362,47149
45362,47350
45361,47359
45360,47367
45358,47375
45355,47383
45352,47391
45347,47398
45342,47405
45336,47411
45330,47417
45323,47422
45316,47426
45309,47430
45301,47433
45292,47435
45284,47436
45276,47437
45103,47437
45095,47436
45087,47435
45078,47433
45070,47430
45063,47426
45055,47422
45049,47417
45042,47411
45037,47405
45032,47398
45027,47391
45024,47383
45021,47375
45019,47367
45018,47359
45017,47350
45017,47149
45018,47140
45019,47132
45021,47124
45024,47116
45027,47108
45032,47101
45037,47094
45042,47088
45049,47082
45055,47077
45063,47073
45070,47069
45078,47066
45087,47064
45095,47063
45103,47062
45276,47062
45284,47063
Z" /> 
<path style="fill:#840000; fill-opacity:1.0; 
stroke:#840000; stroke-width:0; stroke-opacity:1; 
stroke-linecap:round; stroke-linejoin:round;fill-rule:evenodd;"
d="M 45904,47063
45912,47064
45921,47066
45929,47069
45936,47073
45944,47077
45950,47082
45957,47088
45962,47094
45967,47101
45972,47108
45975,47116
45978,47124
45980,47132
45981,47140
45982,47149
45982,47350
45981,47359
45980,47367
45978,47375
45975,47383
45972,47391
45967,47398
45962,47405
45957,47411
45950,47417
45944,47422
45936,47426
45929,47430
45921,47433
45912,47435
45904,47436
45896,47437
45723,47437
45715,47436
45707,47435
45698,47433
45690,47430
45683,47426
45676,47422
45669,47417
45663,47411
45657,47405
45652,47398
45647,47391
45644,47383
45641,47375
45639,47367
45638,47359
45637,47350
45637,47149
45638,47140
45639,47132
45641,47124
45644,47116
45647,47108
45652,47101
45657,47094
45663,47088
45669,47082
45676,47077
45683,47073
45690,47069
45698,47066
45707,47064
45715,47063
45723,47062
45896,47062
45904,47063
Z" /> 
</g>
<g >
<path style="fill:#840000; fill-opacity:1.0; 
stroke:#840000; stroke-width:0; stroke-opacity:1; 
stroke-linecap:round; stroke-linejoin:round;fill-rule:evenodd;"
d="M 45904,46313
45912,46314
45921,46316
45929,46319
45936,46323
45944,46327
45950,46332
45957,46338
45962,46344
45967,46351
45972,46358
45975,46366
45978,46374
45980,46382
45981,46390
45982,46399
45982,46600
45981,46609
45980,46617
45978,46625
45975,46633
45972,46641
45967,46648
45962,46655
45957,46661
45950,46667
45944,46672
45936,46676
45929,46680
45921,46683
45912,46685
45904,46686
45896,46687
45723,46687
45715,46686
45707,46685
45698,46683
45690,46680
45683,46676
45676,46672
45669,46667
45663,46661
45657,46655
45652,46648
45647,46641
45644,46633
45641,46625
45639,46617
45638,46609
45637,46600
45637,46399
45638,46390
45639,46382
45641,46374
45644,46366
45647,46358
45652,46351
45657,46344
45663,46338
45669,46332
45676,46327
45683,46323
45690,46319
45698,46316
45707,46314
45715,46313
45723,46312
45896,46312
45904,46313
Z" /> 
<path style="fill:#840000; fill-opacity:1.0; 
stroke:#840000; stroke-width:0; stroke-opacity:1; 
stroke-linecap:round; stroke-linejoin:round;fill-rule:evenodd;"
d="M 45284,46313
45292,46314
45301,46316
45309,46319
45316,46323
45323,46327
45330,46332
45336,46338
45342,46344
45347,46351
45352,46358
45355,46366
45358,46374
45360,46382
45361,46390
45362,46399
45362,46600
45361,46609
45360,46617
45358,46625
45355,46633
45352,46641
45347,46648
45342,46655
45336,46661
45330,46667
45323,46672
45316,46676
45309,46680
45301,46683
45292,46685
45284,46686
45276,46687
45103,46687
45095,46686
45087,46685
45078,46683
45070,46680
45063,46676
45055,46672
45049,46667
45042,46661
45037,46655
45032,46648
45027,46641
45024,46633
45021,46625
45019,46617
45018,46609
45017,46600
45017,46399
45018,46390
45019,46382
45021,46374
45024,46366
45027,46358
45032,46351
45037,46344
45042,46338
45049,46332
45055,46327
45063,46323
45070,46319
45078,46316
45087,46314
45095,46313
45103,46312
45276,46312
45284,46313
Z" /> 
</g>
<g >
<path style="fill:#840000; fill-opacity:1.0; 
stroke:#840000; stroke-width:0; stroke-opacity:1; 
stroke-linecap:round; stroke-linejoin:round;fill-rule:evenodd;"
d="M 42379,45313
42387,45314
42396,45316
42404,45319
42411,45323
42419,45327
42425,45332
42432,45338
42437,45344
42442,45351
42447,45358
42450,45366
42453,45374
42455,45382
42456,45390
42457,45399
42457,45600
42456,45609
42455,45617
42453,45625
42450,45633
42447,45641
42442,45648
42437,45655
42432,45661
42425,45667
42419,45672
42411,45676
42404,45680
42396,45683
42387,45685
42379,45686
42371,45687
42198,45687
42190,45686
42182,45685
42173,45683
42165,45680
42158,45676
42151,45672
42144,45667
42138,45661
42132,45655
42127,45648
42122,45641
42119,45633
42116,45625
42114,45617
42113,45609
42112,45600
42112,45399
42113,45390
42114,45382
42116,45374
42119,45366
42122,45358
42127,45351
42132,45344
42138,45338
42144,45332
42151,45327
42158,45323
42165,45319
42173,45316
42182,45314
42190,45313
42198,45312
42371,45312
42379,45313
Z" /> 
<path style="fill:#840000; fill-opacity:1.0; 
stroke:#840000; stroke-width:0; stroke-opacity:1; 
stroke-linecap:round; stroke-linejoin:round;fill-rule:evenodd;"
d="M 41759,45313
41767,45314
41776,45316
41784,45319
41791,45323
41798,45327
41805,45332
41811,45338
41817,45344
41822,45351
41827,45358
41830,45366
41833,45374
41835,45382
41836,45390
41837,45399
41837,45600
41836,45609
41835,45617
41833,45625
41830,45633
41827,45641
41822,45648
41817,45655
41811,45661
41805,45667
41798,45672
41791,45676
41784,45680
41776,45683
41767,45685
41759,45686
41751,45687
41578,45687
41570,45686
41562,45685
41553,45683
41545,45680
41538,45676
41530,45672
41524,45667
41517,45661
41512,45655
41507,45648
41502,45641
41499,45633
41496,45625
41494,45617
41493,45609
41492,45600
41492,45399
41493,45390
41494,45382
41496,45374
41499,45366
41502,45358
41507,45351
41512,45344
41517,45338
41524,45332
41530,45327
41538,45323
41545,45319
41553,45316
41562,45314
41570,45313
41578,45312
41751,45312
41759,45313
Z" /> 
</g>
<g >
<path style="fill:#840000; fill-opacity:1.0; 
stroke:#840000; stroke-width:0; stroke-opacity:1; 
stroke-linecap:round; stroke-linejoin:round;fill-rule:evenodd;"
d="M 43184,49113
43192,49114
43201,49116
43209,49119
43216,49123
43223,49127
43230,49132
43236,49138
43242,49144
43247,49151
43252,49158
43255,49166
43258,49174
43260,49182
43261,49190
43262,49199
43262,49400
43261,49409
43260,49417
43258,49425
43255,49433
43252,49441
43247,49448
43242,49455
43236,49461
43230,49467
43223,49472
43216,49476
43209,49480
43201,49483
43192,49485
43184,49486
43176,49487
43003,49487
42995,49486
42987,49485
42978,49483
42970,49480
42963,49476
42955,49472
42949,49467
42942,49461
42937,49455
42932,49448
42927,49441
42924,49433
42921,49425
42919,49417
42918,49409
42917,49400
42917,49199
42918,49190
42919,49182
42921,49174
42924,49166
42927,49158
42932,49151
42937,49144
42942,49138
42949,49132
42955,49127
42963,49123
42970,49119
42978,49116
42987,49114
42995,49113
43003,49112
43176,49112
43184,49113
Z" /> 
<path style="fill:#840000; fill-opacity:1.0; 
stroke:#840000; stroke-width:0; stroke-opacity:1; 
stroke-linecap:round; stroke-linejoin:round;fill-rule:evenodd;"
d="M 43804,49113
43812,49114
43821,49116
43829,49119
43836,49123
43844,49127
43850,49132
43857,49138
43862,49144
43867,49151
43872,49158
43875,49166
43878,49174
43880,49182
43881,49190
43882,49199
43882,49400
43881,49409
43880,49417
43878,49425
43875,49433
43872,49441
43867,49448
43862,49455
43857,49461
43850,49467
43844,49472
43836,49476
43829,49480
43821,49483
43812,49485
43804,49486
43796,49487
43623,49487
43615,49486
43607,49485
43598,49483
43590,49480
43583,49476
43576,49472
43569,49467
43563,49461
43557,49455
43552,49448
43547,49441
43544,49433
43541,49425
43539,49417
43538,49409
43537,49400
43537,49199
43538,49190
43539,49182
43541,49174
43544,49166
43547,49158
43552,49151
43557,49144
43563,49138
43569,49132
43576,49127
43583,49123
43590,49119
43598,49116
43607,49114
43615,49113
43623,49112
43796,49112
43804,49113
Z" /> 
</g>
<g >
<path style="fill:#840000; fill-opacity:1.0; 
stroke:#840000; stroke-width:0; stroke-opacity:1; 
stroke-linecap:round; stroke-linejoin:round;fill-rule:evenodd;"
d="M 43804,47563
43812,47564
43821,47566
43829,47569
43836,47573
43844,47577
43850,47582
43857,47588
43862,47594
43867,47601
43872,47608
43875,47616
43878,47624
43880,47632
43881,47640
43882,47649
43882,47850
43881,47859
43880,47867
43878,47875
43875,47883
43872,47891
43867,47898
43862,47905
43857,47911
43850,47917
43844,47922
43836,47926
43829,47930
43821,47933
43812,47935
43804,47936
43796,47937
43623,47937
43615,47936
43607,47935
43598,47933
43590,47930
43583,47926
43576,47922
43569,47917
43563,47911
43557,47905
43552,47898
43547,47891
43544,47883
43541,47875
43539,47867
43538,47859
43537,47850
43537,47649
43538,47640
43539,47632
43541,47624
43544,47616
43547,47608
43552,47601
43557,47594
43563,47588
43569,47582
43576,47577
43583,47573
43590,47569
43598,47566
43607,47564
43615,47563
43623,47562
43796,47562
43804,47563
Z" /> 
<path style="fill:#840000; fill-opacity:1.0; 
stroke:#840000; stroke-width:0; stroke-opacity:1; 
stroke-linecap:round; stroke-linejoin:round;fill-rule:evenodd;"
d="M 43184,47563
43192,47564
43201,47566
43209,47569
43216,47573
43223,47577
43230,47582
43236,47588
43242,47594
43247,47601
43252,47608
43255,47616
43258,47624
43260,47632
43261,47640
43262,47649
43262,47850
43261,47859
43260,47867
43258,47875
43255,47883
43252,47891
43247,47898
43242,47905
43236,47911
43230,47917
43223,47922
43216,47926
43209,47930
43201,47933
43192,47935
43184,47936
43176,47937
43003,47937
42995,47936
42987,47935
42978,47933
42970,47930
42963,47926
42955,47922
42949,47917
42942,47911
42937,47905
42932,47898
42927,47891
42924,47883
42921,47875
42919,47867
42918,47859
42917,47850
42917,47649
42918,47640
42919,47632
42921,47624
42924,47616
42927,47608
42932,47601
42937,47594
42942,47588
42949,47582
42955,47577
42963,47573
42970,47569
42978,47566
42987,47564
42995,47563
43003,47562
43176,47562
43184,47563
Z" /> 
</g>
<g >
</g>
<g style="fill:#848400; fill-opacity:1.0; 
stroke:#848400; stroke-width:0; stroke-opacity:1; 
stroke-linecap:round; stroke-linejoin:round;">
</g>
<g style="fill:#848400; fill-opacity:1.0; 
stroke:#848400; stroke-width:984.252; stroke-opacity:1; 
stroke-linecap:round; stroke-linejoin:round;">
</g>
<g style="fill:#848400; fill-opacity:0.0; 
stroke:#848400; stroke-width:984.252; stroke-opacity:1; 
stroke-linecap:round; stroke-linejoin:round;">
<path d="M44891 43556
L44891 44343
" />
<path d="M42745 43556
L42745 44343
" />
</g>
<g style="fill:#848400; fill-opacity:0.0; 
stroke:#848400; stroke-width:0; stroke-opacity:1; 
stroke-linecap:round; stroke-linejoin:round;">
</g>
<g style="fill:#848400; fill-opacity:1.0; 
stroke:#848400; stroke-width:0; stroke-opacity:1; 
stroke-linecap:round; stroke-linejoin:round;">
<path style="fill:#848400; fill-opacity:1.0; 
stroke:#848400; stroke-width:0; stroke-opacity:1; 
stroke-linecap:round; stroke-linejoin:round;fill-rule:evenodd;"
d="M 40107,44835
40107,43064
41092,43064
41092,44835
40107,44835
Z" /> 
</g>
<g >
<path style="fill:#848400; fill-opacity:1.0; 
stroke:#848400; stroke-width:0; stroke-opacity:1; 
stroke-linecap:round; stroke-linejoin:round;fill-rule:evenodd;"
d="M 44305,46544
44305,47055
43794,47055
43794,46544
44305,46544
Z" /> 
<circle cx="44050" cy="45800" r="255.906" /> 
</g>
<g style="fill:#848400; fill-opacity:1.0; 
stroke:#848400; stroke-width:39.3701; stroke-opacity:1; 
stroke-linecap:round; stroke-linejoin:round;">
</g>
<g style="fill:#848400; fill-opacity:1.0; 
stroke:#848400; stroke-width:0; stroke-opacity:1; 
stroke-linecap:round; stroke-linejoin:round;">
<circle cx="43550" cy="46300" r="255.906" /> 
</g>
<g style="fill:#848400; fill-opacity:1.0; 
stroke:#848400; stroke-width:39.3701; stroke-opacity:1; 
stroke-linecap:round; stroke-linejoin:round;">
</g>
<g >
</g>
<g style="fill:#848400; fill-opacity:1.0; 
stroke:#848400; stroke-width:0; stroke-opacity:1; 
stroke-linecap:round; stroke-linejoin:round;">
<circle cx="46722.4" cy="51750" r="590.551" /> 
</g>
<g style="fill:#848400; fill-opacity:1.0; 
stroke:#848400; stroke-width:39.3701; stroke-opacity:1; 
stroke-linecap:round; stroke-linejoin:round;">
</g>
<g style="fill:#848400; fill-opacity:1.0; 
stroke:#848400; stroke-width:0; stroke-opacity:1; 
stroke-linecap:round; stroke-linejoin:round;">
<path style="fill:#848400; fill-opacity:1.0; 
stroke:#848400; stroke-width:0; stroke-opacity:1; 
stroke-linecap:round; stroke-linejoin:round;fill-rule:evenodd;"
d="M 48840,51159
48840,52340
47659,52340
47659,51159
48840,51159
Z" /> 
</g>
<g >
<circle cx="43510.2" cy="50662.6" r="551.181" /> 
</g>
<g style="fill:#848400; fill-opacity:1.0; 
stroke:#848400; stroke-width:39.3701; stroke-opacity:1; 
stroke-linecap:round; stroke-linejoin:round;">
</g>
<g style="fill:#848400; fill-opacity:1.0; 
stroke:#848400; stroke-width:0; stroke-opacity:1; 
stroke-linecap:round; stroke-linejoin:round;">
<circle cx="41344.9" cy="50662.6" r="551.181" /> 
</g>
<g style="fill:#848400; fill-opacity:1.0; 
stroke:#848400; stroke-width:39.3701; stroke-opacity:1; 
stroke-linecap:round; stroke-linejoin:round;">
</g>
<g style="fill:#848400; fill-opacity:1.0; 
stroke:#848400; stroke-width:0; stroke-opacity:1; 
stroke-linecap:round; stroke-linejoin:round;">
<circle cx="40400" cy="51450" r="551.181" /> 
</g>
<g style="fill:#848400; fill-opacity:1.0; 
stroke:#848400; stroke-width:39.3701; stroke-opacity:1; 
stroke-linecap:round; stroke-linejoin:round;">
</g>
<g >
</g>
<g style="fill:#840000; fill-opacity:1.0; 
stroke:#840000; stroke-width:39.3701; stroke-opacity:1; 
stroke-linecap:round; stroke-linejoin:round;">
</g>
<g style="fill:#840000; fill-opacity:1.0; 
stroke:#840000; stroke-width:0; stroke-opacity:1; 
stroke-linecap:round; stroke-linejoin:round;">
<path style="fill:#840000; fill-opacity:1.0; 
stroke:#840000; stroke-width:0; stroke-opacity:1; 
stroke-linecap:round; stroke-linejoin:round;fill-rule:evenodd;"
d="M 48831,46335
48841,46336
48850,46339
48859,46342
48868,46346
48876,46351
48884,46357
48891,46363
48898,46371
48903,46378
48908,46387
48912,46395
48916,46404
48918,46414
48919,46423
48920,46433
48920,46866
48919,46876
48918,46885
48916,46895
48912,46904
48908,46912
48903,46921
48898,46928
48891,46936
48884,46942
48876,46948
48868,46953
48859,46957
48850,46960
48841,46963
48831,46964
48822,46964
47995,46964
47985,46964
47976,46963
47966,46960
47957,46957
47948,46953
47940,46948
47932,46942
47925,46936
47919,46928
47913,46921
47908,46912
47904,46904
47901,46895
47898,46885
47897,46876
47896,46866
47896,46433
47897,46423
47898,46414
47901,46404
47904,46395
47908,46387
47913,46378
47919,46371
47925,46363
47932,46357
47940,46351
47948,46346
47957,46342
47966,46339
47976,46336
47985,46335
47995,46335
48822,46335
48831,46335
Z" /> 
<path style="fill:#840000; fill-opacity:1.0; 
stroke:#840000; stroke-width:0; stroke-opacity:1; 
stroke-linecap:round; stroke-linejoin:round;fill-rule:evenodd;"
d="M 47414,46335
47423,46336
47433,46339
47442,46342
47451,46346
47459,46351
47467,46357
47474,46363
47480,46371
47486,46378
47491,46387
47495,46395
47498,46404
47501,46414
47502,46423
47503,46433
47503,46866
47502,46876
47501,46885
47498,46895
47495,46904
47491,46912
47486,46921
47480,46928
47474,46936
47467,46942
47459,46948
47451,46953
47442,46957
47433,46960
47423,46963
47414,46964
47404,46964
46577,46964
46568,46964
46558,46963
46549,46960
46540,46957
46531,46953
46523,46948
46515,46942
46508,46936
46501,46928
46496,46921
46491,46912
46487,46904
46483,46895
46481,46885
46480,46876
46479,46866
46479,46433
46480,46423
46481,46414
46483,46404
46487,46395
46491,46387
46496,46378
46501,46371
46508,46363
46515,46357
46523,46351
46531,46346
46540,46342
46549,46339
46558,46336
46568,46335
46577,46335
47404,46335
47414,46335
Z" /> 
</g>
<g >
<path style="fill:#840000; fill-opacity:1.0; 
stroke:#840000; stroke-width:0; stroke-opacity:1; 
stroke-linecap:round; stroke-linejoin:round;fill-rule:evenodd;"
d="M 48781,48235
48791,48236
48800,48239
48809,48242
48818,48246
48826,48251
48834,48257
48841,48263
48848,48271
48853,48278
48858,48287
48862,48295
48866,48304
48868,48314
48869,48323
48870,48333
48870,48766
48869,48776
48868,48785
48866,48795
48862,48804
48858,48812
48853,48821
48848,48828
48841,48836
48834,48842
48826,48848
48818,48853
48809,48857
48800,48860
48791,48863
48781,48864
48772,48864
47945,48864
47935,48864
47926,48863
47916,48860
47907,48857
47898,48853
47890,48848
47882,48842
47875,48836
47869,48828
47863,48821
47858,48812
47854,48804
47851,48795
47848,48785
47847,48776
47846,48766
47846,48333
47847,48323
47848,48314
47851,48304
47854,48295
47858,48287
47863,48278
47869,48271
47875,48263
47882,48257
47890,48251
47898,48246
47907,48242
47916,48239
47926,48236
47935,48235
47945,48235
48772,48235
48781,48235
Z" /> 
<path style="fill:#840000; fill-opacity:1.0; 
stroke:#840000; stroke-width:0; stroke-opacity:1; 
stroke-linecap:round; stroke-linejoin:round;fill-rule:evenodd;"
d="M 47364,48235
47373,48236
47383,48239
47392,48242
47401,48246
47409,48251
47417,48257
47424,48263
47430,48271
47436,48278
47441,48287
47445,48295
47448,48304
47451,48314
47452,48323
47453,48333
47453,48766
47452,48776
47451,48785
47448,48795
47445,48804
47441,48812
47436,48821
47430,48828
47424,48836
47417,48842
47409,48848
47401,48853
47392,48857
47383,48860
47373,48863
47364,48864
47354,48864
46527,48864
46518,48864
46508,48863
46499,48860
46490,48857
46481,48853
46473,48848
46465,48842
46458,48836
46451,48828
46446,48821
46441,48812
46437,48804
46433,48795
46431,48785
46430,48776
46429,48766
46429,48333
46430,48323
46431,48314
46433,48304
46437,48295
46441,48287
46446,48278
46451,48271
46458,48263
46465,48257
46473,48251
46481,48246
46490,48242
46499,48239
46508,48236
46518,48235
46527,48235
47354,48235
47364,48235
Z" /> 
</g>
<g >
<path style="fill:#840000; fill-opacity:1.0; 
stroke:#840000; stroke-width:0; stroke-opacity:1; 
stroke-linecap:round; stroke-linejoin:round;fill-rule:evenodd;"
d="M 44689,48235
44698,48236
44708,48239
44717,48242
44726,48246
44734,48251
44742,48257
44749,48263
44755,48271
44761,48278
44766,48287
44770,48295
44773,48304
44776,48314
44777,48323
44778,48333
44778,48766
44777,48776
44776,48785
44773,48795
44770,48804
44766,48812
44761,48821
44755,48828
44749,48836
44742,48842
44734,48848
44726,48853
44717,48857
44708,48860
44698,48863
44689,48864
44679,48864
43852,48864
43843,48864
43833,48863
43824,48860
43815,48857
43806,48853
43798,48848
43790,48842
43783,48836
43776,48828
43771,48821
43766,48812
43762,48804
43758,48795
43756,48785
43755,48776
43754,48766
43754,48333
43755,48323
43756,48314
43758,48304
43762,48295
43766,48287
43771,48278
43776,48271
43783,48263
43790,48257
43798,48251
43806,48246
43815,48242
43824,48239
43833,48236
43843,48235
43852,48235
44679,48235
44689,48235
Z" /> 
<path style="fill:#840000; fill-opacity:1.0; 
stroke:#840000; stroke-width:0; stroke-opacity:1; 
stroke-linecap:round; stroke-linejoin:round;fill-rule:evenodd;"
d="M 46106,48235
46116,48236
46125,48239
46134,48242
46143,48246
46151,48251
46159,48257
46166,48263
46173,48271
46178,48278
46183,48287
46187,48295
46191,48304
46193,48314
46194,48323
46195,48333
46195,48766
46194,48776
46193,48785
46191,48795
46187,48804
46183,48812
46178,48821
46173,48828
46166,48836
46159,48842
46151,48848
46143,48853
46134,48857
46125,48860
46116,48863
46106,48864
46097,48864
45270,48864
45260,48864
45251,48863
45241,48860
45232,48857
45223,48853
45215,48848
45207,48842
45200,48836
45194,48828
45188,48821
45183,48812
45179,48804
45176,48795
45173,48785
45172,48776
45171,48766
45171,48333
45172,48323
45173,48314
45176,48304
45179,48295
45183,48287
45188,48278
45194,48271
45200,48263
45207,48257
45215,48251
45223,48246
45232,48242
45241,48239
45251,48236
45260,48235
45270,48235
46097,48235
46106,48235
Z" /> 
</g>
<g >
</g>
<g style="fill:#848400; fill-opacity:1.0; 
stroke:#848400; stroke-width:0; stroke-opacity:1; 
stroke-linecap:round; stroke-linejoin:round;">
<path style="fill:#848400; fill-opacity:1.0; 
stroke:#848400; stroke-width:0; stroke-opacity:1; 
stroke-linecap:round; stroke-linejoin:round;fill-rule:evenodd;"
d="M 41365,48915
40184,48915
40184,47734
41365,47734
41365,48915
Z" /> 
<circle cx="40775" cy="46797.4" r="590.551" /> 
</g>
<g style="fill:#848400; fill-opacity:1.0; 
stroke:#848400; stroke-width:39.3701; stroke-opacity:1; 
stroke-linecap:round; stroke-linejoin:round;">
</g>
<g >
</g>
<g style="fill:#C2C2C2; fill-opacity:1.0; 
stroke:#C2C2C2; stroke-width:39.3701; stroke-opacity:1; 
stroke-linecap:round; stroke-linejoin:round;">
</g>
<g style="fill:#C2C2C2; fill-opacity:1.0; 
stroke:#C2C2C2; stroke-width:0; stroke-opacity:1; 
stroke-linecap:round; stroke-linejoin:round;">
<circle cx="45190" cy="47250" r="157.48" /> 
</g>
<g style="fill:#C2C2C2; fill-opacity:1.0; 
stroke:#C2C2C2; stroke-width:39.3701; stroke-opacity:1; 
stroke-linecap:round; stroke-linejoin:round;">
</g>
<g style="fill:#C2C2C2; fill-opacity:1.0; 
stroke:#C2C2C2; stroke-width:0; stroke-opacity:1; 
stroke-linecap:round; stroke-linejoin:round;">
<circle cx="45190" cy="45750" r="157.48" /> 
</g>
<g style="fill:#C2C2C2; fill-opacity:1.0; 
stroke:#C2C2C2; stroke-width:39.3701; stroke-opacity:1; 
stroke-linecap:round; stroke-linejoin:round;">
</g>
<g style="fill:#C2C2C2; fill-opacity:1.0; 
stroke:#C2C2C2; stroke-width:0; stroke-opacity:1; 
stroke-linecap:round; stroke-linejoin:round;">
<circle cx="48250" cy="49750" r="157.48" /> 
</g>
<g style="fill:#C2C2C2; fill-opacity:1.0; 
stroke:#C2C2C2; stroke-width:39.3701; stroke-opacity:1; 
stroke-linecap:round; stroke-linejoin:round;">
</g>
<g style="fill:#C2C2C2; fill-opacity:1.0; 
stroke:#C2C2C2; stroke-width:0; stroke-opacity:1; 
stroke-linecap:round; stroke-linejoin:round;">
<circle cx="48450" cy="47725" r="157.48" /> 
</g>
<g style="fill:#C2C2C2; fill-opacity:1.0; 
stroke:#C2C2C2; stroke-width:39.3701; stroke-opacity:1; 
stroke-linecap:round; stroke-linejoin:round;">
</g>
<g style="fill:#C2C2C2; fill-opacity:1.0; 
stroke:#C2C2C2; stroke-width:0; stroke-opacity:1; 
stroke-linecap:round; stroke-linejoin:round;">
<circle cx="42285" cy="45500" r="157.48" /> 
</g>
<g style="fill:#C2C2C2; fill-opacity:1.0; 
stroke:#C2C2C2; stroke-width:39.3701; stroke-opacity:1; 
stroke-linecap:round; stroke-linejoin:round;">
</g>
<g >
</g>
<g style="fill:#840000; fill-opacity:1.0; 
stroke:#840000; stroke-width:39.3701; stroke-opacity:1; 
stroke-linecap:round; stroke-linejoin:round;">
</g>
<g style="fill:#840000; fill-opacity:1.0; 
stroke:#840000; stroke-width:196.85; stroke-opacity:1; 
stroke-linecap:round; stroke-linejoin:round;">
</g>
<g style="fill:#840000; fill-opacity:0.0; 
stroke:#840000; stroke-width:196.85; stroke-opacity:1; 
stroke-linecap:round; stroke-linejoin:round;">
<path d="M48250 51750
L48250 49750
" />
<path d="M48450 46691
L48408 46650
" />
<path d="M48450 47725
L48450 46691
" />
</g>
<g style="fill:#840000; fill-opacity:0.0; 
stroke:#840000; stroke-width:78.7402; stroke-opacity:1; 
stroke-linecap:round; stroke-linejoin:round;">
<path d="M44266 48306
L44266 48550
" />
<path d="M43710 47750
L44266 48306
" />
<path d="M44050 47410
L43710 47750
" />
<path d="M44050 46800
L44050 47410
" />
<path d="M44266 48743
L44266 48550
" />
<path d="M43710 49300
L44266 48743
" />
<path d="M44750 46500
L45189 46500
" />
<path d="M44050 45800
L44750 46500
" />
</g>
<g style="fill:#840000; fill-opacity:0.0; 
stroke:#840000; stroke-width:196.85; stroke-opacity:1; 
stroke-linecap:round; stroke-linejoin:round;">
<path d="M45810 45523
L45810 45750
" />
<path d="M45810 45262
L45810 45523
" />
<path d="M44891 44343
L45810 45262
" />
<path d="M44891 43950
L44891 44343
" />
<path d="M46091 45750
L46991 46650
" />
<path d="M45810 45750
L46091 45750
" />
</g>
<g style="fill:#840000; fill-opacity:0.0; 
stroke:#840000; stroke-width:78.7402; stroke-opacity:1; 
stroke-linecap:round; stroke-linejoin:round;">
<path d="M45810 46500
L45810 47250
" />
<path d="M46941 48381
L46941 48550
" />
<path d="M45810 47250
L46941 48381
" />
<path d="M44510 49723
L45683 48550
" />
<path d="M40926 49723
L44510 49723
" />
<path d="M40400 50250
L40926 49723
" />
<path d="M40400 51450
L40400 50250
" />
<path d="M42750 45500
L42285 45500
" />
<path d="M43550 46300
L42750 45500
" />
</g>
<g style="fill:#840000; fill-opacity:0.0; 
stroke:#840000; stroke-width:196.85; stroke-opacity:1; 
stroke-linecap:round; stroke-linejoin:round;">
<path d="M40775 45962
L41237 45500
" />
<path d="M40775 46797
L40775 45962
" />
<path d="M40775 46797
L41610 46797
" />
<path d="M42562 47750
L43089 47750
" />
<path d="M41610 46797
L42562 47750
" />
<path d="M41237 45500
L41664 45500
" />
<path d="M42056 43950
L42745 43950
" />
<path d="M41664 44341
L42056 43950
" />
<path d="M41664 45500
L41664 44341
" />
</g>
<g >
</g>
<g style="fill:#840000; fill-opacity:1.0; 
stroke:#840000; stroke-width:100; stroke-opacity:1; 
stroke-linecap:round; stroke-linejoin:round;">
<path style="fill:#840000; fill-opacity:1.0; 
stroke:#840000; stroke-width:100; stroke-opacity:1; 
stroke-linecap:round; stroke-linejoin:round;fill-rule:evenodd;"
d="M 39938,44835
39942,44868
39951,44900
39967,44929
39988,44955
40014,44976
40043,44991
40074,45001
40107,45004
41003,45004
41004,45005
41038,45040
41078,45068
41123,45088
41171,45098
41220,45099
41398,45084
41398,45218
41386,45233
41250,45233
41237,45232
41224,45233
41224,45233
41185,45237
41134,45252
41088,45277
41047,45310
41039,45320
40595,45764
40585,45772
40577,45783
40577,45783
40552,45813
40527,45859
40512,45910
40507,45962
40508,45975
40508,46086
40415,46125
40291,46208
40185,46313
40102,46438
40045,46576
40016,46722
40016,46872
40045,47018
40102,47156
40185,47281
40291,47386
40415,47469
40449,47483
40184,47483
40135,47488
40088,47502
40044,47525
40006,47556
39975,47594
39952,47638
39938,47685
39933,47734
39934,48212
39996,48275
40725,48275
40725,48267
40825,48267
40825,48275
41553,48275
41615,48212
41616,47734
41611,47685
41597,47638
41574,47594
41543,47556
41505,47525
41461,47502
41414,47488
41365,47483
41100,47483
41134,47469
41258,47386
41364,47281
41447,47156
41485,47063
41499,47063
42364,47929
42373,47939
42383,47947
42383,47947
42413,47972
42460,47997
42510,48012
42562,48017
42575,48016
42811,48016
42823,48031
42862,48062
42906,48086
42954,48101
43003,48105
43176,48105
43225,48101
43273,48086
43317,48062
43356,48031
43388,47992
43400,47970
43411,47992
43443,48031
43482,48062
43526,48086
43574,48101
43623,48105
43714,48105
43704,48111
43663,48144
43630,48184
43605,48231
43590,48281
43585,48333
43585,48766
43590,48818
43605,48868
43630,48915
43654,48944
43623,48944
43574,48948
43526,48963
43482,48987
43479,48989
43471,48973
43439,48935
43401,48904
43358,48880
43311,48866
43262,48861
43202,48862
43139,48925
43139,49250
43147,49250
43147,49350
43139,49350
43139,49357
43039,49357
43039,49350
42730,49350
42667,49412
42666,49487
42669,49515
40936,49515
40926,49514
40916,49515
40886,49518
40846,49530
40810,49549
40779,49575
40772,49583
40260,50096
40252,50102
40229,50130
40226,50134
40207,50170
40195,50209
40191,50250
40192,50260
40192,50757
40190,50758
40059,50812
39941,50891
39841,50991
39762,51109
39708,51240
39680,51379
39680,51520
39708,51659
39762,51790
39841,51908
39941,52008
40059,52087
40190,52141
40329,52169
40470,52169
40609,52141
40740,52087
40858,52008
40958,51908
41037,51790
41047,51766
45877,51766
45897,51931
45948,52088
46010,52205
46135,52266
46651,51750
46793,51750
47309,52266
47433,52205
47490,52093
47490,52340
47493,52373
47503,52405
47518,52434
47540,52459
47565,52481
47594,52496
47626,52506
47659,52509
48840,52509
48873,52506
48905,52496
48934,52481
48959,52459
48981,52434
48996,52405
49006,52373
49009,52340
49009,51159
49006,51126
48996,51094
48981,51065
48959,51040
48934,51018
48905,51003
48873,50993
48840,50990
48516,50990
48516,49937
48538,49904
48563,49844
48575,49782
48575,49717
48563,49655
48538,49595
48502,49542
48457,49497
48404,49461
48344,49436
48282,49424
48217,49424
48155,49436
48095,49461
48042,49497
47997,49542
47961,49595
47936,49655
47924,49717
47924,49782
47936,49844
47961,49904
47983,49937
47983,50990
47659,50990
47626,50993
47594,51003
47565,51018
47540,51040
47518,51065
47503,51094
47493,51126
47490,51159
47490,51400
47433,51294
47309,51233
46793,51750
46651,51750
46135,51233
46010,51294
45935,51442
45890,51601
45877,51766
41047,51766
41091,51659
41119,51520
41119,51379
41112,51344
41135,51354
41274,51381
41415,51381
41554,51354
41685,51300
41802,51221
43021,51221
43078,51342
43219,51413
43371,51455
43528,51467
43685,51448
43835,51399
43942,51342
43998,51221
43939,51162
46205,51162
46722,51679
47238,51162
47177,51038
47030,50963
46870,50918
46705,50905
46541,50925
46383,50976
46267,51038
46205,51162
43939,51162
43510,50733
43021,51221
41802,51221
41803,51221
41903,51121
41982,51003
42036,50872
42064,50733
42064,50681
42705,50681
42724,50837
42773,50987
42830,51094
42951,51151
43439,50662
43580,50662
44069,51151
44189,51094
44260,50953
44303,50801
44315,50644
44296,50487
44246,50337
44189,50230
44069,50174
43580,50662
43439,50662
42951,50174
42830,50230
42759,50371
42717,50523
42705,50681
42064,50681
42064,50591
42036,50452
41982,50321
41903,50204
41803,50103
41685,50025
41554,49970
41415,49943
41274,49943
41135,49970
41004,50025
40886,50103
40786,50204
40707,50321
40653,50452
40625,50591
40625,50733
40632,50767
40609,50758
40607,50757
40607,50335
41012,49930
43176,49930
43078,49983
43021,50103
43510,50591
43998,50103
43942,49983
43838,49930
44500,49930
44510,49931
44520,49930
44551,49927
44590,49915
44626,49896
44657,49870
44664,49862
45493,49033
46097,49033
46149,49028
46199,49013
46245,48988
46286,48955
46312,48923
46338,48955
46379,48988
46425,49013
46475,49028
46527,49033
47354,49033
47406,49028
47457,49013
47503,48988
47543,48955
47577,48915
47596,48877
47600,48913
47614,48961
47637,49004
47669,49042
47707,49073
47750,49097
47797,49111
47846,49116
48246,49114
48308,49052
48308,48600
48300,48600
48300,48500
48308,48500
48308,48492
48408,48492
48408,48500
48416,48500
48416,48600
48408,48600
48408,49052
48471,49114
48870,49116
48919,49111
48966,49097
49010,49073
49048,49042
49079,49004
49102,48961
49113,48925
49113,52971
39548,52971
39548,52337
46205,52337
46267,52461
46414,52536
46574,52581
46739,52594
46903,52574
47061,52523
47177,52461
47238,52337
46722,51820
46205,52337
39548,52337
39548,48915
39933,48915
39938,48964
39952,49011
39975,49055
40006,49093
40044,49124
40088,49147
40135,49161
40184,49166
40662,49165
40725,49103
40725,48375
40825,48375
40825,49103
40887,49165
41365,49166
41414,49161
41461,49147
41505,49124
41519,49112
42666,49112
42667,49187
42730,49250
43039,49250
43039,48925
42977,48862
42917,48861
42868,48866
42821,48880
42778,48904
42740,48935
42708,48973
42685,49016
42671,49063
42666,49112
41519,49112
41543,49093
41574,49055
41597,49011
41611,48964
41616,48915
41615,48437
41553,48375
40825,48375
40725,48375
39996,48375
39934,48437
39933,48915
39548,48915
39548,43091
39938,43091
39938,44835
Z" /> 
<path style="fill:#840000; fill-opacity:1.0; 
stroke:#840000; stroke-width:100; stroke-opacity:1; 
stroke-linecap:round; stroke-linejoin:round;fill-rule:evenodd;"
d="M 44596,46639
44602,46647
44634,46673
44670,46692
44701,46702
44709,46704
44750,46708
44760,46707
44873,46707
44891,46742
44923,46781
44962,46812
44968,46816
44968,46816
44921,46830
44878,46854
44840,46885
44808,46923
44785,46966
44771,47013
44766,47062
44767,47137
44830,47200
45139,47200
45139,47192
45239,47192
45239,47200
45247,47200
45247,47300
45239,47300
45239,47624
45302,47687
45362,47688
45411,47683
45458,47669
45501,47645
45539,47614
45571,47576
45579,47560
45582,47562
45626,47586
45674,47601
45723,47605
45872,47605
46378,48111
46338,48144
46312,48176
46286,48144
46245,48111
46199,48086
46149,48071
46097,48066
45270,48066
45218,48071
45190,48079
45170,48069
45123,48054
45075,48050
44900,48050
44851,48054
44804,48069
44775,48084
44731,48071
44679,48066
44319,48066
44051,47797
44051,47702
44189,47563
44197,47557
44223,47525
44242,47489
44254,47450
44255,47437
44766,47437
44771,47486
44785,47533
44808,47576
44840,47614
44878,47645
44921,47669
44968,47683
45017,47688
45077,47687
45139,47624
45139,47300
44830,47300
44767,47362
44766,47437
44255,47437
44257,47420
44257,47420
44258,47410
44257,47399
44257,47224
44305,47224
44338,47221
44370,47211
44399,47196
44425,47175
44446,47149
44461,47120
44471,47088
44474,47055
44474,46544
44472,46515
44596,46639
Z" /> 
<path style="fill:#840000; fill-opacity:1.0; 
stroke:#840000; stroke-width:100; stroke-opacity:1; 
stroke-linecap:round; stroke-linejoin:round;fill-rule:evenodd;"
d="M 44339,43187
44278,43302
44240,43426
44231,43523
44231,44376
44240,44473
44278,44597
44339,44712
44422,44812
44522,44895
44637,44956
44761,44994
44891,45007
45020,44994
45131,44960
45543,45372
45543,45389
45539,45385
45501,45354
45458,45330
45411,45316
45362,45311
45302,45312
45239,45375
45239,45700
45247,45700
45247,45800
45239,45800
45239,45807
45139,45807
45139,45800
44830,45800
44767,45862
44766,45937
44771,45986
44785,46033
44808,46076
44840,46114
44878,46145
44921,46169
44968,46183
44968,46183
44962,46187
44923,46218
44891,46257
44873,46292
44835,46292
44459,45915
44474,45841
44474,45758
44457,45676
44425,45599
44401,45562
44766,45562
44767,45637
44830,45700
45139,45700
45139,45375
45077,45312
45017,45311
44968,45316
44921,45330
44878,45354
44840,45385
44808,45423
44785,45466
44771,45513
44766,45562
44401,45562
44379,45529
44320,45470
44250,45424
44173,45392
44091,45375
44008,45375
43926,45392
43849,45424
43779,45470
43720,45529
43674,45599
43642,45676
43625,45758
43625,45841
43634,45884
43591,45875
43508,45875
43434,45890
42903,45360
42897,45352
42865,45326
42829,45307
42790,45295
42760,45292
42750,45291
42739,45292
42601,45292
42583,45257
42551,45218
42512,45187
42468,45163
42420,45148
42371,45144
42198,45144
42149,45148
42101,45163
42057,45187
42018,45218
41986,45257
41975,45279
41963,45257
41931,45218
41931,44452
42085,44298
42085,44376
42094,44473
42132,44597
42194,44712
42276,44812
42377,44895
42491,44956
42616,44994
42745,45007
42875,44994
42999,44956
43114,44895
43214,44812
43297,44712
43358,44597
43396,44473
43405,44376
43405,43523
43396,43426
43358,43302
43297,43187
43218,43091
44418,43091
44339,43187
Z" /> 
<path style="fill:#840000; fill-opacity:1.0; 
stroke:#840000; stroke-width:100; stroke-opacity:1; 
stroke-linecap:round; stroke-linejoin:round;fill-rule:evenodd;"
d="M 49031,46127
48988,46128
48955,46110
48890,46090
48822,46083
47995,46083
47927,46090
47861,46110
47806,46139
47597,46141
47538,46110
47472,46090
47404,46083
46917,46083
46349,45515
46338,45502
46285,45458
46225,45426
46159,45406
46158,45406
46158,45279
46160,45262
46158,45245
46158,45245
46153,45194
46133,45128
46101,45067
46057,45014
46044,45003
45607,44567
45610,44531
45622,44489
45633,44380
45633,44132
45674,43427
45674,43418
45672,43408
45668,43399
45664,43393
45589,43300
45580,43270
45528,43173
49031,43173
49031,46127
Z" /> 
<path style="fill:#840000; fill-opacity:1.0; 
stroke:#840000; stroke-width:100; stroke-opacity:1; 
stroke-linecap:round; stroke-linejoin:round;fill-rule:evenodd;"
d="M 46228,46866
46235,46934
46250,46984
46250,47100
46250,47109
46253,47119
46258,47127
46264,47135
46272,47141
46279,47145
46504,47245
46513,47248
46525,47250
47600,47250
47609,47249
47619,47246
47627,47241
47638,47232
47725,47128
47811,47232
47818,47238
47826,47244
47835,47247
47847,47249
48101,47264
48101,47513
48088,47531
48058,47606
48042,47684
48042,47765
48058,47843
48088,47918
48132,47983
47945,47983
47877,47990
47850,47998
47774,48000
47764,48001
47755,48004
47746,48008
47739,48015
47732,48023
47678,48110
47654,48139
47650,48147
47645,48139
47601,48086
47548,48042
47488,48010
47422,47990
47354,47983
46953,47983
46233,47264
46233,47149
46227,47083
46207,47020
46176,46961
46134,46910
46099,46881
46099,46868
46134,46839
46176,46788
46207,46729
46227,46666
46228,46653
46228,46866
Z" /> 
<path style="fill:#840000; fill-opacity:1.0; 
stroke:#840000; stroke-width:100; stroke-opacity:1; 
stroke-linecap:round; stroke-linejoin:round;fill-rule:evenodd;"
d="M 49031,47979
48767,47983
48811,47918
48841,47843
48857,47765
48857,47684
48841,47606
48811,47531
48798,47513
48798,47250
49031,47250
49031,47979
Z" /> 
<path style="fill:#840000; fill-opacity:1.0; 
stroke:#840000; stroke-width:100; stroke-opacity:1; 
stroke-linecap:round; stroke-linejoin:round;fill-rule:evenodd;"
d="M 46233,46384
46232,46390
46231,46383
46233,46384
Z" /> 
<path style="fill:#840000; fill-opacity:1.0; 
stroke:#840000; stroke-width:100; stroke-opacity:1; 
stroke-linecap:round; stroke-linejoin:round;fill-rule:evenodd;"
d="M 43040,46199
43045,46242
43044,46250
43044,46349
43063,46447
43074,46474
43100,46681
43102,46690
43106,46699
43112,46707
43120,46715
43542,47026
43542,47055
43547,47104
43562,47152
43585,47195
43616,47233
43654,47264
43690,47284
43703,47311
43623,47311
43558,47318
43494,47337
43436,47368
43413,47387
43201,47257
43192,47253
43182,47250
43173,47250
43163,47251
43154,47254
43142,47262
43085,47311
43003,47311
42938,47318
42874,47337
42816,47368
42776,47401
42707,47401
41868,46563
41857,46549
41804,46506
41744,46473
41678,46454
41627,46449
41627,46449
41610,46447
41599,46448
41545,46329
41540,46320
41531,46311
41195,46034
41367,45862
41391,45881
41449,45912
41513,45931
41578,45938
41751,45938
41816,45931
41880,45912
41938,45881
41942,45878
42021,45886
42069,45912
42133,45931
42198,45938
42371,45938
42436,45931
42500,45912
42558,45881
42609,45839
42641,45800
43040,46199
Z" /> 
<path style="fill:#840000; fill-opacity:1.0; 
stroke:#840000; stroke-width:100; stroke-opacity:1; 
stroke-linecap:round; stroke-linejoin:round;fill-rule:evenodd;"
d="M 44390,49433
44130,49433
44133,49400
44133,49285
44303,49116
44679,49116
44711,49113
44390,49433
Z" /> 
<path style="fill:#840000; fill-opacity:1.0; 
stroke:#840000; stroke-width:100; stroke-opacity:1; 
stroke-linecap:round; stroke-linejoin:round;fill-rule:evenodd;"
d="M 41953,43456
41950,43465
41950,43475
41950,43618
41922,43626
41862,43658
41862,43658
41862,43658
41822,43691
41822,43691
41809,43702
41798,43715
41430,44083
41417,44094
41406,44107
41406,44107
41373,44147
41343,44204
41343,43173
42069,43173
41953,43456
Z" /> 
</g>
</g>
<g style="fill:#FFFFFF; fill-opacity:1.0; 
stroke:#FFFFFF; stroke-width:100; stroke-opacity:1; 
stroke-linecap:round; stroke-linejoin:round;">
</g>
<g style="fill:#FFFFFF; fill-opacity:1.0; 
stroke:#FFFFFF; stroke-width:0; stroke-opacity:1; 
stroke-linecap:round; stroke-linejoin:round;">
<circle cx="45190" cy="47250" r="78.7402" /> 
</g>
<g style="fill:#FFFFFF; fill-opacity:1.0; 
stroke:#FFFFFF; stroke-width:39.3701; stroke-opacity:1; 
stroke-linecap:round; stroke-linejoin:round;">
</g>
<g style="fill:#FFFFFF; fill-opacity:1.0; 
stroke:#FFFFFF; stroke-width:0; stroke-opacity:1; 
stroke-linecap:round; stroke-linejoin:round;">
<circle cx="45190" cy="45750" r="78.7402" /> 
</g>
<g style="fill:#FFFFFF; fill-opacity:1.0; 
stroke:#FFFFFF; stroke-width:39.3701; stroke-opacity:1; 
stroke-linecap:round; stroke-linejoin:round;">
</g>
<g style="fill:#FFFFFF; fill-opacity:1.0; 
stroke:#FFFFFF; stroke-width:0; stroke-opacity:1; 
stroke-linecap:round; stroke-linejoin:round;">
<circle cx="48250" cy="49750" r="78.7402" /> 
</g>
<g style="fill:#FFFFFF; fill-opacity:1.0; 
stroke:#FFFFFF; stroke-width:39.3701; stroke-opacity:1; 
stroke-linecap:round; stroke-linejoin:round;">
</g>
<g style="fill:#FFFFFF; fill-opacity:1.0; 
stroke:#FFFFFF; stroke-width:0; stroke-opacity:1; 
stroke-linecap:round; stroke-linejoin:round;">
<circle cx="48450" cy="47725" r="78.7402" /> 
</g>
<g style="fill:#FFFFFF; fill-opacity:1.0; 
stroke:#FFFFFF; stroke-width:39.3701; stroke-opacity:1; 
stroke-linecap:round; stroke-linejoin:round;">
</g>
<g style="fill:#FFFFFF; fill-opacity:1.0; 
stroke:#FFFFFF; stroke-width:0; stroke-opacity:1; 
stroke-linecap:round; stroke-linejoin:round;">
<circle cx="42285" cy="45500" r="78.7402" /> 
</g>
<g style="fill:#FFFFFF; fill-opacity:1.0; 
stroke:#FFFFFF; stroke-width:39.3701; stroke-opacity:1; 
stroke-linecap:round; stroke-linejoin:round;">
</g>
<g style="fill:#FFFFFF; fill-opacity:1.0; 
stroke:#FFFFFF; stroke-width:0; stroke-opacity:1; 
stroke-linecap:round; stroke-linejoin:round;">
<circle cx="44891.3" cy="43950" r="295.276" /> 
</g>
<g style="fill:#FFFFFF; fill-opacity:1.0; 
stroke:#FFFFFF; stroke-width:39.3701; stroke-opacity:1; 
stroke-linecap:round; stroke-linejoin:round;">
</g>
<g style="fill:#FFFFFF; fill-opacity:1.0; 
stroke:#FFFFFF; stroke-width:0; stroke-opacity:1; 
stroke-linecap:round; stroke-linejoin:round;">
<circle cx="42745.7" cy="43950" r="295.276" /> 
</g>
<g style="fill:#FFFFFF; fill-opacity:1.0; 
stroke:#FFFFFF; stroke-width:39.3701; stroke-opacity:1; 
stroke-linecap:round; stroke-linejoin:round;">
</g>
<g style="fill:#FFFFFF; fill-opacity:1.0; 
stroke:#FFFFFF; stroke-width:0; stroke-opacity:1; 
stroke-linecap:round; stroke-linejoin:round;">
<circle cx="40600" cy="43950" r="295.276" /> 
</g>
<g style="fill:#FFFFFF; fill-opacity:1.0; 
stroke:#FFFFFF; stroke-width:39.3701; stroke-opacity:1; 
stroke-linecap:round; stroke-linejoin:round;">
</g>
<g style="fill:#FFFFFF; fill-opacity:1.0; 
stroke:#FFFFFF; stroke-width:0; stroke-opacity:1; 
stroke-linecap:round; stroke-linejoin:round;">
<circle cx="44050" cy="46800" r="147.638" /> 
</g>
<g style="fill:#FFFFFF; fill-opacity:1.0; 
stroke:#FFFFFF; stroke-width:39.3701; stroke-opacity:1; 
stroke-linecap:round; stroke-linejoin:round;">
</g>
<g style="fill:#FFFFFF; fill-opacity:1.0; 
stroke:#FFFFFF; stroke-width:0; stroke-opacity:1; 
stroke-linecap:round; stroke-linejoin:round;">
<circle cx="44050" cy="45800" r="147.638" /> 
</g>
<g style="fill:#FFFFFF; fill-opacity:1.0; 
stroke:#FFFFFF; stroke-width:39.3701; stroke-opacity:1; 
stroke-linecap:round; stroke-linejoin:round;">
</g>
<g style="fill:#FFFFFF; fill-opacity:1.0; 
stroke:#FFFFFF; stroke-width:0; stroke-opacity:1; 
stroke-linecap:round; stroke-linejoin:round;">
<circle cx="43550" cy="46300" r="147.638" /> 
</g>
<g style="fill:#FFFFFF; fill-opacity:1.0; 
stroke:#FFFFFF; stroke-width:39.3701; stroke-opacity:1; 
stroke-linecap:round; stroke-linejoin:round;">
</g>
<g style="fill:#FFFFFF; fill-opacity:1.0; 
stroke:#FFFFFF; stroke-width:0; stroke-opacity:1; 
stroke-linecap:round; stroke-linejoin:round;">
<circle cx="46722.4" cy="51750" r="344.488" /> 
</g>
<g style="fill:#FFFFFF; fill-opacity:1.0; 
stroke:#FFFFFF; stroke-width:39.3701; stroke-opacity:1; 
stroke-linecap:round; stroke-linejoin:round;">
</g>
<g style="fill:#FFFFFF; fill-opacity:1.0; 
stroke:#FFFFFF; stroke-width:0; stroke-opacity:1; 
stroke-linecap:round; stroke-linejoin:round;">
<circle cx="48250" cy="51750" r="344.488" /> 
</g>
<g style="fill:#FFFFFF; fill-opacity:1.0; 
stroke:#FFFFFF; stroke-width:39.3701; stroke-opacity:1; 
stroke-linecap:round; stroke-linejoin:round;">
</g>
<g style="fill:#FFFFFF; fill-opacity:1.0; 
stroke:#FFFFFF; stroke-width:0; stroke-opacity:1; 
stroke-linecap:round; stroke-linejoin:round;">
<circle cx="43510.2" cy="50662.6" r="393.701" /> 
</g>
<g style="fill:#FFFFFF; fill-opacity:1.0; 
stroke:#FFFFFF; stroke-width:39.3701; stroke-opacity:1; 
stroke-linecap:round; stroke-linejoin:round;">
</g>
<g style="fill:#FFFFFF; fill-opacity:1.0; 
stroke:#FFFFFF; stroke-width:0; stroke-opacity:1; 
stroke-linecap:round; stroke-linejoin:round;">
<circle cx="41344.9" cy="50662.6" r="393.701" /> 
</g>
<g style="fill:#FFFFFF; fill-opacity:1.0; 
stroke:#FFFFFF; stroke-width:39.3701; stroke-opacity:1; 
stroke-linecap:round; stroke-linejoin:round;">
</g>
<g style="fill:#FFFFFF; fill-opacity:1.0; 
stroke:#FFFFFF; stroke-width:0; stroke-opacity:1; 
stroke-linecap:round; stroke-linejoin:round;">
<circle cx="40400" cy="51450" r="393.701" /> 
</g>
<g style="fill:#FFFFFF; fill-opacity:1.0; 
stroke:#FFFFFF; stroke-width:39.3701; stroke-opacity:1; 
stroke-linecap:round; stroke-linejoin:round;">
</g>
<g style="fill:#FFFFFF; fill-opacity:1.0; 
stroke:#FFFFFF; stroke-width:0; stroke-opacity:1; 
stroke-linecap:round; stroke-linejoin:round;">
<circle cx="40775" cy="48325" r="344.488" /> 
</g>
<g style="fill:#FFFFFF; fill-opacity:1.0; 
stroke:#FFFFFF; stroke-width:39.3701; stroke-opacity:1; 
stroke-linecap:round; stroke-linejoin:round;">
</g>
<g style="fill:#FFFFFF; fill-opacity:1.0; 
stroke:#FFFFFF; stroke-width:0; stroke-opacity:1; 
stroke-linecap:round; stroke-linejoin:round;">
<circle cx="40775" cy="46797.4" r="344.488" /> 
</g>
<g style="fill:#FFFFFF; fill-opacity:1.0; 
stroke:#FFFFFF; stroke-width:39.3701; stroke-opacity:1; 
stroke-linecap:round; stroke-linejoin:round;">
</g>
<g style="fill:#000000; fill-opacity:1.0; 
stroke:#000000; stroke-width:39.3701; stroke-opacity:1; 
stroke-linecap:round; stroke-linejoin:round;">
</g>
<g style="fill:#C2C200; fill-opacity:1.0; 
stroke:#C2C200; stroke-width:39.3701; stroke-opacity:1; 
stroke-linecap:round; stroke-linejoin:round;">
</g>
<g style="fill:#C2C200; fill-opacity:1.0; 
stroke:#C2C200; stroke-width:19.685; stroke-opacity:1; 
stroke-linecap:round; stroke-linejoin:round;">
</g>
<g style="fill:#C2C200; fill-opacity:0.0; 
stroke:#C2C200; stroke-width:19.685; stroke-opacity:1; 
stroke-linecap:round; stroke-linejoin:round;">
<path d="M49291 42913
L49291 53149
" />
<path d="M39370 42913
L39370 53149
" />
<path d="M39370 53149
L49291 53149
" />
<path d="M39370 42913
L49291 42913
" />
<g >
</g>
<g >
</g>
<g >
</g>
<g >
</g>
<g >
</g>
<g >
</g>
<g >
</g>
<g >
</g>
<g >
</g>
<g >
</g>
<g >
</g>
<g >
</g>
<g >
</g>
<g >
</g>
<g >
</g>
</g> 
</svg>
