<?xml version="1.0" standalone="no"?>
 <!DOCTYPE svg PUBLIC "-//W3C//DTD SVG 1.1//EN" 
 "http://www.w3.org/Graphics/SVG/1.1/DTD/svg11.dtd"> 
<svg xmlns="http://www.w3.org/2000/svg" version="1.1" 
    width="29.7002cm" height="21.0007cm" viewBox="0 0 116930 82680 ">
<title>SVG Picture created as Single_transistor_AMP-F_SilkS.svg date 2020/12/09 10:12:42 </title>
  <desc>Picture generated by PCBNEW </desc>
<g style="fill:#000000; fill-opacity:1;stroke:#000000; stroke-opacity:1;
stroke-linecap:round; stroke-linejoin:round; "
 transform="translate(0 0) scale(1 1)">
</g>
<g style="fill:#000000; fill-opacity:0.0; 
stroke:#000000; stroke-width:-0.000393701; stroke-opacity:1; 
stroke-linecap:round; stroke-linejoin:round;">
</g>
<g style="fill:#000000; fill-opacity:0.0; 
stroke:#000000; stroke-width:39.3701; stroke-opacity:1; 
stroke-linecap:round; stroke-linejoin:round;">
</g>
<g style="fill:#000000; fill-opacity:0.0; 
stroke:#000000; stroke-width:59.0551; stroke-opacity:1; 
stroke-linecap:round; stroke-linejoin:round;">
<rect x="69685.9" y="65357.2" width="42519.7" height="12598.4" rx="0" />
</g>
<g style="fill:#000000; fill-opacity:0.0; 
stroke:#000000; stroke-width:39.3701; stroke-opacity:1; 
stroke-linecap:round; stroke-linejoin:round;">
</g>
<g style="fill:#000000; fill-opacity:0.0; 
stroke:#000000; stroke-width:59.0551; stroke-opacity:1; 
stroke-linecap:round; stroke-linejoin:round;">
<rect x="3937.01" y="3937.01" width="109056" height="74806" rx="0" />
</g>
<g style="fill:#000000; fill-opacity:0.0; 
stroke:#000000; stroke-width:39.3701; stroke-opacity:1; 
stroke-linecap:round; stroke-linejoin:round;">
</g>
<g style="fill:#000000; fill-opacity:0.0; 
stroke:#000000; stroke-width:59.0551; stroke-opacity:1; 
stroke-linecap:round; stroke-linejoin:round;">
<rect x="4724.41" y="4724.41" width="107481" height="73231.2" rx="0" />
</g>
<g style="fill:#000000; fill-opacity:0.0; 
stroke:#000000; stroke-width:39.3701; stroke-opacity:1; 
stroke-linecap:round; stroke-linejoin:round;">
</g>
<g style="fill:#000000; fill-opacity:0.0; 
stroke:#000000; stroke-width:59.0551; stroke-opacity:1; 
stroke-linecap:round; stroke-linejoin:round;">
<path d="M23622 4724
L23622 3937
" />
</g>
<g style="fill:#000000; fill-opacity:0.0; 
stroke:#000000; stroke-width:39.3701; stroke-opacity:1; 
stroke-linecap:round; stroke-linejoin:round;">
</g>
<g style="fill:#000000; fill-opacity:0.0; 
stroke:#000000; stroke-width:59.0551; stroke-opacity:1; 
stroke-linecap:round; stroke-linejoin:round;">
<path d="M43307 4724
L43307 3937
" />
</g>
<g style="fill:#000000; fill-opacity:0.0; 
stroke:#000000; stroke-width:39.3701; stroke-opacity:1; 
stroke-linecap:round; stroke-linejoin:round;">
</g>
<g style="fill:#000000; fill-opacity:0.0; 
stroke:#000000; stroke-width:59.0551; stroke-opacity:1; 
stroke-linecap:round; stroke-linejoin:round;">
<path d="M62992 4724
L62992 3937
" />
</g>
<g style="fill:#000000; fill-opacity:0.0; 
stroke:#000000; stroke-width:39.3701; stroke-opacity:1; 
stroke-linecap:round; stroke-linejoin:round;">
</g>
<g style="fill:#000000; fill-opacity:0.0; 
stroke:#000000; stroke-width:59.0551; stroke-opacity:1; 
stroke-linecap:round; stroke-linejoin:round;">
<path d="M82677 4724
L82677 3937
" />
</g>
<g style="fill:#000000; fill-opacity:0.0; 
stroke:#000000; stroke-width:39.3701; stroke-opacity:1; 
stroke-linecap:round; stroke-linejoin:round;">
</g>
<g style="fill:#000000; fill-opacity:0.0; 
stroke:#000000; stroke-width:59.0551; stroke-opacity:1; 
stroke-linecap:round; stroke-linejoin:round;">
<path d="M102362 4724
L102362 3937
" />
</g>
<g style="fill:#000000; fill-opacity:0.0; 
stroke:#000000; stroke-width:39.3701; stroke-opacity:1; 
stroke-linecap:round; stroke-linejoin:round;">
</g>
<g style="fill:#000000; fill-opacity:0.0; 
stroke:#000000; stroke-width:59.0551; stroke-opacity:1; 
stroke-linecap:round; stroke-linejoin:round;">
<path d="M14199 4562
L13906 4562
" />
<path d="M14052 4562
L14052 4050
L14004 4123
L13955 4172
L13906 4196
" />
</g>
<g style="fill:#000000; fill-opacity:0.0; 
stroke:#000000; stroke-width:39.3701; stroke-opacity:1; 
stroke-linecap:round; stroke-linejoin:round;">
</g>
<g style="fill:#000000; fill-opacity:0.0; 
stroke:#000000; stroke-width:59.0551; stroke-opacity:1; 
stroke-linecap:round; stroke-linejoin:round;">
<path d="M33591 4099
L33615 4074
L33664 4050
L33786 4050
L33835 4074
L33859 4099
L33884 4147
L33884 4196
L33859 4269
L33567 4562
L33884 4562
" />
</g>
<g style="fill:#000000; fill-opacity:0.0; 
stroke:#000000; stroke-width:39.3701; stroke-opacity:1; 
stroke-linecap:round; stroke-linejoin:round;">
</g>
<g style="fill:#000000; fill-opacity:0.0; 
stroke:#000000; stroke-width:59.0551; stroke-opacity:1; 
stroke-linecap:round; stroke-linejoin:round;">
<path d="M53252 4050
L53569 4050
L53398 4245
L53471 4245
L53520 4269
L53544 4294
L53569 4342
L53569 4464
L53544 4513
L53520 4537
L53471 4562
L53325 4562
L53276 4537
L53252 4513
" />
</g>
<g style="fill:#000000; fill-opacity:0.0; 
stroke:#000000; stroke-width:39.3701; stroke-opacity:1; 
stroke-linecap:round; stroke-linejoin:round;">
</g>
<g style="fill:#000000; fill-opacity:0.0; 
stroke:#000000; stroke-width:59.0551; stroke-opacity:1; 
stroke-linecap:round; stroke-linejoin:round;">
<path d="M73205 4221
L73205 4562
" />
<path d="M73083 4026
L72961 4391
L73278 4391
" />
</g>
<g style="fill:#000000; fill-opacity:0.0; 
stroke:#000000; stroke-width:39.3701; stroke-opacity:1; 
stroke-linecap:round; stroke-linejoin:round;">
</g>
<g style="fill:#000000; fill-opacity:0.0; 
stroke:#000000; stroke-width:59.0551; stroke-opacity:1; 
stroke-linecap:round; stroke-linejoin:round;">
<path d="M92914 4050
L92671 4050
L92646 4294
L92671 4269
L92719 4245
L92841 4245
L92890 4269
L92914 4294
L92939 4342
L92939 4464
L92914 4513
L92890 4537
L92841 4562
L92719 4562
L92671 4537
L92646 4513
" />
</g>
<g style="fill:#000000; fill-opacity:0.0; 
stroke:#000000; stroke-width:39.3701; stroke-opacity:1; 
stroke-linecap:round; stroke-linejoin:round;">
</g>
<g style="fill:#000000; fill-opacity:0.0; 
stroke:#000000; stroke-width:59.0551; stroke-opacity:1; 
stroke-linecap:round; stroke-linejoin:round;">
<path d="M112575 4050
L112477 4050
L112429 4074
L112404 4099
L112356 4172
L112331 4269
L112331 4464
L112356 4513
L112380 4537
L112429 4562
L112526 4562
L112575 4537
L112599 4513
L112624 4464
L112624 4342
L112599 4294
L112575 4269
L112526 4245
L112429 4245
L112380 4269
L112356 4294
L112331 4342
" />
</g>
<g style="fill:#000000; fill-opacity:0.0; 
stroke:#000000; stroke-width:39.3701; stroke-opacity:1; 
stroke-linecap:round; stroke-linejoin:round;">
</g>
<g style="fill:#000000; fill-opacity:0.0; 
stroke:#000000; stroke-width:59.0551; stroke-opacity:1; 
stroke-linecap:round; stroke-linejoin:round;">
<path d="M23622 77955
L23622 78742
" />
</g>
<g style="fill:#000000; fill-opacity:0.0; 
stroke:#000000; stroke-width:39.3701; stroke-opacity:1; 
stroke-linecap:round; stroke-linejoin:round;">
</g>
<g style="fill:#000000; fill-opacity:0.0; 
stroke:#000000; stroke-width:59.0551; stroke-opacity:1; 
stroke-linecap:round; stroke-linejoin:round;">
<path d="M43307 77955
L43307 78742
" />
</g>
<g style="fill:#000000; fill-opacity:0.0; 
stroke:#000000; stroke-width:39.3701; stroke-opacity:1; 
stroke-linecap:round; stroke-linejoin:round;">
</g>
<g style="fill:#000000; fill-opacity:0.0; 
stroke:#000000; stroke-width:59.0551; stroke-opacity:1; 
stroke-linecap:round; stroke-linejoin:round;">
<path d="M62992 77955
L62992 78742
" />
</g>
<g style="fill:#000000; fill-opacity:0.0; 
stroke:#000000; stroke-width:39.3701; stroke-opacity:1; 
stroke-linecap:round; stroke-linejoin:round;">
</g>
<g style="fill:#000000; fill-opacity:0.0; 
stroke:#000000; stroke-width:59.0551; stroke-opacity:1; 
stroke-linecap:round; stroke-linejoin:round;">
<path d="M82677 77955
L82677 78742
" />
</g>
<g style="fill:#000000; fill-opacity:0.0; 
stroke:#000000; stroke-width:39.3701; stroke-opacity:1; 
stroke-linecap:round; stroke-linejoin:round;">
</g>
<g style="fill:#000000; fill-opacity:0.0; 
stroke:#000000; stroke-width:59.0551; stroke-opacity:1; 
stroke-linecap:round; stroke-linejoin:round;">
<path d="M102362 77955
L102362 78742
" />
</g>
<g style="fill:#000000; fill-opacity:0.0; 
stroke:#000000; stroke-width:39.3701; stroke-opacity:1; 
stroke-linecap:round; stroke-linejoin:round;">
</g>
<g style="fill:#000000; fill-opacity:0.0; 
stroke:#000000; stroke-width:59.0551; stroke-opacity:1; 
stroke-linecap:round; stroke-linejoin:round;">
<path d="M14199 78580
L13906 78580
" />
<path d="M14052 78580
L14052 78069
L14004 78142
L13955 78190
L13906 78215
" />
</g>
<g style="fill:#000000; fill-opacity:0.0; 
stroke:#000000; stroke-width:39.3701; stroke-opacity:1; 
stroke-linecap:round; stroke-linejoin:round;">
</g>
<g style="fill:#000000; fill-opacity:0.0; 
stroke:#000000; stroke-width:59.0551; stroke-opacity:1; 
stroke-linecap:round; stroke-linejoin:round;">
<path d="M33591 78117
L33615 78093
L33664 78069
L33786 78069
L33835 78093
L33859 78117
L33884 78166
L33884 78215
L33859 78288
L33567 78580
L33884 78580
" />
</g>
<g style="fill:#000000; fill-opacity:0.0; 
stroke:#000000; stroke-width:39.3701; stroke-opacity:1; 
stroke-linecap:round; stroke-linejoin:round;">
</g>
<g style="fill:#000000; fill-opacity:0.0; 
stroke:#000000; stroke-width:59.0551; stroke-opacity:1; 
stroke-linecap:round; stroke-linejoin:round;">
<path d="M53252 78069
L53569 78069
L53398 78263
L53471 78263
L53520 78288
L53544 78312
L53569 78361
L53569 78483
L53544 78532
L53520 78556
L53471 78580
L53325 78580
L53276 78556
L53252 78532
" />
</g>
<g style="fill:#000000; fill-opacity:0.0; 
stroke:#000000; stroke-width:39.3701; stroke-opacity:1; 
stroke-linecap:round; stroke-linejoin:round;">
</g>
<g style="fill:#000000; fill-opacity:0.0; 
stroke:#000000; stroke-width:59.0551; stroke-opacity:1; 
stroke-linecap:round; stroke-linejoin:round;">
<path d="M73205 78239
L73205 78580
" />
<path d="M73083 78044
L72961 78410
L73278 78410
" />
</g>
<g style="fill:#000000; fill-opacity:0.0; 
stroke:#000000; stroke-width:39.3701; stroke-opacity:1; 
stroke-linecap:round; stroke-linejoin:round;">
</g>
<g style="fill:#000000; fill-opacity:0.0; 
stroke:#000000; stroke-width:59.0551; stroke-opacity:1; 
stroke-linecap:round; stroke-linejoin:round;">
<path d="M92914 78069
L92671 78069
L92646 78312
L92671 78288
L92719 78263
L92841 78263
L92890 78288
L92914 78312
L92939 78361
L92939 78483
L92914 78532
L92890 78556
L92841 78580
L92719 78580
L92671 78556
L92646 78532
" />
</g>
<g style="fill:#000000; fill-opacity:0.0; 
stroke:#000000; stroke-width:39.3701; stroke-opacity:1; 
stroke-linecap:round; stroke-linejoin:round;">
</g>
<g style="fill:#000000; fill-opacity:0.0; 
stroke:#000000; stroke-width:59.0551; stroke-opacity:1; 
stroke-linecap:round; stroke-linejoin:round;">
<path d="M112575 78069
L112477 78069
L112429 78093
L112404 78117
L112356 78190
L112331 78288
L112331 78483
L112356 78532
L112380 78556
L112429 78580
L112526 78580
L112575 78556
L112599 78532
L112624 78483
L112624 78361
L112599 78312
L112575 78288
L112526 78263
L112429 78263
L112380 78288
L112356 78312
L112331 78361
" />
</g>
<g style="fill:#000000; fill-opacity:0.0; 
stroke:#000000; stroke-width:39.3701; stroke-opacity:1; 
stroke-linecap:round; stroke-linejoin:round;">
</g>
<g style="fill:#000000; fill-opacity:0.0; 
stroke:#000000; stroke-width:59.0551; stroke-opacity:1; 
stroke-linecap:round; stroke-linejoin:round;">
<path d="M3937 23622
L4724 23622
" />
</g>
<g style="fill:#000000; fill-opacity:0.0; 
stroke:#000000; stroke-width:39.3701; stroke-opacity:1; 
stroke-linecap:round; stroke-linejoin:round;">
</g>
<g style="fill:#000000; fill-opacity:0.0; 
stroke:#000000; stroke-width:59.0551; stroke-opacity:1; 
stroke-linecap:round; stroke-linejoin:round;">
<path d="M3937 43307
L4724 43307
" />
</g>
<g style="fill:#000000; fill-opacity:0.0; 
stroke:#000000; stroke-width:39.3701; stroke-opacity:1; 
stroke-linecap:round; stroke-linejoin:round;">
</g>
<g style="fill:#000000; fill-opacity:0.0; 
stroke:#000000; stroke-width:59.0551; stroke-opacity:1; 
stroke-linecap:round; stroke-linejoin:round;">
<path d="M3937 62992
L4724 62992
" />
</g>
<g style="fill:#000000; fill-opacity:0.0; 
stroke:#000000; stroke-width:39.3701; stroke-opacity:1; 
stroke-linecap:round; stroke-linejoin:round;">
</g>
<g style="fill:#000000; fill-opacity:0.0; 
stroke:#000000; stroke-width:59.0551; stroke-opacity:1; 
stroke-linecap:round; stroke-linejoin:round;">
<path d="M4208 13864
L4452 13864
" />
<path d="M4160 14011
L4330 13499
L4501 14011
" />
</g>
<g style="fill:#000000; fill-opacity:0.0; 
stroke:#000000; stroke-width:39.3701; stroke-opacity:1; 
stroke-linecap:round; stroke-linejoin:round;">
</g>
<g style="fill:#000000; fill-opacity:0.0; 
stroke:#000000; stroke-width:59.0551; stroke-opacity:1; 
stroke-linecap:round; stroke-linejoin:round;">
<path d="M4367 33428
L4440 33452
L4464 33476
L4489 33525
L4489 33598
L4464 33647
L4440 33671
L4391 33696
L4196 33696
L4196 33184
L4367 33184
L4416 33208
L4440 33233
L4464 33281
L4464 33330
L4440 33379
L4416 33403
L4367 33428
L4196 33428
" />
</g>
<g style="fill:#000000; fill-opacity:0.0; 
stroke:#000000; stroke-width:39.3701; stroke-opacity:1; 
stroke-linecap:round; stroke-linejoin:round;">
</g>
<g style="fill:#000000; fill-opacity:0.0; 
stroke:#000000; stroke-width:59.0551; stroke-opacity:1; 
stroke-linecap:round; stroke-linejoin:round;">
<path d="M4489 53332
L4464 53356
L4391 53381
L4342 53381
L4269 53356
L4221 53308
L4196 53259
L4172 53161
L4172 53088
L4196 52991
L4221 52942
L4269 52893
L4342 52869
L4391 52869
L4464 52893
L4489 52918
" />
</g>
<g style="fill:#000000; fill-opacity:0.0; 
stroke:#000000; stroke-width:39.3701; stroke-opacity:1; 
stroke-linecap:round; stroke-linejoin:round;">
</g>
<g style="fill:#000000; fill-opacity:0.0; 
stroke:#000000; stroke-width:59.0551; stroke-opacity:1; 
stroke-linecap:round; stroke-linejoin:round;">
<path d="M4196 73066
L4196 72554
L4318 72554
L4391 72578
L4440 72627
L4464 72676
L4489 72773
L4489 72846
L4464 72944
L4440 72993
L4391 73041
L4318 73066
L4196 73066
" />
</g>
<g style="fill:#000000; fill-opacity:0.0; 
stroke:#000000; stroke-width:39.3701; stroke-opacity:1; 
stroke-linecap:round; stroke-linejoin:round;">
</g>
<g style="fill:#000000; fill-opacity:0.0; 
stroke:#000000; stroke-width:59.0551; stroke-opacity:1; 
stroke-linecap:round; stroke-linejoin:round;">
<path d="M112992 23622
L112205 23622
" />
</g>
<g style="fill:#000000; fill-opacity:0.0; 
stroke:#000000; stroke-width:39.3701; stroke-opacity:1; 
stroke-linecap:round; stroke-linejoin:round;">
</g>
<g style="fill:#000000; fill-opacity:0.0; 
stroke:#000000; stroke-width:59.0551; stroke-opacity:1; 
stroke-linecap:round; stroke-linejoin:round;">
<path d="M112992 43307
L112205 43307
" />
</g>
<g style="fill:#000000; fill-opacity:0.0; 
stroke:#000000; stroke-width:39.3701; stroke-opacity:1; 
stroke-linecap:round; stroke-linejoin:round;">
</g>
<g style="fill:#000000; fill-opacity:0.0; 
stroke:#000000; stroke-width:59.0551; stroke-opacity:1; 
stroke-linecap:round; stroke-linejoin:round;">
<path d="M112992 62992
L112205 62992
" />
</g>
<g style="fill:#000000; fill-opacity:0.0; 
stroke:#000000; stroke-width:39.3701; stroke-opacity:1; 
stroke-linecap:round; stroke-linejoin:round;">
</g>
<g style="fill:#000000; fill-opacity:0.0; 
stroke:#000000; stroke-width:59.0551; stroke-opacity:1; 
stroke-linecap:round; stroke-linejoin:round;">
<path d="M112477 13864
L112721 13864
" />
<path d="M112428 14011
L112599 13499
L112769 14011
" />
</g>
<g style="fill:#000000; fill-opacity:0.0; 
stroke:#000000; stroke-width:39.3701; stroke-opacity:1; 
stroke-linecap:round; stroke-linejoin:round;">
</g>
<g style="fill:#000000; fill-opacity:0.0; 
stroke:#000000; stroke-width:59.0551; stroke-opacity:1; 
stroke-linecap:round; stroke-linejoin:round;">
<path d="M112635 33428
L112708 33452
L112733 33476
L112757 33525
L112757 33598
L112733 33647
L112708 33671
L112660 33696
L112465 33696
L112465 33184
L112635 33184
L112684 33208
L112708 33233
L112733 33281
L112733 33330
L112708 33379
L112684 33403
L112635 33428
L112465 33428
" />
</g>
<g style="fill:#000000; fill-opacity:0.0; 
stroke:#000000; stroke-width:39.3701; stroke-opacity:1; 
stroke-linecap:round; stroke-linejoin:round;">
</g>
<g style="fill:#000000; fill-opacity:0.0; 
stroke:#000000; stroke-width:59.0551; stroke-opacity:1; 
stroke-linecap:round; stroke-linejoin:round;">
<path d="M112757 53332
L112733 53356
L112660 53381
L112611 53381
L112538 53356
L112489 53308
L112465 53259
L112440 53161
L112440 53088
L112465 52991
L112489 52942
L112538 52893
L112611 52869
L112660 52869
L112733 52893
L112757 52918
" />
</g>
<g style="fill:#000000; fill-opacity:0.0; 
stroke:#000000; stroke-width:39.3701; stroke-opacity:1; 
stroke-linecap:round; stroke-linejoin:round;">
</g>
<g style="fill:#000000; fill-opacity:0.0; 
stroke:#000000; stroke-width:59.0551; stroke-opacity:1; 
stroke-linecap:round; stroke-linejoin:round;">
<path d="M112465 73066
L112465 72554
L112587 72554
L112660 72578
L112708 72627
L112733 72676
L112757 72773
L112757 72846
L112733 72944
L112708 72993
L112660 73041
L112587 73066
L112465 73066
" />
</g>
<g style="fill:#000000; fill-opacity:0.0; 
stroke:#000000; stroke-width:39.3701; stroke-opacity:1; 
stroke-linecap:round; stroke-linejoin:round;">
</g>
<g style="fill:#000000; fill-opacity:0.0; 
stroke:#000000; stroke-width:59.0551; stroke-opacity:1; 
stroke-linecap:round; stroke-linejoin:round;">
<path d="M78911 76293
L78911 75703
L79051 75703
L79136 75731
L79192 75787
L79220 75843
L79248 75956
L79248 76040
L79220 76153
L79192 76209
L79136 76265
L79051 76293
L78911 76293
" />
<path d="M79754 76293
L79754 75984
L79726 75928
L79670 75899
L79557 75899
L79501 75928
" />
<path d="M79754 76265
L79698 76293
L79557 76293
L79501 76265
L79473 76209
L79473 76153
L79501 76096
L79557 76068
L79698 76068
L79754 76040
" />
<path d="M79951 75899
L80176 75899
" />
<path d="M80036 75703
L80036 76209
L80064 76265
L80120 76293
L80176 76293
" />
<path d="M80598 76265
L80542 76293
L80429 76293
L80373 76265
L80345 76209
L80345 75984
L80373 75928
L80429 75899
L80542 75899
L80598 75928
L80626 75984
L80626 76040
L80345 76096
" />
<path d="M80879 76237
L80907 76265
L80879 76293
L80851 76265
L80879 76237
L80879 76293
" />
<path d="M80879 75928
L80907 75956
L80879 75984
L80851 75956
L80879 75928
L80879 75984
" />
<path d="M81723 75703
L81779 75703
L81835 75731
L81863 75759
L81892 75815
L81920 75928
L81920 76068
L81892 76181
L81863 76237
L81835 76265
L81779 76293
L81723 76293
L81667 76265
L81638 76237
L81610 76181
L81582 76068
L81582 75928
L81610 75815
L81638 75759
L81667 75731
L81723 75703
" />
<path d="M82145 75759
L82173 75731
L82229 75703
L82370 75703
L82426 75731
L82454 75759
L82482 75815
L82482 75871
L82454 75956
L82117 76293
L82482 76293
" />
<path d="M82735 76237
L82763 76265
L82735 76293
L82707 76265
L82735 76237
L82735 76293
" />
<path d="M83326 76293
L82988 76293
" />
<path d="M83157 76293
L83157 75703
L83101 75787
L83045 75843
L82988 75871
" />
<path d="M83888 76293
L83551 76293
" />
<path d="M83719 76293
L83719 75703
L83663 75787
L83607 75843
L83551 75871
" />
<path d="M84141 76237
L84169 76265
L84141 76293
L84113 76265
L84141 76237
L84141 76293
" />
<path d="M84394 75759
L84422 75731
L84479 75703
L84619 75703
L84676 75731
L84704 75759
L84732 75815
L84732 75871
L84704 75956
L84366 76293
L84732 76293
" />
<path d="M85097 75703
L85154 75703
L85210 75731
L85238 75759
L85266 75815
L85294 75928
L85294 76068
L85266 76181
L85238 76237
L85210 76265
L85154 76293
L85097 76293
L85041 76265
L85013 76237
L84985 76181
L84957 76068
L84957 75928
L84985 75815
L85013 75759
L85041 75731
L85097 75703
" />
<path d="M85519 75759
L85547 75731
L85604 75703
L85744 75703
L85800 75731
L85829 75759
L85857 75815
L85857 75871
L85829 75956
L85491 76293
L85857 76293
" />
<path d="M86222 75703
L86278 75703
L86335 75731
L86363 75759
L86391 75815
L86419 75928
L86419 76068
L86391 76181
L86363 76237
L86335 76265
L86278 76293
L86222 76293
L86166 76265
L86138 76237
L86110 76181
L86082 76068
L86082 75928
L86110 75815
L86138 75759
L86166 75731
L86222 75703
" />
</g>
<g style="fill:#000000; fill-opacity:0.0; 
stroke:#000000; stroke-width:39.3701; stroke-opacity:1; 
stroke-linecap:round; stroke-linejoin:round;">
</g>
<g style="fill:#000000; fill-opacity:0.0; 
stroke:#000000; stroke-width:59.0551; stroke-opacity:1; 
stroke-linecap:round; stroke-linejoin:round;">
<path d="M69685 76577
L112205 76577
" />
</g>
<g style="fill:#000000; fill-opacity:0.0; 
stroke:#000000; stroke-width:39.3701; stroke-opacity:1; 
stroke-linecap:round; stroke-linejoin:round;">
</g>
<g style="fill:#000000; fill-opacity:0.0; 
stroke:#000000; stroke-width:59.0551; stroke-opacity:1; 
stroke-linecap:round; stroke-linejoin:round;">
<path d="M70249 77395
L70249 76805
" />
<path d="M70587 77395
L70334 77058
" />
<path d="M70587 76805
L70249 77142
" />
<path d="M70840 77395
L70840 77002
" />
<path d="M70840 76805
L70812 76833
L70840 76861
L70868 76833
L70840 76805
L70840 76861
" />
<path d="M71458 77339
L71430 77367
L71346 77395
L71290 77395
L71205 77367
L71149 77311
L71121 77255
L71093 77142
L71093 77058
L71121 76946
L71149 76889
L71205 76833
L71290 76805
L71346 76805
L71430 76833
L71458 76861
" />
<path d="M71965 77395
L71965 77086
L71937 77030
L71880 77002
L71768 77002
L71712 77030
" />
<path d="M71965 77367
L71908 77395
L71768 77395
L71712 77367
L71683 77311
L71683 77255
L71712 77199
L71768 77171
L71908 77171
L71965 77142
" />
<path d="M72499 77395
L72499 76805
" />
<path d="M72499 77367
L72443 77395
L72330 77395
L72274 77367
L72246 77339
L72218 77283
L72218 77114
L72246 77058
L72274 77030
L72330 77002
L72443 77002
L72499 77030
" />
<path d="M73230 77086
L73427 77086
" />
<path d="M73511 77395
L73230 77395
L73230 76805
L73511 76805
" />
<path d="M73764 77339
L73793 77367
L73764 77395
L73736 77367
L73764 77339
L73764 77395
" />
<path d="M74046 77395
L74046 76805
L74186 76805
L74271 76833
L74327 76889
L74355 76946
L74383 77058
L74383 77142
L74355 77255
L74327 77311
L74271 77367
L74186 77395
L74046 77395
" />
<path d="M74636 77339
L74664 77367
L74636 77395
L74608 77367
L74636 77339
L74636 77395
" />
<path d="M74889 77227
L75171 77227
" />
<path d="M74833 77395
L75030 76805
L75227 77395
" />
<path d="M75424 77339
L75452 77367
L75424 77395
L75395 77367
L75424 77339
L75424 77395
" />
<path d="M76605 77395
L76605 76805
" />
<path d="M76661 77171
L76830 77395
" />
<path d="M76830 77002
L76605 77227
" />
<path d="M77083 77395
L77083 77002
" />
<path d="M77083 76805
L77055 76833
L77083 76861
L77111 76833
L77083 76805
L77083 76861
" />
<path d="M77617 77367
L77561 77395
L77448 77395
L77392 77367
L77364 77339
L77336 77283
L77336 77114
L77364 77058
L77392 77030
L77448 77002
L77561 77002
L77617 77030
" />
<path d="M78123 77395
L78123 77086
L78095 77030
L78039 77002
L77926 77002
L77870 77030
" />
<path d="M78123 77367
L78067 77395
L77926 77395
L77870 77367
L77842 77311
L77842 77255
L77870 77199
L77926 77171
L78067 77171
L78123 77142
" />
<path d="M78658 77395
L78658 76805
" />
<path d="M78658 77367
L78601 77395
L78489 77395
L78433 77367
L78404 77339
L78376 77283
L78376 77114
L78404 77058
L78433 77030
L78489 77002
L78601 77002
L78658 77030
" />
<path d="M79557 77620
L79529 77592
L79473 77508
L79445 77452
L79417 77367
L79389 77227
L79389 77114
L79417 76974
L79445 76889
L79473 76833
L79529 76749
L79557 76721
" />
<path d="M80064 76805
L79782 76805
L79754 77086
L79782 77058
L79839 77030
L79979 77030
L80036 77058
L80064 77086
L80092 77142
L80092 77283
L80064 77339
L80036 77367
L79979 77395
L79839 77395
L79782 77367
L79754 77339
" />
<path d="M80345 77339
L80373 77367
L80345 77395
L80317 77367
L80345 77339
L80345 77395
" />
<path d="M80935 77395
L80598 77395
" />
<path d="M80767 77395
L80767 76805
L80710 76889
L80654 76946
L80598 76974
" />
<path d="M81188 77339
L81217 77367
L81188 77395
L81160 77367
L81188 77339
L81188 77395
" />
<path d="M81582 76805
L81638 76805
L81695 76833
L81723 76861
L81751 76917
L81779 77030
L81779 77171
L81751 77283
L81723 77339
L81695 77367
L81638 77395
L81582 77395
L81526 77367
L81498 77339
L81470 77283
L81442 77171
L81442 77030
L81470 76917
L81498 76861
L81526 76833
L81582 76805
" />
<path d="M81976 77620
L82004 77592
L82060 77508
L82088 77452
L82117 77367
L82145 77227
L82145 77114
L82117 76974
L82088 76889
L82060 76833
L82004 76749
L81976 76721
" />
<path d="M82426 77171
L82876 77171
" />
<path d="M83466 77395
L83129 77395
" />
<path d="M83298 77395
L83298 76805
L83241 76889
L83185 76946
L83129 76974
" />
</g>
<g style="fill:#000000; fill-opacity:0.0; 
stroke:#000000; stroke-width:39.3701; stroke-opacity:1; 
stroke-linecap:round; stroke-linejoin:round;">
</g>
<g style="fill:#000000; fill-opacity:0.0; 
stroke:#000000; stroke-width:59.0551; stroke-opacity:1; 
stroke-linecap:round; stroke-linejoin:round;">
<path d="M69685 75396
L112205 75396
" />
</g>
<g style="fill:#000000; fill-opacity:0.0; 
stroke:#000000; stroke-width:39.3701; stroke-opacity:1; 
stroke-linecap:round; stroke-linejoin:round;">
</g>
<g style="fill:#000000; fill-opacity:0.0; 
stroke:#000000; stroke-width:118.11; stroke-opacity:1; 
stroke-linecap:round; stroke-linejoin:round;">
<path d="M104099 76293
L103902 76012
" />
<path d="M103761 76293
L103761 75703
L103986 75703
L104042 75731
L104070 75759
L104099 75815
L104099 75899
L104070 75956
L104042 75984
L103986 76012
L103761 76012
" />
<path d="M104577 76265
L104520 76293
L104408 76293
L104352 76265
L104323 76209
L104323 75984
L104352 75928
L104408 75899
L104520 75899
L104577 75928
L104605 75984
L104605 76040
L104323 76096
" />
<path d="M104802 75899
L104942 76293
L105083 75899
" />
<path d="M105308 76237
L105336 76265
L105308 76293
L105280 76265
L105308 76237
L105308 76293
" />
<path d="M105308 75928
L105336 75956
L105308 75984
L105280 75956
L105308 75928
L105308 75984
" />
<path d="M105955 75703
L106151 76293
L106348 75703
" />
<path d="M106854 76293
L106517 76293
" />
<path d="M106686 76293
L106686 75703
L106629 75787
L106573 75843
L106517 75871
" />
<path d="M107108 76237
L107136 76265
L107108 76293
L107079 76265
L107108 76237
L107108 76293
" />
<path d="M107501 75703
L107557 75703
L107614 75731
L107642 75759
L107670 75815
L107698 75928
L107698 76068
L107670 76181
L107642 76237
L107614 76265
L107557 76293
L107501 76293
L107445 76265
L107417 76237
L107389 76181
L107361 76068
L107361 75928
L107389 75815
L107417 75759
L107445 75731
L107501 75703
" />
</g>
<g style="fill:#000000; fill-opacity:0.0; 
stroke:#000000; stroke-width:39.3701; stroke-opacity:1; 
stroke-linecap:round; stroke-linejoin:round;">
</g>
<g style="fill:#000000; fill-opacity:0.0; 
stroke:#000000; stroke-width:59.0551; stroke-opacity:1; 
stroke-linecap:round; stroke-linejoin:round;">
<path d="M70221 76265
L70305 76293
L70446 76293
L70502 76265
L70530 76237
L70559 76181
L70559 76124
L70530 76068
L70502 76040
L70446 76012
L70334 75984
L70277 75956
L70249 75928
L70221 75871
L70221 75815
L70249 75759
L70277 75731
L70334 75703
L70474 75703
L70559 75731
" />
<path d="M70812 76293
L70812 75899
" />
<path d="M70812 75703
L70784 75731
L70812 75759
L70840 75731
L70812 75703
L70812 75759
" />
<path d="M71037 75899
L71346 75899
L71037 76293
L71346 76293
" />
<path d="M71796 76265
L71740 76293
L71627 76293
L71571 76265
L71543 76209
L71543 75984
L71571 75928
L71627 75899
L71740 75899
L71796 75928
L71824 75984
L71824 76040
L71543 76096
" />
<path d="M72077 76237
L72105 76265
L72077 76293
L72049 76265
L72077 76237
L72077 76293
" />
<path d="M72077 75928
L72105 75956
L72077 75984
L72049 75956
L72077 75928
L72077 75984
" />
<path d="M72780 76124
L73061 76124
" />
<path d="M72724 76293
L72921 75703
L73118 76293
" />
<path d="M73568 75899
L73568 76293
" />
<path d="M73427 75674
L73286 76096
L73652 76096
" />
</g>
<g style="fill:#000000; fill-opacity:0.0; 
stroke:#000000; stroke-width:39.3701; stroke-opacity:1; 
stroke-linecap:round; stroke-linejoin:round;">
</g>
<g style="fill:#000000; fill-opacity:0.0; 
stroke:#000000; stroke-width:59.0551; stroke-opacity:1; 
stroke-linecap:round; stroke-linejoin:round;">
<path d="M103714 77395
L103714 76805
" />
<path d="M104248 77395
L104248 76805
" />
<path d="M104248 77367
L104192 77395
L104079 77395
L104023 77367
L103995 77339
L103967 77283
L103967 77114
L103995 77058
L104023 77030
L104079 77002
L104192 77002
L104248 77030
" />
<path d="M104529 77339
L104557 77367
L104529 77395
L104501 77367
L104529 77339
L104529 77395
" />
<path d="M104529 77030
L104557 77058
L104529 77086
L104501 77058
L104529 77030
L104529 77086
" />
<path d="M105570 77395
L105232 77395
" />
<path d="M105401 77395
L105401 76805
L105345 76889
L105289 76946
L105232 76974
" />
<path d="M106245 76777
L105739 77536
" />
<path d="M106751 77395
L106413 77395
" />
<path d="M106582 77395
L106582 76805
L106526 76889
L106470 76946
L106413 76974
" />
</g>
<g style="fill:#000000; fill-opacity:0.0; 
stroke:#000000; stroke-width:39.3701; stroke-opacity:1; 
stroke-linecap:round; stroke-linejoin:round;">
</g>
<g style="fill:#000000; fill-opacity:0.0; 
stroke:#000000; stroke-width:59.0551; stroke-opacity:1; 
stroke-linecap:round; stroke-linejoin:round;">
<path d="M69685 73821
L112205 73821
" />
</g>
<g style="fill:#000000; fill-opacity:0.0; 
stroke:#000000; stroke-width:39.3701; stroke-opacity:1; 
stroke-linecap:round; stroke-linejoin:round;">
</g>
<g style="fill:#000000; fill-opacity:0.0; 
stroke:#000000; stroke-width:157.48; stroke-opacity:1; 
stroke-linecap:round; stroke-linejoin:round;">
<path d="M70360 74099
L70810 74099
" />
<path d="M70486 74886
L70585 74099
" />
<path d="M70974 74886
L71039 74361
" />
<path d="M71072 74099
L71030 74136
L71063 74174
L71105 74136
L71072 74099
L71063 74174
" />
<path d="M71302 74361
L71602 74361
" />
<path d="M71447 74099
L71363 74774
L71391 74849
L71461 74886
L71536 74886
" />
<path d="M71911 74886
L71841 74849
L71813 74774
L71897 74099
" />
<path d="M72516 74849
L72436 74886
L72286 74886
L72216 74849
L72187 74774
L72225 74474
L72272 74399
L72352 74361
L72501 74361
L72572 74399
L72600 74474
L72591 74549
L72206 74624
" />
<path d="M72895 74811
L72928 74849
L72886 74886
L72853 74849
L72895 74811
L72886 74886
" />
<path d="M72947 74399
L72980 74436
L72937 74474
L72905 74436
L72947 74399
L72937 74474
" />
<path d="M73912 74174
L73954 74136
L74034 74099
L74222 74099
L74292 74136
L74325 74174
L74353 74249
L74343 74324
L74292 74436
L73786 74886
L74273 74886
" />
<path d="M75553 74849
L75473 74886
L75323 74886
L75253 74849
L75220 74811
L75192 74736
L75220 74511
L75267 74436
L75309 74399
L75389 74361
L75539 74361
L75609 74399
" />
<path d="M76223 74886
L76274 74474
L76246 74399
L76176 74361
L76026 74361
L75946 74399
" />
<path d="M76228 74849
L76148 74886
L75960 74886
L75890 74849
L75862 74774
L75871 74699
L75918 74624
L75998 74586
L76185 74586
L76265 74549
" />
<path d="M76565 74849
L76635 74886
L76785 74886
L76865 74849
L76912 74774
L76917 74736
L76888 74661
L76818 74624
L76706 74624
L76635 74586
L76607 74511
L76612 74474
L76659 74399
L76738 74361
L76851 74361
L76921 74399
" />
<path d="M77577 74849
L77498 74886
L77348 74886
L77277 74849
L77245 74811
L77217 74736
L77245 74511
L77292 74436
L77334 74399
L77413 74361
L77563 74361
L77634 74399
" />
<path d="M78248 74886
L78299 74474
L78271 74399
L78201 74361
L78051 74361
L77971 74399
" />
<path d="M78252 74849
L78173 74886
L77985 74886
L77915 74849
L77887 74774
L77896 74699
L77943 74624
L78023 74586
L78210 74586
L78290 74549
" />
<path d="M78960 74886
L79058 74099
" />
<path d="M78965 74849
L78885 74886
L78735 74886
L78665 74849
L78632 74811
L78604 74736
L78632 74511
L78679 74436
L78721 74399
L78801 74361
L78951 74361
L79021 74399
" />
<path d="M79640 74849
L79560 74886
L79410 74886
L79340 74849
L79312 74774
L79349 74474
L79396 74399
L79476 74361
L79626 74361
L79696 74399
L79724 74474
L79715 74549
L79330 74624
" />
<path d="M80947 74886
L80999 74474
L80971 74399
L80900 74361
L80750 74361
L80671 74399
" />
<path d="M80952 74849
L80872 74886
L80685 74886
L80615 74849
L80586 74774
L80596 74699
L80643 74624
L80722 74586
L80910 74586
L80989 74549
" />
<path d="M81725 74361
L81660 74886
" />
<path d="M81388 74361
L81336 74774
L81364 74849
L81435 74886
L81547 74886
L81627 74849
L81669 74811
" />
<path d="M82372 74886
L82471 74099
" />
<path d="M82377 74849
L82297 74886
L82147 74886
L82077 74849
L82044 74811
L82016 74736
L82044 74511
L82091 74436
L82133 74399
L82213 74361
L82363 74361
L82433 74399
" />
<path d="M82747 74886
L82813 74361
" />
<path d="M82846 74099
L82803 74136
L82836 74174
L82878 74136
L82846 74099
L82836 74174
" />
<path d="M83235 74886
L83164 74849
L83131 74811
L83103 74736
L83131 74511
L83178 74436
L83220 74399
L83300 74361
L83413 74361
L83483 74399
L83516 74436
L83544 74511
L83516 74736
L83469 74811
L83427 74849
L83347 74886
L83235 74886
" />
<path d="M84772 74886
L84823 74474
L84795 74399
L84725 74361
L84575 74361
L84495 74399
" />
<path d="M84777 74849
L84697 74886
L84509 74886
L84439 74849
L84411 74774
L84420 74699
L84467 74624
L84547 74586
L84734 74586
L84814 74549
" />
<path d="M85147 74886
L85212 74361
" />
<path d="M85203 74436
L85245 74399
L85325 74361
L85437 74361
L85508 74399
L85536 74474
L85484 74886
" />
<path d="M85536 74474
L85583 74399
L85662 74361
L85775 74361
L85845 74399
L85873 74474
L85822 74886
" />
<path d="M86262 74361
L86164 75149
" />
<path d="M86258 74399
L86337 74361
L86487 74361
L86558 74399
L86590 74436
L86618 74511
L86590 74736
L86543 74811
L86501 74849
L86422 74886
L86272 74886
L86201 74849
" />
<path d="M87022 74886
L86951 74849
L86923 74774
L87007 74099
" />
<path d="M87322 74886
L87387 74361
" />
<path d="M87420 74099
L87378 74136
L87411 74174
L87453 74136
L87420 74099
L87411 74174
" />
<path d="M87650 74361
L87950 74361
" />
<path d="M87696 74886
L87781 74211
L87828 74136
L87907 74099
L87982 74099
" />
<path d="M88146 74886
L88212 74361
" />
<path d="M88245 74099
L88203 74136
L88235 74174
L88278 74136
L88245 74099
L88235 74174
" />
<path d="M88826 74849
L88746 74886
L88596 74886
L88526 74849
L88498 74774
L88535 74474
L88582 74399
L88662 74361
L88812 74361
L88882 74399
L88910 74474
L88901 74549
L88517 74624
" />
<path d="M89196 74886
L89262 74361
" />
<path d="M89243 74511
L89290 74436
L89332 74399
L89412 74361
L89487 74361
" />
</g>
<g style="fill:#000000; fill-opacity:0.0; 
stroke:#000000; stroke-width:39.3701; stroke-opacity:1; 
stroke-linecap:round; stroke-linejoin:round;">
</g>
<g style="fill:#000000; fill-opacity:0.0; 
stroke:#000000; stroke-width:59.0551; stroke-opacity:1; 
stroke-linecap:round; stroke-linejoin:round;">
<path d="M70446 73070
L70249 73070
" />
<path d="M70249 73380
L70249 72789
L70530 72789
" />
<path d="M70755 73380
L70755 72986
" />
<path d="M70755 72789
L70727 72817
L70755 72845
L70784 72817
L70755 72789
L70755 72845
" />
<path d="M71121 73380
L71065 73352
L71037 73295
L71037 72789
" />
<path d="M71571 73352
L71515 73380
L71402 73380
L71346 73352
L71318 73295
L71318 73070
L71346 73014
L71402 72986
L71515 72986
L71571 73014
L71599 73070
L71599 73127
L71318 73183
" />
<path d="M71852 73323
L71880 73352
L71852 73380
L71824 73352
L71852 73323
L71852 73380
" />
<path d="M71852 73014
L71880 73042
L71852 73070
L71824 73042
L71852 73014
L71852 73070
" />
<path d="M72555 73352
L72640 73380
L72780 73380
L72836 73352
L72865 73323
L72893 73267
L72893 73211
L72865 73155
L72836 73127
L72780 73099
L72668 73070
L72611 73042
L72583 73014
L72555 72958
L72555 72902
L72583 72845
L72611 72817
L72668 72789
L72808 72789
L72893 72817
" />
<path d="M73146 73380
L73146 72986
" />
<path d="M73146 72789
L73118 72817
L73146 72845
L73174 72817
L73146 72789
L73146 72845
" />
<path d="M73427 72986
L73427 73380
" />
<path d="M73427 73042
L73455 73014
L73511 72986
L73596 72986
L73652 73014
L73680 73070
L73680 73380
" />
<path d="M74214 72986
L74214 73464
L74186 73520
L74158 73548
L74102 73577
L74018 73577
L73961 73548
" />
<path d="M74214 73352
L74158 73380
L74046 73380
L73989 73352
L73961 73323
L73933 73267
L73933 73099
L73961 73042
L73989 73014
L74046 72986
L74158 72986
L74214 73014
" />
<path d="M74580 73380
L74524 73352
L74496 73295
L74496 72789
" />
<path d="M75030 73352
L74974 73380
L74861 73380
L74805 73352
L74777 73295
L74777 73070
L74805 73014
L74861 72986
L74974 72986
L75030 73014
L75058 73070
L75058 73127
L74777 73183
" />
<path d="M75171 73436
L75620 73436
" />
<path d="M75677 72986
L75902 72986
" />
<path d="M75761 72789
L75761 73295
L75789 73352
L75845 73380
L75902 73380
" />
<path d="M76099 73380
L76099 72986
" />
<path d="M76099 73099
L76127 73042
L76155 73014
L76211 72986
L76267 72986
" />
<path d="M76717 73380
L76717 73070
L76689 73014
L76633 72986
L76520 72986
L76464 73014
" />
<path d="M76717 73352
L76661 73380
L76520 73380
L76464 73352
L76436 73295
L76436 73239
L76464 73183
L76520 73155
L76661 73155
L76717 73127
" />
<path d="M76998 72986
L76998 73380
" />
<path d="M76998 73042
L77027 73014
L77083 72986
L77167 72986
L77223 73014
L77251 73070
L77251 73380
" />
<path d="M77505 73352
L77561 73380
L77673 73380
L77730 73352
L77758 73295
L77758 73267
L77730 73211
L77673 73183
L77589 73183
L77533 73155
L77505 73099
L77505 73070
L77533 73014
L77589 72986
L77673 72986
L77730 73014
" />
<path d="M78011 73380
L78011 72986
" />
<path d="M78011 72789
L77983 72817
L78011 72845
L78039 72817
L78011 72789
L78011 72845
" />
<path d="M78264 73352
L78320 73380
L78433 73380
L78489 73352
L78517 73295
L78517 73267
L78489 73211
L78433 73183
L78348 73183
L78292 73155
L78264 73099
L78264 73070
L78292 73014
L78348 72986
L78433 72986
L78489 73014
" />
<path d="M78686 72986
L78911 72986
" />
<path d="M78770 72789
L78770 73295
L78798 73352
L78854 73380
L78911 73380
" />
<path d="M79192 73380
L79136 73352
L79108 73323
L79079 73267
L79079 73099
L79108 73042
L79136 73014
L79192 72986
L79276 72986
L79332 73014
L79361 73042
L79389 73099
L79389 73267
L79361 73323
L79332 73352
L79276 73380
L79192 73380
" />
<path d="M79642 73380
L79642 72986
" />
<path d="M79642 73099
L79670 73042
L79698 73014
L79754 72986
L79811 72986
" />
<path d="M79867 73436
L80317 73436
" />
<path d="M80429 73211
L80710 73211
" />
<path d="M80373 73380
L80570 72789
L80767 73380
" />
<path d="M80964 73380
L80964 72789
L81160 73211
L81357 72789
L81357 73380
" />
<path d="M81638 73380
L81638 72789
L81863 72789
L81920 72817
L81948 72845
L81976 72902
L81976 72986
L81948 73042
L81920 73070
L81863 73099
L81638 73099
" />
<path d="M82229 73323
L82257 73352
L82229 73380
L82201 73352
L82229 73323
L82229 73380
" />
<path d="M82510 73380
L82510 72789
" />
<path d="M82566 73155
L82735 73380
" />
<path d="M82735 72986
L82510 73211
" />
<path d="M82988 73380
L82988 72986
" />
<path d="M82988 72789
L82960 72817
L82988 72845
L83016 72817
L82988 72789
L82988 72845
" />
<path d="M83523 73352
L83466 73380
L83354 73380
L83298 73352
L83269 73323
L83241 73267
L83241 73099
L83269 73042
L83298 73014
L83354 72986
L83466 72986
L83523 73014
" />
<path d="M84029 73380
L84029 73070
L84001 73014
L83944 72986
L83832 72986
L83776 73014
" />
<path d="M84029 73352
L83973 73380
L83832 73380
L83776 73352
L83748 73295
L83748 73239
L83776 73183
L83832 73155
L83973 73155
L84029 73127
" />
<path d="M84563 73380
L84563 72789
" />
<path d="M84563 73352
L84507 73380
L84394 73380
L84338 73352
L84310 73323
L84282 73267
L84282 73099
L84310 73042
L84338 73014
L84394 72986
L84507 72986
L84563 73014
" />
<path d="M84704 73436
L85154 73436
" />
<path d="M85294 72986
L85294 73577
" />
<path d="M85294 73014
L85350 72986
L85463 72986
L85519 73014
L85547 73042
L85575 73099
L85575 73267
L85547 73323
L85519 73352
L85463 73380
L85350 73380
L85294 73352
" />
<path d="M86082 73352
L86025 73380
L85913 73380
L85857 73352
L85829 73323
L85800 73267
L85800 73099
L85829 73042
L85857 73014
L85913 72986
L86025 72986
L86082 73014
" />
<path d="M86335 73380
L86335 72789
" />
<path d="M86335 73014
L86391 72986
L86503 72986
L86560 73014
L86588 73042
L86616 73099
L86616 73267
L86588 73323
L86560 73352
L86503 73380
L86391 73380
L86335 73352
" />
</g>
<g style="fill:#000000; fill-opacity:0.0; 
stroke:#000000; stroke-width:39.3701; stroke-opacity:1; 
stroke-linecap:round; stroke-linejoin:round;">
</g>
<g style="fill:#000000; fill-opacity:0.0; 
stroke:#000000; stroke-width:59.0551; stroke-opacity:1; 
stroke-linecap:round; stroke-linejoin:round;">
<path d="M69685 71459
L112205 71459
" />
</g>
<g style="fill:#000000; fill-opacity:0.0; 
stroke:#000000; stroke-width:39.3701; stroke-opacity:1; 
stroke-linecap:round; stroke-linejoin:round;">
</g>
<g style="fill:#000000; fill-opacity:0.0; 
stroke:#000000; stroke-width:59.0551; stroke-opacity:1; 
stroke-linecap:round; stroke-linejoin:round;">
<path d="M70221 72289
L70305 72317
L70446 72317
L70502 72289
L70530 72260
L70559 72204
L70559 72148
L70530 72092
L70502 72064
L70446 72036
L70334 72007
L70277 71979
L70249 71951
L70221 71895
L70221 71839
L70249 71782
L70277 71754
L70334 71726
L70474 71726
L70559 71754
" />
<path d="M70812 72317
L70812 71726
" />
<path d="M71065 72317
L71065 72007
L71037 71951
L70980 71923
L70896 71923
L70840 71951
L70812 71979
" />
<path d="M71571 72289
L71515 72317
L71402 72317
L71346 72289
L71318 72232
L71318 72007
L71346 71951
L71402 71923
L71515 71923
L71571 71951
L71599 72007
L71599 72064
L71318 72120
" />
<path d="M72077 72289
L72021 72317
L71908 72317
L71852 72289
L71824 72232
L71824 72007
L71852 71951
L71908 71923
L72021 71923
L72077 71951
L72105 72007
L72105 72064
L71824 72120
" />
<path d="M72274 71923
L72499 71923
" />
<path d="M72358 71726
L72358 72232
L72386 72289
L72443 72317
L72499 72317
" />
<path d="M72696 72260
L72724 72289
L72696 72317
L72668 72289
L72696 72260
L72696 72317
" />
<path d="M72696 71951
L72724 71979
L72696 72007
L72668 71979
L72696 71951
L72696 72007
" />
</g>
<g style="fill:#000000; fill-opacity:0.0; 
stroke:#000000; stroke-width:39.3701; stroke-opacity:1; 
stroke-linecap:round; stroke-linejoin:round;">
</g>
<g style="fill:#000000; fill-opacity:0.0; 
stroke:#000000; stroke-width:118.11; stroke-opacity:1; 
stroke-linecap:round; stroke-linejoin:round;">
<path d="M70212 70545
L70409 71136
L70606 70545
" />
<path d="M71028 71108
L70971 71136
L70859 71136
L70803 71108
L70775 71051
L70775 70826
L70803 70770
L70859 70742
L70971 70742
L71028 70770
L71056 70826
L71056 70883
L70775 70939
" />
<path d="M71281 70967
L71562 70967
" />
<path d="M71224 71136
L71421 70545
L71618 71136
" />
</g>
<g style="fill:#000000; fill-opacity:0.0; 
stroke:#000000; stroke-width:39.3701; stroke-opacity:1; 
stroke-linecap:round; stroke-linejoin:round;">
</g>
<g style="fill:#000000; fill-opacity:0.0; 
stroke:#000000; stroke-width:59.0551; stroke-opacity:1; 
stroke-linecap:round; stroke-linejoin:round;">
<path d="M70249 69955
L70249 69364
L70474 69364
L70530 69392
L70559 69420
L70587 69476
L70587 69561
L70559 69617
L70530 69645
L70474 69673
L70249 69673
" />
<path d="M71177 69898
L71149 69926
L71065 69955
L71009 69955
L70924 69926
L70868 69870
L70840 69814
L70812 69701
L70812 69617
L70840 69505
L70868 69448
L70924 69392
L71009 69364
L71065 69364
L71149 69392
L71177 69420
" />
<path d="M71627 69645
L71712 69673
L71740 69701
L71768 69758
L71768 69842
L71740 69898
L71712 69926
L71655 69955
L71430 69955
L71430 69364
L71627 69364
L71683 69392
L71712 69420
L71740 69476
L71740 69533
L71712 69589
L71683 69617
L71627 69645
L71430 69645
" />
<path d="M71880 70011
L72330 70011
" />
<path d="M72808 69898
L72780 69926
L72696 69955
L72640 69955
L72555 69926
L72499 69870
L72471 69814
L72443 69701
L72443 69617
L72471 69505
L72499 69448
L72555 69392
L72640 69364
L72696 69364
L72780 69392
L72808 69420
" />
<path d="M73033 69786
L73314 69786
" />
<path d="M72977 69955
L73174 69364
L73371 69955
" />
<path d="M73568 69955
L73568 69364
L73708 69364
L73793 69392
L73849 69448
L73877 69505
L73905 69617
L73905 69701
L73877 69814
L73849 69870
L73793 69926
L73708 69955
L73568 69955
" />
<path d="M74608 69955
L74608 69364
" />
<path d="M74664 69730
L74833 69955
" />
<path d="M74833 69561
L74608 69786
" />
<path d="M75339 69561
L75339 69955
" />
<path d="M75086 69561
L75086 69870
L75114 69926
L75171 69955
L75255 69955
L75311 69926
L75339 69898
" />
<path d="M75620 69955
L75620 69561
" />
<path d="M75620 69673
L75649 69617
L75677 69589
L75733 69561
L75789 69561
" />
<path d="M75958 69926
L76014 69955
L76127 69955
L76183 69926
L76211 69870
L76211 69842
L76183 69786
L76127 69758
L76042 69758
L75986 69730
L75958 69673
L75958 69645
L75986 69589
L76042 69561
L76127 69561
L76183 69589
" />
<path d="M76436 69926
L76492 69955
L76605 69955
L76661 69926
L76689 69870
L76689 69842
L76661 69786
L76605 69758
L76520 69758
L76464 69730
L76436 69673
L76436 69645
L76464 69589
L76520 69561
L76605 69561
L76661 69589
" />
</g>
<g style="fill:#000000; fill-opacity:0.0; 
stroke:#000000; stroke-width:39.3701; stroke-opacity:1; 
stroke-linecap:round; stroke-linejoin:round;">
</g>
<g style="fill:#000000; fill-opacity:0.0; 
stroke:#000000; stroke-width:59.0551; stroke-opacity:1; 
stroke-linecap:round; stroke-linejoin:round;">
<path d="M70587 68773
L70390 68492
" />
<path d="M70249 68773
L70249 68183
L70474 68183
L70530 68211
L70559 68239
L70587 68295
L70587 68380
L70559 68436
L70530 68464
L70474 68492
L70249 68492
" />
<path d="M70924 68773
L70868 68745
L70840 68717
L70812 68661
L70812 68492
L70840 68436
L70868 68408
L70924 68380
L71009 68380
L71065 68408
L71093 68436
L71121 68492
L71121 68661
L71093 68717
L71065 68745
L71009 68773
L70924 68773
" />
<path d="M71627 68773
L71627 68183
" />
<path d="M71627 68745
L71571 68773
L71458 68773
L71402 68745
L71374 68717
L71346 68661
L71346 68492
L71374 68436
L71402 68408
L71458 68380
L71571 68380
L71627 68408
" />
<path d="M71908 68773
L71908 68380
" />
<path d="M71908 68492
L71937 68436
L71965 68408
L72021 68380
L72077 68380
" />
<path d="M72274 68773
L72274 68380
" />
<path d="M72274 68183
L72246 68211
L72274 68239
L72302 68211
L72274 68183
L72274 68239
" />
<path d="M72808 68380
L72808 68858
L72780 68914
L72752 68942
L72696 68970
L72611 68970
L72555 68942
" />
<path d="M72808 68745
L72752 68773
L72640 68773
L72583 68745
L72555 68717
L72527 68661
L72527 68492
L72555 68436
L72583 68408
L72640 68380
L72752 68380
L72808 68408
" />
<path d="M73174 68773
L73118 68745
L73090 68717
L73061 68661
L73061 68492
L73090 68436
L73118 68408
L73174 68380
L73258 68380
L73314 68408
L73343 68436
L73371 68492
L73371 68661
L73343 68717
L73314 68745
L73258 68773
L73174 68773
" />
<path d="M74355 68773
L74074 68773
L74074 68183
" />
<path d="M74805 68773
L74805 68464
L74777 68408
L74721 68380
L74608 68380
L74552 68408
" />
<path d="M74805 68745
L74749 68773
L74608 68773
L74552 68745
L74524 68689
L74524 68633
L74552 68577
L74608 68548
L74749 68548
L74805 68520
" />
<path d="M75339 68380
L75339 68773
" />
<path d="M75086 68380
L75086 68689
L75114 68745
L75171 68773
L75255 68773
L75311 68745
L75339 68717
" />
<path d="M75620 68773
L75620 68380
" />
<path d="M75620 68492
L75649 68436
L75677 68408
L75733 68380
L75789 68380
" />
<path d="M75986 68773
L75986 68380
" />
<path d="M75986 68183
L75958 68211
L75986 68239
L76014 68211
L75986 68183
L75986 68239
" />
<path d="M76267 68380
L76267 68773
" />
<path d="M76267 68436
L76295 68408
L76352 68380
L76436 68380
L76492 68408
L76520 68464
L76520 68773
" />
<path d="M76886 68773
L76830 68745
L76802 68717
L76773 68661
L76773 68492
L76802 68436
L76830 68408
L76886 68380
L76970 68380
L77027 68408
L77055 68436
L77083 68492
L77083 68661
L77055 68717
L77027 68745
L76970 68773
L76886 68773
" />
<path d="M77280 68380
L77420 68773
L77561 68380
" />
<path d="M77786 68773
L77786 68380
" />
<path d="M77786 68183
L77758 68211
L77786 68239
L77814 68211
L77786 68183
L77786 68239
" />
<path d="M78320 68745
L78264 68773
L78151 68773
L78095 68745
L78067 68717
L78039 68661
L78039 68492
L78067 68436
L78095 68408
L78151 68380
L78264 68380
L78320 68408
" />
<path d="M78095 68155
L78208 68239
L78320 68155
" />
<path d="M78545 68745
L78601 68773
L78714 68773
L78770 68745
L78798 68689
L78798 68661
L78770 68605
L78714 68577
L78629 68577
L78573 68548
L78545 68492
L78545 68464
L78573 68408
L78629 68380
L78714 68380
L78770 68408
" />
</g>
<g style="fill:#000000; fill-opacity:0.0; 
stroke:#000000; stroke-width:39.3701; stroke-opacity:1; 
stroke-linecap:round; stroke-linejoin:round;">
</g>
<g style="fill:#000000; fill-opacity:0.0; 
stroke:#000000; stroke-width:59.0551; stroke-opacity:1; 
stroke-linecap:round; stroke-linejoin:round;">
<path d="M70221 67424
L70502 67424
" />
<path d="M70165 67592
L70362 67002
L70559 67592
" />
<path d="M71009 67199
L71009 67592
" />
<path d="M70755 67199
L70755 67508
L70784 67564
L70840 67592
L70924 67592
L70980 67564
L71009 67536
" />
<path d="M71205 67199
L71430 67199
" />
<path d="M71290 67002
L71290 67508
L71318 67564
L71374 67592
L71430 67592
" />
<path d="M71712 67592
L71655 67564
L71627 67536
L71599 67480
L71599 67311
L71627 67255
L71655 67227
L71712 67199
L71796 67199
L71852 67227
L71880 67255
L71908 67311
L71908 67480
L71880 67536
L71852 67564
L71796 67592
L71712 67592
" />
<path d="M72162 67592
L72162 67199
" />
<path d="M72162 67311
L72190 67255
L72218 67227
L72274 67199
L72330 67199
" />
<path d="M72499 67564
L72555 67592
L72668 67592
L72724 67564
L72752 67508
L72752 67480
L72724 67424
L72668 67395
L72583 67395
L72527 67367
L72499 67311
L72499 67283
L72527 67227
L72583 67199
L72668 67199
L72724 67227
" />
</g>
<g style="fill:#000000; fill-opacity:0.0; 
stroke:#000000; stroke-width:39.3701; stroke-opacity:1; 
stroke-linecap:round; stroke-linejoin:round;">
</g>
<g style="fill:#000000; fill-opacity:0.0; 
stroke:#000000; stroke-width:59.0551; stroke-opacity:1; 
stroke-linecap:round; stroke-linejoin:round;">
<path d="M77559 75396
L77559 76577
" />
</g>
<g style="fill:#000000; fill-opacity:0.0; 
stroke:#000000; stroke-width:39.3701; stroke-opacity:1; 
stroke-linecap:round; stroke-linejoin:round;">
</g>
<g style="fill:#000000; fill-opacity:0.0; 
stroke:#000000; stroke-width:59.0551; stroke-opacity:1; 
stroke-linecap:round; stroke-linejoin:round;">
<path d="M102756 75396
L102756 77955
" />
</g>
<g style="fill:#008484; fill-opacity:0.0; 
stroke:#008484; stroke-width:59.0551; stroke-opacity:1; 
stroke-linecap:round; stroke-linejoin:round;">
<path d="M46832 43800
L46945 43800
" />
<path d="M46810 43868
L46888 43632
L46967 43868
" />
<path d="M47046 43778
L47226 43778
" />
<path d="M47473 43845
L47462 43857
L47428 43868
L47406 43868
L47372 43857
L47350 43834
L47338 43812
L47327 43767
L47327 43733
L47338 43688
L47350 43666
L47372 43643
L47406 43632
L47428 43632
L47462 43643
L47473 43654
" />
<path d="M47687 43868
L47575 43868
L47575 43632
" />
<path d="M47754 43800
L47867 43800
" />
<path d="M47732 43868
L47811 43632
L47889 43868
" />
<path d="M47957 43857
L47991 43868
L48047 43868
L48069 43857
L48081 43845
L48092 43823
L48092 43800
L48081 43778
L48069 43767
L48047 43755
L48002 43744
L47979 43733
L47968 43722
L47957 43699
L47957 43677
L47968 43654
L47979 43643
L48002 43632
L48058 43632
L48092 43643
" />
<path d="M48182 43857
L48216 43868
L48272 43868
L48294 43857
L48306 43845
L48317 43823
L48317 43800
L48306 43778
L48294 43767
L48272 43755
L48227 43744
L48204 43733
L48193 43722
L48182 43699
L48182 43677
L48193 43654
L48204 43643
L48227 43632
L48283 43632
L48317 43643
" />
<path d="M46838 44214
L46950 44214
" />
<path d="M46815 44281
L46894 44045
L46973 44281
" />
<path d="M47051 44281
L47051 44124
" />
<path d="M47051 44146
L47063 44135
L47085 44124
L47119 44124
L47141 44135
L47153 44158
L47153 44281
" />
<path d="M47153 44158
L47164 44135
L47186 44124
L47220 44124
L47243 44135
L47254 44158
L47254 44281
" />
<path d="M47366 44124
L47366 44360
" />
<path d="M47366 44135
L47389 44124
L47434 44124
L47456 44135
L47468 44146
L47479 44169
L47479 44236
L47468 44259
L47456 44270
L47434 44281
L47389 44281
L47366 44270
" />
<path d="M47614 44281
L47591 44270
L47580 44248
L47580 44045
" />
<path d="M47704 44281
L47704 44124
" />
<path d="M47704 44045
L47693 44056
L47704 44068
L47715 44056
L47704 44045
L47704 44068
" />
<path d="M47783 44124
L47873 44124
" />
<path d="M47816 44281
L47816 44079
L47828 44056
L47850 44045
L47873 44045
" />
<path d="M47951 44281
L47951 44124
" />
<path d="M47951 44045
L47940 44056
L47951 44068
L47963 44056
L47951 44045
L47951 44068
" />
<path d="M48154 44270
L48131 44281
L48086 44281
L48064 44270
L48053 44248
L48053 44158
L48064 44135
L48086 44124
L48131 44124
L48154 44135
L48165 44158
L48165 44180
L48053 44203
" />
<path d="M48266 44281
L48266 44124
" />
<path d="M48266 44169
L48278 44146
L48289 44135
L48311 44124
L48334 44124
" />
<path d="M46129 44695
L46129 44459
L46208 44627
L46287 44459
L46287 44695
" />
<path d="M46500 44695
L46500 44571
L46489 44549
L46467 44537
L46422 44537
L46399 44549
" />
<path d="M46500 44683
L46478 44695
L46422 44695
L46399 44683
L46388 44661
L46388 44639
L46399 44616
L46422 44605
L46478 44605
L46500 44594
" />
<path d="M46714 44695
L46714 44459
" />
<path d="M46714 44683
L46691 44695
L46646 44695
L46624 44683
L46613 44672
L46601 44650
L46601 44582
L46613 44560
L46624 44549
L46646 44537
L46691 44537
L46714 44549
" />
<path d="M46916 44683
L46894 44695
L46849 44695
L46826 44683
L46815 44661
L46815 44571
L46826 44549
L46849 44537
L46894 44537
L46916 44549
L46928 44571
L46928 44594
L46815 44616
" />
<path d="M47209 44695
L47209 44459
" />
<path d="M47209 44549
L47231 44537
L47276 44537
L47299 44549
L47310 44560
L47321 44582
L47321 44650
L47310 44672
L47299 44683
L47276 44695
L47231 44695
L47209 44683
" />
<path d="M47400 44537
L47456 44695
" />
<path d="M47513 44537
L47456 44695
L47434 44751
L47423 44762
L47400 44773
" />
<path d="M47918 44695
L47839 44582
" />
<path d="M47783 44695
L47783 44459
L47873 44459
L47895 44470
L47906 44481
L47918 44504
L47918 44537
L47906 44560
L47895 44571
L47873 44582
L47783 44582
" />
<path d="M48053 44695
L48030 44683
L48019 44672
L48008 44650
L48008 44582
L48019 44560
L48030 44549
L48053 44537
L48086 44537
L48109 44549
L48120 44560
L48131 44582
L48131 44650
L48120 44672
L48109 44683
L48086 44695
L48053 44695
" />
<path d="M48334 44695
L48334 44459
" />
<path d="M48334 44683
L48311 44695
L48266 44695
L48244 44683
L48233 44672
L48221 44650
L48221 44582
L48233 44560
L48244 44549
L48266 44537
L48311 44537
L48334 44549
" />
<path d="M48446 44695
L48446 44537
" />
<path d="M48446 44582
L48458 44560
L48469 44549
L48491 44537
L48514 44537
" />
<path d="M48592 44695
L48592 44537
" />
<path d="M48592 44459
L48581 44470
L48592 44481
L48604 44470
L48592 44459
L48592 44481
" />
<path d="M48806 44537
L48806 44728
L48795 44751
L48784 44762
L48761 44773
L48727 44773
L48705 44762
" />
<path d="M48806 44683
L48784 44695
L48739 44695
L48716 44683
L48705 44672
L48694 44650
L48694 44582
L48705 44560
L48716 44549
L48739 44537
L48784 44537
L48806 44549
" />
<path d="M48952 44695
L48930 44683
L48919 44672
L48907 44650
L48907 44582
L48919 44560
L48930 44549
L48952 44537
L48986 44537
L49009 44549
L49020 44560
L49031 44582
L49031 44650
L49020 44672
L49009 44683
L48986 44695
L48952 44695
" />
</g>
<g style="fill:#008484; fill-opacity:0.0; 
stroke:#008484; stroke-width:47.2441; stroke-opacity:1; 
stroke-linecap:round; stroke-linejoin:round;">
<path d="M45564 45549
L45435 45549
" />
<path d="M45564 45950
L45435 45950
" />
<path d="M45564 47049
L45435 47049
" />
<path d="M45564 47450
L45435 47450
" />
<path d="M45435 46700
L45564 46700
" />
<path d="M45435 46299
L45564 46299
" />
<path d="M41910 45700
L42039 45700
" />
<path d="M41910 45299
L42039 45299
" />
<path d="M43464 49099
L43335 49099
" />
<path d="M43464 49500
L43335 49500
" />
<path d="M43335 47950
L43464 47950
" />
<path d="M43335 47549
L43464 47549
" />
<path d="M43456 42985
L43456 45060
" />
<path d="M42035 42985
L42035 45060
" />
<path d="M45922 42985
L45922 45060
" />
<path d="M39568 42985
L39568 45060
" />
<path d="M39568 45060
L45922 45060
" />
<path d="M39568 42985
L45922 42985
" />
<path d="M44773.8 45576.2 A1023.62 1023.62 0.0 0 0 43026.4 46300 " />
<path d="M43026.4 46300 A1023.62 1023.62 0.0 0 0 44773.8 47023.8 " />
<path d="M44778 47008
L44778 45591
" />
<path d="M45899 49848
L45899 51750
" />
<path d="M49100 51750
L49100 49848
" />
<path d="M49100 52501
L45899 52501
" />
<path d="M48600 52501
L48600 53049
" />
<path d="M46399 52501
L46399 53049
" />
<path d="M48600 53049
L46399 53049
" />
<path d="M49100 52501
L49100 51750
" />
<path d="M45899 52501
L45899 51750
" />
<path d="M48600 52950
L46399 52950
" />
<path d="M48600 52600
L46399 52600
" />
<path d="M47348 49950
L47348 49848
" />
<path d="M47651 49950
L47348 49950
" />
<path d="M47651 49848
L47651 49950
" />
<path d="M47651 49848
L49100 49848
" />
<path d="M47348 49848
L45899 49848
" />
<path d="M48722 52616
L49234 52616
" />
<path d="M49234 52616
L49234 51750
" />
<path d="M39880 52324
L38305 52324
" />
<path d="M39880 53072
L39880 52324
" />
<path d="M45486 53072
L39880 53072
" />
<path d="M45486 49749
L45486 53072
" />
<path d="M39880 49749
L45486 49749
" />
<path d="M39880 49867
L39880 49749
" />
<path d="M38305 49867
L39880 49867
" />
<path d="M38305 52324
L38305 49867
" />
<path d="M46617 45937
L46617 46134
" />
<path d="M46518 46035
L46715 46035
" />
<path d="M46810 47120
L47229 47539
" />
<path d="M46810 46179
L47229 45760
" />
<path d="M46810 46179
L46810 46232
" />
<path d="M46810 47120
L46810 47067
" />
<path d="M47229 47539
L48589 47539
" />
<path d="M47229 45760
L48589 45760
" />
<path d="M48589 45760
L48589 46232
" />
<path d="M48589 47539
L48589 47067
" />
<path d="M46567 47837
L46567 48034
" />
<path d="M46468 47935
L46665 47935
" />
<path d="M46760 49020
L47179 49439
" />
<path d="M46760 48079
L47179 47660
" />
<path d="M46760 48079
L46760 48132
" />
<path d="M46760 49020
L46760 48967
" />
<path d="M47179 49439
L48539 49439
" />
<path d="M47179 47660
L48539 47660
" />
<path d="M48539 47660
L48539 48132
" />
<path d="M48539 49439
L48539 48967
" />
<path d="M46057 49262
L46057 49065
" />
<path d="M46156 49164
L45959 49164
" />
<path d="M45864 48079
L45445 47660
" />
<path d="M45864 49020
L45445 49439
" />
<path d="M45864 49020
L45864 48967
" />
<path d="M45864 48079
L45864 48132
" />
<path d="M45445 47660
L44085 47660
" />
<path d="M45445 49439
L44085 49439
" />
<path d="M44085 49439
L44085 48967
" />
<path d="M44085 47660
L44085 48132
" />
<path d="M39908 49309
L40775 49309
" />
<path d="M39908 48797
L39908 49309
" />
<path d="M42676 47423
L42676 45974
" />
<path d="M42676 47726
L42676 49175
" />
<path d="M42676 47726
L42574 47726
" />
<path d="M42574 47726
L42574 47423
" />
<path d="M42574 47423
L42676 47423
" />
<path d="M39924 48675
L39924 46474
" />
<path d="M39574 48675
L39574 46474
" />
<path d="M40023 45974
L40775 45974
" />
<path d="M40023 49175
L40775 49175
" />
<path d="M39475 48675
L39475 46474
" />
<path d="M40023 46474
L39475 46474
" />
<path d="M40023 48675
L39475 48675
" />
<path d="M40023 49175
L40023 45974
" />
<path d="M40775 49175
L42676 49175
" />
<path d="M42676 45974
L40775 45974
" />
</g>
<g style="fill:#008484; fill-opacity:0.0; 
stroke:#008484; stroke-width:39.3701; stroke-opacity:1; 
stroke-linecap:round; stroke-linejoin:round;">
<path d="M45571 45851
L45496 45903
" />
<path d="M45571 45941
L45413 45941
L45413 45881
L45421 45866
L45428 45858
L45443 45851
L45466 45851
L45481 45858
L45488 45866
L45496 45881
L45496 45941
" />
<path d="M45571 45701
L45571 45791
" />
<path d="M45571 45746
L45413 45746
L45436 45761
L45451 45776
L45458 45791
" />
<path d="M45571 45551
L45571 45641
" />
<path d="M45571 45596
L45413 45596
L45436 45611
L45451 45626
L45458 45641
" />
</g>
<g style="fill:#008484; fill-opacity:0.0; 
stroke:#008484; stroke-width:29.5276; stroke-opacity:1; 
stroke-linecap:round; stroke-linejoin:round;">
<path d="M45571 47276
L45496 47328
" />
<path d="M45571 47366
L45413 47366
L45413 47306
L45421 47291
L45428 47283
L45443 47276
L45466 47276
L45481 47283
L45488 47291
L45496 47306
L45496 47366
" />
<path d="M45413 47133
L45413 47208
L45488 47216
L45481 47208
L45473 47193
L45473 47156
L45481 47141
L45488 47133
L45503 47126
L45541 47126
L45556 47133
L45563 47141
L45571 47156
L45571 47193
L45563 47208
L45556 47216
" />
</g>
<g style="fill:#008484; fill-opacity:0.0; 
stroke:#008484; stroke-width:39.3701; stroke-opacity:1; 
stroke-linecap:round; stroke-linejoin:round;">
<path d="M45596 46526
L45521 46578
" />
<path d="M45596 46616
L45438 46616
L45438 46556
L45446 46541
L45453 46533
L45468 46526
L45491 46526
L45506 46533
L45513 46541
L45521 46556
L45521 46616
" />
<path d="M45491 46391
L45596 46391
" />
<path d="M45431 46428
L45543 46466
L45543 46368
" />
</g>
<g style="fill:#008484; fill-opacity:0.0; 
stroke:#008484; stroke-width:59.0551; stroke-opacity:1; 
stroke-linecap:round; stroke-linejoin:round;">
<path d="M41303 45565
L41115 45696
" />
<path d="M41303 45790
L40909 45790
L40909 45640
L40928 45603
L40946 45584
L40984 45565
L41040 45565
L41078 45584
L41096 45603
L41115 45640
L41115 45790
" />
<path d="M40909 45434
L40909 45190
L41059 45321
L41059 45265
L41078 45228
L41096 45209
L41134 45190
L41228 45190
L41265 45209
L41284 45228
L41303 45265
L41303 45378
L41284 45415
L41265 45434
" />
<path d="M43059 48953
L42928 48765
" />
<path d="M42834 48953
L42834 48559
L42984 48559
L43021 48578
L43040 48596
L43059 48634
L43059 48690
L43040 48728
L43021 48746
L42984 48765
L42834 48765
" />
<path d="M43209 48596
L43228 48578
L43265 48559
L43359 48559
L43396 48578
L43415 48596
L43434 48634
L43434 48671
L43415 48728
L43190 48953
L43434 48953
" />
<path d="M43059 47378
L42928 47190
" />
<path d="M42834 47378
L42834 46984
L42984 46984
L43021 47003
L43040 47021
L43059 47059
L43059 47115
L43040 47153
L43021 47171
L42984 47190
L42834 47190
" />
<path d="M43434 47378
L43209 47378
" />
<path d="M43321 47378
L43321 46984
L43284 47040
L43246 47078
L43209 47096
" />
<path d="M39812 45565
L39775 45546
L39737 45509
L39681 45453
L39643 45434
L39606 45434
" />
<path d="M39625 45528
L39587 45509
L39550 45471
L39531 45396
L39531 45265
L39550 45190
L39587 45153
L39625 45134
L39700 45134
L39737 45153
L39775 45190
L39793 45265
L39793 45396
L39775 45471
L39737 45509
L39700 45528
L39625 45528
" />
<path d="M39924 45134
L40168 45134
L40037 45284
L40093 45284
L40131 45303
L40149 45321
L40168 45359
L40168 45453
L40149 45490
L40131 45509
L40093 45528
L39981 45528
L39943 45509
L39924 45490
" />
<path d="M44625 46251
L44612 46277
L44586 46303
L44547 46343
L44534 46369
L44534 46395
" />
<path d="M44599 46382
L44586 46408
L44560 46434
L44507 46448
L44415 46448
L44363 46434
L44337 46408
L44324 46382
L44324 46329
L44337 46303
L44363 46277
L44415 46264
L44507 46264
L44560 46277
L44586 46303
L44599 46329
L44599 46382
" />
<path d="M44599 46001
L44599 46159
" />
<path d="M44599 46080
L44324 46080
L44363 46106
L44389 46133
L44402 46159
" />
<path d="M47218 50084
L47218 50365
L47200 50421
L47162 50459
L47106 50478
L47068 50478
" />
<path d="M47368 50084
L47612 50084
L47481 50234
L47537 50234
L47574 50253
L47593 50271
L47612 50309
L47612 50403
L47593 50440
L47574 50459
L47537 50478
L47424 50478
L47387 50459
L47368 50440
" />
<path d="M41684 51531
L41965 51531
L42021 51549
L42059 51587
L42078 51643
L42078 51681
" />
<path d="M42078 51137
L42078 51362
" />
<path d="M42078 51250
L41684 51250
L41740 51287
L41778 51325
L41796 51362
" />
<path d="M46484 45790
L46465 45809
L46409 45828
L46371 45828
L46315 45809
L46278 45771
L46259 45734
L46240 45659
L46240 45603
L46259 45528
L46278 45490
L46315 45453
L46371 45434
L46409 45434
L46465 45453
L46484 45471
" />
<path d="M46840 45434
L46653 45434
L46634 45621
L46653 45603
L46690 45584
L46784 45584
L46821 45603
L46840 45621
L46859 45659
L46859 45753
L46840 45790
L46821 45809
L46784 45828
L46690 45828
L46653 45809
L46634 45790
" />
<path d="M46484 47740
L46465 47759
L46409 47778
L46371 47778
L46315 47759
L46278 47721
L46259 47684
L46240 47609
L46240 47553
L46259 47478
L46278 47440
L46315 47403
L46371 47384
L46409 47384
L46465 47403
L46484 47421
" />
<path d="M46634 47421
L46653 47403
L46690 47384
L46784 47384
L46821 47403
L46840 47421
L46859 47459
L46859 47496
L46840 47553
L46615 47778
L46859 47778
" />
<path d="M45959 49590
L45940 49609
L45884 49628
L45846 49628
L45790 49609
L45753 49571
L45734 49534
L45715 49459
L45715 49403
L45734 49328
L45753 49290
L45790 49253
L45846 49234
L45884 49234
L45940 49253
L45959 49271
" />
<path d="M46334 49628
L46109 49628
" />
<path d="M46221 49628
L46221 49234
L46184 49290
L46146 49328
L46109 49346
" />
<path d="M41834 47681
L42115 47681
L42171 47699
L42209 47737
L42228 47793
L42228 47831
" />
<path d="M41871 47512
L41853 47493
L41834 47456
L41834 47362
L41853 47325
L41871 47306
L41909 47287
L41946 47287
L42003 47306
L42228 47531
L42228 47287
" />
<g >
</g>
</g>
<g style="fill:#000000; fill-opacity:0.0; 
stroke:#000000; stroke-width:59.0551; stroke-opacity:1; 
stroke-linecap:round; stroke-linejoin:round;">
</g>
<g style="fill:#C2C200; fill-opacity:0.0; 
stroke:#C2C200; stroke-width:59.0551; stroke-opacity:1; 
stroke-linecap:round; stroke-linejoin:round;">
</g>
<g style="fill:#C2C200; fill-opacity:0.0; 
stroke:#C2C200; stroke-width:19.685; stroke-opacity:1; 
stroke-linecap:round; stroke-linejoin:round;">
<path d="M49291 42913
L49291 53149
" />
<path d="M39370 42913
L39370 53149
" />
<path d="M39370 53149
L49291 53149
" />
<path d="M39370 42913
L49291 42913
" />
<g >
</g>
<g >
</g>
<g >
</g>
<g >
</g>
<g >
</g>
<g >
</g>
<g >
</g>
<g >
</g>
<g >
</g>
<g >
</g>
<g >
</g>
<g >
</g>
<g >
</g>
<g >
</g>
<g >
</g>
</g> 
</svg>
