<?xml version="1.0" standalone="no"?>
 <!DOCTYPE svg PUBLIC "-//W3C//DTD SVG 1.1//EN" 
 "http://www.w3.org/Graphics/SVG/1.1/DTD/svg11.dtd"> 
<svg xmlns="http://www.w3.org/2000/svg" version="1.1" 
    width="29.7002cm" height="21.0007cm" viewBox="0 0 116930 82680 ">
<title>SVG Picture created as Single_transistor_AMP-F_Mask.svg date 2020/12/09 10:12:42 </title>
  <desc>Picture generated by PCBNEW </desc>
<g style="fill:#000000; fill-opacity:1;stroke:#000000; stroke-opacity:1;
stroke-linecap:round; stroke-linejoin:round; "
 transform="translate(0 0) scale(1 1)">
</g>
<g style="fill:#000000; fill-opacity:0.0; 
stroke:#000000; stroke-width:-0.000393701; stroke-opacity:1; 
stroke-linecap:round; stroke-linejoin:round;">
</g>
<g style="fill:#000000; fill-opacity:0.0; 
stroke:#000000; stroke-width:39.3701; stroke-opacity:1; 
stroke-linecap:round; stroke-linejoin:round;">
</g>
<g style="fill:#000000; fill-opacity:0.0; 
stroke:#000000; stroke-width:59.0551; stroke-opacity:1; 
stroke-linecap:round; stroke-linejoin:round;">
<rect x="69685.9" y="65357.2" width="42519.7" height="12598.4" rx="0" />
</g>
<g style="fill:#000000; fill-opacity:0.0; 
stroke:#000000; stroke-width:39.3701; stroke-opacity:1; 
stroke-linecap:round; stroke-linejoin:round;">
</g>
<g style="fill:#000000; fill-opacity:0.0; 
stroke:#000000; stroke-width:59.0551; stroke-opacity:1; 
stroke-linecap:round; stroke-linejoin:round;">
<rect x="3937.01" y="3937.01" width="109056" height="74806" rx="0" />
</g>
<g style="fill:#000000; fill-opacity:0.0; 
stroke:#000000; stroke-width:39.3701; stroke-opacity:1; 
stroke-linecap:round; stroke-linejoin:round;">
</g>
<g style="fill:#000000; fill-opacity:0.0; 
stroke:#000000; stroke-width:59.0551; stroke-opacity:1; 
stroke-linecap:round; stroke-linejoin:round;">
<rect x="4724.41" y="4724.41" width="107481" height="73231.2" rx="0" />
</g>
<g style="fill:#000000; fill-opacity:0.0; 
stroke:#000000; stroke-width:39.3701; stroke-opacity:1; 
stroke-linecap:round; stroke-linejoin:round;">
</g>
<g style="fill:#000000; fill-opacity:0.0; 
stroke:#000000; stroke-width:59.0551; stroke-opacity:1; 
stroke-linecap:round; stroke-linejoin:round;">
<path d="M23622 4724
L23622 3937
" />
</g>
<g style="fill:#000000; fill-opacity:0.0; 
stroke:#000000; stroke-width:39.3701; stroke-opacity:1; 
stroke-linecap:round; stroke-linejoin:round;">
</g>
<g style="fill:#000000; fill-opacity:0.0; 
stroke:#000000; stroke-width:59.0551; stroke-opacity:1; 
stroke-linecap:round; stroke-linejoin:round;">
<path d="M43307 4724
L43307 3937
" />
</g>
<g style="fill:#000000; fill-opacity:0.0; 
stroke:#000000; stroke-width:39.3701; stroke-opacity:1; 
stroke-linecap:round; stroke-linejoin:round;">
</g>
<g style="fill:#000000; fill-opacity:0.0; 
stroke:#000000; stroke-width:59.0551; stroke-opacity:1; 
stroke-linecap:round; stroke-linejoin:round;">
<path d="M62992 4724
L62992 3937
" />
</g>
<g style="fill:#000000; fill-opacity:0.0; 
stroke:#000000; stroke-width:39.3701; stroke-opacity:1; 
stroke-linecap:round; stroke-linejoin:round;">
</g>
<g style="fill:#000000; fill-opacity:0.0; 
stroke:#000000; stroke-width:59.0551; stroke-opacity:1; 
stroke-linecap:round; stroke-linejoin:round;">
<path d="M82677 4724
L82677 3937
" />
</g>
<g style="fill:#000000; fill-opacity:0.0; 
stroke:#000000; stroke-width:39.3701; stroke-opacity:1; 
stroke-linecap:round; stroke-linejoin:round;">
</g>
<g style="fill:#000000; fill-opacity:0.0; 
stroke:#000000; stroke-width:59.0551; stroke-opacity:1; 
stroke-linecap:round; stroke-linejoin:round;">
<path d="M102362 4724
L102362 3937
" />
</g>
<g style="fill:#000000; fill-opacity:0.0; 
stroke:#000000; stroke-width:39.3701; stroke-opacity:1; 
stroke-linecap:round; stroke-linejoin:round;">
</g>
<g style="fill:#000000; fill-opacity:0.0; 
stroke:#000000; stroke-width:59.0551; stroke-opacity:1; 
stroke-linecap:round; stroke-linejoin:round;">
<path d="M14199 4562
L13906 4562
" />
<path d="M14052 4562
L14052 4050
L14004 4123
L13955 4172
L13906 4196
" />
</g>
<g style="fill:#000000; fill-opacity:0.0; 
stroke:#000000; stroke-width:39.3701; stroke-opacity:1; 
stroke-linecap:round; stroke-linejoin:round;">
</g>
<g style="fill:#000000; fill-opacity:0.0; 
stroke:#000000; stroke-width:59.0551; stroke-opacity:1; 
stroke-linecap:round; stroke-linejoin:round;">
<path d="M33591 4099
L33615 4074
L33664 4050
L33786 4050
L33835 4074
L33859 4099
L33884 4147
L33884 4196
L33859 4269
L33567 4562
L33884 4562
" />
</g>
<g style="fill:#000000; fill-opacity:0.0; 
stroke:#000000; stroke-width:39.3701; stroke-opacity:1; 
stroke-linecap:round; stroke-linejoin:round;">
</g>
<g style="fill:#000000; fill-opacity:0.0; 
stroke:#000000; stroke-width:59.0551; stroke-opacity:1; 
stroke-linecap:round; stroke-linejoin:round;">
<path d="M53252 4050
L53569 4050
L53398 4245
L53471 4245
L53520 4269
L53544 4294
L53569 4342
L53569 4464
L53544 4513
L53520 4537
L53471 4562
L53325 4562
L53276 4537
L53252 4513
" />
</g>
<g style="fill:#000000; fill-opacity:0.0; 
stroke:#000000; stroke-width:39.3701; stroke-opacity:1; 
stroke-linecap:round; stroke-linejoin:round;">
</g>
<g style="fill:#000000; fill-opacity:0.0; 
stroke:#000000; stroke-width:59.0551; stroke-opacity:1; 
stroke-linecap:round; stroke-linejoin:round;">
<path d="M73205 4221
L73205 4562
" />
<path d="M73083 4026
L72961 4391
L73278 4391
" />
</g>
<g style="fill:#000000; fill-opacity:0.0; 
stroke:#000000; stroke-width:39.3701; stroke-opacity:1; 
stroke-linecap:round; stroke-linejoin:round;">
</g>
<g style="fill:#000000; fill-opacity:0.0; 
stroke:#000000; stroke-width:59.0551; stroke-opacity:1; 
stroke-linecap:round; stroke-linejoin:round;">
<path d="M92914 4050
L92671 4050
L92646 4294
L92671 4269
L92719 4245
L92841 4245
L92890 4269
L92914 4294
L92939 4342
L92939 4464
L92914 4513
L92890 4537
L92841 4562
L92719 4562
L92671 4537
L92646 4513
" />
</g>
<g style="fill:#000000; fill-opacity:0.0; 
stroke:#000000; stroke-width:39.3701; stroke-opacity:1; 
stroke-linecap:round; stroke-linejoin:round;">
</g>
<g style="fill:#000000; fill-opacity:0.0; 
stroke:#000000; stroke-width:59.0551; stroke-opacity:1; 
stroke-linecap:round; stroke-linejoin:round;">
<path d="M112575 4050
L112477 4050
L112429 4074
L112404 4099
L112356 4172
L112331 4269
L112331 4464
L112356 4513
L112380 4537
L112429 4562
L112526 4562
L112575 4537
L112599 4513
L112624 4464
L112624 4342
L112599 4294
L112575 4269
L112526 4245
L112429 4245
L112380 4269
L112356 4294
L112331 4342
" />
</g>
<g style="fill:#000000; fill-opacity:0.0; 
stroke:#000000; stroke-width:39.3701; stroke-opacity:1; 
stroke-linecap:round; stroke-linejoin:round;">
</g>
<g style="fill:#000000; fill-opacity:0.0; 
stroke:#000000; stroke-width:59.0551; stroke-opacity:1; 
stroke-linecap:round; stroke-linejoin:round;">
<path d="M23622 77955
L23622 78742
" />
</g>
<g style="fill:#000000; fill-opacity:0.0; 
stroke:#000000; stroke-width:39.3701; stroke-opacity:1; 
stroke-linecap:round; stroke-linejoin:round;">
</g>
<g style="fill:#000000; fill-opacity:0.0; 
stroke:#000000; stroke-width:59.0551; stroke-opacity:1; 
stroke-linecap:round; stroke-linejoin:round;">
<path d="M43307 77955
L43307 78742
" />
</g>
<g style="fill:#000000; fill-opacity:0.0; 
stroke:#000000; stroke-width:39.3701; stroke-opacity:1; 
stroke-linecap:round; stroke-linejoin:round;">
</g>
<g style="fill:#000000; fill-opacity:0.0; 
stroke:#000000; stroke-width:59.0551; stroke-opacity:1; 
stroke-linecap:round; stroke-linejoin:round;">
<path d="M62992 77955
L62992 78742
" />
</g>
<g style="fill:#000000; fill-opacity:0.0; 
stroke:#000000; stroke-width:39.3701; stroke-opacity:1; 
stroke-linecap:round; stroke-linejoin:round;">
</g>
<g style="fill:#000000; fill-opacity:0.0; 
stroke:#000000; stroke-width:59.0551; stroke-opacity:1; 
stroke-linecap:round; stroke-linejoin:round;">
<path d="M82677 77955
L82677 78742
" />
</g>
<g style="fill:#000000; fill-opacity:0.0; 
stroke:#000000; stroke-width:39.3701; stroke-opacity:1; 
stroke-linecap:round; stroke-linejoin:round;">
</g>
<g style="fill:#000000; fill-opacity:0.0; 
stroke:#000000; stroke-width:59.0551; stroke-opacity:1; 
stroke-linecap:round; stroke-linejoin:round;">
<path d="M102362 77955
L102362 78742
" />
</g>
<g style="fill:#000000; fill-opacity:0.0; 
stroke:#000000; stroke-width:39.3701; stroke-opacity:1; 
stroke-linecap:round; stroke-linejoin:round;">
</g>
<g style="fill:#000000; fill-opacity:0.0; 
stroke:#000000; stroke-width:59.0551; stroke-opacity:1; 
stroke-linecap:round; stroke-linejoin:round;">
<path d="M14199 78580
L13906 78580
" />
<path d="M14052 78580
L14052 78069
L14004 78142
L13955 78190
L13906 78215
" />
</g>
<g style="fill:#000000; fill-opacity:0.0; 
stroke:#000000; stroke-width:39.3701; stroke-opacity:1; 
stroke-linecap:round; stroke-linejoin:round;">
</g>
<g style="fill:#000000; fill-opacity:0.0; 
stroke:#000000; stroke-width:59.0551; stroke-opacity:1; 
stroke-linecap:round; stroke-linejoin:round;">
<path d="M33591 78117
L33615 78093
L33664 78069
L33786 78069
L33835 78093
L33859 78117
L33884 78166
L33884 78215
L33859 78288
L33567 78580
L33884 78580
" />
</g>
<g style="fill:#000000; fill-opacity:0.0; 
stroke:#000000; stroke-width:39.3701; stroke-opacity:1; 
stroke-linecap:round; stroke-linejoin:round;">
</g>
<g style="fill:#000000; fill-opacity:0.0; 
stroke:#000000; stroke-width:59.0551; stroke-opacity:1; 
stroke-linecap:round; stroke-linejoin:round;">
<path d="M53252 78069
L53569 78069
L53398 78263
L53471 78263
L53520 78288
L53544 78312
L53569 78361
L53569 78483
L53544 78532
L53520 78556
L53471 78580
L53325 78580
L53276 78556
L53252 78532
" />
</g>
<g style="fill:#000000; fill-opacity:0.0; 
stroke:#000000; stroke-width:39.3701; stroke-opacity:1; 
stroke-linecap:round; stroke-linejoin:round;">
</g>
<g style="fill:#000000; fill-opacity:0.0; 
stroke:#000000; stroke-width:59.0551; stroke-opacity:1; 
stroke-linecap:round; stroke-linejoin:round;">
<path d="M73205 78239
L73205 78580
" />
<path d="M73083 78044
L72961 78410
L73278 78410
" />
</g>
<g style="fill:#000000; fill-opacity:0.0; 
stroke:#000000; stroke-width:39.3701; stroke-opacity:1; 
stroke-linecap:round; stroke-linejoin:round;">
</g>
<g style="fill:#000000; fill-opacity:0.0; 
stroke:#000000; stroke-width:59.0551; stroke-opacity:1; 
stroke-linecap:round; stroke-linejoin:round;">
<path d="M92914 78069
L92671 78069
L92646 78312
L92671 78288
L92719 78263
L92841 78263
L92890 78288
L92914 78312
L92939 78361
L92939 78483
L92914 78532
L92890 78556
L92841 78580
L92719 78580
L92671 78556
L92646 78532
" />
</g>
<g style="fill:#000000; fill-opacity:0.0; 
stroke:#000000; stroke-width:39.3701; stroke-opacity:1; 
stroke-linecap:round; stroke-linejoin:round;">
</g>
<g style="fill:#000000; fill-opacity:0.0; 
stroke:#000000; stroke-width:59.0551; stroke-opacity:1; 
stroke-linecap:round; stroke-linejoin:round;">
<path d="M112575 78069
L112477 78069
L112429 78093
L112404 78117
L112356 78190
L112331 78288
L112331 78483
L112356 78532
L112380 78556
L112429 78580
L112526 78580
L112575 78556
L112599 78532
L112624 78483
L112624 78361
L112599 78312
L112575 78288
L112526 78263
L112429 78263
L112380 78288
L112356 78312
L112331 78361
" />
</g>
<g style="fill:#000000; fill-opacity:0.0; 
stroke:#000000; stroke-width:39.3701; stroke-opacity:1; 
stroke-linecap:round; stroke-linejoin:round;">
</g>
<g style="fill:#000000; fill-opacity:0.0; 
stroke:#000000; stroke-width:59.0551; stroke-opacity:1; 
stroke-linecap:round; stroke-linejoin:round;">
<path d="M3937 23622
L4724 23622
" />
</g>
<g style="fill:#000000; fill-opacity:0.0; 
stroke:#000000; stroke-width:39.3701; stroke-opacity:1; 
stroke-linecap:round; stroke-linejoin:round;">
</g>
<g style="fill:#000000; fill-opacity:0.0; 
stroke:#000000; stroke-width:59.0551; stroke-opacity:1; 
stroke-linecap:round; stroke-linejoin:round;">
<path d="M3937 43307
L4724 43307
" />
</g>
<g style="fill:#000000; fill-opacity:0.0; 
stroke:#000000; stroke-width:39.3701; stroke-opacity:1; 
stroke-linecap:round; stroke-linejoin:round;">
</g>
<g style="fill:#000000; fill-opacity:0.0; 
stroke:#000000; stroke-width:59.0551; stroke-opacity:1; 
stroke-linecap:round; stroke-linejoin:round;">
<path d="M3937 62992
L4724 62992
" />
</g>
<g style="fill:#000000; fill-opacity:0.0; 
stroke:#000000; stroke-width:39.3701; stroke-opacity:1; 
stroke-linecap:round; stroke-linejoin:round;">
</g>
<g style="fill:#000000; fill-opacity:0.0; 
stroke:#000000; stroke-width:59.0551; stroke-opacity:1; 
stroke-linecap:round; stroke-linejoin:round;">
<path d="M4208 13864
L4452 13864
" />
<path d="M4160 14011
L4330 13499
L4501 14011
" />
</g>
<g style="fill:#000000; fill-opacity:0.0; 
stroke:#000000; stroke-width:39.3701; stroke-opacity:1; 
stroke-linecap:round; stroke-linejoin:round;">
</g>
<g style="fill:#000000; fill-opacity:0.0; 
stroke:#000000; stroke-width:59.0551; stroke-opacity:1; 
stroke-linecap:round; stroke-linejoin:round;">
<path d="M4367 33428
L4440 33452
L4464 33476
L4489 33525
L4489 33598
L4464 33647
L4440 33671
L4391 33696
L4196 33696
L4196 33184
L4367 33184
L4416 33208
L4440 33233
L4464 33281
L4464 33330
L4440 33379
L4416 33403
L4367 33428
L4196 33428
" />
</g>
<g style="fill:#000000; fill-opacity:0.0; 
stroke:#000000; stroke-width:39.3701; stroke-opacity:1; 
stroke-linecap:round; stroke-linejoin:round;">
</g>
<g style="fill:#000000; fill-opacity:0.0; 
stroke:#000000; stroke-width:59.0551; stroke-opacity:1; 
stroke-linecap:round; stroke-linejoin:round;">
<path d="M4489 53332
L4464 53356
L4391 53381
L4342 53381
L4269 53356
L4221 53308
L4196 53259
L4172 53161
L4172 53088
L4196 52991
L4221 52942
L4269 52893
L4342 52869
L4391 52869
L4464 52893
L4489 52918
" />
</g>
<g style="fill:#000000; fill-opacity:0.0; 
stroke:#000000; stroke-width:39.3701; stroke-opacity:1; 
stroke-linecap:round; stroke-linejoin:round;">
</g>
<g style="fill:#000000; fill-opacity:0.0; 
stroke:#000000; stroke-width:59.0551; stroke-opacity:1; 
stroke-linecap:round; stroke-linejoin:round;">
<path d="M4196 73066
L4196 72554
L4318 72554
L4391 72578
L4440 72627
L4464 72676
L4489 72773
L4489 72846
L4464 72944
L4440 72993
L4391 73041
L4318 73066
L4196 73066
" />
</g>
<g style="fill:#000000; fill-opacity:0.0; 
stroke:#000000; stroke-width:39.3701; stroke-opacity:1; 
stroke-linecap:round; stroke-linejoin:round;">
</g>
<g style="fill:#000000; fill-opacity:0.0; 
stroke:#000000; stroke-width:59.0551; stroke-opacity:1; 
stroke-linecap:round; stroke-linejoin:round;">
<path d="M112992 23622
L112205 23622
" />
</g>
<g style="fill:#000000; fill-opacity:0.0; 
stroke:#000000; stroke-width:39.3701; stroke-opacity:1; 
stroke-linecap:round; stroke-linejoin:round;">
</g>
<g style="fill:#000000; fill-opacity:0.0; 
stroke:#000000; stroke-width:59.0551; stroke-opacity:1; 
stroke-linecap:round; stroke-linejoin:round;">
<path d="M112992 43307
L112205 43307
" />
</g>
<g style="fill:#000000; fill-opacity:0.0; 
stroke:#000000; stroke-width:39.3701; stroke-opacity:1; 
stroke-linecap:round; stroke-linejoin:round;">
</g>
<g style="fill:#000000; fill-opacity:0.0; 
stroke:#000000; stroke-width:59.0551; stroke-opacity:1; 
stroke-linecap:round; stroke-linejoin:round;">
<path d="M112992 62992
L112205 62992
" />
</g>
<g style="fill:#000000; fill-opacity:0.0; 
stroke:#000000; stroke-width:39.3701; stroke-opacity:1; 
stroke-linecap:round; stroke-linejoin:round;">
</g>
<g style="fill:#000000; fill-opacity:0.0; 
stroke:#000000; stroke-width:59.0551; stroke-opacity:1; 
stroke-linecap:round; stroke-linejoin:round;">
<path d="M112477 13864
L112721 13864
" />
<path d="M112428 14011
L112599 13499
L112769 14011
" />
</g>
<g style="fill:#000000; fill-opacity:0.0; 
stroke:#000000; stroke-width:39.3701; stroke-opacity:1; 
stroke-linecap:round; stroke-linejoin:round;">
</g>
<g style="fill:#000000; fill-opacity:0.0; 
stroke:#000000; stroke-width:59.0551; stroke-opacity:1; 
stroke-linecap:round; stroke-linejoin:round;">
<path d="M112635 33428
L112708 33452
L112733 33476
L112757 33525
L112757 33598
L112733 33647
L112708 33671
L112660 33696
L112465 33696
L112465 33184
L112635 33184
L112684 33208
L112708 33233
L112733 33281
L112733 33330
L112708 33379
L112684 33403
L112635 33428
L112465 33428
" />
</g>
<g style="fill:#000000; fill-opacity:0.0; 
stroke:#000000; stroke-width:39.3701; stroke-opacity:1; 
stroke-linecap:round; stroke-linejoin:round;">
</g>
<g style="fill:#000000; fill-opacity:0.0; 
stroke:#000000; stroke-width:59.0551; stroke-opacity:1; 
stroke-linecap:round; stroke-linejoin:round;">
<path d="M112757 53332
L112733 53356
L112660 53381
L112611 53381
L112538 53356
L112489 53308
L112465 53259
L112440 53161
L112440 53088
L112465 52991
L112489 52942
L112538 52893
L112611 52869
L112660 52869
L112733 52893
L112757 52918
" />
</g>
<g style="fill:#000000; fill-opacity:0.0; 
stroke:#000000; stroke-width:39.3701; stroke-opacity:1; 
stroke-linecap:round; stroke-linejoin:round;">
</g>
<g style="fill:#000000; fill-opacity:0.0; 
stroke:#000000; stroke-width:59.0551; stroke-opacity:1; 
stroke-linecap:round; stroke-linejoin:round;">
<path d="M112465 73066
L112465 72554
L112587 72554
L112660 72578
L112708 72627
L112733 72676
L112757 72773
L112757 72846
L112733 72944
L112708 72993
L112660 73041
L112587 73066
L112465 73066
" />
</g>
<g style="fill:#000000; fill-opacity:0.0; 
stroke:#000000; stroke-width:39.3701; stroke-opacity:1; 
stroke-linecap:round; stroke-linejoin:round;">
</g>
<g style="fill:#000000; fill-opacity:0.0; 
stroke:#000000; stroke-width:59.0551; stroke-opacity:1; 
stroke-linecap:round; stroke-linejoin:round;">
<path d="M78911 76293
L78911 75703
L79051 75703
L79136 75731
L79192 75787
L79220 75843
L79248 75956
L79248 76040
L79220 76153
L79192 76209
L79136 76265
L79051 76293
L78911 76293
" />
<path d="M79754 76293
L79754 75984
L79726 75928
L79670 75899
L79557 75899
L79501 75928
" />
<path d="M79754 76265
L79698 76293
L79557 76293
L79501 76265
L79473 76209
L79473 76153
L79501 76096
L79557 76068
L79698 76068
L79754 76040
" />
<path d="M79951 75899
L80176 75899
" />
<path d="M80036 75703
L80036 76209
L80064 76265
L80120 76293
L80176 76293
" />
<path d="M80598 76265
L80542 76293
L80429 76293
L80373 76265
L80345 76209
L80345 75984
L80373 75928
L80429 75899
L80542 75899
L80598 75928
L80626 75984
L80626 76040
L80345 76096
" />
<path d="M80879 76237
L80907 76265
L80879 76293
L80851 76265
L80879 76237
L80879 76293
" />
<path d="M80879 75928
L80907 75956
L80879 75984
L80851 75956
L80879 75928
L80879 75984
" />
<path d="M81723 75703
L81779 75703
L81835 75731
L81863 75759
L81892 75815
L81920 75928
L81920 76068
L81892 76181
L81863 76237
L81835 76265
L81779 76293
L81723 76293
L81667 76265
L81638 76237
L81610 76181
L81582 76068
L81582 75928
L81610 75815
L81638 75759
L81667 75731
L81723 75703
" />
<path d="M82145 75759
L82173 75731
L82229 75703
L82370 75703
L82426 75731
L82454 75759
L82482 75815
L82482 75871
L82454 75956
L82117 76293
L82482 76293
" />
<path d="M82735 76237
L82763 76265
L82735 76293
L82707 76265
L82735 76237
L82735 76293
" />
<path d="M83326 76293
L82988 76293
" />
<path d="M83157 76293
L83157 75703
L83101 75787
L83045 75843
L82988 75871
" />
<path d="M83888 76293
L83551 76293
" />
<path d="M83719 76293
L83719 75703
L83663 75787
L83607 75843
L83551 75871
" />
<path d="M84141 76237
L84169 76265
L84141 76293
L84113 76265
L84141 76237
L84141 76293
" />
<path d="M84394 75759
L84422 75731
L84479 75703
L84619 75703
L84676 75731
L84704 75759
L84732 75815
L84732 75871
L84704 75956
L84366 76293
L84732 76293
" />
<path d="M85097 75703
L85154 75703
L85210 75731
L85238 75759
L85266 75815
L85294 75928
L85294 76068
L85266 76181
L85238 76237
L85210 76265
L85154 76293
L85097 76293
L85041 76265
L85013 76237
L84985 76181
L84957 76068
L84957 75928
L84985 75815
L85013 75759
L85041 75731
L85097 75703
" />
<path d="M85519 75759
L85547 75731
L85604 75703
L85744 75703
L85800 75731
L85829 75759
L85857 75815
L85857 75871
L85829 75956
L85491 76293
L85857 76293
" />
<path d="M86222 75703
L86278 75703
L86335 75731
L86363 75759
L86391 75815
L86419 75928
L86419 76068
L86391 76181
L86363 76237
L86335 76265
L86278 76293
L86222 76293
L86166 76265
L86138 76237
L86110 76181
L86082 76068
L86082 75928
L86110 75815
L86138 75759
L86166 75731
L86222 75703
" />
</g>
<g style="fill:#000000; fill-opacity:0.0; 
stroke:#000000; stroke-width:39.3701; stroke-opacity:1; 
stroke-linecap:round; stroke-linejoin:round;">
</g>
<g style="fill:#000000; fill-opacity:0.0; 
stroke:#000000; stroke-width:59.0551; stroke-opacity:1; 
stroke-linecap:round; stroke-linejoin:round;">
<path d="M69685 76577
L112205 76577
" />
</g>
<g style="fill:#000000; fill-opacity:0.0; 
stroke:#000000; stroke-width:39.3701; stroke-opacity:1; 
stroke-linecap:round; stroke-linejoin:round;">
</g>
<g style="fill:#000000; fill-opacity:0.0; 
stroke:#000000; stroke-width:59.0551; stroke-opacity:1; 
stroke-linecap:round; stroke-linejoin:round;">
<path d="M70249 77395
L70249 76805
" />
<path d="M70587 77395
L70334 77058
" />
<path d="M70587 76805
L70249 77142
" />
<path d="M70840 77395
L70840 77002
" />
<path d="M70840 76805
L70812 76833
L70840 76861
L70868 76833
L70840 76805
L70840 76861
" />
<path d="M71458 77339
L71430 77367
L71346 77395
L71290 77395
L71205 77367
L71149 77311
L71121 77255
L71093 77142
L71093 77058
L71121 76946
L71149 76889
L71205 76833
L71290 76805
L71346 76805
L71430 76833
L71458 76861
" />
<path d="M71965 77395
L71965 77086
L71937 77030
L71880 77002
L71768 77002
L71712 77030
" />
<path d="M71965 77367
L71908 77395
L71768 77395
L71712 77367
L71683 77311
L71683 77255
L71712 77199
L71768 77171
L71908 77171
L71965 77142
" />
<path d="M72499 77395
L72499 76805
" />
<path d="M72499 77367
L72443 77395
L72330 77395
L72274 77367
L72246 77339
L72218 77283
L72218 77114
L72246 77058
L72274 77030
L72330 77002
L72443 77002
L72499 77030
" />
<path d="M73230 77086
L73427 77086
" />
<path d="M73511 77395
L73230 77395
L73230 76805
L73511 76805
" />
<path d="M73764 77339
L73793 77367
L73764 77395
L73736 77367
L73764 77339
L73764 77395
" />
<path d="M74046 77395
L74046 76805
L74186 76805
L74271 76833
L74327 76889
L74355 76946
L74383 77058
L74383 77142
L74355 77255
L74327 77311
L74271 77367
L74186 77395
L74046 77395
" />
<path d="M74636 77339
L74664 77367
L74636 77395
L74608 77367
L74636 77339
L74636 77395
" />
<path d="M74889 77227
L75171 77227
" />
<path d="M74833 77395
L75030 76805
L75227 77395
" />
<path d="M75424 77339
L75452 77367
L75424 77395
L75395 77367
L75424 77339
L75424 77395
" />
<path d="M76605 77395
L76605 76805
" />
<path d="M76661 77171
L76830 77395
" />
<path d="M76830 77002
L76605 77227
" />
<path d="M77083 77395
L77083 77002
" />
<path d="M77083 76805
L77055 76833
L77083 76861
L77111 76833
L77083 76805
L77083 76861
" />
<path d="M77617 77367
L77561 77395
L77448 77395
L77392 77367
L77364 77339
L77336 77283
L77336 77114
L77364 77058
L77392 77030
L77448 77002
L77561 77002
L77617 77030
" />
<path d="M78123 77395
L78123 77086
L78095 77030
L78039 77002
L77926 77002
L77870 77030
" />
<path d="M78123 77367
L78067 77395
L77926 77395
L77870 77367
L77842 77311
L77842 77255
L77870 77199
L77926 77171
L78067 77171
L78123 77142
" />
<path d="M78658 77395
L78658 76805
" />
<path d="M78658 77367
L78601 77395
L78489 77395
L78433 77367
L78404 77339
L78376 77283
L78376 77114
L78404 77058
L78433 77030
L78489 77002
L78601 77002
L78658 77030
" />
<path d="M79557 77620
L79529 77592
L79473 77508
L79445 77452
L79417 77367
L79389 77227
L79389 77114
L79417 76974
L79445 76889
L79473 76833
L79529 76749
L79557 76721
" />
<path d="M80064 76805
L79782 76805
L79754 77086
L79782 77058
L79839 77030
L79979 77030
L80036 77058
L80064 77086
L80092 77142
L80092 77283
L80064 77339
L80036 77367
L79979 77395
L79839 77395
L79782 77367
L79754 77339
" />
<path d="M80345 77339
L80373 77367
L80345 77395
L80317 77367
L80345 77339
L80345 77395
" />
<path d="M80935 77395
L80598 77395
" />
<path d="M80767 77395
L80767 76805
L80710 76889
L80654 76946
L80598 76974
" />
<path d="M81188 77339
L81217 77367
L81188 77395
L81160 77367
L81188 77339
L81188 77395
" />
<path d="M81582 76805
L81638 76805
L81695 76833
L81723 76861
L81751 76917
L81779 77030
L81779 77171
L81751 77283
L81723 77339
L81695 77367
L81638 77395
L81582 77395
L81526 77367
L81498 77339
L81470 77283
L81442 77171
L81442 77030
L81470 76917
L81498 76861
L81526 76833
L81582 76805
" />
<path d="M81976 77620
L82004 77592
L82060 77508
L82088 77452
L82117 77367
L82145 77227
L82145 77114
L82117 76974
L82088 76889
L82060 76833
L82004 76749
L81976 76721
" />
<path d="M82426 77171
L82876 77171
" />
<path d="M83466 77395
L83129 77395
" />
<path d="M83298 77395
L83298 76805
L83241 76889
L83185 76946
L83129 76974
" />
</g>
<g style="fill:#000000; fill-opacity:0.0; 
stroke:#000000; stroke-width:39.3701; stroke-opacity:1; 
stroke-linecap:round; stroke-linejoin:round;">
</g>
<g style="fill:#000000; fill-opacity:0.0; 
stroke:#000000; stroke-width:59.0551; stroke-opacity:1; 
stroke-linecap:round; stroke-linejoin:round;">
<path d="M69685 75396
L112205 75396
" />
</g>
<g style="fill:#000000; fill-opacity:0.0; 
stroke:#000000; stroke-width:39.3701; stroke-opacity:1; 
stroke-linecap:round; stroke-linejoin:round;">
</g>
<g style="fill:#000000; fill-opacity:0.0; 
stroke:#000000; stroke-width:118.11; stroke-opacity:1; 
stroke-linecap:round; stroke-linejoin:round;">
<path d="M104099 76293
L103902 76012
" />
<path d="M103761 76293
L103761 75703
L103986 75703
L104042 75731
L104070 75759
L104099 75815
L104099 75899
L104070 75956
L104042 75984
L103986 76012
L103761 76012
" />
<path d="M104577 76265
L104520 76293
L104408 76293
L104352 76265
L104323 76209
L104323 75984
L104352 75928
L104408 75899
L104520 75899
L104577 75928
L104605 75984
L104605 76040
L104323 76096
" />
<path d="M104802 75899
L104942 76293
L105083 75899
" />
<path d="M105308 76237
L105336 76265
L105308 76293
L105280 76265
L105308 76237
L105308 76293
" />
<path d="M105308 75928
L105336 75956
L105308 75984
L105280 75956
L105308 75928
L105308 75984
" />
<path d="M105955 75703
L106151 76293
L106348 75703
" />
<path d="M106854 76293
L106517 76293
" />
<path d="M106686 76293
L106686 75703
L106629 75787
L106573 75843
L106517 75871
" />
<path d="M107108 76237
L107136 76265
L107108 76293
L107079 76265
L107108 76237
L107108 76293
" />
<path d="M107501 75703
L107557 75703
L107614 75731
L107642 75759
L107670 75815
L107698 75928
L107698 76068
L107670 76181
L107642 76237
L107614 76265
L107557 76293
L107501 76293
L107445 76265
L107417 76237
L107389 76181
L107361 76068
L107361 75928
L107389 75815
L107417 75759
L107445 75731
L107501 75703
" />
</g>
<g style="fill:#000000; fill-opacity:0.0; 
stroke:#000000; stroke-width:39.3701; stroke-opacity:1; 
stroke-linecap:round; stroke-linejoin:round;">
</g>
<g style="fill:#000000; fill-opacity:0.0; 
stroke:#000000; stroke-width:59.0551; stroke-opacity:1; 
stroke-linecap:round; stroke-linejoin:round;">
<path d="M70221 76265
L70305 76293
L70446 76293
L70502 76265
L70530 76237
L70559 76181
L70559 76124
L70530 76068
L70502 76040
L70446 76012
L70334 75984
L70277 75956
L70249 75928
L70221 75871
L70221 75815
L70249 75759
L70277 75731
L70334 75703
L70474 75703
L70559 75731
" />
<path d="M70812 76293
L70812 75899
" />
<path d="M70812 75703
L70784 75731
L70812 75759
L70840 75731
L70812 75703
L70812 75759
" />
<path d="M71037 75899
L71346 75899
L71037 76293
L71346 76293
" />
<path d="M71796 76265
L71740 76293
L71627 76293
L71571 76265
L71543 76209
L71543 75984
L71571 75928
L71627 75899
L71740 75899
L71796 75928
L71824 75984
L71824 76040
L71543 76096
" />
<path d="M72077 76237
L72105 76265
L72077 76293
L72049 76265
L72077 76237
L72077 76293
" />
<path d="M72077 75928
L72105 75956
L72077 75984
L72049 75956
L72077 75928
L72077 75984
" />
<path d="M72780 76124
L73061 76124
" />
<path d="M72724 76293
L72921 75703
L73118 76293
" />
<path d="M73568 75899
L73568 76293
" />
<path d="M73427 75674
L73286 76096
L73652 76096
" />
</g>
<g style="fill:#000000; fill-opacity:0.0; 
stroke:#000000; stroke-width:39.3701; stroke-opacity:1; 
stroke-linecap:round; stroke-linejoin:round;">
</g>
<g style="fill:#000000; fill-opacity:0.0; 
stroke:#000000; stroke-width:59.0551; stroke-opacity:1; 
stroke-linecap:round; stroke-linejoin:round;">
<path d="M103714 77395
L103714 76805
" />
<path d="M104248 77395
L104248 76805
" />
<path d="M104248 77367
L104192 77395
L104079 77395
L104023 77367
L103995 77339
L103967 77283
L103967 77114
L103995 77058
L104023 77030
L104079 77002
L104192 77002
L104248 77030
" />
<path d="M104529 77339
L104557 77367
L104529 77395
L104501 77367
L104529 77339
L104529 77395
" />
<path d="M104529 77030
L104557 77058
L104529 77086
L104501 77058
L104529 77030
L104529 77086
" />
<path d="M105570 77395
L105232 77395
" />
<path d="M105401 77395
L105401 76805
L105345 76889
L105289 76946
L105232 76974
" />
<path d="M106245 76777
L105739 77536
" />
<path d="M106751 77395
L106413 77395
" />
<path d="M106582 77395
L106582 76805
L106526 76889
L106470 76946
L106413 76974
" />
</g>
<g style="fill:#000000; fill-opacity:0.0; 
stroke:#000000; stroke-width:39.3701; stroke-opacity:1; 
stroke-linecap:round; stroke-linejoin:round;">
</g>
<g style="fill:#000000; fill-opacity:0.0; 
stroke:#000000; stroke-width:59.0551; stroke-opacity:1; 
stroke-linecap:round; stroke-linejoin:round;">
<path d="M69685 73821
L112205 73821
" />
</g>
<g style="fill:#000000; fill-opacity:0.0; 
stroke:#000000; stroke-width:39.3701; stroke-opacity:1; 
stroke-linecap:round; stroke-linejoin:round;">
</g>
<g style="fill:#000000; fill-opacity:0.0; 
stroke:#000000; stroke-width:157.48; stroke-opacity:1; 
stroke-linecap:round; stroke-linejoin:round;">
<path d="M70360 74099
L70810 74099
" />
<path d="M70486 74886
L70585 74099
" />
<path d="M70974 74886
L71039 74361
" />
<path d="M71072 74099
L71030 74136
L71063 74174
L71105 74136
L71072 74099
L71063 74174
" />
<path d="M71302 74361
L71602 74361
" />
<path d="M71447 74099
L71363 74774
L71391 74849
L71461 74886
L71536 74886
" />
<path d="M71911 74886
L71841 74849
L71813 74774
L71897 74099
" />
<path d="M72516 74849
L72436 74886
L72286 74886
L72216 74849
L72187 74774
L72225 74474
L72272 74399
L72352 74361
L72501 74361
L72572 74399
L72600 74474
L72591 74549
L72206 74624
" />
<path d="M72895 74811
L72928 74849
L72886 74886
L72853 74849
L72895 74811
L72886 74886
" />
<path d="M72947 74399
L72980 74436
L72937 74474
L72905 74436
L72947 74399
L72937 74474
" />
<path d="M73912 74174
L73954 74136
L74034 74099
L74222 74099
L74292 74136
L74325 74174
L74353 74249
L74343 74324
L74292 74436
L73786 74886
L74273 74886
" />
<path d="M75553 74849
L75473 74886
L75323 74886
L75253 74849
L75220 74811
L75192 74736
L75220 74511
L75267 74436
L75309 74399
L75389 74361
L75539 74361
L75609 74399
" />
<path d="M76223 74886
L76274 74474
L76246 74399
L76176 74361
L76026 74361
L75946 74399
" />
<path d="M76228 74849
L76148 74886
L75960 74886
L75890 74849
L75862 74774
L75871 74699
L75918 74624
L75998 74586
L76185 74586
L76265 74549
" />
<path d="M76565 74849
L76635 74886
L76785 74886
L76865 74849
L76912 74774
L76917 74736
L76888 74661
L76818 74624
L76706 74624
L76635 74586
L76607 74511
L76612 74474
L76659 74399
L76738 74361
L76851 74361
L76921 74399
" />
<path d="M77577 74849
L77498 74886
L77348 74886
L77277 74849
L77245 74811
L77217 74736
L77245 74511
L77292 74436
L77334 74399
L77413 74361
L77563 74361
L77634 74399
" />
<path d="M78248 74886
L78299 74474
L78271 74399
L78201 74361
L78051 74361
L77971 74399
" />
<path d="M78252 74849
L78173 74886
L77985 74886
L77915 74849
L77887 74774
L77896 74699
L77943 74624
L78023 74586
L78210 74586
L78290 74549
" />
<path d="M78960 74886
L79058 74099
" />
<path d="M78965 74849
L78885 74886
L78735 74886
L78665 74849
L78632 74811
L78604 74736
L78632 74511
L78679 74436
L78721 74399
L78801 74361
L78951 74361
L79021 74399
" />
<path d="M79640 74849
L79560 74886
L79410 74886
L79340 74849
L79312 74774
L79349 74474
L79396 74399
L79476 74361
L79626 74361
L79696 74399
L79724 74474
L79715 74549
L79330 74624
" />
<path d="M80947 74886
L80999 74474
L80971 74399
L80900 74361
L80750 74361
L80671 74399
" />
<path d="M80952 74849
L80872 74886
L80685 74886
L80615 74849
L80586 74774
L80596 74699
L80643 74624
L80722 74586
L80910 74586
L80989 74549
" />
<path d="M81725 74361
L81660 74886
" />
<path d="M81388 74361
L81336 74774
L81364 74849
L81435 74886
L81547 74886
L81627 74849
L81669 74811
" />
<path d="M82372 74886
L82471 74099
" />
<path d="M82377 74849
L82297 74886
L82147 74886
L82077 74849
L82044 74811
L82016 74736
L82044 74511
L82091 74436
L82133 74399
L82213 74361
L82363 74361
L82433 74399
" />
<path d="M82747 74886
L82813 74361
" />
<path d="M82846 74099
L82803 74136
L82836 74174
L82878 74136
L82846 74099
L82836 74174
" />
<path d="M83235 74886
L83164 74849
L83131 74811
L83103 74736
L83131 74511
L83178 74436
L83220 74399
L83300 74361
L83413 74361
L83483 74399
L83516 74436
L83544 74511
L83516 74736
L83469 74811
L83427 74849
L83347 74886
L83235 74886
" />
<path d="M84772 74886
L84823 74474
L84795 74399
L84725 74361
L84575 74361
L84495 74399
" />
<path d="M84777 74849
L84697 74886
L84509 74886
L84439 74849
L84411 74774
L84420 74699
L84467 74624
L84547 74586
L84734 74586
L84814 74549
" />
<path d="M85147 74886
L85212 74361
" />
<path d="M85203 74436
L85245 74399
L85325 74361
L85437 74361
L85508 74399
L85536 74474
L85484 74886
" />
<path d="M85536 74474
L85583 74399
L85662 74361
L85775 74361
L85845 74399
L85873 74474
L85822 74886
" />
<path d="M86262 74361
L86164 75149
" />
<path d="M86258 74399
L86337 74361
L86487 74361
L86558 74399
L86590 74436
L86618 74511
L86590 74736
L86543 74811
L86501 74849
L86422 74886
L86272 74886
L86201 74849
" />
<path d="M87022 74886
L86951 74849
L86923 74774
L87007 74099
" />
<path d="M87322 74886
L87387 74361
" />
<path d="M87420 74099
L87378 74136
L87411 74174
L87453 74136
L87420 74099
L87411 74174
" />
<path d="M87650 74361
L87950 74361
" />
<path d="M87696 74886
L87781 74211
L87828 74136
L87907 74099
L87982 74099
" />
<path d="M88146 74886
L88212 74361
" />
<path d="M88245 74099
L88203 74136
L88235 74174
L88278 74136
L88245 74099
L88235 74174
" />
<path d="M88826 74849
L88746 74886
L88596 74886
L88526 74849
L88498 74774
L88535 74474
L88582 74399
L88662 74361
L88812 74361
L88882 74399
L88910 74474
L88901 74549
L88517 74624
" />
<path d="M89196 74886
L89262 74361
" />
<path d="M89243 74511
L89290 74436
L89332 74399
L89412 74361
L89487 74361
" />
</g>
<g style="fill:#000000; fill-opacity:0.0; 
stroke:#000000; stroke-width:39.3701; stroke-opacity:1; 
stroke-linecap:round; stroke-linejoin:round;">
</g>
<g style="fill:#000000; fill-opacity:0.0; 
stroke:#000000; stroke-width:59.0551; stroke-opacity:1; 
stroke-linecap:round; stroke-linejoin:round;">
<path d="M70446 73070
L70249 73070
" />
<path d="M70249 73380
L70249 72789
L70530 72789
" />
<path d="M70755 73380
L70755 72986
" />
<path d="M70755 72789
L70727 72817
L70755 72845
L70784 72817
L70755 72789
L70755 72845
" />
<path d="M71121 73380
L71065 73352
L71037 73295
L71037 72789
" />
<path d="M71571 73352
L71515 73380
L71402 73380
L71346 73352
L71318 73295
L71318 73070
L71346 73014
L71402 72986
L71515 72986
L71571 73014
L71599 73070
L71599 73127
L71318 73183
" />
<path d="M71852 73323
L71880 73352
L71852 73380
L71824 73352
L71852 73323
L71852 73380
" />
<path d="M71852 73014
L71880 73042
L71852 73070
L71824 73042
L71852 73014
L71852 73070
" />
<path d="M72555 73352
L72640 73380
L72780 73380
L72836 73352
L72865 73323
L72893 73267
L72893 73211
L72865 73155
L72836 73127
L72780 73099
L72668 73070
L72611 73042
L72583 73014
L72555 72958
L72555 72902
L72583 72845
L72611 72817
L72668 72789
L72808 72789
L72893 72817
" />
<path d="M73146 73380
L73146 72986
" />
<path d="M73146 72789
L73118 72817
L73146 72845
L73174 72817
L73146 72789
L73146 72845
" />
<path d="M73427 72986
L73427 73380
" />
<path d="M73427 73042
L73455 73014
L73511 72986
L73596 72986
L73652 73014
L73680 73070
L73680 73380
" />
<path d="M74214 72986
L74214 73464
L74186 73520
L74158 73548
L74102 73577
L74018 73577
L73961 73548
" />
<path d="M74214 73352
L74158 73380
L74046 73380
L73989 73352
L73961 73323
L73933 73267
L73933 73099
L73961 73042
L73989 73014
L74046 72986
L74158 72986
L74214 73014
" />
<path d="M74580 73380
L74524 73352
L74496 73295
L74496 72789
" />
<path d="M75030 73352
L74974 73380
L74861 73380
L74805 73352
L74777 73295
L74777 73070
L74805 73014
L74861 72986
L74974 72986
L75030 73014
L75058 73070
L75058 73127
L74777 73183
" />
<path d="M75171 73436
L75620 73436
" />
<path d="M75677 72986
L75902 72986
" />
<path d="M75761 72789
L75761 73295
L75789 73352
L75845 73380
L75902 73380
" />
<path d="M76099 73380
L76099 72986
" />
<path d="M76099 73099
L76127 73042
L76155 73014
L76211 72986
L76267 72986
" />
<path d="M76717 73380
L76717 73070
L76689 73014
L76633 72986
L76520 72986
L76464 73014
" />
<path d="M76717 73352
L76661 73380
L76520 73380
L76464 73352
L76436 73295
L76436 73239
L76464 73183
L76520 73155
L76661 73155
L76717 73127
" />
<path d="M76998 72986
L76998 73380
" />
<path d="M76998 73042
L77027 73014
L77083 72986
L77167 72986
L77223 73014
L77251 73070
L77251 73380
" />
<path d="M77505 73352
L77561 73380
L77673 73380
L77730 73352
L77758 73295
L77758 73267
L77730 73211
L77673 73183
L77589 73183
L77533 73155
L77505 73099
L77505 73070
L77533 73014
L77589 72986
L77673 72986
L77730 73014
" />
<path d="M78011 73380
L78011 72986
" />
<path d="M78011 72789
L77983 72817
L78011 72845
L78039 72817
L78011 72789
L78011 72845
" />
<path d="M78264 73352
L78320 73380
L78433 73380
L78489 73352
L78517 73295
L78517 73267
L78489 73211
L78433 73183
L78348 73183
L78292 73155
L78264 73099
L78264 73070
L78292 73014
L78348 72986
L78433 72986
L78489 73014
" />
<path d="M78686 72986
L78911 72986
" />
<path d="M78770 72789
L78770 73295
L78798 73352
L78854 73380
L78911 73380
" />
<path d="M79192 73380
L79136 73352
L79108 73323
L79079 73267
L79079 73099
L79108 73042
L79136 73014
L79192 72986
L79276 72986
L79332 73014
L79361 73042
L79389 73099
L79389 73267
L79361 73323
L79332 73352
L79276 73380
L79192 73380
" />
<path d="M79642 73380
L79642 72986
" />
<path d="M79642 73099
L79670 73042
L79698 73014
L79754 72986
L79811 72986
" />
<path d="M79867 73436
L80317 73436
" />
<path d="M80429 73211
L80710 73211
" />
<path d="M80373 73380
L80570 72789
L80767 73380
" />
<path d="M80964 73380
L80964 72789
L81160 73211
L81357 72789
L81357 73380
" />
<path d="M81638 73380
L81638 72789
L81863 72789
L81920 72817
L81948 72845
L81976 72902
L81976 72986
L81948 73042
L81920 73070
L81863 73099
L81638 73099
" />
<path d="M82229 73323
L82257 73352
L82229 73380
L82201 73352
L82229 73323
L82229 73380
" />
<path d="M82510 73380
L82510 72789
" />
<path d="M82566 73155
L82735 73380
" />
<path d="M82735 72986
L82510 73211
" />
<path d="M82988 73380
L82988 72986
" />
<path d="M82988 72789
L82960 72817
L82988 72845
L83016 72817
L82988 72789
L82988 72845
" />
<path d="M83523 73352
L83466 73380
L83354 73380
L83298 73352
L83269 73323
L83241 73267
L83241 73099
L83269 73042
L83298 73014
L83354 72986
L83466 72986
L83523 73014
" />
<path d="M84029 73380
L84029 73070
L84001 73014
L83944 72986
L83832 72986
L83776 73014
" />
<path d="M84029 73352
L83973 73380
L83832 73380
L83776 73352
L83748 73295
L83748 73239
L83776 73183
L83832 73155
L83973 73155
L84029 73127
" />
<path d="M84563 73380
L84563 72789
" />
<path d="M84563 73352
L84507 73380
L84394 73380
L84338 73352
L84310 73323
L84282 73267
L84282 73099
L84310 73042
L84338 73014
L84394 72986
L84507 72986
L84563 73014
" />
<path d="M84704 73436
L85154 73436
" />
<path d="M85294 72986
L85294 73577
" />
<path d="M85294 73014
L85350 72986
L85463 72986
L85519 73014
L85547 73042
L85575 73099
L85575 73267
L85547 73323
L85519 73352
L85463 73380
L85350 73380
L85294 73352
" />
<path d="M86082 73352
L86025 73380
L85913 73380
L85857 73352
L85829 73323
L85800 73267
L85800 73099
L85829 73042
L85857 73014
L85913 72986
L86025 72986
L86082 73014
" />
<path d="M86335 73380
L86335 72789
" />
<path d="M86335 73014
L86391 72986
L86503 72986
L86560 73014
L86588 73042
L86616 73099
L86616 73267
L86588 73323
L86560 73352
L86503 73380
L86391 73380
L86335 73352
" />
</g>
<g style="fill:#000000; fill-opacity:0.0; 
stroke:#000000; stroke-width:39.3701; stroke-opacity:1; 
stroke-linecap:round; stroke-linejoin:round;">
</g>
<g style="fill:#000000; fill-opacity:0.0; 
stroke:#000000; stroke-width:59.0551; stroke-opacity:1; 
stroke-linecap:round; stroke-linejoin:round;">
<path d="M69685 71459
L112205 71459
" />
</g>
<g style="fill:#000000; fill-opacity:0.0; 
stroke:#000000; stroke-width:39.3701; stroke-opacity:1; 
stroke-linecap:round; stroke-linejoin:round;">
</g>
<g style="fill:#000000; fill-opacity:0.0; 
stroke:#000000; stroke-width:59.0551; stroke-opacity:1; 
stroke-linecap:round; stroke-linejoin:round;">
<path d="M70221 72289
L70305 72317
L70446 72317
L70502 72289
L70530 72260
L70559 72204
L70559 72148
L70530 72092
L70502 72064
L70446 72036
L70334 72007
L70277 71979
L70249 71951
L70221 71895
L70221 71839
L70249 71782
L70277 71754
L70334 71726
L70474 71726
L70559 71754
" />
<path d="M70812 72317
L70812 71726
" />
<path d="M71065 72317
L71065 72007
L71037 71951
L70980 71923
L70896 71923
L70840 71951
L70812 71979
" />
<path d="M71571 72289
L71515 72317
L71402 72317
L71346 72289
L71318 72232
L71318 72007
L71346 71951
L71402 71923
L71515 71923
L71571 71951
L71599 72007
L71599 72064
L71318 72120
" />
<path d="M72077 72289
L72021 72317
L71908 72317
L71852 72289
L71824 72232
L71824 72007
L71852 71951
L71908 71923
L72021 71923
L72077 71951
L72105 72007
L72105 72064
L71824 72120
" />
<path d="M72274 71923
L72499 71923
" />
<path d="M72358 71726
L72358 72232
L72386 72289
L72443 72317
L72499 72317
" />
<path d="M72696 72260
L72724 72289
L72696 72317
L72668 72289
L72696 72260
L72696 72317
" />
<path d="M72696 71951
L72724 71979
L72696 72007
L72668 71979
L72696 71951
L72696 72007
" />
</g>
<g style="fill:#000000; fill-opacity:0.0; 
stroke:#000000; stroke-width:39.3701; stroke-opacity:1; 
stroke-linecap:round; stroke-linejoin:round;">
</g>
<g style="fill:#000000; fill-opacity:0.0; 
stroke:#000000; stroke-width:118.11; stroke-opacity:1; 
stroke-linecap:round; stroke-linejoin:round;">
<path d="M70212 70545
L70409 71136
L70606 70545
" />
<path d="M71028 71108
L70971 71136
L70859 71136
L70803 71108
L70775 71051
L70775 70826
L70803 70770
L70859 70742
L70971 70742
L71028 70770
L71056 70826
L71056 70883
L70775 70939
" />
<path d="M71281 70967
L71562 70967
" />
<path d="M71224 71136
L71421 70545
L71618 71136
" />
</g>
<g style="fill:#000000; fill-opacity:0.0; 
stroke:#000000; stroke-width:39.3701; stroke-opacity:1; 
stroke-linecap:round; stroke-linejoin:round;">
</g>
<g style="fill:#000000; fill-opacity:0.0; 
stroke:#000000; stroke-width:59.0551; stroke-opacity:1; 
stroke-linecap:round; stroke-linejoin:round;">
<path d="M70249 69955
L70249 69364
L70474 69364
L70530 69392
L70559 69420
L70587 69476
L70587 69561
L70559 69617
L70530 69645
L70474 69673
L70249 69673
" />
<path d="M71177 69898
L71149 69926
L71065 69955
L71009 69955
L70924 69926
L70868 69870
L70840 69814
L70812 69701
L70812 69617
L70840 69505
L70868 69448
L70924 69392
L71009 69364
L71065 69364
L71149 69392
L71177 69420
" />
<path d="M71627 69645
L71712 69673
L71740 69701
L71768 69758
L71768 69842
L71740 69898
L71712 69926
L71655 69955
L71430 69955
L71430 69364
L71627 69364
L71683 69392
L71712 69420
L71740 69476
L71740 69533
L71712 69589
L71683 69617
L71627 69645
L71430 69645
" />
<path d="M71880 70011
L72330 70011
" />
<path d="M72808 69898
L72780 69926
L72696 69955
L72640 69955
L72555 69926
L72499 69870
L72471 69814
L72443 69701
L72443 69617
L72471 69505
L72499 69448
L72555 69392
L72640 69364
L72696 69364
L72780 69392
L72808 69420
" />
<path d="M73033 69786
L73314 69786
" />
<path d="M72977 69955
L73174 69364
L73371 69955
" />
<path d="M73568 69955
L73568 69364
L73708 69364
L73793 69392
L73849 69448
L73877 69505
L73905 69617
L73905 69701
L73877 69814
L73849 69870
L73793 69926
L73708 69955
L73568 69955
" />
<path d="M74608 69955
L74608 69364
" />
<path d="M74664 69730
L74833 69955
" />
<path d="M74833 69561
L74608 69786
" />
<path d="M75339 69561
L75339 69955
" />
<path d="M75086 69561
L75086 69870
L75114 69926
L75171 69955
L75255 69955
L75311 69926
L75339 69898
" />
<path d="M75620 69955
L75620 69561
" />
<path d="M75620 69673
L75649 69617
L75677 69589
L75733 69561
L75789 69561
" />
<path d="M75958 69926
L76014 69955
L76127 69955
L76183 69926
L76211 69870
L76211 69842
L76183 69786
L76127 69758
L76042 69758
L75986 69730
L75958 69673
L75958 69645
L75986 69589
L76042 69561
L76127 69561
L76183 69589
" />
<path d="M76436 69926
L76492 69955
L76605 69955
L76661 69926
L76689 69870
L76689 69842
L76661 69786
L76605 69758
L76520 69758
L76464 69730
L76436 69673
L76436 69645
L76464 69589
L76520 69561
L76605 69561
L76661 69589
" />
</g>
<g style="fill:#000000; fill-opacity:0.0; 
stroke:#000000; stroke-width:39.3701; stroke-opacity:1; 
stroke-linecap:round; stroke-linejoin:round;">
</g>
<g style="fill:#000000; fill-opacity:0.0; 
stroke:#000000; stroke-width:59.0551; stroke-opacity:1; 
stroke-linecap:round; stroke-linejoin:round;">
<path d="M70587 68773
L70390 68492
" />
<path d="M70249 68773
L70249 68183
L70474 68183
L70530 68211
L70559 68239
L70587 68295
L70587 68380
L70559 68436
L70530 68464
L70474 68492
L70249 68492
" />
<path d="M70924 68773
L70868 68745
L70840 68717
L70812 68661
L70812 68492
L70840 68436
L70868 68408
L70924 68380
L71009 68380
L71065 68408
L71093 68436
L71121 68492
L71121 68661
L71093 68717
L71065 68745
L71009 68773
L70924 68773
" />
<path d="M71627 68773
L71627 68183
" />
<path d="M71627 68745
L71571 68773
L71458 68773
L71402 68745
L71374 68717
L71346 68661
L71346 68492
L71374 68436
L71402 68408
L71458 68380
L71571 68380
L71627 68408
" />
<path d="M71908 68773
L71908 68380
" />
<path d="M71908 68492
L71937 68436
L71965 68408
L72021 68380
L72077 68380
" />
<path d="M72274 68773
L72274 68380
" />
<path d="M72274 68183
L72246 68211
L72274 68239
L72302 68211
L72274 68183
L72274 68239
" />
<path d="M72808 68380
L72808 68858
L72780 68914
L72752 68942
L72696 68970
L72611 68970
L72555 68942
" />
<path d="M72808 68745
L72752 68773
L72640 68773
L72583 68745
L72555 68717
L72527 68661
L72527 68492
L72555 68436
L72583 68408
L72640 68380
L72752 68380
L72808 68408
" />
<path d="M73174 68773
L73118 68745
L73090 68717
L73061 68661
L73061 68492
L73090 68436
L73118 68408
L73174 68380
L73258 68380
L73314 68408
L73343 68436
L73371 68492
L73371 68661
L73343 68717
L73314 68745
L73258 68773
L73174 68773
" />
<path d="M74355 68773
L74074 68773
L74074 68183
" />
<path d="M74805 68773
L74805 68464
L74777 68408
L74721 68380
L74608 68380
L74552 68408
" />
<path d="M74805 68745
L74749 68773
L74608 68773
L74552 68745
L74524 68689
L74524 68633
L74552 68577
L74608 68548
L74749 68548
L74805 68520
" />
<path d="M75339 68380
L75339 68773
" />
<path d="M75086 68380
L75086 68689
L75114 68745
L75171 68773
L75255 68773
L75311 68745
L75339 68717
" />
<path d="M75620 68773
L75620 68380
" />
<path d="M75620 68492
L75649 68436
L75677 68408
L75733 68380
L75789 68380
" />
<path d="M75986 68773
L75986 68380
" />
<path d="M75986 68183
L75958 68211
L75986 68239
L76014 68211
L75986 68183
L75986 68239
" />
<path d="M76267 68380
L76267 68773
" />
<path d="M76267 68436
L76295 68408
L76352 68380
L76436 68380
L76492 68408
L76520 68464
L76520 68773
" />
<path d="M76886 68773
L76830 68745
L76802 68717
L76773 68661
L76773 68492
L76802 68436
L76830 68408
L76886 68380
L76970 68380
L77027 68408
L77055 68436
L77083 68492
L77083 68661
L77055 68717
L77027 68745
L76970 68773
L76886 68773
" />
<path d="M77280 68380
L77420 68773
L77561 68380
" />
<path d="M77786 68773
L77786 68380
" />
<path d="M77786 68183
L77758 68211
L77786 68239
L77814 68211
L77786 68183
L77786 68239
" />
<path d="M78320 68745
L78264 68773
L78151 68773
L78095 68745
L78067 68717
L78039 68661
L78039 68492
L78067 68436
L78095 68408
L78151 68380
L78264 68380
L78320 68408
" />
<path d="M78095 68155
L78208 68239
L78320 68155
" />
<path d="M78545 68745
L78601 68773
L78714 68773
L78770 68745
L78798 68689
L78798 68661
L78770 68605
L78714 68577
L78629 68577
L78573 68548
L78545 68492
L78545 68464
L78573 68408
L78629 68380
L78714 68380
L78770 68408
" />
</g>
<g style="fill:#000000; fill-opacity:0.0; 
stroke:#000000; stroke-width:39.3701; stroke-opacity:1; 
stroke-linecap:round; stroke-linejoin:round;">
</g>
<g style="fill:#000000; fill-opacity:0.0; 
stroke:#000000; stroke-width:59.0551; stroke-opacity:1; 
stroke-linecap:round; stroke-linejoin:round;">
<path d="M70221 67424
L70502 67424
" />
<path d="M70165 67592
L70362 67002
L70559 67592
" />
<path d="M71009 67199
L71009 67592
" />
<path d="M70755 67199
L70755 67508
L70784 67564
L70840 67592
L70924 67592
L70980 67564
L71009 67536
" />
<path d="M71205 67199
L71430 67199
" />
<path d="M71290 67002
L71290 67508
L71318 67564
L71374 67592
L71430 67592
" />
<path d="M71712 67592
L71655 67564
L71627 67536
L71599 67480
L71599 67311
L71627 67255
L71655 67227
L71712 67199
L71796 67199
L71852 67227
L71880 67255
L71908 67311
L71908 67480
L71880 67536
L71852 67564
L71796 67592
L71712 67592
" />
<path d="M72162 67592
L72162 67199
" />
<path d="M72162 67311
L72190 67255
L72218 67227
L72274 67199
L72330 67199
" />
<path d="M72499 67564
L72555 67592
L72668 67592
L72724 67564
L72752 67508
L72752 67480
L72724 67424
L72668 67395
L72583 67395
L72527 67367
L72499 67311
L72499 67283
L72527 67227
L72583 67199
L72668 67199
L72724 67227
" />
</g>
<g style="fill:#000000; fill-opacity:0.0; 
stroke:#000000; stroke-width:39.3701; stroke-opacity:1; 
stroke-linecap:round; stroke-linejoin:round;">
</g>
<g style="fill:#000000; fill-opacity:0.0; 
stroke:#000000; stroke-width:59.0551; stroke-opacity:1; 
stroke-linecap:round; stroke-linejoin:round;">
<path d="M77559 75396
L77559 76577
" />
</g>
<g style="fill:#000000; fill-opacity:0.0; 
stroke:#000000; stroke-width:39.3701; stroke-opacity:1; 
stroke-linecap:round; stroke-linejoin:round;">
</g>
<g style="fill:#000000; fill-opacity:0.0; 
stroke:#000000; stroke-width:59.0551; stroke-opacity:1; 
stroke-linecap:round; stroke-linejoin:round;">
<path d="M102756 75396
L102756 77955
" />
</g>
<g style="fill:#840084; fill-opacity:0.0; 
stroke:#840084; stroke-width:59.0551; stroke-opacity:1; 
stroke-linecap:round; stroke-linejoin:round;">
</g>
<g style="fill:#840084; fill-opacity:1.0; 
stroke:#840084; stroke-width:0; stroke-opacity:1; 
stroke-linecap:round; stroke-linejoin:round;">
<path style="fill:#840084; fill-opacity:1.0; 
stroke:#840084; stroke-width:0; stroke-opacity:1; 
stroke-linecap:round; stroke-linejoin:round;fill-rule:evenodd;"
d="M 48860,52360
47639,52360
47639,51139
48860,51139
48860,52360
Z" /> 
<path style="fill:#840084; fill-opacity:1.0; 
stroke:#840084; stroke-width:0; stroke-opacity:1; 
stroke-linecap:round; stroke-linejoin:round;fill-rule:evenodd;"
d="M 46836,51150
46900,51162
47011,51208
47111,51275
47196,51360
47263,51460
47309,51571
47309,51571
47333,51689
47333,51810
47332,51814
47309,51928
47263,52039
47196,52139
47111,52224
47011,52291
46900,52337
46841,52348
46782,52360
46662,52360
46603,52348
46544,52337
46433,52291
46333,52224
46248,52139
46181,52039
46135,51928
46112,51814
46111,51810
46111,51689
46135,51571
46135,51571
46181,51460
46248,51360
46333,51275
46433,51208
46544,51162
46608,51150
46662,51139
46782,51139
46836,51150
Z" /> 
<path style="fill:#840084; fill-opacity:1.0; 
stroke:#840084; stroke-width:0; stroke-opacity:1; 
stroke-linecap:round; stroke-linejoin:round;fill-rule:evenodd;"
d="M 41511,50113
41615,50156
41709,50218
41788,50298
41851,50392
41894,50495
41916,50606
41916,50718
41894,50829
41851,50933
41788,51026
41709,51106
41615,51168
41511,51211
41401,51233
41288,51233
41178,51211
41074,51168
40980,51106
40962,51088
40954,51081
40946,51077
40937,51074
40927,51073
40918,51074
40908,51077
40900,51081
40892,51088
40886,51095
40882,51103
40879,51113
40878,51122
40879,51132
40882,51141
40886,51150
40906,51179
40949,51283
40971,51393
40971,51506
40949,51616
40906,51720
40843,51814
40764,51893
40670,51956
40566,51999
40456,52021
40343,52021
40233,51999
40129,51956
40035,51893
39956,51814
39893,51720
39850,51616
39828,51506
39828,51393
39850,51283
39893,51179
39956,51085
40035,51006
40129,50943
40233,50900
40343,50878
40456,50878
40566,50900
40670,50943
40764,51006
40782,51024
40789,51030
40798,51035
40807,51038
40817,51038
40826,51038
40836,51035
40844,51030
40852,51024
40858,51017
40862,51008
40865,50999
40866,50989
40865,50980
40862,50970
40858,50962
40838,50933
40795,50829
40773,50718
40773,50606
40795,50495
40838,50392
40901,50298
40980,50218
41074,50156
41178,50113
41288,50091
41401,50091
41511,50113
Z" /> 
<path style="fill:#840084; fill-opacity:1.0; 
stroke:#840084; stroke-width:0; stroke-opacity:1; 
stroke-linecap:round; stroke-linejoin:round;fill-rule:evenodd;"
d="M 43676,50113
43780,50156
43874,50218
43953,50298
44016,50392
44059,50495
44081,50606
44081,50718
44059,50829
44016,50933
43953,51026
43874,51106
43780,51168
43676,51211
43566,51233
43453,51233
43343,51211
43239,51168
43146,51106
43066,51026
43003,50933
42960,50829
42938,50718
42938,50606
42960,50495
43003,50392
43066,50298
43146,50218
43239,50156
43343,50113
43453,50091
43566,50091
43676,50113
Z" /> 
<path style="fill:#840084; fill-opacity:1.0; 
stroke:#840084; stroke-width:0; stroke-opacity:1; 
stroke-linecap:round; stroke-linejoin:round;fill-rule:evenodd;"
d="M 43844,49094
43858,49098
43870,49105
43881,49114
43890,49124
43896,49137
43900,49150
43902,49166
43902,49433
43900,49449
43896,49462
43890,49475
43881,49485
43870,49494
43858,49501
43844,49505
43828,49507
43591,49507
43575,49505
43561,49501
43549,49494
43538,49485
43529,49475
43523,49462
43519,49449
43517,49433
43517,49166
43519,49150
43523,49137
43529,49124
43538,49114
43549,49105
43561,49098
43575,49094
43591,49092
43828,49092
43844,49094
Z" /> 
<path style="fill:#840084; fill-opacity:1.0; 
stroke:#840084; stroke-width:0; stroke-opacity:1; 
stroke-linecap:round; stroke-linejoin:round;fill-rule:evenodd;"
d="M 43224,49094
43238,49098
43250,49105
43261,49114
43270,49124
43276,49137
43280,49150
43282,49166
43282,49433
43280,49449
43276,49462
43270,49475
43261,49485
43250,49494
43238,49501
43224,49505
43208,49507
42971,49507
42955,49505
42941,49501
42929,49494
42918,49485
42909,49475
42903,49462
42899,49449
42897,49433
42897,49166
42899,49150
42903,49137
42909,49124
42918,49114
42929,49105
42941,49098
42955,49094
42971,49092
43208,49092
43224,49094
Z" /> 
<path style="fill:#840084; fill-opacity:1.0; 
stroke:#840084; stroke-width:0; stroke-opacity:1; 
stroke-linecap:round; stroke-linejoin:round;fill-rule:evenodd;"
d="M 41385,48935
40164,48935
40164,47714
41385,47714
41385,48935
Z" /> 
<path style="fill:#840084; fill-opacity:1.0; 
stroke:#840084; stroke-width:0; stroke-opacity:1; 
stroke-linecap:round; stroke-linejoin:round;fill-rule:evenodd;"
d="M 46158,48216
46171,48220
46183,48227
46194,48235
46203,48246
46209,48258
46213,48272
46215,48288
46215,48811
46213,48827
46209,48841
46203,48853
46194,48864
46183,48872
46171,48879
46158,48883
46142,48885
45225,48885
45208,48883
45195,48879
45183,48872
45172,48864
45163,48853
45157,48841
45153,48827
45151,48811
45151,48288
45153,48272
45157,48258
45163,48246
45172,48235
45183,48227
45195,48220
45208,48216
45225,48214
46142,48214
46158,48216
Z" /> 
<path style="fill:#840084; fill-opacity:1.0; 
stroke:#840084; stroke-width:0; stroke-opacity:1; 
stroke-linecap:round; stroke-linejoin:round;fill-rule:evenodd;"
d="M 48833,48216
48846,48220
48858,48227
48869,48235
48878,48246
48884,48258
48888,48272
48890,48288
48890,48811
48888,48827
48884,48841
48878,48853
48869,48864
48858,48872
48846,48879
48833,48883
48817,48885
47900,48885
47883,48883
47870,48879
47858,48872
47847,48864
47838,48853
47832,48841
47828,48827
47826,48811
47826,48288
47828,48272
47832,48258
47838,48246
47847,48235
47858,48227
47870,48220
47883,48216
47900,48214
48817,48214
48833,48216
Z" /> 
<path style="fill:#840084; fill-opacity:1.0; 
stroke:#840084; stroke-width:0; stroke-opacity:1; 
stroke-linecap:round; stroke-linejoin:round;fill-rule:evenodd;"
d="M 47416,48216
47429,48220
47441,48227
47452,48235
47461,48246
47467,48258
47471,48272
47473,48288
47473,48811
47471,48827
47467,48841
47461,48853
47452,48864
47441,48872
47429,48879
47416,48883
47399,48885
46482,48885
46466,48883
46453,48879
46441,48872
46430,48864
46421,48853
46415,48841
46411,48827
46409,48811
46409,48288
46411,48272
46415,48258
46421,48246
46430,48235
46441,48227
46453,48220
46466,48216
46482,48214
47399,48214
47416,48216
Z" /> 
<path style="fill:#840084; fill-opacity:1.0; 
stroke:#840084; stroke-width:0; stroke-opacity:1; 
stroke-linecap:round; stroke-linejoin:round;fill-rule:evenodd;"
d="M 44741,48216
44754,48220
44766,48227
44777,48235
44786,48246
44792,48258
44796,48272
44798,48288
44798,48811
44796,48827
44792,48841
44786,48853
44777,48864
44766,48872
44754,48879
44741,48883
44724,48885
43807,48885
43791,48883
43778,48879
43766,48872
43755,48864
43746,48853
43740,48841
43736,48827
43734,48811
43734,48288
43736,48272
43740,48258
43746,48246
43755,48235
43766,48227
43778,48220
43791,48216
43807,48214
44724,48214
44741,48216
Z" /> 
<path style="fill:#840084; fill-opacity:1.0; 
stroke:#840084; stroke-width:0; stroke-opacity:1; 
stroke-linecap:round; stroke-linejoin:round;fill-rule:evenodd;"
d="M 43224,47544
43238,47548
43250,47555
43261,47564
43270,47574
43276,47587
43280,47600
43282,47616
43282,47883
43280,47899
43276,47912
43270,47925
43261,47935
43250,47944
43238,47951
43224,47955
43208,47957
42971,47957
42955,47955
42941,47951
42929,47944
42918,47935
42909,47925
42903,47912
42899,47899
42897,47883
42897,47616
42899,47600
42903,47587
42909,47574
42918,47564
42929,47555
42941,47548
42955,47544
42971,47542
43208,47542
43224,47544
Z" /> 
<path style="fill:#840084; fill-opacity:1.0; 
stroke:#840084; stroke-width:0; stroke-opacity:1; 
stroke-linecap:round; stroke-linejoin:round;fill-rule:evenodd;"
d="M 43844,47544
43858,47548
43870,47555
43881,47564
43890,47574
43896,47587
43900,47600
43902,47616
43902,47883
43900,47899
43896,47912
43890,47925
43881,47935
43870,47944
43858,47951
43844,47955
43828,47957
43591,47957
43575,47955
43561,47951
43549,47944
43538,47935
43529,47925
43523,47912
43519,47899
43517,47883
43517,47616
43519,47600
43523,47587
43529,47574
43538,47564
43549,47555
43561,47548
43575,47544
43591,47542
43828,47542
43844,47544
Z" /> 
<path style="fill:#840084; fill-opacity:1.0; 
stroke:#840084; stroke-width:0; stroke-opacity:1; 
stroke-linecap:round; stroke-linejoin:round;fill-rule:evenodd;"
d="M 45944,47044
45958,47048
45970,47055
45981,47064
45990,47074
45996,47087
46000,47100
46002,47116
46002,47383
46000,47399
45996,47412
45990,47425
45981,47435
45970,47444
45958,47451
45944,47455
45928,47457
45691,47457
45675,47455
45661,47451
45649,47444
45638,47435
45629,47425
45623,47412
45619,47399
45617,47383
45617,47116
45619,47100
45623,47087
45629,47074
45638,47064
45649,47055
45661,47048
45675,47044
45691,47042
45928,47042
45944,47044
Z" /> 
<path style="fill:#840084; fill-opacity:1.0; 
stroke:#840084; stroke-width:0; stroke-opacity:1; 
stroke-linecap:round; stroke-linejoin:round;fill-rule:evenodd;"
d="M 45324,47044
45338,47048
45350,47055
45361,47064
45370,47074
45376,47087
45380,47100
45382,47116
45382,47383
45380,47399
45376,47412
45370,47425
45361,47435
45350,47444
45338,47451
45324,47455
45308,47457
45071,47457
45055,47455
45041,47451
45029,47444
45018,47435
45009,47425
45003,47412
44999,47399
44997,47383
44997,47116
44999,47100
45003,47087
45009,47074
45018,47064
45029,47055
45041,47048
45055,47044
45071,47042
45308,47042
45324,47044
Z" /> 
<path style="fill:#840084; fill-opacity:1.0; 
stroke:#840084; stroke-width:0; stroke-opacity:1; 
stroke-linecap:round; stroke-linejoin:round;fill-rule:evenodd;"
d="M 40894,46198
40953,46210
41064,46256
41164,46323
41249,46408
41316,46508
41362,46619
41368,46649
41379,46707
41385,46737
41385,46857
41362,46975
41316,47086
41249,47186
41164,47271
41064,47338
40953,47384
40894,47396
40835,47408
40714,47408
40655,47396
40596,47384
40485,47338
40385,47271
40300,47186
40233,47086
40187,46975
40164,46857
40164,46737
40170,46707
40181,46649
40187,46619
40233,46508
40300,46408
40385,46323
40485,46256
40596,46210
40655,46198
40714,46186
40835,46186
40894,46198
Z" /> 
<path style="fill:#840084; fill-opacity:1.0; 
stroke:#840084; stroke-width:0; stroke-opacity:1; 
stroke-linecap:round; stroke-linejoin:round;fill-rule:evenodd;"
d="M 43630,46034
43680,46055
43725,46085
43764,46124
43794,46169
43815,46219
43825,46272
43825,46327
43815,46380
43794,46430
43783,46447
43778,46455
43776,46465
43775,46474
43776,46484
43778,46493
43783,46502
43789,46509
43796,46515
43805,46520
43814,46523
43824,46524
44325,46524
44325,47075
43774,47075
43774,46574
43773,46564
43770,46555
43765,46546
43759,46539
43752,46533
43743,46528
43734,46526
43724,46525
43715,46526
43705,46528
43697,46533
43680,46544
43630,46565
43577,46575
43522,46575
43469,46565
43419,46544
43374,46514
43335,46475
43305,46430
43284,46380
43274,46327
43274,46272
43284,46219
43305,46169
43335,46124
43374,46085
43419,46055
43469,46034
43522,46024
43577,46024
43630,46034
Z" /> 
<path style="fill:#840084; fill-opacity:1.0; 
stroke:#840084; stroke-width:0; stroke-opacity:1; 
stroke-linecap:round; stroke-linejoin:round;fill-rule:evenodd;"
d="M 48883,46316
48896,46320
48908,46327
48919,46335
48928,46346
48934,46358
48938,46372
48940,46388
48940,46911
48938,46927
48934,46941
48928,46953
48919,46964
48908,46972
48896,46979
48883,46983
48867,46985
47950,46985
47933,46983
47920,46979
47908,46972
47897,46964
47888,46953
47882,46941
47878,46927
47876,46911
47876,46388
47878,46372
47882,46358
47888,46346
47897,46335
47908,46327
47920,46320
47933,46316
47950,46314
48867,46314
48883,46316
Z" /> 
<path style="fill:#840084; fill-opacity:1.0; 
stroke:#840084; stroke-width:0; stroke-opacity:1; 
stroke-linecap:round; stroke-linejoin:round;fill-rule:evenodd;"
d="M 47466,46316
47479,46320
47491,46327
47502,46335
47511,46346
47517,46358
47521,46372
47523,46388
47523,46911
47521,46927
47517,46941
47511,46953
47502,46964
47491,46972
47479,46979
47466,46983
47449,46985
46532,46985
46516,46983
46503,46979
46491,46972
46480,46964
46471,46953
46465,46941
46461,46927
46459,46911
46459,46388
46461,46372
46465,46358
46471,46346
46480,46335
46491,46327
46503,46320
46516,46316
46532,46314
47449,46314
47466,46316
Z" /> 
<path style="fill:#840084; fill-opacity:1.0; 
stroke:#840084; stroke-width:0; stroke-opacity:1; 
stroke-linecap:round; stroke-linejoin:round;fill-rule:evenodd;"
d="M 45944,46294
45958,46298
45970,46305
45981,46314
45990,46324
45996,46337
46000,46350
46002,46366
46002,46633
46000,46649
45996,46662
45990,46675
45981,46685
45970,46694
45958,46701
45944,46705
45928,46707
45691,46707
45675,46705
45661,46701
45649,46694
45638,46685
45629,46675
45623,46662
45619,46649
45617,46633
45617,46366
45619,46350
45623,46337
45629,46324
45638,46314
45649,46305
45661,46298
45675,46294
45691,46292
45928,46292
45944,46294
Z" /> 
<path style="fill:#840084; fill-opacity:1.0; 
stroke:#840084; stroke-width:0; stroke-opacity:1; 
stroke-linecap:round; stroke-linejoin:round;fill-rule:evenodd;"
d="M 45324,46294
45338,46298
45350,46305
45361,46314
45370,46324
45376,46337
45380,46350
45382,46366
45382,46633
45380,46649
45376,46662
45370,46675
45361,46685
45350,46694
45338,46701
45324,46705
45308,46707
45071,46707
45055,46705
45041,46701
45029,46694
45018,46685
45009,46675
45003,46662
44999,46649
44997,46633
44997,46366
44999,46350
45003,46337
45009,46324
45018,46314
45029,46305
45041,46298
45055,46294
45071,46292
45308,46292
45324,46294
Z" /> 
<path style="fill:#840084; fill-opacity:1.0; 
stroke:#840084; stroke-width:0; stroke-opacity:1; 
stroke-linecap:round; stroke-linejoin:round;fill-rule:evenodd;"
d="M 44130,45534
44180,45555
44225,45585
44264,45624
44294,45669
44315,45719
44325,45772
44325,45827
44315,45880
44294,45930
44264,45975
44225,46014
44180,46044
44130,46065
44077,46075
44022,46075
43969,46065
43919,46044
43874,46014
43835,45975
43805,45930
43784,45880
43774,45827
43774,45772
43784,45719
43805,45669
43835,45624
43874,45585
43919,45555
43969,45534
44022,45524
44077,45524
44130,45534
Z" /> 
<path style="fill:#840084; fill-opacity:1.0; 
stroke:#840084; stroke-width:0; stroke-opacity:1; 
stroke-linecap:round; stroke-linejoin:round;fill-rule:evenodd;"
d="M 45944,45544
45958,45548
45970,45555
45981,45564
45990,45574
45996,45587
46000,45600
46002,45616
46002,45883
46000,45899
45996,45912
45990,45925
45981,45935
45970,45944
45958,45951
45944,45955
45928,45957
45691,45957
45675,45955
45661,45951
45649,45944
45638,45935
45629,45925
45623,45912
45619,45899
45617,45883
45617,45616
45619,45600
45623,45587
45629,45574
45638,45564
45649,45555
45661,45548
45675,45544
45691,45542
45928,45542
45944,45544
Z" /> 
<path style="fill:#840084; fill-opacity:1.0; 
stroke:#840084; stroke-width:0; stroke-opacity:1; 
stroke-linecap:round; stroke-linejoin:round;fill-rule:evenodd;"
d="M 45324,45544
45338,45548
45350,45555
45361,45564
45370,45574
45376,45587
45380,45600
45382,45616
45382,45883
45380,45899
45376,45912
45370,45925
45361,45935
45350,45944
45338,45951
45324,45955
45308,45957
45071,45957
45055,45955
45041,45951
45029,45944
45018,45935
45009,45925
45003,45912
44999,45899
44997,45883
44997,45616
44999,45600
45003,45587
45009,45574
45018,45564
45029,45555
45041,45548
45055,45544
45071,45542
45308,45542
45324,45544
Z" /> 
<path style="fill:#840084; fill-opacity:1.0; 
stroke:#840084; stroke-width:0; stroke-opacity:1; 
stroke-linecap:round; stroke-linejoin:round;fill-rule:evenodd;"
d="M 42419,45294
42433,45298
42445,45305
42456,45314
42465,45324
42471,45337
42475,45350
42477,45366
42477,45633
42475,45649
42471,45662
42465,45675
42456,45685
42445,45694
42433,45701
42419,45705
42403,45707
42166,45707
42150,45705
42136,45701
42124,45694
42113,45685
42104,45675
42098,45662
42094,45649
42092,45633
42092,45366
42094,45350
42098,45337
42104,45324
42113,45314
42124,45305
42136,45298
42150,45294
42166,45292
42403,45292
42419,45294
Z" /> 
<path style="fill:#840084; fill-opacity:1.0; 
stroke:#840084; stroke-width:0; stroke-opacity:1; 
stroke-linecap:round; stroke-linejoin:round;fill-rule:evenodd;"
d="M 41799,45294
41813,45298
41825,45305
41836,45314
41845,45324
41851,45337
41855,45350
41857,45366
41857,45633
41855,45649
41851,45662
41845,45675
41836,45685
41825,45694
41813,45701
41799,45705
41783,45707
41546,45707
41530,45705
41516,45701
41504,45694
41493,45685
41484,45675
41478,45662
41474,45649
41472,45633
41472,45366
41474,45350
41478,45337
41484,45324
41493,45314
41504,45305
41516,45298
41530,45294
41546,45292
41783,45292
41799,45294
Z" /> 
<path style="fill:#840084; fill-opacity:1.0; 
stroke:#840084; stroke-width:0; stroke-opacity:1; 
stroke-linecap:round; stroke-linejoin:round;fill-rule:evenodd;"
d="M 42846,43051
42942,43080
43031,43128
43109,43192
43173,43270
43221,43359
43250,43455
43257,43531
43257,44368
43250,44444
43221,44540
43173,44629
43156,44649
43109,44707
43051,44754
43031,44771
42942,44819
42846,44848
42745,44858
42645,44848
42548,44819
42459,44771
42439,44754
42381,44707
42334,44649
42317,44629
42270,44540
42240,44444
42233,44368
42233,43531
42240,43455
42270,43359
42317,43270
42381,43192
42459,43128
42459,43128
42459,43128
42548,43080
42548,43080
42645,43051
42745,43041
42846,43051
Z" /> 
<path style="fill:#840084; fill-opacity:1.0; 
stroke:#840084; stroke-width:0; stroke-opacity:1; 
stroke-linecap:round; stroke-linejoin:round;fill-rule:evenodd;"
d="M 44991,43051
45088,43080
45177,43128
45255,43192
45319,43270
45366,43359
45396,43455
45403,43531
45403,44368
45396,44444
45366,44540
45319,44629
45302,44649
45255,44707
45197,44754
45177,44771
45088,44819
44991,44848
44891,44858
44790,44848
44694,44819
44605,44771
44585,44754
44527,44707
44480,44649
44463,44629
44415,44540
44386,44444
44379,44368
44379,43531
44386,43455
44415,43359
44463,43270
44527,43192
44605,43128
44605,43128
44605,43128
44694,43080
44694,43080
44790,43051
44891,43041
44991,43051
Z" /> 
<path style="fill:#840084; fill-opacity:1.0; 
stroke:#840084; stroke-width:0; stroke-opacity:1; 
stroke-linecap:round; stroke-linejoin:round;fill-rule:evenodd;"
d="M 41112,44855
40087,44855
40087,43044
41112,43044
41112,44855
Z" /> 
</g>
<g style="fill:#000000; fill-opacity:1.0; 
stroke:#000000; stroke-width:0; stroke-opacity:1; 
stroke-linecap:round; stroke-linejoin:round;">
</g>
<g style="fill:#C2C200; fill-opacity:1.0; 
stroke:#C2C200; stroke-width:0; stroke-opacity:1; 
stroke-linecap:round; stroke-linejoin:round;">
</g>
<g style="fill:#C2C200; fill-opacity:1.0; 
stroke:#C2C200; stroke-width:19.685; stroke-opacity:1; 
stroke-linecap:round; stroke-linejoin:round;">
</g>
<g style="fill:#C2C200; fill-opacity:0.0; 
stroke:#C2C200; stroke-width:19.685; stroke-opacity:1; 
stroke-linecap:round; stroke-linejoin:round;">
<path d="M49291 42913
L49291 53149
" />
<path d="M39370 42913
L39370 53149
" />
<path d="M39370 53149
L49291 53149
" />
<path d="M39370 42913
L49291 42913
" />
<g >
</g>
<g >
</g>
<g >
</g>
<g >
</g>
<g >
</g>
<g >
</g>
<g >
</g>
<g >
</g>
<g >
</g>
<g >
</g>
<g >
</g>
<g >
</g>
<g >
</g>
<g >
</g>
<g >
</g>
</g> 
</svg>
