G04 #@! TF.GenerationSoftware,KiCad,Pcbnew,(5.1.0)-1*
G04 #@! TF.CreationDate,2020-12-02T22:17:39+02:00*
G04 #@! TF.ProjectId,Single_transistor_AMP,53696e67-6c65-45f7-9472-616e73697374,V1.0*
G04 #@! TF.SameCoordinates,Original*
G04 #@! TF.FileFunction,Legend,Top*
G04 #@! TF.FilePolarity,Positive*
%FSLAX46Y46*%
G04 Gerber Fmt 4.6, Leading zero omitted, Abs format (unit mm)*
G04 Created by KiCad (PCBNEW (5.1.0)-1) date 2020-12-02 22:17:39*
%MOMM*%
%LPD*%
G04 APERTURE LIST*
%ADD10C,0.150000*%
%ADD11C,0.120000*%
%ADD12C,0.100000*%
%ADD13C,0.075000*%
G04 APERTURE END LIST*
D10*
X118954785Y-111254500D02*
X119240500Y-111254500D01*
X118897642Y-111425928D02*
X119097642Y-110825928D01*
X119297642Y-111425928D01*
X119497642Y-111197357D02*
X119954785Y-111197357D01*
X120583357Y-111368785D02*
X120554785Y-111397357D01*
X120469071Y-111425928D01*
X120411928Y-111425928D01*
X120326214Y-111397357D01*
X120269071Y-111340214D01*
X120240500Y-111283071D01*
X120211928Y-111168785D01*
X120211928Y-111083071D01*
X120240500Y-110968785D01*
X120269071Y-110911642D01*
X120326214Y-110854500D01*
X120411928Y-110825928D01*
X120469071Y-110825928D01*
X120554785Y-110854500D01*
X120583357Y-110883071D01*
X121126214Y-111425928D02*
X120840500Y-111425928D01*
X120840500Y-110825928D01*
X121297642Y-111254500D02*
X121583357Y-111254500D01*
X121240500Y-111425928D02*
X121440500Y-110825928D01*
X121640500Y-111425928D01*
X121811928Y-111397357D02*
X121897642Y-111425928D01*
X122040500Y-111425928D01*
X122097642Y-111397357D01*
X122126214Y-111368785D01*
X122154785Y-111311642D01*
X122154785Y-111254500D01*
X122126214Y-111197357D01*
X122097642Y-111168785D01*
X122040500Y-111140214D01*
X121926214Y-111111642D01*
X121869071Y-111083071D01*
X121840500Y-111054500D01*
X121811928Y-110997357D01*
X121811928Y-110940214D01*
X121840500Y-110883071D01*
X121869071Y-110854500D01*
X121926214Y-110825928D01*
X122069071Y-110825928D01*
X122154785Y-110854500D01*
X122383357Y-111397357D02*
X122469071Y-111425928D01*
X122611928Y-111425928D01*
X122669071Y-111397357D01*
X122697642Y-111368785D01*
X122726214Y-111311642D01*
X122726214Y-111254500D01*
X122697642Y-111197357D01*
X122669071Y-111168785D01*
X122611928Y-111140214D01*
X122497642Y-111111642D01*
X122440500Y-111083071D01*
X122411928Y-111054500D01*
X122383357Y-110997357D01*
X122383357Y-110940214D01*
X122411928Y-110883071D01*
X122440500Y-110854500D01*
X122497642Y-110825928D01*
X122640500Y-110825928D01*
X122726214Y-110854500D01*
X118969071Y-112304500D02*
X119254785Y-112304500D01*
X118911928Y-112475928D02*
X119111928Y-111875928D01*
X119311928Y-112475928D01*
X119511928Y-112475928D02*
X119511928Y-112075928D01*
X119511928Y-112133071D02*
X119540500Y-112104500D01*
X119597642Y-112075928D01*
X119683357Y-112075928D01*
X119740500Y-112104500D01*
X119769071Y-112161642D01*
X119769071Y-112475928D01*
X119769071Y-112161642D02*
X119797642Y-112104500D01*
X119854785Y-112075928D01*
X119940500Y-112075928D01*
X119997642Y-112104500D01*
X120026214Y-112161642D01*
X120026214Y-112475928D01*
X120311928Y-112075928D02*
X120311928Y-112675928D01*
X120311928Y-112104500D02*
X120369071Y-112075928D01*
X120483357Y-112075928D01*
X120540500Y-112104500D01*
X120569071Y-112133071D01*
X120597642Y-112190214D01*
X120597642Y-112361642D01*
X120569071Y-112418785D01*
X120540500Y-112447357D01*
X120483357Y-112475928D01*
X120369071Y-112475928D01*
X120311928Y-112447357D01*
X120940500Y-112475928D02*
X120883357Y-112447357D01*
X120854785Y-112390214D01*
X120854785Y-111875928D01*
X121169071Y-112475928D02*
X121169071Y-112075928D01*
X121169071Y-111875928D02*
X121140500Y-111904500D01*
X121169071Y-111933071D01*
X121197642Y-111904500D01*
X121169071Y-111875928D01*
X121169071Y-111933071D01*
X121369071Y-112075928D02*
X121597642Y-112075928D01*
X121454785Y-112475928D02*
X121454785Y-111961642D01*
X121483357Y-111904500D01*
X121540500Y-111875928D01*
X121597642Y-111875928D01*
X121797642Y-112475928D02*
X121797642Y-112075928D01*
X121797642Y-111875928D02*
X121769071Y-111904500D01*
X121797642Y-111933071D01*
X121826214Y-111904500D01*
X121797642Y-111875928D01*
X121797642Y-111933071D01*
X122311928Y-112447357D02*
X122254785Y-112475928D01*
X122140500Y-112475928D01*
X122083357Y-112447357D01*
X122054785Y-112390214D01*
X122054785Y-112161642D01*
X122083357Y-112104500D01*
X122140500Y-112075928D01*
X122254785Y-112075928D01*
X122311928Y-112104500D01*
X122340500Y-112161642D01*
X122340500Y-112218785D01*
X122054785Y-112275928D01*
X122597642Y-112475928D02*
X122597642Y-112075928D01*
X122597642Y-112190214D02*
X122626214Y-112133071D01*
X122654785Y-112104500D01*
X122711928Y-112075928D01*
X122769071Y-112075928D01*
X117169071Y-113525928D02*
X117169071Y-112925928D01*
X117369071Y-113354500D01*
X117569071Y-112925928D01*
X117569071Y-113525928D01*
X118111928Y-113525928D02*
X118111928Y-113211642D01*
X118083357Y-113154500D01*
X118026214Y-113125928D01*
X117911928Y-113125928D01*
X117854785Y-113154500D01*
X118111928Y-113497357D02*
X118054785Y-113525928D01*
X117911928Y-113525928D01*
X117854785Y-113497357D01*
X117826214Y-113440214D01*
X117826214Y-113383071D01*
X117854785Y-113325928D01*
X117911928Y-113297357D01*
X118054785Y-113297357D01*
X118111928Y-113268785D01*
X118654785Y-113525928D02*
X118654785Y-112925928D01*
X118654785Y-113497357D02*
X118597642Y-113525928D01*
X118483357Y-113525928D01*
X118426214Y-113497357D01*
X118397642Y-113468785D01*
X118369071Y-113411642D01*
X118369071Y-113240214D01*
X118397642Y-113183071D01*
X118426214Y-113154500D01*
X118483357Y-113125928D01*
X118597642Y-113125928D01*
X118654785Y-113154500D01*
X119169071Y-113497357D02*
X119111928Y-113525928D01*
X118997642Y-113525928D01*
X118940500Y-113497357D01*
X118911928Y-113440214D01*
X118911928Y-113211642D01*
X118940500Y-113154500D01*
X118997642Y-113125928D01*
X119111928Y-113125928D01*
X119169071Y-113154500D01*
X119197642Y-113211642D01*
X119197642Y-113268785D01*
X118911928Y-113325928D01*
X119911928Y-113525928D02*
X119911928Y-112925928D01*
X119911928Y-113154500D02*
X119969071Y-113125928D01*
X120083357Y-113125928D01*
X120140500Y-113154500D01*
X120169071Y-113183071D01*
X120197642Y-113240214D01*
X120197642Y-113411642D01*
X120169071Y-113468785D01*
X120140500Y-113497357D01*
X120083357Y-113525928D01*
X119969071Y-113525928D01*
X119911928Y-113497357D01*
X120397642Y-113125928D02*
X120540500Y-113525928D01*
X120683357Y-113125928D02*
X120540500Y-113525928D01*
X120483357Y-113668785D01*
X120454785Y-113697357D01*
X120397642Y-113725928D01*
X121711928Y-113525928D02*
X121511928Y-113240214D01*
X121369071Y-113525928D02*
X121369071Y-112925928D01*
X121597642Y-112925928D01*
X121654785Y-112954500D01*
X121683357Y-112983071D01*
X121711928Y-113040214D01*
X121711928Y-113125928D01*
X121683357Y-113183071D01*
X121654785Y-113211642D01*
X121597642Y-113240214D01*
X121369071Y-113240214D01*
X122054785Y-113525928D02*
X121997642Y-113497357D01*
X121969071Y-113468785D01*
X121940500Y-113411642D01*
X121940500Y-113240214D01*
X121969071Y-113183071D01*
X121997642Y-113154500D01*
X122054785Y-113125928D01*
X122140500Y-113125928D01*
X122197642Y-113154500D01*
X122226214Y-113183071D01*
X122254785Y-113240214D01*
X122254785Y-113411642D01*
X122226214Y-113468785D01*
X122197642Y-113497357D01*
X122140500Y-113525928D01*
X122054785Y-113525928D01*
X122769071Y-113525928D02*
X122769071Y-112925928D01*
X122769071Y-113497357D02*
X122711928Y-113525928D01*
X122597642Y-113525928D01*
X122540500Y-113497357D01*
X122511928Y-113468785D01*
X122483357Y-113411642D01*
X122483357Y-113240214D01*
X122511928Y-113183071D01*
X122540500Y-113154500D01*
X122597642Y-113125928D01*
X122711928Y-113125928D01*
X122769071Y-113154500D01*
X123054785Y-113525928D02*
X123054785Y-113125928D01*
X123054785Y-113240214D02*
X123083357Y-113183071D01*
X123111928Y-113154500D01*
X123169071Y-113125928D01*
X123226214Y-113125928D01*
X123426214Y-113525928D02*
X123426214Y-113125928D01*
X123426214Y-112925928D02*
X123397642Y-112954500D01*
X123426214Y-112983071D01*
X123454785Y-112954500D01*
X123426214Y-112925928D01*
X123426214Y-112983071D01*
X123969071Y-113125928D02*
X123969071Y-113611642D01*
X123940500Y-113668785D01*
X123911928Y-113697357D01*
X123854785Y-113725928D01*
X123769071Y-113725928D01*
X123711928Y-113697357D01*
X123969071Y-113497357D02*
X123911928Y-113525928D01*
X123797642Y-113525928D01*
X123740500Y-113497357D01*
X123711928Y-113468785D01*
X123683357Y-113411642D01*
X123683357Y-113240214D01*
X123711928Y-113183071D01*
X123740500Y-113154500D01*
X123797642Y-113125928D01*
X123911928Y-113125928D01*
X123969071Y-113154500D01*
X124340500Y-113525928D02*
X124283357Y-113497357D01*
X124254785Y-113468785D01*
X124226214Y-113411642D01*
X124226214Y-113240214D01*
X124254785Y-113183071D01*
X124283357Y-113154500D01*
X124340500Y-113125928D01*
X124426214Y-113125928D01*
X124483357Y-113154500D01*
X124511928Y-113183071D01*
X124540500Y-113240214D01*
X124540500Y-113411642D01*
X124511928Y-113468785D01*
X124483357Y-113497357D01*
X124426214Y-113525928D01*
X124340500Y-113525928D01*
D11*
X115732779Y-115695000D02*
X115407221Y-115695000D01*
X115732779Y-116715000D02*
X115407221Y-116715000D01*
X115732779Y-119505000D02*
X115407221Y-119505000D01*
X115732779Y-120525000D02*
X115407221Y-120525000D01*
X115407221Y-118620000D02*
X115732779Y-118620000D01*
X115407221Y-117600000D02*
X115732779Y-117600000D01*
X106453721Y-116080000D02*
X106779279Y-116080000D01*
X106453721Y-115060000D02*
X106779279Y-115060000D01*
X110398779Y-124712000D02*
X110073221Y-124712000D01*
X110398779Y-125732000D02*
X110073221Y-125732000D01*
X110073221Y-121795000D02*
X110398779Y-121795000D01*
X110073221Y-120775000D02*
X110398779Y-120775000D01*
X110379000Y-109182000D02*
X110379000Y-114453000D01*
X106770000Y-109182000D02*
X106770000Y-114453000D01*
X116644000Y-109182000D02*
X116644000Y-114453000D01*
X100504000Y-109182000D02*
X100504000Y-114453000D01*
X100504000Y-114453000D02*
X116644000Y-114453000D01*
X100504000Y-109182000D02*
X116644000Y-109182000D01*
X113725478Y-115763522D02*
G75*
G03X109287000Y-117602000I-1838478J-1838478D01*
G01*
X113725478Y-119440478D02*
G75*
G02X109287000Y-117602000I-1838478J1838478D01*
G01*
X113737000Y-119402000D02*
X113737000Y-115802000D01*
X116585000Y-126615000D02*
X116585000Y-131445000D01*
X124715000Y-131445000D02*
X124715000Y-126615000D01*
X124715000Y-133355000D02*
X116585000Y-133355000D01*
X123445000Y-133355000D02*
X123445000Y-134745000D01*
X117855000Y-133355000D02*
X117855000Y-134745000D01*
X123445000Y-134745000D02*
X117855000Y-134745000D01*
X124715000Y-133355000D02*
X124715000Y-131445000D01*
X116585000Y-133355000D02*
X116585000Y-131445000D01*
X123445000Y-134495000D02*
X117855000Y-134495000D01*
X123445000Y-133605000D02*
X117855000Y-133605000D01*
X120265000Y-126875000D02*
X120265000Y-126615000D01*
X121035000Y-126875000D02*
X120265000Y-126875000D01*
X121035000Y-126615000D02*
X121035000Y-126875000D01*
X121035000Y-126615000D02*
X124715000Y-126615000D01*
X120265000Y-126615000D02*
X116585000Y-126615000D01*
X123755000Y-133645000D02*
X125055000Y-133645000D01*
X125055000Y-133645000D02*
X125055000Y-131445000D01*
X101296000Y-132903000D02*
X97296000Y-132903000D01*
X101296000Y-134803000D02*
X101296000Y-132903000D01*
X115536000Y-134803000D02*
X101296000Y-134803000D01*
X115536000Y-126363000D02*
X115536000Y-134803000D01*
X101296000Y-126363000D02*
X115536000Y-126363000D01*
X101296000Y-126663000D02*
X101296000Y-126363000D01*
X97296000Y-126663000D02*
X101296000Y-126663000D01*
X97296000Y-132903000D02*
X97296000Y-126663000D01*
X118408000Y-116681000D02*
X118408000Y-117181000D01*
X118158000Y-116931000D02*
X118658000Y-116931000D01*
X118898000Y-119686563D02*
X119962437Y-120751000D01*
X118898000Y-117295437D02*
X119962437Y-116231000D01*
X118898000Y-117295437D02*
X118898000Y-117431000D01*
X118898000Y-119686563D02*
X118898000Y-119551000D01*
X119962437Y-120751000D02*
X123418000Y-120751000D01*
X119962437Y-116231000D02*
X123418000Y-116231000D01*
X123418000Y-116231000D02*
X123418000Y-117431000D01*
X123418000Y-120751000D02*
X123418000Y-119551000D01*
X118281000Y-121507000D02*
X118281000Y-122007000D01*
X118031000Y-121757000D02*
X118531000Y-121757000D01*
X118771000Y-124512563D02*
X119835437Y-125577000D01*
X118771000Y-122121437D02*
X119835437Y-121057000D01*
X118771000Y-122121437D02*
X118771000Y-122257000D01*
X118771000Y-124512563D02*
X118771000Y-124377000D01*
X119835437Y-125577000D02*
X123291000Y-125577000D01*
X119835437Y-121057000D02*
X123291000Y-121057000D01*
X123291000Y-121057000D02*
X123291000Y-122257000D01*
X123291000Y-125577000D02*
X123291000Y-124377000D01*
X116986500Y-125127000D02*
X116986500Y-124627000D01*
X117236500Y-124877000D02*
X116736500Y-124877000D01*
X116496500Y-122121437D02*
X115432063Y-121057000D01*
X116496500Y-124512563D02*
X115432063Y-125577000D01*
X116496500Y-124512563D02*
X116496500Y-124377000D01*
X116496500Y-122121437D02*
X116496500Y-122257000D01*
X115432063Y-121057000D02*
X111976500Y-121057000D01*
X115432063Y-125577000D02*
X111976500Y-125577000D01*
X111976500Y-125577000D02*
X111976500Y-124377000D01*
X111976500Y-121057000D02*
X111976500Y-122257000D01*
X101368500Y-125245500D02*
X103568500Y-125245500D01*
X101368500Y-123945500D02*
X101368500Y-125245500D01*
X108398500Y-120455500D02*
X108398500Y-116775500D01*
X108398500Y-121225500D02*
X108398500Y-124905500D01*
X108398500Y-121225500D02*
X108138500Y-121225500D01*
X108138500Y-121225500D02*
X108138500Y-120455500D01*
X108138500Y-120455500D02*
X108398500Y-120455500D01*
X101408500Y-123635500D02*
X101408500Y-118045500D01*
X100518500Y-123635500D02*
X100518500Y-118045500D01*
X101658500Y-116775500D02*
X103568500Y-116775500D01*
X101658500Y-124905500D02*
X103568500Y-124905500D01*
X100268500Y-123635500D02*
X100268500Y-118045500D01*
X101658500Y-118045500D02*
X100268500Y-118045500D01*
X101658500Y-123635500D02*
X100268500Y-123635500D01*
X101658500Y-124905500D02*
X101658500Y-116775500D01*
X103568500Y-124905500D02*
X108398500Y-124905500D01*
X108398500Y-116775500D02*
X103568500Y-116775500D01*
D12*
X115750952Y-116462142D02*
X115560476Y-116595476D01*
X115750952Y-116690714D02*
X115350952Y-116690714D01*
X115350952Y-116538333D01*
X115370000Y-116500238D01*
X115389047Y-116481190D01*
X115427142Y-116462142D01*
X115484285Y-116462142D01*
X115522380Y-116481190D01*
X115541428Y-116500238D01*
X115560476Y-116538333D01*
X115560476Y-116690714D01*
X115750952Y-116081190D02*
X115750952Y-116309761D01*
X115750952Y-116195476D02*
X115350952Y-116195476D01*
X115408095Y-116233571D01*
X115446190Y-116271666D01*
X115465238Y-116309761D01*
X115750952Y-115700238D02*
X115750952Y-115928809D01*
X115750952Y-115814523D02*
X115350952Y-115814523D01*
X115408095Y-115852619D01*
X115446190Y-115890714D01*
X115465238Y-115928809D01*
D13*
X115750952Y-120081666D02*
X115560476Y-120215000D01*
X115750952Y-120310238D02*
X115350952Y-120310238D01*
X115350952Y-120157857D01*
X115370000Y-120119761D01*
X115389047Y-120100714D01*
X115427142Y-120081666D01*
X115484285Y-120081666D01*
X115522380Y-120100714D01*
X115541428Y-120119761D01*
X115560476Y-120157857D01*
X115560476Y-120310238D01*
X115350952Y-119719761D02*
X115350952Y-119910238D01*
X115541428Y-119929285D01*
X115522380Y-119910238D01*
X115503333Y-119872142D01*
X115503333Y-119776904D01*
X115522380Y-119738809D01*
X115541428Y-119719761D01*
X115579523Y-119700714D01*
X115674761Y-119700714D01*
X115712857Y-119719761D01*
X115731904Y-119738809D01*
X115750952Y-119776904D01*
X115750952Y-119872142D01*
X115731904Y-119910238D01*
X115712857Y-119929285D01*
D12*
X115814452Y-118176666D02*
X115623976Y-118310000D01*
X115814452Y-118405238D02*
X115414452Y-118405238D01*
X115414452Y-118252857D01*
X115433500Y-118214761D01*
X115452547Y-118195714D01*
X115490642Y-118176666D01*
X115547785Y-118176666D01*
X115585880Y-118195714D01*
X115604928Y-118214761D01*
X115623976Y-118252857D01*
X115623976Y-118405238D01*
X115547785Y-117833809D02*
X115814452Y-117833809D01*
X115395404Y-117929047D02*
X115681119Y-118024285D01*
X115681119Y-117776666D01*
D10*
X104909880Y-115736666D02*
X104433690Y-116070000D01*
X104909880Y-116308095D02*
X103909880Y-116308095D01*
X103909880Y-115927142D01*
X103957500Y-115831904D01*
X104005119Y-115784285D01*
X104100357Y-115736666D01*
X104243214Y-115736666D01*
X104338452Y-115784285D01*
X104386071Y-115831904D01*
X104433690Y-115927142D01*
X104433690Y-116308095D01*
X103909880Y-115403333D02*
X103909880Y-114784285D01*
X104290833Y-115117619D01*
X104290833Y-114974761D01*
X104338452Y-114879523D01*
X104386071Y-114831904D01*
X104481309Y-114784285D01*
X104719404Y-114784285D01*
X104814642Y-114831904D01*
X104862261Y-114879523D01*
X104909880Y-114974761D01*
X104909880Y-115260476D01*
X104862261Y-115355714D01*
X104814642Y-115403333D01*
X109370833Y-124340880D02*
X109037500Y-123864690D01*
X108799404Y-124340880D02*
X108799404Y-123340880D01*
X109180357Y-123340880D01*
X109275595Y-123388500D01*
X109323214Y-123436119D01*
X109370833Y-123531357D01*
X109370833Y-123674214D01*
X109323214Y-123769452D01*
X109275595Y-123817071D01*
X109180357Y-123864690D01*
X108799404Y-123864690D01*
X109751785Y-123436119D02*
X109799404Y-123388500D01*
X109894642Y-123340880D01*
X110132738Y-123340880D01*
X110227976Y-123388500D01*
X110275595Y-123436119D01*
X110323214Y-123531357D01*
X110323214Y-123626595D01*
X110275595Y-123769452D01*
X109704166Y-124340880D01*
X110323214Y-124340880D01*
X109370833Y-120340380D02*
X109037500Y-119864190D01*
X108799404Y-120340380D02*
X108799404Y-119340380D01*
X109180357Y-119340380D01*
X109275595Y-119388000D01*
X109323214Y-119435619D01*
X109370833Y-119530857D01*
X109370833Y-119673714D01*
X109323214Y-119768952D01*
X109275595Y-119816571D01*
X109180357Y-119864190D01*
X108799404Y-119864190D01*
X110323214Y-120340380D02*
X109751785Y-120340380D01*
X110037500Y-120340380D02*
X110037500Y-119340380D01*
X109942261Y-119483238D01*
X109847023Y-119578476D01*
X109751785Y-119626095D01*
X101123761Y-115736619D02*
X101028523Y-115689000D01*
X100933285Y-115593761D01*
X100790428Y-115450904D01*
X100695190Y-115403285D01*
X100599952Y-115403285D01*
X100647571Y-115641380D02*
X100552333Y-115593761D01*
X100457095Y-115498523D01*
X100409476Y-115308047D01*
X100409476Y-114974714D01*
X100457095Y-114784238D01*
X100552333Y-114689000D01*
X100647571Y-114641380D01*
X100838047Y-114641380D01*
X100933285Y-114689000D01*
X101028523Y-114784238D01*
X101076142Y-114974714D01*
X101076142Y-115308047D01*
X101028523Y-115498523D01*
X100933285Y-115593761D01*
X100838047Y-115641380D01*
X100647571Y-115641380D01*
X101409476Y-114641380D02*
X102028523Y-114641380D01*
X101695190Y-115022333D01*
X101838047Y-115022333D01*
X101933285Y-115069952D01*
X101980904Y-115117571D01*
X102028523Y-115212809D01*
X102028523Y-115450904D01*
X101980904Y-115546142D01*
X101933285Y-115593761D01*
X101838047Y-115641380D01*
X101552333Y-115641380D01*
X101457095Y-115593761D01*
X101409476Y-115546142D01*
X113349833Y-117478166D02*
X113316500Y-117544833D01*
X113249833Y-117611500D01*
X113149833Y-117711500D01*
X113116500Y-117778166D01*
X113116500Y-117844833D01*
X113283166Y-117811500D02*
X113249833Y-117878166D01*
X113183166Y-117944833D01*
X113049833Y-117978166D01*
X112816500Y-117978166D01*
X112683166Y-117944833D01*
X112616500Y-117878166D01*
X112583166Y-117811500D01*
X112583166Y-117678166D01*
X112616500Y-117611500D01*
X112683166Y-117544833D01*
X112816500Y-117511500D01*
X113049833Y-117511500D01*
X113183166Y-117544833D01*
X113249833Y-117611500D01*
X113283166Y-117678166D01*
X113283166Y-117811500D01*
X113283166Y-116844833D02*
X113283166Y-117244833D01*
X113283166Y-117044833D02*
X112583166Y-117044833D01*
X112683166Y-117111500D01*
X112749833Y-117178166D01*
X112783166Y-117244833D01*
X119935666Y-127214380D02*
X119935666Y-127928666D01*
X119888047Y-128071523D01*
X119792809Y-128166761D01*
X119649952Y-128214380D01*
X119554714Y-128214380D01*
X120316619Y-127214380D02*
X120935666Y-127214380D01*
X120602333Y-127595333D01*
X120745190Y-127595333D01*
X120840428Y-127642952D01*
X120888047Y-127690571D01*
X120935666Y-127785809D01*
X120935666Y-128023904D01*
X120888047Y-128119142D01*
X120840428Y-128166761D01*
X120745190Y-128214380D01*
X120459476Y-128214380D01*
X120364238Y-128166761D01*
X120316619Y-128119142D01*
X105878380Y-130889333D02*
X106592666Y-130889333D01*
X106735523Y-130936952D01*
X106830761Y-131032190D01*
X106878380Y-131175047D01*
X106878380Y-131270285D01*
X106878380Y-129889333D02*
X106878380Y-130460761D01*
X106878380Y-130175047D02*
X105878380Y-130175047D01*
X106021238Y-130270285D01*
X106116476Y-130365523D01*
X106164095Y-130460761D01*
X118070333Y-116308142D02*
X118022714Y-116355761D01*
X117879857Y-116403380D01*
X117784619Y-116403380D01*
X117641761Y-116355761D01*
X117546523Y-116260523D01*
X117498904Y-116165285D01*
X117451285Y-115974809D01*
X117451285Y-115831952D01*
X117498904Y-115641476D01*
X117546523Y-115546238D01*
X117641761Y-115451000D01*
X117784619Y-115403380D01*
X117879857Y-115403380D01*
X118022714Y-115451000D01*
X118070333Y-115498619D01*
X118975095Y-115403380D02*
X118498904Y-115403380D01*
X118451285Y-115879571D01*
X118498904Y-115831952D01*
X118594142Y-115784333D01*
X118832238Y-115784333D01*
X118927476Y-115831952D01*
X118975095Y-115879571D01*
X119022714Y-115974809D01*
X119022714Y-116212904D01*
X118975095Y-116308142D01*
X118927476Y-116355761D01*
X118832238Y-116403380D01*
X118594142Y-116403380D01*
X118498904Y-116355761D01*
X118451285Y-116308142D01*
X118070333Y-121261142D02*
X118022714Y-121308761D01*
X117879857Y-121356380D01*
X117784619Y-121356380D01*
X117641761Y-121308761D01*
X117546523Y-121213523D01*
X117498904Y-121118285D01*
X117451285Y-120927809D01*
X117451285Y-120784952D01*
X117498904Y-120594476D01*
X117546523Y-120499238D01*
X117641761Y-120404000D01*
X117784619Y-120356380D01*
X117879857Y-120356380D01*
X118022714Y-120404000D01*
X118070333Y-120451619D01*
X118451285Y-120451619D02*
X118498904Y-120404000D01*
X118594142Y-120356380D01*
X118832238Y-120356380D01*
X118927476Y-120404000D01*
X118975095Y-120451619D01*
X119022714Y-120546857D01*
X119022714Y-120642095D01*
X118975095Y-120784952D01*
X118403666Y-121356380D01*
X119022714Y-121356380D01*
X116736833Y-125960142D02*
X116689214Y-126007761D01*
X116546357Y-126055380D01*
X116451119Y-126055380D01*
X116308261Y-126007761D01*
X116213023Y-125912523D01*
X116165404Y-125817285D01*
X116117785Y-125626809D01*
X116117785Y-125483952D01*
X116165404Y-125293476D01*
X116213023Y-125198238D01*
X116308261Y-125103000D01*
X116451119Y-125055380D01*
X116546357Y-125055380D01*
X116689214Y-125103000D01*
X116736833Y-125150619D01*
X117689214Y-126055380D02*
X117117785Y-126055380D01*
X117403500Y-126055380D02*
X117403500Y-125055380D01*
X117308261Y-125198238D01*
X117213023Y-125293476D01*
X117117785Y-125341095D01*
X106259380Y-121110333D02*
X106973666Y-121110333D01*
X107116523Y-121157952D01*
X107211761Y-121253190D01*
X107259380Y-121396047D01*
X107259380Y-121491285D01*
X106354619Y-120681761D02*
X106307000Y-120634142D01*
X106259380Y-120538904D01*
X106259380Y-120300809D01*
X106307000Y-120205571D01*
X106354619Y-120157952D01*
X106449857Y-120110333D01*
X106545095Y-120110333D01*
X106687952Y-120157952D01*
X107259380Y-120729380D01*
X107259380Y-120110333D01*
M02*
