G04 #@! TF.GenerationSoftware,KiCad,Pcbnew,(5.1.0)-1*
G04 #@! TF.CreationDate,2020-12-02T22:17:39+02:00*
G04 #@! TF.ProjectId,Single_transistor_AMP,53696e67-6c65-45f7-9472-616e73697374,V1.0*
G04 #@! TF.SameCoordinates,Original*
G04 #@! TF.FileFunction,Copper,L2,Bot*
G04 #@! TF.FilePolarity,Positive*
%FSLAX46Y46*%
G04 Gerber Fmt 4.6, Leading zero omitted, Abs format (unit mm)*
G04 Created by KiCad (PCBNEW (5.1.0)-1) date 2020-12-02 22:17:39*
%MOMM*%
%LPD*%
G04 APERTURE LIST*
%ADD10O,2.500000X4.500000*%
%ADD11R,2.500000X4.500000*%
%ADD12R,1.300000X1.300000*%
%ADD13C,1.300000*%
%ADD14C,3.000000*%
%ADD15R,3.000000X3.000000*%
%ADD16C,2.800000*%
%ADD17C,0.800000*%
%ADD18C,0.500000*%
%ADD19C,0.200000*%
%ADD20C,0.254000*%
G04 APERTURE END LIST*
D10*
X114024000Y-111633000D03*
X108574000Y-111633000D03*
D11*
X103124000Y-111633000D03*
D12*
X111887000Y-118872000D03*
D13*
X111887000Y-116332000D03*
X110617000Y-117602000D03*
D14*
X118675000Y-131445000D03*
D15*
X122555000Y-131445000D03*
D16*
X110516000Y-128683000D03*
X105016000Y-128683000D03*
X102616000Y-130683000D03*
D15*
X103568500Y-122745500D03*
D14*
X103568500Y-118865500D03*
D17*
X114782500Y-120015000D03*
X114782500Y-116205000D03*
X122555000Y-126365000D03*
X123063000Y-121221500D03*
X107404000Y-115570000D03*
D18*
X122555000Y-126365000D02*
X122555000Y-121729500D01*
X122555000Y-121729500D02*
X123063000Y-121221500D01*
D19*
X103467000Y-111633000D02*
X103124000Y-111633000D01*
X107404000Y-115570000D02*
X103467000Y-111633000D01*
D20*
G36*
X101444934Y-113883000D02*
G01*
X101453178Y-113966707D01*
X101477595Y-114047196D01*
X101517245Y-114121376D01*
X101570605Y-114186395D01*
X101635624Y-114239755D01*
X101709804Y-114279405D01*
X101790293Y-114303822D01*
X101874000Y-114312066D01*
X104374000Y-114312066D01*
X104457707Y-114303822D01*
X104538196Y-114279405D01*
X104612376Y-114239755D01*
X104677395Y-114186395D01*
X104730755Y-114121376D01*
X104770405Y-114047196D01*
X104794822Y-113966707D01*
X104803066Y-113883000D01*
X104803066Y-113714356D01*
X106577043Y-115488333D01*
X106577000Y-115488548D01*
X106577000Y-115651452D01*
X106608782Y-115811227D01*
X106671123Y-115961731D01*
X106761628Y-116097181D01*
X106876819Y-116212372D01*
X107012269Y-116302877D01*
X107162773Y-116365218D01*
X107322548Y-116397000D01*
X107485452Y-116397000D01*
X107645227Y-116365218D01*
X107795731Y-116302877D01*
X107931181Y-116212372D01*
X108046372Y-116097181D01*
X108136877Y-115961731D01*
X108199218Y-115811227D01*
X108231000Y-115651452D01*
X108231000Y-115488548D01*
X108199218Y-115328773D01*
X108136877Y-115178269D01*
X108046372Y-115042819D01*
X107931181Y-114927628D01*
X107795731Y-114837123D01*
X107645227Y-114774782D01*
X107485452Y-114743000D01*
X107322548Y-114743000D01*
X107322333Y-114743043D01*
X104803066Y-112223777D01*
X104803066Y-109452000D01*
X107373781Y-109452000D01*
X107172879Y-109696802D01*
X107017158Y-109988136D01*
X106921265Y-110304252D01*
X106897000Y-110550618D01*
X106897001Y-112715383D01*
X106921266Y-112961749D01*
X107017159Y-113277865D01*
X107172880Y-113569199D01*
X107382445Y-113824556D01*
X107637802Y-114034121D01*
X107929136Y-114189842D01*
X108245252Y-114285735D01*
X108574000Y-114318114D01*
X108902749Y-114285735D01*
X109218865Y-114189842D01*
X109510199Y-114034121D01*
X109765556Y-113824556D01*
X109975121Y-113569199D01*
X110130842Y-113277865D01*
X110226735Y-112961749D01*
X110251000Y-112715383D01*
X110251000Y-110550617D01*
X110226735Y-110304251D01*
X110130842Y-109988135D01*
X109975121Y-109696801D01*
X109774219Y-109452000D01*
X112823781Y-109452000D01*
X112622879Y-109696802D01*
X112467158Y-109988136D01*
X112371265Y-110304252D01*
X112347000Y-110550618D01*
X112347001Y-112715383D01*
X112371266Y-112961749D01*
X112467159Y-113277865D01*
X112622880Y-113569199D01*
X112832445Y-113824556D01*
X113087802Y-114034121D01*
X113379136Y-114189842D01*
X113695252Y-114285735D01*
X114024000Y-114318114D01*
X114352749Y-114285735D01*
X114668865Y-114189842D01*
X114960199Y-114034121D01*
X115215556Y-113824556D01*
X115425121Y-113569199D01*
X115580842Y-113277865D01*
X115676735Y-112961749D01*
X115701000Y-112715383D01*
X115701000Y-110550617D01*
X115676735Y-110304251D01*
X115580842Y-109988135D01*
X115425121Y-109696801D01*
X115224219Y-109452000D01*
X124748000Y-109452000D01*
X124748001Y-134548000D01*
X100452000Y-134548000D01*
X100452000Y-132936653D01*
X117362952Y-132936653D01*
X117518962Y-133252214D01*
X117893745Y-133443020D01*
X118298551Y-133557044D01*
X118717824Y-133589902D01*
X119135451Y-133540334D01*
X119535383Y-133410243D01*
X119831038Y-133252214D01*
X119987048Y-132936653D01*
X118675000Y-131624605D01*
X117362952Y-132936653D01*
X100452000Y-132936653D01*
X100452000Y-130503056D01*
X100789000Y-130503056D01*
X100789000Y-130862944D01*
X100859211Y-131215916D01*
X100996934Y-131548409D01*
X101196876Y-131847645D01*
X101451355Y-132102124D01*
X101750591Y-132302066D01*
X102083084Y-132439789D01*
X102436056Y-132510000D01*
X102795944Y-132510000D01*
X103148916Y-132439789D01*
X103481409Y-132302066D01*
X103780645Y-132102124D01*
X104035124Y-131847645D01*
X104235066Y-131548409D01*
X104260161Y-131487824D01*
X116530098Y-131487824D01*
X116579666Y-131905451D01*
X116709757Y-132305383D01*
X116867786Y-132601038D01*
X117183347Y-132757048D01*
X118495395Y-131445000D01*
X118854605Y-131445000D01*
X120166653Y-132757048D01*
X120482214Y-132601038D01*
X120625934Y-132318742D01*
X120625934Y-132945000D01*
X120634178Y-133028707D01*
X120658595Y-133109196D01*
X120698245Y-133183376D01*
X120751605Y-133248395D01*
X120816624Y-133301755D01*
X120890804Y-133341405D01*
X120971293Y-133365822D01*
X121055000Y-133374066D01*
X124055000Y-133374066D01*
X124138707Y-133365822D01*
X124219196Y-133341405D01*
X124293376Y-133301755D01*
X124358395Y-133248395D01*
X124411755Y-133183376D01*
X124451405Y-133109196D01*
X124475822Y-133028707D01*
X124484066Y-132945000D01*
X124484066Y-129945000D01*
X124475822Y-129861293D01*
X124451405Y-129780804D01*
X124411755Y-129706624D01*
X124358395Y-129641605D01*
X124293376Y-129588245D01*
X124219196Y-129548595D01*
X124138707Y-129524178D01*
X124055000Y-129515934D01*
X121055000Y-129515934D01*
X120971293Y-129524178D01*
X120890804Y-129548595D01*
X120816624Y-129588245D01*
X120751605Y-129641605D01*
X120698245Y-129706624D01*
X120658595Y-129780804D01*
X120634178Y-129861293D01*
X120625934Y-129945000D01*
X120625934Y-130557846D01*
X120482214Y-130288962D01*
X120166653Y-130132952D01*
X118854605Y-131445000D01*
X118495395Y-131445000D01*
X117183347Y-130132952D01*
X116867786Y-130288962D01*
X116676980Y-130663745D01*
X116562956Y-131068551D01*
X116530098Y-131487824D01*
X104260161Y-131487824D01*
X104372789Y-131215916D01*
X104443000Y-130862944D01*
X104443000Y-130503056D01*
X104425686Y-130416014D01*
X104483084Y-130439789D01*
X104836056Y-130510000D01*
X105195944Y-130510000D01*
X105548916Y-130439789D01*
X105881409Y-130302066D01*
X106178664Y-130103447D01*
X109275158Y-130103447D01*
X109419135Y-130408770D01*
X109776892Y-130589597D01*
X110163053Y-130697155D01*
X110562777Y-130727310D01*
X110960704Y-130678904D01*
X111341540Y-130553795D01*
X111612865Y-130408770D01*
X111756842Y-130103447D01*
X111606742Y-129953347D01*
X117362952Y-129953347D01*
X118675000Y-131265395D01*
X119987048Y-129953347D01*
X119831038Y-129637786D01*
X119456255Y-129446980D01*
X119051449Y-129332956D01*
X118632176Y-129300098D01*
X118214549Y-129349666D01*
X117814617Y-129479757D01*
X117518962Y-129637786D01*
X117362952Y-129953347D01*
X111606742Y-129953347D01*
X110516000Y-128862605D01*
X109275158Y-130103447D01*
X106178664Y-130103447D01*
X106180645Y-130102124D01*
X106435124Y-129847645D01*
X106635066Y-129548409D01*
X106772789Y-129215916D01*
X106843000Y-128862944D01*
X106843000Y-128729777D01*
X108471690Y-128729777D01*
X108520096Y-129127704D01*
X108645205Y-129508540D01*
X108790230Y-129779865D01*
X109095553Y-129923842D01*
X110336395Y-128683000D01*
X110695605Y-128683000D01*
X111936447Y-129923842D01*
X112241770Y-129779865D01*
X112422597Y-129422108D01*
X112530155Y-129035947D01*
X112560310Y-128636223D01*
X112511904Y-128238296D01*
X112386795Y-127857460D01*
X112241770Y-127586135D01*
X111936447Y-127442158D01*
X110695605Y-128683000D01*
X110336395Y-128683000D01*
X109095553Y-127442158D01*
X108790230Y-127586135D01*
X108609403Y-127943892D01*
X108501845Y-128330053D01*
X108471690Y-128729777D01*
X106843000Y-128729777D01*
X106843000Y-128503056D01*
X106772789Y-128150084D01*
X106635066Y-127817591D01*
X106435124Y-127518355D01*
X106180645Y-127263876D01*
X106178665Y-127262553D01*
X109275158Y-127262553D01*
X110516000Y-128503395D01*
X111756842Y-127262553D01*
X111612865Y-126957230D01*
X111255108Y-126776403D01*
X110868947Y-126668845D01*
X110469223Y-126638690D01*
X110071296Y-126687096D01*
X109690460Y-126812205D01*
X109419135Y-126957230D01*
X109275158Y-127262553D01*
X106178665Y-127262553D01*
X105881409Y-127063934D01*
X105548916Y-126926211D01*
X105195944Y-126856000D01*
X104836056Y-126856000D01*
X104483084Y-126926211D01*
X104150591Y-127063934D01*
X103851355Y-127263876D01*
X103596876Y-127518355D01*
X103396934Y-127817591D01*
X103259211Y-128150084D01*
X103189000Y-128503056D01*
X103189000Y-128862944D01*
X103206314Y-128949986D01*
X103148916Y-128926211D01*
X102795944Y-128856000D01*
X102436056Y-128856000D01*
X102083084Y-128926211D01*
X101750591Y-129063934D01*
X101451355Y-129263876D01*
X101196876Y-129518355D01*
X100996934Y-129817591D01*
X100859211Y-130150084D01*
X100789000Y-130503056D01*
X100452000Y-130503056D01*
X100452000Y-126283548D01*
X121728000Y-126283548D01*
X121728000Y-126446452D01*
X121759782Y-126606227D01*
X121822123Y-126756731D01*
X121912628Y-126892181D01*
X122027819Y-127007372D01*
X122163269Y-127097877D01*
X122313773Y-127160218D01*
X122473548Y-127192000D01*
X122636452Y-127192000D01*
X122796227Y-127160218D01*
X122946731Y-127097877D01*
X123082181Y-127007372D01*
X123197372Y-126892181D01*
X123287877Y-126756731D01*
X123350218Y-126606227D01*
X123382000Y-126446452D01*
X123382000Y-126283548D01*
X123350218Y-126123773D01*
X123287877Y-125973269D01*
X123232000Y-125889643D01*
X123232000Y-122031085D01*
X123304227Y-122016718D01*
X123454731Y-121954377D01*
X123590181Y-121863872D01*
X123705372Y-121748681D01*
X123795877Y-121613231D01*
X123858218Y-121462727D01*
X123890000Y-121302952D01*
X123890000Y-121140048D01*
X123858218Y-120980273D01*
X123795877Y-120829769D01*
X123705372Y-120694319D01*
X123590181Y-120579128D01*
X123454731Y-120488623D01*
X123304227Y-120426282D01*
X123144452Y-120394500D01*
X122981548Y-120394500D01*
X122821773Y-120426282D01*
X122671269Y-120488623D01*
X122535819Y-120579128D01*
X122420628Y-120694319D01*
X122330123Y-120829769D01*
X122267782Y-120980273D01*
X122248160Y-121078918D01*
X122099800Y-121227278D01*
X122073974Y-121248473D01*
X122052779Y-121274299D01*
X122052776Y-121274302D01*
X121989372Y-121351560D01*
X121926508Y-121469171D01*
X121887796Y-121596786D01*
X121874726Y-121729500D01*
X121878001Y-121762755D01*
X121878000Y-125889643D01*
X121822123Y-125973269D01*
X121759782Y-126123773D01*
X121728000Y-126283548D01*
X100452000Y-126283548D01*
X100452000Y-124245500D01*
X101430428Y-124245500D01*
X101442688Y-124369982D01*
X101478998Y-124489680D01*
X101537963Y-124599994D01*
X101617315Y-124696685D01*
X101714006Y-124776037D01*
X101824320Y-124835002D01*
X101944018Y-124871312D01*
X102068500Y-124883572D01*
X103282750Y-124880500D01*
X103441500Y-124721750D01*
X103441500Y-122872500D01*
X103695500Y-122872500D01*
X103695500Y-124721750D01*
X103854250Y-124880500D01*
X105068500Y-124883572D01*
X105192982Y-124871312D01*
X105312680Y-124835002D01*
X105422994Y-124776037D01*
X105519685Y-124696685D01*
X105599037Y-124599994D01*
X105658002Y-124489680D01*
X105694312Y-124369982D01*
X105706572Y-124245500D01*
X105703500Y-123031250D01*
X105544750Y-122872500D01*
X103695500Y-122872500D01*
X103441500Y-122872500D01*
X101592250Y-122872500D01*
X101433500Y-123031250D01*
X101430428Y-124245500D01*
X100452000Y-124245500D01*
X100452000Y-121245500D01*
X101430428Y-121245500D01*
X101433500Y-122459750D01*
X101592250Y-122618500D01*
X103441500Y-122618500D01*
X103441500Y-122598500D01*
X103695500Y-122598500D01*
X103695500Y-122618500D01*
X105544750Y-122618500D01*
X105703500Y-122459750D01*
X105706572Y-121245500D01*
X105694312Y-121121018D01*
X105658002Y-121001320D01*
X105599037Y-120891006D01*
X105519685Y-120794315D01*
X105422994Y-120714963D01*
X105312680Y-120655998D01*
X105192982Y-120619688D01*
X105068500Y-120607428D01*
X104394491Y-120609133D01*
X104481277Y-120573185D01*
X104796891Y-120362299D01*
X105065299Y-120093891D01*
X105276185Y-119778277D01*
X105421447Y-119427585D01*
X105495500Y-119055293D01*
X105495500Y-118675707D01*
X105421447Y-118303415D01*
X105276185Y-117952723D01*
X105065299Y-117637109D01*
X104924115Y-117495925D01*
X109540000Y-117495925D01*
X109540000Y-117708075D01*
X109581389Y-117916149D01*
X109662575Y-118112151D01*
X109780440Y-118288547D01*
X109930453Y-118438560D01*
X110106849Y-118556425D01*
X110302851Y-118637611D01*
X110510925Y-118679000D01*
X110723075Y-118679000D01*
X110807934Y-118662120D01*
X110807934Y-119522000D01*
X110816178Y-119605707D01*
X110840595Y-119686196D01*
X110880245Y-119760376D01*
X110933605Y-119825395D01*
X110998624Y-119878755D01*
X111072804Y-119918405D01*
X111153293Y-119942822D01*
X111237000Y-119951066D01*
X112537000Y-119951066D01*
X112620707Y-119942822D01*
X112701196Y-119918405D01*
X112775376Y-119878755D01*
X112840395Y-119825395D01*
X112893755Y-119760376D01*
X112933405Y-119686196D01*
X112957822Y-119605707D01*
X112966066Y-119522000D01*
X112966066Y-118222000D01*
X112957822Y-118138293D01*
X112933405Y-118057804D01*
X112893755Y-117983624D01*
X112840395Y-117918605D01*
X112775376Y-117865245D01*
X112701196Y-117825595D01*
X112620707Y-117801178D01*
X112537000Y-117792934D01*
X111677120Y-117792934D01*
X111694000Y-117708075D01*
X111694000Y-117495925D01*
X111672416Y-117387416D01*
X111780925Y-117409000D01*
X111993075Y-117409000D01*
X112201149Y-117367611D01*
X112397151Y-117286425D01*
X112573547Y-117168560D01*
X112723560Y-117018547D01*
X112841425Y-116842151D01*
X112922611Y-116646149D01*
X112964000Y-116438075D01*
X112964000Y-116225925D01*
X112922611Y-116017851D01*
X112841425Y-115821849D01*
X112723560Y-115645453D01*
X112573547Y-115495440D01*
X112397151Y-115377575D01*
X112201149Y-115296389D01*
X111993075Y-115255000D01*
X111780925Y-115255000D01*
X111572851Y-115296389D01*
X111376849Y-115377575D01*
X111200453Y-115495440D01*
X111050440Y-115645453D01*
X110932575Y-115821849D01*
X110851389Y-116017851D01*
X110810000Y-116225925D01*
X110810000Y-116438075D01*
X110831584Y-116546584D01*
X110723075Y-116525000D01*
X110510925Y-116525000D01*
X110302851Y-116566389D01*
X110106849Y-116647575D01*
X109930453Y-116765440D01*
X109780440Y-116915453D01*
X109662575Y-117091849D01*
X109581389Y-117287851D01*
X109540000Y-117495925D01*
X104924115Y-117495925D01*
X104796891Y-117368701D01*
X104481277Y-117157815D01*
X104130585Y-117012553D01*
X103758293Y-116938500D01*
X103378707Y-116938500D01*
X103006415Y-117012553D01*
X102655723Y-117157815D01*
X102340109Y-117368701D01*
X102071701Y-117637109D01*
X101860815Y-117952723D01*
X101715553Y-118303415D01*
X101641500Y-118675707D01*
X101641500Y-119055293D01*
X101715553Y-119427585D01*
X101860815Y-119778277D01*
X102071701Y-120093891D01*
X102340109Y-120362299D01*
X102655723Y-120573185D01*
X102742509Y-120609133D01*
X102068500Y-120607428D01*
X101944018Y-120619688D01*
X101824320Y-120655998D01*
X101714006Y-120714963D01*
X101617315Y-120794315D01*
X101537963Y-120891006D01*
X101478998Y-121001320D01*
X101442688Y-121121018D01*
X101430428Y-121245500D01*
X100452000Y-121245500D01*
X100452000Y-109452000D01*
X101444934Y-109452000D01*
X101444934Y-113883000D01*
X101444934Y-113883000D01*
G37*
X101444934Y-113883000D02*
X101453178Y-113966707D01*
X101477595Y-114047196D01*
X101517245Y-114121376D01*
X101570605Y-114186395D01*
X101635624Y-114239755D01*
X101709804Y-114279405D01*
X101790293Y-114303822D01*
X101874000Y-114312066D01*
X104374000Y-114312066D01*
X104457707Y-114303822D01*
X104538196Y-114279405D01*
X104612376Y-114239755D01*
X104677395Y-114186395D01*
X104730755Y-114121376D01*
X104770405Y-114047196D01*
X104794822Y-113966707D01*
X104803066Y-113883000D01*
X104803066Y-113714356D01*
X106577043Y-115488333D01*
X106577000Y-115488548D01*
X106577000Y-115651452D01*
X106608782Y-115811227D01*
X106671123Y-115961731D01*
X106761628Y-116097181D01*
X106876819Y-116212372D01*
X107012269Y-116302877D01*
X107162773Y-116365218D01*
X107322548Y-116397000D01*
X107485452Y-116397000D01*
X107645227Y-116365218D01*
X107795731Y-116302877D01*
X107931181Y-116212372D01*
X108046372Y-116097181D01*
X108136877Y-115961731D01*
X108199218Y-115811227D01*
X108231000Y-115651452D01*
X108231000Y-115488548D01*
X108199218Y-115328773D01*
X108136877Y-115178269D01*
X108046372Y-115042819D01*
X107931181Y-114927628D01*
X107795731Y-114837123D01*
X107645227Y-114774782D01*
X107485452Y-114743000D01*
X107322548Y-114743000D01*
X107322333Y-114743043D01*
X104803066Y-112223777D01*
X104803066Y-109452000D01*
X107373781Y-109452000D01*
X107172879Y-109696802D01*
X107017158Y-109988136D01*
X106921265Y-110304252D01*
X106897000Y-110550618D01*
X106897001Y-112715383D01*
X106921266Y-112961749D01*
X107017159Y-113277865D01*
X107172880Y-113569199D01*
X107382445Y-113824556D01*
X107637802Y-114034121D01*
X107929136Y-114189842D01*
X108245252Y-114285735D01*
X108574000Y-114318114D01*
X108902749Y-114285735D01*
X109218865Y-114189842D01*
X109510199Y-114034121D01*
X109765556Y-113824556D01*
X109975121Y-113569199D01*
X110130842Y-113277865D01*
X110226735Y-112961749D01*
X110251000Y-112715383D01*
X110251000Y-110550617D01*
X110226735Y-110304251D01*
X110130842Y-109988135D01*
X109975121Y-109696801D01*
X109774219Y-109452000D01*
X112823781Y-109452000D01*
X112622879Y-109696802D01*
X112467158Y-109988136D01*
X112371265Y-110304252D01*
X112347000Y-110550618D01*
X112347001Y-112715383D01*
X112371266Y-112961749D01*
X112467159Y-113277865D01*
X112622880Y-113569199D01*
X112832445Y-113824556D01*
X113087802Y-114034121D01*
X113379136Y-114189842D01*
X113695252Y-114285735D01*
X114024000Y-114318114D01*
X114352749Y-114285735D01*
X114668865Y-114189842D01*
X114960199Y-114034121D01*
X115215556Y-113824556D01*
X115425121Y-113569199D01*
X115580842Y-113277865D01*
X115676735Y-112961749D01*
X115701000Y-112715383D01*
X115701000Y-110550617D01*
X115676735Y-110304251D01*
X115580842Y-109988135D01*
X115425121Y-109696801D01*
X115224219Y-109452000D01*
X124748000Y-109452000D01*
X124748001Y-134548000D01*
X100452000Y-134548000D01*
X100452000Y-132936653D01*
X117362952Y-132936653D01*
X117518962Y-133252214D01*
X117893745Y-133443020D01*
X118298551Y-133557044D01*
X118717824Y-133589902D01*
X119135451Y-133540334D01*
X119535383Y-133410243D01*
X119831038Y-133252214D01*
X119987048Y-132936653D01*
X118675000Y-131624605D01*
X117362952Y-132936653D01*
X100452000Y-132936653D01*
X100452000Y-130503056D01*
X100789000Y-130503056D01*
X100789000Y-130862944D01*
X100859211Y-131215916D01*
X100996934Y-131548409D01*
X101196876Y-131847645D01*
X101451355Y-132102124D01*
X101750591Y-132302066D01*
X102083084Y-132439789D01*
X102436056Y-132510000D01*
X102795944Y-132510000D01*
X103148916Y-132439789D01*
X103481409Y-132302066D01*
X103780645Y-132102124D01*
X104035124Y-131847645D01*
X104235066Y-131548409D01*
X104260161Y-131487824D01*
X116530098Y-131487824D01*
X116579666Y-131905451D01*
X116709757Y-132305383D01*
X116867786Y-132601038D01*
X117183347Y-132757048D01*
X118495395Y-131445000D01*
X118854605Y-131445000D01*
X120166653Y-132757048D01*
X120482214Y-132601038D01*
X120625934Y-132318742D01*
X120625934Y-132945000D01*
X120634178Y-133028707D01*
X120658595Y-133109196D01*
X120698245Y-133183376D01*
X120751605Y-133248395D01*
X120816624Y-133301755D01*
X120890804Y-133341405D01*
X120971293Y-133365822D01*
X121055000Y-133374066D01*
X124055000Y-133374066D01*
X124138707Y-133365822D01*
X124219196Y-133341405D01*
X124293376Y-133301755D01*
X124358395Y-133248395D01*
X124411755Y-133183376D01*
X124451405Y-133109196D01*
X124475822Y-133028707D01*
X124484066Y-132945000D01*
X124484066Y-129945000D01*
X124475822Y-129861293D01*
X124451405Y-129780804D01*
X124411755Y-129706624D01*
X124358395Y-129641605D01*
X124293376Y-129588245D01*
X124219196Y-129548595D01*
X124138707Y-129524178D01*
X124055000Y-129515934D01*
X121055000Y-129515934D01*
X120971293Y-129524178D01*
X120890804Y-129548595D01*
X120816624Y-129588245D01*
X120751605Y-129641605D01*
X120698245Y-129706624D01*
X120658595Y-129780804D01*
X120634178Y-129861293D01*
X120625934Y-129945000D01*
X120625934Y-130557846D01*
X120482214Y-130288962D01*
X120166653Y-130132952D01*
X118854605Y-131445000D01*
X118495395Y-131445000D01*
X117183347Y-130132952D01*
X116867786Y-130288962D01*
X116676980Y-130663745D01*
X116562956Y-131068551D01*
X116530098Y-131487824D01*
X104260161Y-131487824D01*
X104372789Y-131215916D01*
X104443000Y-130862944D01*
X104443000Y-130503056D01*
X104425686Y-130416014D01*
X104483084Y-130439789D01*
X104836056Y-130510000D01*
X105195944Y-130510000D01*
X105548916Y-130439789D01*
X105881409Y-130302066D01*
X106178664Y-130103447D01*
X109275158Y-130103447D01*
X109419135Y-130408770D01*
X109776892Y-130589597D01*
X110163053Y-130697155D01*
X110562777Y-130727310D01*
X110960704Y-130678904D01*
X111341540Y-130553795D01*
X111612865Y-130408770D01*
X111756842Y-130103447D01*
X111606742Y-129953347D01*
X117362952Y-129953347D01*
X118675000Y-131265395D01*
X119987048Y-129953347D01*
X119831038Y-129637786D01*
X119456255Y-129446980D01*
X119051449Y-129332956D01*
X118632176Y-129300098D01*
X118214549Y-129349666D01*
X117814617Y-129479757D01*
X117518962Y-129637786D01*
X117362952Y-129953347D01*
X111606742Y-129953347D01*
X110516000Y-128862605D01*
X109275158Y-130103447D01*
X106178664Y-130103447D01*
X106180645Y-130102124D01*
X106435124Y-129847645D01*
X106635066Y-129548409D01*
X106772789Y-129215916D01*
X106843000Y-128862944D01*
X106843000Y-128729777D01*
X108471690Y-128729777D01*
X108520096Y-129127704D01*
X108645205Y-129508540D01*
X108790230Y-129779865D01*
X109095553Y-129923842D01*
X110336395Y-128683000D01*
X110695605Y-128683000D01*
X111936447Y-129923842D01*
X112241770Y-129779865D01*
X112422597Y-129422108D01*
X112530155Y-129035947D01*
X112560310Y-128636223D01*
X112511904Y-128238296D01*
X112386795Y-127857460D01*
X112241770Y-127586135D01*
X111936447Y-127442158D01*
X110695605Y-128683000D01*
X110336395Y-128683000D01*
X109095553Y-127442158D01*
X108790230Y-127586135D01*
X108609403Y-127943892D01*
X108501845Y-128330053D01*
X108471690Y-128729777D01*
X106843000Y-128729777D01*
X106843000Y-128503056D01*
X106772789Y-128150084D01*
X106635066Y-127817591D01*
X106435124Y-127518355D01*
X106180645Y-127263876D01*
X106178665Y-127262553D01*
X109275158Y-127262553D01*
X110516000Y-128503395D01*
X111756842Y-127262553D01*
X111612865Y-126957230D01*
X111255108Y-126776403D01*
X110868947Y-126668845D01*
X110469223Y-126638690D01*
X110071296Y-126687096D01*
X109690460Y-126812205D01*
X109419135Y-126957230D01*
X109275158Y-127262553D01*
X106178665Y-127262553D01*
X105881409Y-127063934D01*
X105548916Y-126926211D01*
X105195944Y-126856000D01*
X104836056Y-126856000D01*
X104483084Y-126926211D01*
X104150591Y-127063934D01*
X103851355Y-127263876D01*
X103596876Y-127518355D01*
X103396934Y-127817591D01*
X103259211Y-128150084D01*
X103189000Y-128503056D01*
X103189000Y-128862944D01*
X103206314Y-128949986D01*
X103148916Y-128926211D01*
X102795944Y-128856000D01*
X102436056Y-128856000D01*
X102083084Y-128926211D01*
X101750591Y-129063934D01*
X101451355Y-129263876D01*
X101196876Y-129518355D01*
X100996934Y-129817591D01*
X100859211Y-130150084D01*
X100789000Y-130503056D01*
X100452000Y-130503056D01*
X100452000Y-126283548D01*
X121728000Y-126283548D01*
X121728000Y-126446452D01*
X121759782Y-126606227D01*
X121822123Y-126756731D01*
X121912628Y-126892181D01*
X122027819Y-127007372D01*
X122163269Y-127097877D01*
X122313773Y-127160218D01*
X122473548Y-127192000D01*
X122636452Y-127192000D01*
X122796227Y-127160218D01*
X122946731Y-127097877D01*
X123082181Y-127007372D01*
X123197372Y-126892181D01*
X123287877Y-126756731D01*
X123350218Y-126606227D01*
X123382000Y-126446452D01*
X123382000Y-126283548D01*
X123350218Y-126123773D01*
X123287877Y-125973269D01*
X123232000Y-125889643D01*
X123232000Y-122031085D01*
X123304227Y-122016718D01*
X123454731Y-121954377D01*
X123590181Y-121863872D01*
X123705372Y-121748681D01*
X123795877Y-121613231D01*
X123858218Y-121462727D01*
X123890000Y-121302952D01*
X123890000Y-121140048D01*
X123858218Y-120980273D01*
X123795877Y-120829769D01*
X123705372Y-120694319D01*
X123590181Y-120579128D01*
X123454731Y-120488623D01*
X123304227Y-120426282D01*
X123144452Y-120394500D01*
X122981548Y-120394500D01*
X122821773Y-120426282D01*
X122671269Y-120488623D01*
X122535819Y-120579128D01*
X122420628Y-120694319D01*
X122330123Y-120829769D01*
X122267782Y-120980273D01*
X122248160Y-121078918D01*
X122099800Y-121227278D01*
X122073974Y-121248473D01*
X122052779Y-121274299D01*
X122052776Y-121274302D01*
X121989372Y-121351560D01*
X121926508Y-121469171D01*
X121887796Y-121596786D01*
X121874726Y-121729500D01*
X121878001Y-121762755D01*
X121878000Y-125889643D01*
X121822123Y-125973269D01*
X121759782Y-126123773D01*
X121728000Y-126283548D01*
X100452000Y-126283548D01*
X100452000Y-124245500D01*
X101430428Y-124245500D01*
X101442688Y-124369982D01*
X101478998Y-124489680D01*
X101537963Y-124599994D01*
X101617315Y-124696685D01*
X101714006Y-124776037D01*
X101824320Y-124835002D01*
X101944018Y-124871312D01*
X102068500Y-124883572D01*
X103282750Y-124880500D01*
X103441500Y-124721750D01*
X103441500Y-122872500D01*
X103695500Y-122872500D01*
X103695500Y-124721750D01*
X103854250Y-124880500D01*
X105068500Y-124883572D01*
X105192982Y-124871312D01*
X105312680Y-124835002D01*
X105422994Y-124776037D01*
X105519685Y-124696685D01*
X105599037Y-124599994D01*
X105658002Y-124489680D01*
X105694312Y-124369982D01*
X105706572Y-124245500D01*
X105703500Y-123031250D01*
X105544750Y-122872500D01*
X103695500Y-122872500D01*
X103441500Y-122872500D01*
X101592250Y-122872500D01*
X101433500Y-123031250D01*
X101430428Y-124245500D01*
X100452000Y-124245500D01*
X100452000Y-121245500D01*
X101430428Y-121245500D01*
X101433500Y-122459750D01*
X101592250Y-122618500D01*
X103441500Y-122618500D01*
X103441500Y-122598500D01*
X103695500Y-122598500D01*
X103695500Y-122618500D01*
X105544750Y-122618500D01*
X105703500Y-122459750D01*
X105706572Y-121245500D01*
X105694312Y-121121018D01*
X105658002Y-121001320D01*
X105599037Y-120891006D01*
X105519685Y-120794315D01*
X105422994Y-120714963D01*
X105312680Y-120655998D01*
X105192982Y-120619688D01*
X105068500Y-120607428D01*
X104394491Y-120609133D01*
X104481277Y-120573185D01*
X104796891Y-120362299D01*
X105065299Y-120093891D01*
X105276185Y-119778277D01*
X105421447Y-119427585D01*
X105495500Y-119055293D01*
X105495500Y-118675707D01*
X105421447Y-118303415D01*
X105276185Y-117952723D01*
X105065299Y-117637109D01*
X104924115Y-117495925D01*
X109540000Y-117495925D01*
X109540000Y-117708075D01*
X109581389Y-117916149D01*
X109662575Y-118112151D01*
X109780440Y-118288547D01*
X109930453Y-118438560D01*
X110106849Y-118556425D01*
X110302851Y-118637611D01*
X110510925Y-118679000D01*
X110723075Y-118679000D01*
X110807934Y-118662120D01*
X110807934Y-119522000D01*
X110816178Y-119605707D01*
X110840595Y-119686196D01*
X110880245Y-119760376D01*
X110933605Y-119825395D01*
X110998624Y-119878755D01*
X111072804Y-119918405D01*
X111153293Y-119942822D01*
X111237000Y-119951066D01*
X112537000Y-119951066D01*
X112620707Y-119942822D01*
X112701196Y-119918405D01*
X112775376Y-119878755D01*
X112840395Y-119825395D01*
X112893755Y-119760376D01*
X112933405Y-119686196D01*
X112957822Y-119605707D01*
X112966066Y-119522000D01*
X112966066Y-118222000D01*
X112957822Y-118138293D01*
X112933405Y-118057804D01*
X112893755Y-117983624D01*
X112840395Y-117918605D01*
X112775376Y-117865245D01*
X112701196Y-117825595D01*
X112620707Y-117801178D01*
X112537000Y-117792934D01*
X111677120Y-117792934D01*
X111694000Y-117708075D01*
X111694000Y-117495925D01*
X111672416Y-117387416D01*
X111780925Y-117409000D01*
X111993075Y-117409000D01*
X112201149Y-117367611D01*
X112397151Y-117286425D01*
X112573547Y-117168560D01*
X112723560Y-117018547D01*
X112841425Y-116842151D01*
X112922611Y-116646149D01*
X112964000Y-116438075D01*
X112964000Y-116225925D01*
X112922611Y-116017851D01*
X112841425Y-115821849D01*
X112723560Y-115645453D01*
X112573547Y-115495440D01*
X112397151Y-115377575D01*
X112201149Y-115296389D01*
X111993075Y-115255000D01*
X111780925Y-115255000D01*
X111572851Y-115296389D01*
X111376849Y-115377575D01*
X111200453Y-115495440D01*
X111050440Y-115645453D01*
X110932575Y-115821849D01*
X110851389Y-116017851D01*
X110810000Y-116225925D01*
X110810000Y-116438075D01*
X110831584Y-116546584D01*
X110723075Y-116525000D01*
X110510925Y-116525000D01*
X110302851Y-116566389D01*
X110106849Y-116647575D01*
X109930453Y-116765440D01*
X109780440Y-116915453D01*
X109662575Y-117091849D01*
X109581389Y-117287851D01*
X109540000Y-117495925D01*
X104924115Y-117495925D01*
X104796891Y-117368701D01*
X104481277Y-117157815D01*
X104130585Y-117012553D01*
X103758293Y-116938500D01*
X103378707Y-116938500D01*
X103006415Y-117012553D01*
X102655723Y-117157815D01*
X102340109Y-117368701D01*
X102071701Y-117637109D01*
X101860815Y-117952723D01*
X101715553Y-118303415D01*
X101641500Y-118675707D01*
X101641500Y-119055293D01*
X101715553Y-119427585D01*
X101860815Y-119778277D01*
X102071701Y-120093891D01*
X102340109Y-120362299D01*
X102655723Y-120573185D01*
X102742509Y-120609133D01*
X102068500Y-120607428D01*
X101944018Y-120619688D01*
X101824320Y-120655998D01*
X101714006Y-120714963D01*
X101617315Y-120794315D01*
X101537963Y-120891006D01*
X101478998Y-121001320D01*
X101442688Y-121121018D01*
X101430428Y-121245500D01*
X100452000Y-121245500D01*
X100452000Y-109452000D01*
X101444934Y-109452000D01*
X101444934Y-113883000D01*
M02*
