M48
; DRILL file {KiCad (5.1.0)-1} date 2020.12.18. 13:58:56
; FORMAT={-:-/ absolute / inch / decimal}
; #@! TF.CreationDate,2020-12-18T13:58:56+02:00
; #@! TF.GenerationSoftware,Kicad,Pcbnew,(5.1.0)-1
; #@! TF.FileFunction,Plated,1,2,PTH
FMAT,2
INCH
T1C0.0157
T2C0.0256
T3C0.0315
T4C0.0409
%
G90
G05
T1
X3.6816Y-3.2887
X3.7388Y-3.1517
X3.7689Y-3.389
X3.8455Y-3.3888
X4.0089Y-3.8406
X4.0866Y-3.7923
X4.0972Y-3.4242
X4.1417Y-2.3019
X4.1425Y-2.5032
X4.2794Y-2.7749
X4.2805Y-3.4242
X4.2807Y-2.3185
X4.311Y-2.6622
X4.3138Y-2.6269
X4.3173Y-3.2646
X4.3174Y-3.3141
X4.3178Y-2.3083
X4.3311Y-2.526
X4.3366Y-2.4362
X4.3756Y-2.637
X4.4232Y-2.4793
X4.4264Y-2.5951
X4.4694Y-2.7685
X4.4697Y-2.6977
X4.4713Y-2.7331
X4.5445Y-2.3169
X4.5449Y-2.652
X4.6168Y-2.4579
X4.6185Y-2.7768
X4.6571Y-2.6791
X4.661Y-3.4744
X4.6685Y-2.3406
X4.6701Y-2.1637
X4.7004Y-2.578
X4.7016Y-2.6205
X4.7079Y-3.3106
X4.711Y-2.503
X4.7368Y-2.3804
X4.774Y-2.5065
X4.7902Y-3.3907
X4.8342Y-2.718
X4.8496Y-2.5795
X4.886Y-2.4879
X4.8862Y-2.3557
X4.9051Y-3.2719
X4.9083Y-3.3911
X4.9622Y-3.7933
X4.9665Y-3.2722
X5.0979Y-3.1651
X5.1884Y-2.9171
X5.1884Y-3.1651
X5.3297Y-3.3551
X5.3297Y-3.4551
X5.5108Y-3.2364
X5.5108Y-3.3053
X5.5114Y-3.4541
T2
X4.3441Y-2.1211
X4.3941Y-2.1211
X4.4441Y-2.1211
X4.4941Y-2.1211
X4.5441Y-2.1211
X4.5941Y-2.1211
X4.6441Y-2.1211
X4.6941Y-2.1211
X4.7441Y-2.1211
T3
X5.2894Y-2.1319
X5.4104Y-2.1319
X3.9577Y-2.1398
X3.7175Y-2.1398
X3.8376Y-2.1398
X5.1673Y-2.1319
T4
X3.9775Y-4.2425
X3.9775Y-4.3425
X4.0775Y-4.2425
X4.0775Y-4.3425
X4.1775Y-4.2425
X4.1775Y-4.3425
X4.2775Y-4.2425
X4.2775Y-4.3425
X4.3775Y-4.2425
X4.3775Y-4.3425
X4.4775Y-4.2425
X4.4775Y-4.3425
X4.5775Y-4.2425
X4.5775Y-4.3425
X4.6775Y-4.2425
X4.6775Y-4.3425
X4.7775Y-4.2425
X4.7775Y-4.3425
X4.8775Y-4.2425
X4.8775Y-4.3425
X4.9775Y-4.2425
X4.9775Y-4.3425
X5.0775Y-4.2425
X5.0775Y-4.3425
T0
M30
