%TF.GenerationSoftware,KiCad,Pcbnew,(5.1.0)-1*%
%TF.CreationDate,2020-12-18T14:46:06+02:00*%
%TF.ProjectId,Template,54656d70-6c61-4746-952e-6b696361645f,rev?*%
%TF.SameCoordinates,Original*%
%TF.FileFunction,Soldermask,Bot*%
%TF.FilePolarity,Negative*%
%FSLAX46Y46*%
G04 Gerber Fmt 4.6, Leading zero omitted, Abs format (unit mm)*
G04 Created by KiCad (PCBNEW (5.1.0)-1) date 2020-12-18 14:46:06*
%MOMM*%
%LPD*%
G04 APERTURE LIST*
%ADD10C,1.740000*%
%ADD11R,1.450000X1.450000*%
%ADD12R,1.100000X1.100000*%
%ADD13O,1.100000X1.100000*%
G04 APERTURE END LIST*
D10*
%TO.C,J1*%
X101028500Y-107760000D03*
X101028500Y-110300000D03*
X103568500Y-107760000D03*
X103568500Y-110300000D03*
X106108500Y-107760000D03*
X106108500Y-110300000D03*
X108648500Y-107760000D03*
X108648500Y-110300000D03*
X111188500Y-107760000D03*
X111188500Y-110300000D03*
X113728500Y-107760000D03*
X113728500Y-110300000D03*
X116268500Y-107760000D03*
X116268500Y-110300000D03*
X118808500Y-107760000D03*
X118808500Y-110300000D03*
X121348500Y-107760000D03*
X121348500Y-110300000D03*
X123888500Y-107760000D03*
X123888500Y-110300000D03*
X126428500Y-107760000D03*
X126428500Y-110300000D03*
X128968500Y-107760000D03*
X128968500Y-110300000D03*
%TD*%
D11*
%TO.C,MISO1*%
X134350000Y-54150000D03*
%TD*%
%TO.C,MOSI1*%
X137425000Y-54150000D03*
%TD*%
%TO.C,LOAD2*%
X100525000Y-54350000D03*
%TD*%
%TO.C,GND1*%
X94425000Y-54350000D03*
%TD*%
%TO.C,CLK1*%
X97475000Y-54350000D03*
%TD*%
%TO.C,LOAD1*%
X131250000Y-54150000D03*
%TD*%
D12*
%TO.C,J2*%
X120500000Y-53875000D03*
D13*
X119230000Y-53875000D03*
X117960000Y-53875000D03*
X116690000Y-53875000D03*
X115420000Y-53875000D03*
X114150000Y-53875000D03*
X112880000Y-53875000D03*
X111610000Y-53875000D03*
X110340000Y-53875000D03*
%TD*%
M02*
