%TF.GenerationSoftware,KiCad,Pcbnew,(5.1.0)-1*%
%TF.CreationDate,2020-12-18T13:58:53+02:00*%
%TF.ProjectId,Template,54656d70-6c61-4746-952e-6b696361645f,rev?*%
%TF.SameCoordinates,Original*%
%TF.FileFunction,Legend,Top*%
%TF.FilePolarity,Positive*%
%FSLAX46Y46*%
G04 Gerber Fmt 4.6, Leading zero omitted, Abs format (unit mm)*
G04 Created by KiCad (PCBNEW (5.1.0)-1) date 2020-12-18 13:58:53*
%MOMM*%
%LPD*%
G04 APERTURE LIST*
%ADD10C,0.150000*%
%ADD11C,0.120000*%
%ADD12C,0.200000*%
%ADD13C,0.127000*%
%ADD14C,0.100000*%
%ADD15C,0.015000*%
G04 APERTURE END LIST*
D10*
%TO.C,U5*%
X112169600Y-82354200D02*
X110894600Y-82354200D01*
X112169600Y-88104200D02*
X117719600Y-88104200D01*
X112169600Y-81554200D02*
X117719600Y-81554200D01*
X112169600Y-88104200D02*
X112169600Y-87204200D01*
X117719600Y-88104200D02*
X117719600Y-87204200D01*
X117719600Y-81554200D02*
X117719600Y-82454200D01*
X112169600Y-81554200D02*
X112169600Y-82354200D01*
%TO.C,U2*%
X117789000Y-68320400D02*
X113139000Y-68320400D01*
X118864000Y-73845400D02*
X113164000Y-73845400D01*
X117789000Y-68320400D02*
X117789000Y-68345400D01*
X113139000Y-68320400D02*
X113139000Y-68345400D01*
X113164000Y-73845400D02*
X113164000Y-73745400D01*
D11*
%TO.C,R7*%
X103760000Y-82028733D02*
X103760000Y-82371267D01*
X104780000Y-82028733D02*
X104780000Y-82371267D01*
%TO.C,Q6*%
X99405000Y-96540000D02*
X99405000Y-98000000D01*
X96245000Y-96540000D02*
X96245000Y-98700000D01*
X96245000Y-96540000D02*
X97175000Y-96540000D01*
X99405000Y-96540000D02*
X98475000Y-96540000D01*
%TO.C,R28*%
X103290000Y-93703733D02*
X103290000Y-94046267D01*
X104310000Y-93703733D02*
X104310000Y-94046267D01*
%TO.C,Q1*%
X93856200Y-81004400D02*
X93856200Y-74994400D01*
X100676200Y-78754400D02*
X100676200Y-74994400D01*
X93856200Y-74994400D02*
X95116200Y-74994400D01*
X100676200Y-74994400D02*
X99416200Y-74994400D01*
D12*
%TO.C,U7*%
X118022120Y-60134700D02*
G75*
G03X118022120Y-60134700I-100000J0D01*
G01*
D13*
X119022120Y-59584700D02*
X118772120Y-59584700D01*
X118772120Y-59584700D02*
X118772120Y-59834700D01*
X121622120Y-59584700D02*
X121872120Y-59584700D01*
X121872120Y-59584700D02*
X121872120Y-59834700D01*
X121872120Y-62434700D02*
X121872120Y-62684700D01*
X121872120Y-62684700D02*
X121622120Y-62684700D01*
X118772120Y-62434700D02*
X118772120Y-62684700D01*
X118772120Y-62684700D02*
X119022120Y-62684700D01*
D11*
%TO.C,R25*%
X131662000Y-96831533D02*
X131662000Y-97174067D01*
X132682000Y-96831533D02*
X132682000Y-97174067D01*
%TO.C,MISO1*%
X133290000Y-53090000D02*
X134350000Y-53090000D01*
X133290000Y-54150000D02*
X133290000Y-53090000D01*
X133290000Y-55150000D02*
X135410000Y-55150000D01*
X135410000Y-55150000D02*
X135410000Y-55210000D01*
X133290000Y-55150000D02*
X133290000Y-55210000D01*
X133290000Y-55210000D02*
X135410000Y-55210000D01*
%TO.C,MOSI1*%
X136365000Y-53090000D02*
X137425000Y-53090000D01*
X136365000Y-54150000D02*
X136365000Y-53090000D01*
X136365000Y-55150000D02*
X138485000Y-55150000D01*
X138485000Y-55150000D02*
X138485000Y-55210000D01*
X136365000Y-55150000D02*
X136365000Y-55210000D01*
X136365000Y-55210000D02*
X138485000Y-55210000D01*
%TO.C,LOAD2*%
X99465000Y-53290000D02*
X100525000Y-53290000D01*
X99465000Y-54350000D02*
X99465000Y-53290000D01*
X99465000Y-55350000D02*
X101585000Y-55350000D01*
X101585000Y-55350000D02*
X101585000Y-55410000D01*
X99465000Y-55350000D02*
X99465000Y-55410000D01*
X99465000Y-55410000D02*
X101585000Y-55410000D01*
%TO.C,GND1*%
X93365000Y-53290000D02*
X94425000Y-53290000D01*
X93365000Y-54350000D02*
X93365000Y-53290000D01*
X93365000Y-55350000D02*
X95485000Y-55350000D01*
X95485000Y-55350000D02*
X95485000Y-55410000D01*
X93365000Y-55350000D02*
X93365000Y-55410000D01*
X93365000Y-55410000D02*
X95485000Y-55410000D01*
%TO.C,CLK1*%
X96415000Y-53290000D02*
X97475000Y-53290000D01*
X96415000Y-54350000D02*
X96415000Y-53290000D01*
X96415000Y-55350000D02*
X98535000Y-55350000D01*
X98535000Y-55350000D02*
X98535000Y-55410000D01*
X96415000Y-55350000D02*
X96415000Y-55410000D01*
X96415000Y-55410000D02*
X98535000Y-55410000D01*
%TO.C,LOAD1*%
X130190000Y-53090000D02*
X131250000Y-53090000D01*
X130190000Y-54150000D02*
X130190000Y-53090000D01*
X130190000Y-55150000D02*
X132310000Y-55150000D01*
X132310000Y-55150000D02*
X132310000Y-55210000D01*
X130190000Y-55150000D02*
X130190000Y-55210000D01*
X130190000Y-55210000D02*
X132310000Y-55210000D01*
%TO.C,Q2*%
X128376200Y-81344400D02*
X128376200Y-75334400D01*
X135196200Y-79094400D02*
X135196200Y-75334400D01*
X128376200Y-75334400D02*
X129636200Y-75334400D01*
X135196200Y-75334400D02*
X133936200Y-75334400D01*
D10*
%TO.C,U9*%
X112900000Y-91900000D02*
X111525000Y-91900000D01*
X112900000Y-102025000D02*
X117050000Y-102025000D01*
X112900000Y-91875000D02*
X117050000Y-91875000D01*
X112900000Y-102025000D02*
X112900000Y-101920000D01*
X117050000Y-102025000D02*
X117050000Y-101920000D01*
X117050000Y-91875000D02*
X117050000Y-91980000D01*
X112900000Y-91875000D02*
X112900000Y-91900000D01*
D11*
%TO.C,R32*%
X103560000Y-87678733D02*
X103560000Y-88021267D01*
X104580000Y-87678733D02*
X104580000Y-88021267D01*
%TO.C,C18*%
X101153733Y-96835000D02*
X101496267Y-96835000D01*
X101153733Y-95815000D02*
X101496267Y-95815000D01*
%TO.C,C17*%
X104503733Y-96835000D02*
X104846267Y-96835000D01*
X104503733Y-95815000D02*
X104846267Y-95815000D01*
D12*
%TO.C,U6*%
X107989120Y-60175340D02*
G75*
G03X107989120Y-60175340I-100000J0D01*
G01*
D13*
X108989120Y-59625340D02*
X108739120Y-59625340D01*
X108739120Y-59625340D02*
X108739120Y-59875340D01*
X111589120Y-59625340D02*
X111839120Y-59625340D01*
X111839120Y-59625340D02*
X111839120Y-59875340D01*
X111839120Y-62475340D02*
X111839120Y-62725340D01*
X111839120Y-62725340D02*
X111589120Y-62725340D01*
X108739120Y-62475340D02*
X108739120Y-62725340D01*
X108739120Y-62725340D02*
X108989120Y-62725340D01*
D14*
%TO.C,U8*%
X109800866Y-65599640D02*
G75*
G03X109800866Y-65599640I-67106J0D01*
G01*
D11*
X108245000Y-67840240D02*
X108245000Y-65340240D01*
X110745000Y-65340240D02*
X108245000Y-65340240D01*
X110745000Y-67840240D02*
X110745000Y-65340240D01*
X110745000Y-67840240D02*
X108245000Y-67840240D01*
%TO.C,U4*%
X129048500Y-83390000D02*
X127373500Y-83390000D01*
X129048500Y-83130000D02*
X129048500Y-83390000D01*
X131773500Y-83130000D02*
X129048500Y-83130000D01*
X134498500Y-83130000D02*
X134498500Y-83390000D01*
X131773500Y-83130000D02*
X134498500Y-83130000D01*
X129048500Y-88580000D02*
X129048500Y-88320000D01*
X131773500Y-88580000D02*
X129048500Y-88580000D01*
X134498500Y-88580000D02*
X134498500Y-88320000D01*
X131773500Y-88580000D02*
X134498500Y-88580000D01*
D14*
%TO.C,U3*%
X120926066Y-67545280D02*
G75*
G03X120926066Y-67545280I-67106J0D01*
G01*
D11*
X122347720Y-65304680D02*
X122347720Y-67804680D01*
X119847720Y-67804680D02*
X122347720Y-67804680D01*
X119847720Y-65304680D02*
X119847720Y-67804680D01*
X119847720Y-65304680D02*
X122347720Y-65304680D01*
%TO.C,U1*%
X99838800Y-87903800D02*
X101513800Y-87903800D01*
X99838800Y-88163800D02*
X99838800Y-87903800D01*
X97113800Y-88163800D02*
X99838800Y-88163800D01*
X94388800Y-88163800D02*
X94388800Y-87903800D01*
X97113800Y-88163800D02*
X94388800Y-88163800D01*
X99838800Y-82713800D02*
X99838800Y-82973800D01*
X97113800Y-82713800D02*
X99838800Y-82713800D01*
X94388800Y-82713800D02*
X94388800Y-82973800D01*
X97113800Y-82713800D02*
X94388800Y-82713800D01*
%TO.C,R31*%
X121160200Y-86827533D02*
X121160200Y-87170067D01*
X122180200Y-86827533D02*
X122180200Y-87170067D01*
%TO.C,R30*%
X99890000Y-93703733D02*
X99890000Y-94046267D01*
X100910000Y-93703733D02*
X100910000Y-94046267D01*
%TO.C,R29*%
X101690000Y-93703733D02*
X101690000Y-94046267D01*
X102710000Y-93703733D02*
X102710000Y-94046267D01*
%TO.C,R27*%
X105065000Y-93703733D02*
X105065000Y-94046267D01*
X106085000Y-93703733D02*
X106085000Y-94046267D01*
%TO.C,R26*%
X122065000Y-96928733D02*
X122065000Y-97271267D01*
X123085000Y-96928733D02*
X123085000Y-97271267D01*
%TO.C,R24*%
X126015000Y-93203733D02*
X126015000Y-93546267D01*
X127035000Y-93203733D02*
X127035000Y-93546267D01*
%TO.C,R23*%
X131158000Y-97174067D02*
X131158000Y-96831533D01*
X130138000Y-97174067D02*
X130138000Y-96831533D01*
%TO.C,R22*%
X129634000Y-97174067D02*
X129634000Y-96831533D01*
X128614000Y-97174067D02*
X128614000Y-96831533D01*
%TO.C,R21*%
X139050000Y-74343733D02*
X139050000Y-74686267D01*
X140070000Y-74343733D02*
X140070000Y-74686267D01*
%TO.C,R20*%
X89034600Y-73964533D02*
X89034600Y-74307067D01*
X90054600Y-73964533D02*
X90054600Y-74307067D01*
%TO.C,R19*%
X124080000Y-82058733D02*
X124080000Y-82401267D01*
X125100000Y-82058733D02*
X125100000Y-82401267D01*
%TO.C,R18*%
X109235000Y-88021267D02*
X109235000Y-87678733D01*
X108215000Y-88021267D02*
X108215000Y-87678733D01*
%TO.C,R17*%
X122633400Y-86827533D02*
X122633400Y-87170067D01*
X123653400Y-86827533D02*
X123653400Y-87170067D01*
%TO.C,R16*%
X107690000Y-88021267D02*
X107690000Y-87678733D01*
X106670000Y-88021267D02*
X106670000Y-87678733D01*
%TO.C,R15*%
X105120000Y-87678733D02*
X105120000Y-88021267D01*
X106140000Y-87678733D02*
X106140000Y-88021267D01*
%TO.C,R10*%
X124160000Y-86838733D02*
X124160000Y-87181267D01*
X125180000Y-86838733D02*
X125180000Y-87181267D01*
%TO.C,R9*%
X125640000Y-82068733D02*
X125640000Y-82411267D01*
X126660000Y-82068733D02*
X126660000Y-82411267D01*
%TO.C,R8*%
X103210000Y-82361267D02*
X103210000Y-82018733D01*
X102190000Y-82361267D02*
X102190000Y-82018733D01*
%TO.C,R6*%
X139465000Y-82908733D02*
X139465000Y-83251267D01*
X140485000Y-82908733D02*
X140485000Y-83251267D01*
%TO.C,R5*%
X89160000Y-88396267D02*
X89160000Y-88053733D01*
X88140000Y-88396267D02*
X88140000Y-88053733D01*
%TO.C,R4*%
X140500000Y-88781267D02*
X140500000Y-88438733D01*
X139480000Y-88781267D02*
X139480000Y-88438733D01*
%TO.C,R3*%
X137950000Y-88443733D02*
X137950000Y-88786267D01*
X138970000Y-88443733D02*
X138970000Y-88786267D01*
%TO.C,R2*%
X88140000Y-82778733D02*
X88140000Y-83121267D01*
X89160000Y-82778733D02*
X89160000Y-83121267D01*
%TO.C,R1*%
X90710000Y-83121267D02*
X90710000Y-82778733D01*
X89690000Y-83121267D02*
X89690000Y-82778733D01*
%TO.C,Q5*%
X109755000Y-96565000D02*
X109755000Y-98025000D01*
X106595000Y-96565000D02*
X106595000Y-98725000D01*
X106595000Y-96565000D02*
X107525000Y-96565000D01*
X109755000Y-96565000D02*
X108825000Y-96565000D01*
%TO.C,Q4*%
X133396400Y-92737600D02*
X133396400Y-94197600D01*
X130236400Y-92737600D02*
X130236400Y-94897600D01*
X130236400Y-92737600D02*
X131166400Y-92737600D01*
X133396400Y-92737600D02*
X132466400Y-92737600D01*
%TO.C,Q3*%
X125105000Y-92590000D02*
X125105000Y-94050000D01*
X121945000Y-92590000D02*
X121945000Y-94750000D01*
X121945000Y-92590000D02*
X122875000Y-92590000D01*
X125105000Y-92590000D02*
X124175000Y-92590000D01*
D14*
%TO.C,D6*%
X121650000Y-89665000D02*
G75*
G03X121650000Y-89665000I-50000J0D01*
G01*
%TO.C,D5*%
X120875000Y-91385000D02*
G75*
G03X120875000Y-91385000I-50000J0D01*
G01*
D11*
%TO.C,D4*%
X135550000Y-72855000D02*
X135550000Y-76915000D01*
X138720000Y-72855000D02*
X135550000Y-72855000D01*
X138720000Y-76915000D02*
X138720000Y-72855000D01*
%TO.C,D3*%
X90423400Y-72514000D02*
X90423400Y-76574000D01*
X93593400Y-72514000D02*
X90423400Y-72514000D01*
X93593400Y-76574000D02*
X93593400Y-72514000D01*
D14*
%TO.C,D2*%
X116225000Y-79465000D02*
G75*
G03X116225000Y-79465000I-50000J0D01*
G01*
%TO.C,D1*%
X114325000Y-81185000D02*
G75*
G03X114325000Y-81185000I-50000J0D01*
G01*
D11*
%TO.C,C16*%
X141760000Y-93175000D02*
X141260000Y-93175000D01*
X141510000Y-92925000D02*
X141510000Y-93425000D01*
X138754437Y-93665000D02*
X137690000Y-94729437D01*
X141145563Y-93665000D02*
X142210000Y-94729437D01*
X141145563Y-93665000D02*
X141010000Y-93665000D01*
X138754437Y-93665000D02*
X138890000Y-93665000D01*
X137690000Y-94729437D02*
X137690000Y-98185000D01*
X142210000Y-94729437D02*
X142210000Y-98185000D01*
X142210000Y-98185000D02*
X141010000Y-98185000D01*
X137690000Y-98185000D02*
X138890000Y-98185000D01*
%TO.C,C15*%
X108187440Y-69436493D02*
X108187440Y-69779027D01*
X109207440Y-69436493D02*
X109207440Y-69779027D01*
%TO.C,C14*%
X124615080Y-62489227D02*
X124615080Y-62146693D01*
X123595080Y-62489227D02*
X123595080Y-62146693D01*
%TO.C,C13*%
X126113680Y-62489227D02*
X126113680Y-62146693D01*
X125093680Y-62489227D02*
X125093680Y-62146693D01*
%TO.C,C12*%
X107258640Y-62923387D02*
X107258640Y-62580853D01*
X106238640Y-62923387D02*
X106238640Y-62580853D01*
%TO.C,C11*%
X105729560Y-62877667D02*
X105729560Y-62535133D01*
X104709560Y-62877667D02*
X104709560Y-62535133D01*
%TO.C,C10*%
X117118080Y-64879733D02*
X117118080Y-65222267D01*
X118138080Y-64879733D02*
X118138080Y-65222267D01*
%TO.C,C9*%
X111921240Y-64869573D02*
X111921240Y-65212107D01*
X112941240Y-64869573D02*
X112941240Y-65212107D01*
%TO.C,C8*%
X109726680Y-69426333D02*
X109726680Y-69768867D01*
X110746680Y-69426333D02*
X110746680Y-69768867D01*
%TO.C,C7*%
X123600000Y-58788733D02*
X123600000Y-59131267D01*
X124620000Y-58788733D02*
X124620000Y-59131267D01*
%TO.C,C6*%
X105709240Y-59514707D02*
X105709240Y-59172173D01*
X104689240Y-59514707D02*
X104689240Y-59172173D01*
%TO.C,C5*%
X138953800Y-83251267D02*
X138953800Y-82908733D01*
X137933800Y-83251267D02*
X137933800Y-82908733D01*
%TO.C,C4*%
X89695000Y-88061533D02*
X89695000Y-88404067D01*
X90715000Y-88061533D02*
X90715000Y-88404067D01*
%TO.C,C3*%
X121750280Y-70083187D02*
X121750280Y-69740653D01*
X120730280Y-70083187D02*
X120730280Y-69740653D01*
%TO.C,C2*%
X92391250Y-92906250D02*
X91603750Y-92906250D01*
X91997500Y-92512500D02*
X91997500Y-93300000D01*
X87804437Y-93540000D02*
X86740000Y-94604437D01*
X92495563Y-93540000D02*
X93560000Y-94604437D01*
X92495563Y-93540000D02*
X91210000Y-93540000D01*
X87804437Y-93540000D02*
X89090000Y-93540000D01*
X86740000Y-94604437D02*
X86740000Y-100360000D01*
X93560000Y-94604437D02*
X93560000Y-100360000D01*
X93560000Y-100360000D02*
X91210000Y-100360000D01*
X86740000Y-100360000D02*
X89090000Y-100360000D01*
%TO.C,C1*%
X123299680Y-70083187D02*
X123299680Y-69740653D01*
X122279680Y-70083187D02*
X122279680Y-69740653D01*
%TO.C,J2*%
X109645000Y-52765000D02*
X109645000Y-53567470D01*
X109645000Y-54182530D02*
X109645000Y-54985000D01*
X119740000Y-52765000D02*
X109645000Y-52765000D01*
X119740000Y-54985000D02*
X109645000Y-54985000D01*
X119740000Y-52765000D02*
X119740000Y-53311529D01*
X119740000Y-54438471D02*
X119740000Y-54985000D01*
X120500000Y-52765000D02*
X121260000Y-52765000D01*
X121260000Y-52765000D02*
X121260000Y-53875000D01*
%TO.C,U5*%
D10*
X114182695Y-84332380D02*
X114182695Y-85141904D01*
X114230314Y-85237142D01*
X114277933Y-85284761D01*
X114373171Y-85332380D01*
X114563647Y-85332380D01*
X114658885Y-85284761D01*
X114706504Y-85237142D01*
X114754123Y-85141904D01*
X114754123Y-84332380D01*
X115706504Y-84332380D02*
X115230314Y-84332380D01*
X115182695Y-84808571D01*
X115230314Y-84760952D01*
X115325552Y-84713333D01*
X115563647Y-84713333D01*
X115658885Y-84760952D01*
X115706504Y-84808571D01*
X115754123Y-84903809D01*
X115754123Y-85141904D01*
X115706504Y-85237142D01*
X115658885Y-85284761D01*
X115563647Y-85332380D01*
X115325552Y-85332380D01*
X115230314Y-85284761D01*
X115182695Y-85237142D01*
%TO.C,U2*%
X114702095Y-74147780D02*
X114702095Y-74957304D01*
X114749714Y-75052542D01*
X114797333Y-75100161D01*
X114892571Y-75147780D01*
X115083047Y-75147780D01*
X115178285Y-75100161D01*
X115225904Y-75052542D01*
X115273523Y-74957304D01*
X115273523Y-74147780D01*
X115702095Y-74243019D02*
X115749714Y-74195400D01*
X115844952Y-74147780D01*
X116083047Y-74147780D01*
X116178285Y-74195400D01*
X116225904Y-74243019D01*
X116273523Y-74338257D01*
X116273523Y-74433495D01*
X116225904Y-74576352D01*
X115654476Y-75147780D01*
X116273523Y-75147780D01*
%TO.C,R7*%
X104722380Y-79786666D02*
X104246190Y-80120000D01*
X104722380Y-80358095D02*
X103722380Y-80358095D01*
X103722380Y-79977142D01*
X103770000Y-79881904D01*
X103817619Y-79834285D01*
X103912857Y-79786666D01*
X104055714Y-79786666D01*
X104150952Y-79834285D01*
X104198571Y-79881904D01*
X104246190Y-79977142D01*
X104246190Y-80358095D01*
X103722380Y-79453333D02*
X103722380Y-78786666D01*
X104722380Y-79215238D01*
%TO.C,Q6*%
X97729761Y-95447619D02*
X97634523Y-95400000D01*
X97539285Y-95304761D01*
X97396428Y-95161904D01*
X97301190Y-95114285D01*
X97205952Y-95114285D01*
X97253571Y-95352380D02*
X97158333Y-95304761D01*
X97063095Y-95209523D01*
X97015476Y-95019047D01*
X97015476Y-94685714D01*
X97063095Y-94495238D01*
X97158333Y-94400000D01*
X97253571Y-94352380D01*
X97444047Y-94352380D01*
X97539285Y-94400000D01*
X97634523Y-94495238D01*
X97682142Y-94685714D01*
X97682142Y-95019047D01*
X97634523Y-95209523D01*
X97539285Y-95304761D01*
X97444047Y-95352380D01*
X97253571Y-95352380D01*
X98539285Y-94352380D02*
X98348809Y-94352380D01*
X98253571Y-94400000D01*
X98205952Y-94447619D01*
X98110714Y-94590476D01*
X98063095Y-94780952D01*
X98063095Y-95161904D01*
X98110714Y-95257142D01*
X98158333Y-95304761D01*
X98253571Y-95352380D01*
X98444047Y-95352380D01*
X98539285Y-95304761D01*
X98586904Y-95257142D01*
X98634523Y-95161904D01*
X98634523Y-94923809D01*
X98586904Y-94828571D01*
X98539285Y-94780952D01*
X98444047Y-94733333D01*
X98253571Y-94733333D01*
X98158333Y-94780952D01*
X98110714Y-94828571D01*
X98063095Y-94923809D01*
%TO.C,R28*%
X104252380Y-91342857D02*
X103776190Y-91676190D01*
X104252380Y-91914285D02*
X103252380Y-91914285D01*
X103252380Y-91533333D01*
X103300000Y-91438095D01*
X103347619Y-91390476D01*
X103442857Y-91342857D01*
X103585714Y-91342857D01*
X103680952Y-91390476D01*
X103728571Y-91438095D01*
X103776190Y-91533333D01*
X103776190Y-91914285D01*
X103347619Y-90961904D02*
X103300000Y-90914285D01*
X103252380Y-90819047D01*
X103252380Y-90580952D01*
X103300000Y-90485714D01*
X103347619Y-90438095D01*
X103442857Y-90390476D01*
X103538095Y-90390476D01*
X103680952Y-90438095D01*
X104252380Y-91009523D01*
X104252380Y-90390476D01*
X103680952Y-89819047D02*
X103633333Y-89914285D01*
X103585714Y-89961904D01*
X103490476Y-90009523D01*
X103442857Y-90009523D01*
X103347619Y-89961904D01*
X103300000Y-89914285D01*
X103252380Y-89819047D01*
X103252380Y-89628571D01*
X103300000Y-89533333D01*
X103347619Y-89485714D01*
X103442857Y-89438095D01*
X103490476Y-89438095D01*
X103585714Y-89485714D01*
X103633333Y-89533333D01*
X103680952Y-89628571D01*
X103680952Y-89819047D01*
X103728571Y-89914285D01*
X103776190Y-89961904D01*
X103871428Y-90009523D01*
X104061904Y-90009523D01*
X104157142Y-89961904D01*
X104204761Y-89914285D01*
X104252380Y-89819047D01*
X104252380Y-89628571D01*
X104204761Y-89533333D01*
X104157142Y-89485714D01*
X104061904Y-89438095D01*
X103871428Y-89438095D01*
X103776190Y-89485714D01*
X103728571Y-89533333D01*
X103680952Y-89628571D01*
%TO.C,Q1*%
X97170961Y-77452019D02*
X97075723Y-77404400D01*
X96980485Y-77309161D01*
X96837628Y-77166304D01*
X96742390Y-77118685D01*
X96647152Y-77118685D01*
X96694771Y-77356780D02*
X96599533Y-77309161D01*
X96504295Y-77213923D01*
X96456676Y-77023447D01*
X96456676Y-76690114D01*
X96504295Y-76499638D01*
X96599533Y-76404400D01*
X96694771Y-76356780D01*
X96885247Y-76356780D01*
X96980485Y-76404400D01*
X97075723Y-76499638D01*
X97123342Y-76690114D01*
X97123342Y-77023447D01*
X97075723Y-77213923D01*
X96980485Y-77309161D01*
X96885247Y-77356780D01*
X96694771Y-77356780D01*
X98075723Y-77356780D02*
X97504295Y-77356780D01*
X97790009Y-77356780D02*
X97790009Y-76356780D01*
X97694771Y-76499638D01*
X97599533Y-76594876D01*
X97504295Y-76642495D01*
%TO.C,U7*%
X119558575Y-57614900D02*
X119558575Y-58424424D01*
X119606194Y-58519662D01*
X119653813Y-58567281D01*
X119749051Y-58614900D01*
X119939527Y-58614900D01*
X120034765Y-58567281D01*
X120082384Y-58519662D01*
X120130003Y-58424424D01*
X120130003Y-57614900D01*
X120510956Y-57614900D02*
X121177622Y-57614900D01*
X120749051Y-58614900D01*
%TO.C,J1*%
D15*
X114498500Y-115256571D02*
X114498500Y-116328000D01*
X114427071Y-116542285D01*
X114284214Y-116685142D01*
X114069928Y-116756571D01*
X113927071Y-116756571D01*
X115998500Y-116756571D02*
X115141357Y-116756571D01*
X115569928Y-116756571D02*
X115569928Y-115256571D01*
X115427071Y-115470857D01*
X115284214Y-115613714D01*
X115141357Y-115685142D01*
%TO.C,R25*%
D10*
X133919780Y-97671057D02*
X133443590Y-98004390D01*
X133919780Y-98242485D02*
X132919780Y-98242485D01*
X132919780Y-97861533D01*
X132967400Y-97766295D01*
X133015019Y-97718676D01*
X133110257Y-97671057D01*
X133253114Y-97671057D01*
X133348352Y-97718676D01*
X133395971Y-97766295D01*
X133443590Y-97861533D01*
X133443590Y-98242485D01*
X133015019Y-97290104D02*
X132967400Y-97242485D01*
X132919780Y-97147247D01*
X132919780Y-96909152D01*
X132967400Y-96813914D01*
X133015019Y-96766295D01*
X133110257Y-96718676D01*
X133205495Y-96718676D01*
X133348352Y-96766295D01*
X133919780Y-97337723D01*
X133919780Y-96718676D01*
X132919780Y-95813914D02*
X132919780Y-96290104D01*
X133395971Y-96337723D01*
X133348352Y-96290104D01*
X133300733Y-96194866D01*
X133300733Y-95956771D01*
X133348352Y-95861533D01*
X133395971Y-95813914D01*
X133491209Y-95766295D01*
X133729304Y-95766295D01*
X133824542Y-95813914D01*
X133872161Y-95861533D01*
X133919780Y-95956771D01*
X133919780Y-96194866D01*
X133872161Y-96290104D01*
X133824542Y-96337723D01*
%TO.C,MISO1*%
X133377380Y-52502380D02*
X133377380Y-51502380D01*
X133710714Y-52216666D01*
X134044047Y-51502380D01*
X134044047Y-52502380D01*
X134520238Y-52502380D02*
X134520238Y-51502380D01*
X134948809Y-52454761D02*
X135091666Y-52502380D01*
X135329761Y-52502380D01*
X135425000Y-52454761D01*
X135472619Y-52407142D01*
X135520238Y-52311904D01*
X135520238Y-52216666D01*
X135472619Y-52121428D01*
X135425000Y-52073809D01*
X135329761Y-52026190D01*
X135139285Y-51978571D01*
X135044047Y-51930952D01*
X134996428Y-51883333D01*
X134948809Y-51788095D01*
X134948809Y-51692857D01*
X134996428Y-51597619D01*
X135044047Y-51550000D01*
X135139285Y-51502380D01*
X135377380Y-51502380D01*
X135520238Y-51550000D01*
X136139285Y-51502380D02*
X136329761Y-51502380D01*
X136425000Y-51550000D01*
X136520238Y-51645238D01*
X136567857Y-51835714D01*
X136567857Y-52169047D01*
X136520238Y-52359523D01*
X136425000Y-52454761D01*
X136329761Y-52502380D01*
X136139285Y-52502380D01*
X136044047Y-52454761D01*
X135948809Y-52359523D01*
X135901190Y-52169047D01*
X135901190Y-51835714D01*
X135948809Y-51645238D01*
X136044047Y-51550000D01*
X136139285Y-51502380D01*
X137520238Y-52502380D02*
X136948809Y-52502380D01*
X137234523Y-52502380D02*
X137234523Y-51502380D01*
X137139285Y-51645238D01*
X137044047Y-51740476D01*
X136948809Y-51788095D01*
%TO.C,MOSI1*%
X135377380Y-52542380D02*
X135377380Y-51542380D01*
X135710714Y-52256666D01*
X136044047Y-51542380D01*
X136044047Y-52542380D01*
X136710714Y-51542380D02*
X136901190Y-51542380D01*
X136996428Y-51590000D01*
X137091666Y-51685238D01*
X137139285Y-51875714D01*
X137139285Y-52209047D01*
X137091666Y-52399523D01*
X136996428Y-52494761D01*
X136901190Y-52542380D01*
X136710714Y-52542380D01*
X136615476Y-52494761D01*
X136520238Y-52399523D01*
X136472619Y-52209047D01*
X136472619Y-51875714D01*
X136520238Y-51685238D01*
X136615476Y-51590000D01*
X136710714Y-51542380D01*
X137520238Y-52494761D02*
X137663095Y-52542380D01*
X137901190Y-52542380D01*
X137996428Y-52494761D01*
X138044047Y-52447142D01*
X138091666Y-52351904D01*
X138091666Y-52256666D01*
X138044047Y-52161428D01*
X137996428Y-52113809D01*
X137901190Y-52066190D01*
X137710714Y-52018571D01*
X137615476Y-51970952D01*
X137567857Y-51923333D01*
X137520238Y-51828095D01*
X137520238Y-51732857D01*
X137567857Y-51637619D01*
X137615476Y-51590000D01*
X137710714Y-51542380D01*
X137948809Y-51542380D01*
X138091666Y-51590000D01*
X138520238Y-52542380D02*
X138520238Y-51542380D01*
X139520238Y-52542380D02*
X138948809Y-52542380D01*
X139234523Y-52542380D02*
X139234523Y-51542380D01*
X139139285Y-51685238D01*
X139044047Y-51780476D01*
X138948809Y-51828095D01*
%TO.C,LOAD2*%
X98905952Y-52742380D02*
X98429761Y-52742380D01*
X98429761Y-51742380D01*
X99429761Y-51742380D02*
X99620238Y-51742380D01*
X99715476Y-51790000D01*
X99810714Y-51885238D01*
X99858333Y-52075714D01*
X99858333Y-52409047D01*
X99810714Y-52599523D01*
X99715476Y-52694761D01*
X99620238Y-52742380D01*
X99429761Y-52742380D01*
X99334523Y-52694761D01*
X99239285Y-52599523D01*
X99191666Y-52409047D01*
X99191666Y-52075714D01*
X99239285Y-51885238D01*
X99334523Y-51790000D01*
X99429761Y-51742380D01*
X100239285Y-52456666D02*
X100715476Y-52456666D01*
X100144047Y-52742380D02*
X100477380Y-51742380D01*
X100810714Y-52742380D01*
X101144047Y-52742380D02*
X101144047Y-51742380D01*
X101382142Y-51742380D01*
X101525000Y-51790000D01*
X101620238Y-51885238D01*
X101667857Y-51980476D01*
X101715476Y-52170952D01*
X101715476Y-52313809D01*
X101667857Y-52504285D01*
X101620238Y-52599523D01*
X101525000Y-52694761D01*
X101382142Y-52742380D01*
X101144047Y-52742380D01*
X102096428Y-51837619D02*
X102144047Y-51790000D01*
X102239285Y-51742380D01*
X102477380Y-51742380D01*
X102572619Y-51790000D01*
X102620238Y-51837619D01*
X102667857Y-51932857D01*
X102667857Y-52028095D01*
X102620238Y-52170952D01*
X102048809Y-52742380D01*
X102667857Y-52742380D01*
%TO.C,GND1*%
X93186904Y-51790000D02*
X93091666Y-51742380D01*
X92948809Y-51742380D01*
X92805952Y-51790000D01*
X92710714Y-51885238D01*
X92663095Y-51980476D01*
X92615476Y-52170952D01*
X92615476Y-52313809D01*
X92663095Y-52504285D01*
X92710714Y-52599523D01*
X92805952Y-52694761D01*
X92948809Y-52742380D01*
X93044047Y-52742380D01*
X93186904Y-52694761D01*
X93234523Y-52647142D01*
X93234523Y-52313809D01*
X93044047Y-52313809D01*
X93663095Y-52742380D02*
X93663095Y-51742380D01*
X94234523Y-52742380D01*
X94234523Y-51742380D01*
X94710714Y-52742380D02*
X94710714Y-51742380D01*
X94948809Y-51742380D01*
X95091666Y-51790000D01*
X95186904Y-51885238D01*
X95234523Y-51980476D01*
X95282142Y-52170952D01*
X95282142Y-52313809D01*
X95234523Y-52504285D01*
X95186904Y-52599523D01*
X95091666Y-52694761D01*
X94948809Y-52742380D01*
X94710714Y-52742380D01*
X96234523Y-52742380D02*
X95663095Y-52742380D01*
X95948809Y-52742380D02*
X95948809Y-51742380D01*
X95853571Y-51885238D01*
X95758333Y-51980476D01*
X95663095Y-52028095D01*
%TO.C,CLK1*%
X96478571Y-52647142D02*
X96430952Y-52694761D01*
X96288095Y-52742380D01*
X96192857Y-52742380D01*
X96050000Y-52694761D01*
X95954761Y-52599523D01*
X95907142Y-52504285D01*
X95859523Y-52313809D01*
X95859523Y-52170952D01*
X95907142Y-51980476D01*
X95954761Y-51885238D01*
X96050000Y-51790000D01*
X96192857Y-51742380D01*
X96288095Y-51742380D01*
X96430952Y-51790000D01*
X96478571Y-51837619D01*
X97383333Y-52742380D02*
X96907142Y-52742380D01*
X96907142Y-51742380D01*
X97716666Y-52742380D02*
X97716666Y-51742380D01*
X98288095Y-52742380D02*
X97859523Y-52170952D01*
X98288095Y-51742380D02*
X97716666Y-52313809D01*
X99240476Y-52742380D02*
X98669047Y-52742380D01*
X98954761Y-52742380D02*
X98954761Y-51742380D01*
X98859523Y-51885238D01*
X98764285Y-51980476D01*
X98669047Y-52028095D01*
%TO.C,LOAD1*%
X128580952Y-52502380D02*
X128104761Y-52502380D01*
X128104761Y-51502380D01*
X129104761Y-51502380D02*
X129295238Y-51502380D01*
X129390476Y-51550000D01*
X129485714Y-51645238D01*
X129533333Y-51835714D01*
X129533333Y-52169047D01*
X129485714Y-52359523D01*
X129390476Y-52454761D01*
X129295238Y-52502380D01*
X129104761Y-52502380D01*
X129009523Y-52454761D01*
X128914285Y-52359523D01*
X128866666Y-52169047D01*
X128866666Y-51835714D01*
X128914285Y-51645238D01*
X129009523Y-51550000D01*
X129104761Y-51502380D01*
X129914285Y-52216666D02*
X130390476Y-52216666D01*
X129819047Y-52502380D02*
X130152380Y-51502380D01*
X130485714Y-52502380D01*
X130819047Y-52502380D02*
X130819047Y-51502380D01*
X131057142Y-51502380D01*
X131200000Y-51550000D01*
X131295238Y-51645238D01*
X131342857Y-51740476D01*
X131390476Y-51930952D01*
X131390476Y-52073809D01*
X131342857Y-52264285D01*
X131295238Y-52359523D01*
X131200000Y-52454761D01*
X131057142Y-52502380D01*
X130819047Y-52502380D01*
X132342857Y-52502380D02*
X131771428Y-52502380D01*
X132057142Y-52502380D02*
X132057142Y-51502380D01*
X131961904Y-51645238D01*
X131866666Y-51740476D01*
X131771428Y-51788095D01*
%TO.C,Q2*%
X131690961Y-77842819D02*
X131595723Y-77795200D01*
X131500485Y-77699961D01*
X131357628Y-77557104D01*
X131262390Y-77509485D01*
X131167152Y-77509485D01*
X131214771Y-77747580D02*
X131119533Y-77699961D01*
X131024295Y-77604723D01*
X130976676Y-77414247D01*
X130976676Y-77080914D01*
X131024295Y-76890438D01*
X131119533Y-76795200D01*
X131214771Y-76747580D01*
X131405247Y-76747580D01*
X131500485Y-76795200D01*
X131595723Y-76890438D01*
X131643342Y-77080914D01*
X131643342Y-77414247D01*
X131595723Y-77604723D01*
X131500485Y-77699961D01*
X131405247Y-77747580D01*
X131214771Y-77747580D01*
X132024295Y-76842819D02*
X132071914Y-76795200D01*
X132167152Y-76747580D01*
X132405247Y-76747580D01*
X132500485Y-76795200D01*
X132548104Y-76842819D01*
X132595723Y-76938057D01*
X132595723Y-77033295D01*
X132548104Y-77176152D01*
X131976676Y-77747580D01*
X132595723Y-77747580D01*
%TO.C,U9*%
X114213095Y-90402380D02*
X114213095Y-91211904D01*
X114260714Y-91307142D01*
X114308333Y-91354761D01*
X114403571Y-91402380D01*
X114594047Y-91402380D01*
X114689285Y-91354761D01*
X114736904Y-91307142D01*
X114784523Y-91211904D01*
X114784523Y-90402380D01*
X115308333Y-91402380D02*
X115498809Y-91402380D01*
X115594047Y-91354761D01*
X115641666Y-91307142D01*
X115736904Y-91164285D01*
X115784523Y-90973809D01*
X115784523Y-90592857D01*
X115736904Y-90497619D01*
X115689285Y-90450000D01*
X115594047Y-90402380D01*
X115403571Y-90402380D01*
X115308333Y-90450000D01*
X115260714Y-90497619D01*
X115213095Y-90592857D01*
X115213095Y-90830952D01*
X115260714Y-90926190D01*
X115308333Y-90973809D01*
X115403571Y-91021428D01*
X115594047Y-91021428D01*
X115689285Y-90973809D01*
X115736904Y-90926190D01*
X115784523Y-90830952D01*
%TO.C,R32*%
X103050780Y-88491457D02*
X102574590Y-88824790D01*
X103050780Y-89062885D02*
X102050780Y-89062885D01*
X102050780Y-88681933D01*
X102098400Y-88586695D01*
X102146019Y-88539076D01*
X102241257Y-88491457D01*
X102384114Y-88491457D01*
X102479352Y-88539076D01*
X102526971Y-88586695D01*
X102574590Y-88681933D01*
X102574590Y-89062885D01*
X102050780Y-88158123D02*
X102050780Y-87539076D01*
X102431733Y-87872409D01*
X102431733Y-87729552D01*
X102479352Y-87634314D01*
X102526971Y-87586695D01*
X102622209Y-87539076D01*
X102860304Y-87539076D01*
X102955542Y-87586695D01*
X103003161Y-87634314D01*
X103050780Y-87729552D01*
X103050780Y-88015266D01*
X103003161Y-88110504D01*
X102955542Y-88158123D01*
X102146019Y-87158123D02*
X102098400Y-87110504D01*
X102050780Y-87015266D01*
X102050780Y-86777171D01*
X102098400Y-86681933D01*
X102146019Y-86634314D01*
X102241257Y-86586695D01*
X102336495Y-86586695D01*
X102479352Y-86634314D01*
X103050780Y-87205742D01*
X103050780Y-86586695D01*
%TO.C,C18*%
X100607142Y-98157142D02*
X100559523Y-98204761D01*
X100416666Y-98252380D01*
X100321428Y-98252380D01*
X100178571Y-98204761D01*
X100083333Y-98109523D01*
X100035714Y-98014285D01*
X99988095Y-97823809D01*
X99988095Y-97680952D01*
X100035714Y-97490476D01*
X100083333Y-97395238D01*
X100178571Y-97300000D01*
X100321428Y-97252380D01*
X100416666Y-97252380D01*
X100559523Y-97300000D01*
X100607142Y-97347619D01*
X101559523Y-98252380D02*
X100988095Y-98252380D01*
X101273809Y-98252380D02*
X101273809Y-97252380D01*
X101178571Y-97395238D01*
X101083333Y-97490476D01*
X100988095Y-97538095D01*
X102130952Y-97680952D02*
X102035714Y-97633333D01*
X101988095Y-97585714D01*
X101940476Y-97490476D01*
X101940476Y-97442857D01*
X101988095Y-97347619D01*
X102035714Y-97300000D01*
X102130952Y-97252380D01*
X102321428Y-97252380D01*
X102416666Y-97300000D01*
X102464285Y-97347619D01*
X102511904Y-97442857D01*
X102511904Y-97490476D01*
X102464285Y-97585714D01*
X102416666Y-97633333D01*
X102321428Y-97680952D01*
X102130952Y-97680952D01*
X102035714Y-97728571D01*
X101988095Y-97776190D01*
X101940476Y-97871428D01*
X101940476Y-98061904D01*
X101988095Y-98157142D01*
X102035714Y-98204761D01*
X102130952Y-98252380D01*
X102321428Y-98252380D01*
X102416666Y-98204761D01*
X102464285Y-98157142D01*
X102511904Y-98061904D01*
X102511904Y-97871428D01*
X102464285Y-97776190D01*
X102416666Y-97728571D01*
X102321428Y-97680952D01*
%TO.C,C17*%
X104032142Y-98132142D02*
X103984523Y-98179761D01*
X103841666Y-98227380D01*
X103746428Y-98227380D01*
X103603571Y-98179761D01*
X103508333Y-98084523D01*
X103460714Y-97989285D01*
X103413095Y-97798809D01*
X103413095Y-97655952D01*
X103460714Y-97465476D01*
X103508333Y-97370238D01*
X103603571Y-97275000D01*
X103746428Y-97227380D01*
X103841666Y-97227380D01*
X103984523Y-97275000D01*
X104032142Y-97322619D01*
X104984523Y-98227380D02*
X104413095Y-98227380D01*
X104698809Y-98227380D02*
X104698809Y-97227380D01*
X104603571Y-97370238D01*
X104508333Y-97465476D01*
X104413095Y-97513095D01*
X105317857Y-97227380D02*
X105984523Y-97227380D01*
X105555952Y-98227380D01*
%TO.C,U6*%
X109510335Y-57691100D02*
X109510335Y-58500624D01*
X109557954Y-58595862D01*
X109605573Y-58643481D01*
X109700811Y-58691100D01*
X109891287Y-58691100D01*
X109986525Y-58643481D01*
X110034144Y-58595862D01*
X110081763Y-58500624D01*
X110081763Y-57691100D01*
X110986525Y-57691100D02*
X110796049Y-57691100D01*
X110700811Y-57738720D01*
X110653192Y-57786339D01*
X110557954Y-57929196D01*
X110510335Y-58119672D01*
X110510335Y-58500624D01*
X110557954Y-58595862D01*
X110605573Y-58643481D01*
X110700811Y-58691100D01*
X110891287Y-58691100D01*
X110986525Y-58643481D01*
X111034144Y-58595862D01*
X111081763Y-58500624D01*
X111081763Y-58262529D01*
X111034144Y-58167291D01*
X110986525Y-58119672D01*
X110891287Y-58072053D01*
X110700811Y-58072053D01*
X110605573Y-58119672D01*
X110557954Y-58167291D01*
X110510335Y-58262529D01*
%TO.C,U8*%
X108687375Y-64173180D02*
X108687375Y-64982704D01*
X108734994Y-65077942D01*
X108782613Y-65125561D01*
X108877851Y-65173180D01*
X109068327Y-65173180D01*
X109163565Y-65125561D01*
X109211184Y-65077942D01*
X109258803Y-64982704D01*
X109258803Y-64173180D01*
X109877851Y-64601752D02*
X109782613Y-64554133D01*
X109734994Y-64506514D01*
X109687375Y-64411276D01*
X109687375Y-64363657D01*
X109734994Y-64268419D01*
X109782613Y-64220800D01*
X109877851Y-64173180D01*
X110068327Y-64173180D01*
X110163565Y-64220800D01*
X110211184Y-64268419D01*
X110258803Y-64363657D01*
X110258803Y-64411276D01*
X110211184Y-64506514D01*
X110163565Y-64554133D01*
X110068327Y-64601752D01*
X109877851Y-64601752D01*
X109782613Y-64649371D01*
X109734994Y-64696990D01*
X109687375Y-64792228D01*
X109687375Y-64982704D01*
X109734994Y-65077942D01*
X109782613Y-65125561D01*
X109877851Y-65173180D01*
X110068327Y-65173180D01*
X110163565Y-65125561D01*
X110211184Y-65077942D01*
X110258803Y-64982704D01*
X110258803Y-64792228D01*
X110211184Y-64696990D01*
X110163565Y-64649371D01*
X110068327Y-64601752D01*
%TO.C,U4*%
X131024295Y-85332780D02*
X131024295Y-86142304D01*
X131071914Y-86237542D01*
X131119533Y-86285161D01*
X131214771Y-86332780D01*
X131405247Y-86332780D01*
X131500485Y-86285161D01*
X131548104Y-86237542D01*
X131595723Y-86142304D01*
X131595723Y-85332780D01*
X132500485Y-85666114D02*
X132500485Y-86332780D01*
X132262390Y-85285161D02*
X132024295Y-85999447D01*
X132643342Y-85999447D01*
%TO.C,U3*%
X120310415Y-63980140D02*
X120310415Y-64789664D01*
X120358034Y-64884902D01*
X120405653Y-64932521D01*
X120500891Y-64980140D01*
X120691367Y-64980140D01*
X120786605Y-64932521D01*
X120834224Y-64884902D01*
X120881843Y-64789664D01*
X120881843Y-63980140D01*
X121262796Y-63980140D02*
X121881843Y-63980140D01*
X121548510Y-64361093D01*
X121691367Y-64361093D01*
X121786605Y-64408712D01*
X121834224Y-64456331D01*
X121881843Y-64551569D01*
X121881843Y-64789664D01*
X121834224Y-64884902D01*
X121786605Y-64932521D01*
X121691367Y-64980140D01*
X121405653Y-64980140D01*
X121310415Y-64932521D01*
X121262796Y-64884902D01*
%TO.C,U1*%
X96301095Y-84891180D02*
X96301095Y-85700704D01*
X96348714Y-85795942D01*
X96396333Y-85843561D01*
X96491571Y-85891180D01*
X96682047Y-85891180D01*
X96777285Y-85843561D01*
X96824904Y-85795942D01*
X96872523Y-85700704D01*
X96872523Y-84891180D01*
X97872523Y-85891180D02*
X97301095Y-85891180D01*
X97586809Y-85891180D02*
X97586809Y-84891180D01*
X97491571Y-85034038D01*
X97396333Y-85129276D01*
X97301095Y-85176895D01*
%TO.C,R31*%
X120649380Y-87641657D02*
X120173190Y-87974990D01*
X120649380Y-88213085D02*
X119649380Y-88213085D01*
X119649380Y-87832133D01*
X119697000Y-87736895D01*
X119744619Y-87689276D01*
X119839857Y-87641657D01*
X119982714Y-87641657D01*
X120077952Y-87689276D01*
X120125571Y-87736895D01*
X120173190Y-87832133D01*
X120173190Y-88213085D01*
X119649380Y-87308323D02*
X119649380Y-86689276D01*
X120030333Y-87022609D01*
X120030333Y-86879752D01*
X120077952Y-86784514D01*
X120125571Y-86736895D01*
X120220809Y-86689276D01*
X120458904Y-86689276D01*
X120554142Y-86736895D01*
X120601761Y-86784514D01*
X120649380Y-86879752D01*
X120649380Y-87165466D01*
X120601761Y-87260704D01*
X120554142Y-87308323D01*
X120649380Y-85736895D02*
X120649380Y-86308323D01*
X120649380Y-86022609D02*
X119649380Y-86022609D01*
X119792238Y-86117847D01*
X119887476Y-86213085D01*
X119935095Y-86308323D01*
%TO.C,R30*%
X100852380Y-91342857D02*
X100376190Y-91676190D01*
X100852380Y-91914285D02*
X99852380Y-91914285D01*
X99852380Y-91533333D01*
X99900000Y-91438095D01*
X99947619Y-91390476D01*
X100042857Y-91342857D01*
X100185714Y-91342857D01*
X100280952Y-91390476D01*
X100328571Y-91438095D01*
X100376190Y-91533333D01*
X100376190Y-91914285D01*
X99852380Y-91009523D02*
X99852380Y-90390476D01*
X100233333Y-90723809D01*
X100233333Y-90580952D01*
X100280952Y-90485714D01*
X100328571Y-90438095D01*
X100423809Y-90390476D01*
X100661904Y-90390476D01*
X100757142Y-90438095D01*
X100804761Y-90485714D01*
X100852380Y-90580952D01*
X100852380Y-90866666D01*
X100804761Y-90961904D01*
X100757142Y-91009523D01*
X99852380Y-89771428D02*
X99852380Y-89676190D01*
X99900000Y-89580952D01*
X99947619Y-89533333D01*
X100042857Y-89485714D01*
X100233333Y-89438095D01*
X100471428Y-89438095D01*
X100661904Y-89485714D01*
X100757142Y-89533333D01*
X100804761Y-89580952D01*
X100852380Y-89676190D01*
X100852380Y-89771428D01*
X100804761Y-89866666D01*
X100757142Y-89914285D01*
X100661904Y-89961904D01*
X100471428Y-90009523D01*
X100233333Y-90009523D01*
X100042857Y-89961904D01*
X99947619Y-89914285D01*
X99900000Y-89866666D01*
X99852380Y-89771428D01*
%TO.C,R29*%
X102652380Y-91317457D02*
X102176190Y-91650790D01*
X102652380Y-91888885D02*
X101652380Y-91888885D01*
X101652380Y-91507933D01*
X101700000Y-91412695D01*
X101747619Y-91365076D01*
X101842857Y-91317457D01*
X101985714Y-91317457D01*
X102080952Y-91365076D01*
X102128571Y-91412695D01*
X102176190Y-91507933D01*
X102176190Y-91888885D01*
X101747619Y-90936504D02*
X101700000Y-90888885D01*
X101652380Y-90793647D01*
X101652380Y-90555552D01*
X101700000Y-90460314D01*
X101747619Y-90412695D01*
X101842857Y-90365076D01*
X101938095Y-90365076D01*
X102080952Y-90412695D01*
X102652380Y-90984123D01*
X102652380Y-90365076D01*
X102652380Y-89888885D02*
X102652380Y-89698409D01*
X102604761Y-89603171D01*
X102557142Y-89555552D01*
X102414285Y-89460314D01*
X102223809Y-89412695D01*
X101842857Y-89412695D01*
X101747619Y-89460314D01*
X101700000Y-89507933D01*
X101652380Y-89603171D01*
X101652380Y-89793647D01*
X101700000Y-89888885D01*
X101747619Y-89936504D01*
X101842857Y-89984123D01*
X102080952Y-89984123D01*
X102176190Y-89936504D01*
X102223809Y-89888885D01*
X102271428Y-89793647D01*
X102271428Y-89603171D01*
X102223809Y-89507933D01*
X102176190Y-89460314D01*
X102080952Y-89412695D01*
%TO.C,R27*%
X106102380Y-85422857D02*
X105626190Y-85756190D01*
X106102380Y-85994285D02*
X105102380Y-85994285D01*
X105102380Y-85613333D01*
X105150000Y-85518095D01*
X105197619Y-85470476D01*
X105292857Y-85422857D01*
X105435714Y-85422857D01*
X105530952Y-85470476D01*
X105578571Y-85518095D01*
X105626190Y-85613333D01*
X105626190Y-85994285D01*
X105197619Y-85041904D02*
X105150000Y-84994285D01*
X105102380Y-84899047D01*
X105102380Y-84660952D01*
X105150000Y-84565714D01*
X105197619Y-84518095D01*
X105292857Y-84470476D01*
X105388095Y-84470476D01*
X105530952Y-84518095D01*
X106102380Y-85089523D01*
X106102380Y-84470476D01*
X105102380Y-84137142D02*
X105102380Y-83470476D01*
X106102380Y-83899047D01*
%TO.C,R26*%
X121630380Y-97895257D02*
X121154190Y-98228590D01*
X121630380Y-98466685D02*
X120630380Y-98466685D01*
X120630380Y-98085733D01*
X120678000Y-97990495D01*
X120725619Y-97942876D01*
X120820857Y-97895257D01*
X120963714Y-97895257D01*
X121058952Y-97942876D01*
X121106571Y-97990495D01*
X121154190Y-98085733D01*
X121154190Y-98466685D01*
X120725619Y-97514304D02*
X120678000Y-97466685D01*
X120630380Y-97371447D01*
X120630380Y-97133352D01*
X120678000Y-97038114D01*
X120725619Y-96990495D01*
X120820857Y-96942876D01*
X120916095Y-96942876D01*
X121058952Y-96990495D01*
X121630380Y-97561923D01*
X121630380Y-96942876D01*
X120630380Y-96085733D02*
X120630380Y-96276209D01*
X120678000Y-96371447D01*
X120725619Y-96419066D01*
X120868476Y-96514304D01*
X121058952Y-96561923D01*
X121439904Y-96561923D01*
X121535142Y-96514304D01*
X121582761Y-96466685D01*
X121630380Y-96371447D01*
X121630380Y-96180971D01*
X121582761Y-96085733D01*
X121535142Y-96038114D01*
X121439904Y-95990495D01*
X121201809Y-95990495D01*
X121106571Y-96038114D01*
X121058952Y-96085733D01*
X121011333Y-96180971D01*
X121011333Y-96371447D01*
X121058952Y-96466685D01*
X121106571Y-96514304D01*
X121201809Y-96561923D01*
%TO.C,R24*%
X128407380Y-94017857D02*
X127931190Y-94351190D01*
X128407380Y-94589285D02*
X127407380Y-94589285D01*
X127407380Y-94208333D01*
X127455000Y-94113095D01*
X127502619Y-94065476D01*
X127597857Y-94017857D01*
X127740714Y-94017857D01*
X127835952Y-94065476D01*
X127883571Y-94113095D01*
X127931190Y-94208333D01*
X127931190Y-94589285D01*
X127502619Y-93636904D02*
X127455000Y-93589285D01*
X127407380Y-93494047D01*
X127407380Y-93255952D01*
X127455000Y-93160714D01*
X127502619Y-93113095D01*
X127597857Y-93065476D01*
X127693095Y-93065476D01*
X127835952Y-93113095D01*
X128407380Y-93684523D01*
X128407380Y-93065476D01*
X127740714Y-92208333D02*
X128407380Y-92208333D01*
X127359761Y-92446428D02*
X128074047Y-92684523D01*
X128074047Y-92065476D01*
%TO.C,R23*%
X127846142Y-100172980D02*
X127512809Y-99696790D01*
X127274714Y-100172980D02*
X127274714Y-99172980D01*
X127655666Y-99172980D01*
X127750904Y-99220600D01*
X127798523Y-99268219D01*
X127846142Y-99363457D01*
X127846142Y-99506314D01*
X127798523Y-99601552D01*
X127750904Y-99649171D01*
X127655666Y-99696790D01*
X127274714Y-99696790D01*
X128227095Y-99268219D02*
X128274714Y-99220600D01*
X128369952Y-99172980D01*
X128608047Y-99172980D01*
X128703285Y-99220600D01*
X128750904Y-99268219D01*
X128798523Y-99363457D01*
X128798523Y-99458695D01*
X128750904Y-99601552D01*
X128179476Y-100172980D01*
X128798523Y-100172980D01*
X129131857Y-99172980D02*
X129750904Y-99172980D01*
X129417571Y-99553933D01*
X129560428Y-99553933D01*
X129655666Y-99601552D01*
X129703285Y-99649171D01*
X129750904Y-99744409D01*
X129750904Y-99982504D01*
X129703285Y-100077742D01*
X129655666Y-100125361D01*
X129560428Y-100172980D01*
X129274714Y-100172980D01*
X129179476Y-100125361D01*
X129131857Y-100077742D01*
%TO.C,R22*%
X128153980Y-97696457D02*
X127677790Y-98029790D01*
X128153980Y-98267885D02*
X127153980Y-98267885D01*
X127153980Y-97886933D01*
X127201600Y-97791695D01*
X127249219Y-97744076D01*
X127344457Y-97696457D01*
X127487314Y-97696457D01*
X127582552Y-97744076D01*
X127630171Y-97791695D01*
X127677790Y-97886933D01*
X127677790Y-98267885D01*
X127249219Y-97315504D02*
X127201600Y-97267885D01*
X127153980Y-97172647D01*
X127153980Y-96934552D01*
X127201600Y-96839314D01*
X127249219Y-96791695D01*
X127344457Y-96744076D01*
X127439695Y-96744076D01*
X127582552Y-96791695D01*
X128153980Y-97363123D01*
X128153980Y-96744076D01*
X127249219Y-96363123D02*
X127201600Y-96315504D01*
X127153980Y-96220266D01*
X127153980Y-95982171D01*
X127201600Y-95886933D01*
X127249219Y-95839314D01*
X127344457Y-95791695D01*
X127439695Y-95791695D01*
X127582552Y-95839314D01*
X128153980Y-96410742D01*
X128153980Y-95791695D01*
%TO.C,R21*%
X138564580Y-75107057D02*
X138088390Y-75440390D01*
X138564580Y-75678485D02*
X137564580Y-75678485D01*
X137564580Y-75297533D01*
X137612200Y-75202295D01*
X137659819Y-75154676D01*
X137755057Y-75107057D01*
X137897914Y-75107057D01*
X137993152Y-75154676D01*
X138040771Y-75202295D01*
X138088390Y-75297533D01*
X138088390Y-75678485D01*
X137659819Y-74726104D02*
X137612200Y-74678485D01*
X137564580Y-74583247D01*
X137564580Y-74345152D01*
X137612200Y-74249914D01*
X137659819Y-74202295D01*
X137755057Y-74154676D01*
X137850295Y-74154676D01*
X137993152Y-74202295D01*
X138564580Y-74773723D01*
X138564580Y-74154676D01*
X138564580Y-73202295D02*
X138564580Y-73773723D01*
X138564580Y-73488009D02*
X137564580Y-73488009D01*
X137707438Y-73583247D01*
X137802676Y-73678485D01*
X137850295Y-73773723D01*
%TO.C,R20*%
X88523780Y-74804057D02*
X88047590Y-75137390D01*
X88523780Y-75375485D02*
X87523780Y-75375485D01*
X87523780Y-74994533D01*
X87571400Y-74899295D01*
X87619019Y-74851676D01*
X87714257Y-74804057D01*
X87857114Y-74804057D01*
X87952352Y-74851676D01*
X87999971Y-74899295D01*
X88047590Y-74994533D01*
X88047590Y-75375485D01*
X87619019Y-74423104D02*
X87571400Y-74375485D01*
X87523780Y-74280247D01*
X87523780Y-74042152D01*
X87571400Y-73946914D01*
X87619019Y-73899295D01*
X87714257Y-73851676D01*
X87809495Y-73851676D01*
X87952352Y-73899295D01*
X88523780Y-74470723D01*
X88523780Y-73851676D01*
X87523780Y-73232628D02*
X87523780Y-73137390D01*
X87571400Y-73042152D01*
X87619019Y-72994533D01*
X87714257Y-72946914D01*
X87904733Y-72899295D01*
X88142828Y-72899295D01*
X88333304Y-72946914D01*
X88428542Y-72994533D01*
X88476161Y-73042152D01*
X88523780Y-73137390D01*
X88523780Y-73232628D01*
X88476161Y-73327866D01*
X88428542Y-73375485D01*
X88333304Y-73423104D01*
X88142828Y-73470723D01*
X87904733Y-73470723D01*
X87714257Y-73423104D01*
X87619019Y-73375485D01*
X87571400Y-73327866D01*
X87523780Y-73232628D01*
%TO.C,R19*%
X125082380Y-79802857D02*
X124606190Y-80136190D01*
X125082380Y-80374285D02*
X124082380Y-80374285D01*
X124082380Y-79993333D01*
X124130000Y-79898095D01*
X124177619Y-79850476D01*
X124272857Y-79802857D01*
X124415714Y-79802857D01*
X124510952Y-79850476D01*
X124558571Y-79898095D01*
X124606190Y-79993333D01*
X124606190Y-80374285D01*
X125082380Y-78850476D02*
X125082380Y-79421904D01*
X125082380Y-79136190D02*
X124082380Y-79136190D01*
X124225238Y-79231428D01*
X124320476Y-79326666D01*
X124368095Y-79421904D01*
X125082380Y-78374285D02*
X125082380Y-78183809D01*
X125034761Y-78088571D01*
X124987142Y-78040952D01*
X124844285Y-77945714D01*
X124653809Y-77898095D01*
X124272857Y-77898095D01*
X124177619Y-77945714D01*
X124130000Y-77993333D01*
X124082380Y-78088571D01*
X124082380Y-78279047D01*
X124130000Y-78374285D01*
X124177619Y-78421904D01*
X124272857Y-78469523D01*
X124510952Y-78469523D01*
X124606190Y-78421904D01*
X124653809Y-78374285D01*
X124701428Y-78279047D01*
X124701428Y-78088571D01*
X124653809Y-77993333D01*
X124606190Y-77945714D01*
X124510952Y-77898095D01*
%TO.C,R18*%
X110650580Y-88416657D02*
X110174390Y-88749990D01*
X110650580Y-88988085D02*
X109650580Y-88988085D01*
X109650580Y-88607133D01*
X109698200Y-88511895D01*
X109745819Y-88464276D01*
X109841057Y-88416657D01*
X109983914Y-88416657D01*
X110079152Y-88464276D01*
X110126771Y-88511895D01*
X110174390Y-88607133D01*
X110174390Y-88988085D01*
X110650580Y-87464276D02*
X110650580Y-88035704D01*
X110650580Y-87749990D02*
X109650580Y-87749990D01*
X109793438Y-87845228D01*
X109888676Y-87940466D01*
X109936295Y-88035704D01*
X110079152Y-86892847D02*
X110031533Y-86988085D01*
X109983914Y-87035704D01*
X109888676Y-87083323D01*
X109841057Y-87083323D01*
X109745819Y-87035704D01*
X109698200Y-86988085D01*
X109650580Y-86892847D01*
X109650580Y-86702371D01*
X109698200Y-86607133D01*
X109745819Y-86559514D01*
X109841057Y-86511895D01*
X109888676Y-86511895D01*
X109983914Y-86559514D01*
X110031533Y-86607133D01*
X110079152Y-86702371D01*
X110079152Y-86892847D01*
X110126771Y-86988085D01*
X110174390Y-87035704D01*
X110269628Y-87083323D01*
X110460104Y-87083323D01*
X110555342Y-87035704D01*
X110602961Y-86988085D01*
X110650580Y-86892847D01*
X110650580Y-86702371D01*
X110602961Y-86607133D01*
X110555342Y-86559514D01*
X110460104Y-86511895D01*
X110269628Y-86511895D01*
X110174390Y-86559514D01*
X110126771Y-86607133D01*
X110079152Y-86702371D01*
%TO.C,R17*%
X125068980Y-87489257D02*
X124592790Y-87822590D01*
X125068980Y-88060685D02*
X124068980Y-88060685D01*
X124068980Y-87679733D01*
X124116600Y-87584495D01*
X124164219Y-87536876D01*
X124259457Y-87489257D01*
X124402314Y-87489257D01*
X124497552Y-87536876D01*
X124545171Y-87584495D01*
X124592790Y-87679733D01*
X124592790Y-88060685D01*
X125068980Y-86536876D02*
X125068980Y-87108304D01*
X125068980Y-86822590D02*
X124068980Y-86822590D01*
X124211838Y-86917828D01*
X124307076Y-87013066D01*
X124354695Y-87108304D01*
X124068980Y-86203542D02*
X124068980Y-85536876D01*
X125068980Y-85965447D01*
%TO.C,R16*%
X107612380Y-85392857D02*
X107136190Y-85726190D01*
X107612380Y-85964285D02*
X106612380Y-85964285D01*
X106612380Y-85583333D01*
X106660000Y-85488095D01*
X106707619Y-85440476D01*
X106802857Y-85392857D01*
X106945714Y-85392857D01*
X107040952Y-85440476D01*
X107088571Y-85488095D01*
X107136190Y-85583333D01*
X107136190Y-85964285D01*
X107612380Y-84440476D02*
X107612380Y-85011904D01*
X107612380Y-84726190D02*
X106612380Y-84726190D01*
X106755238Y-84821428D01*
X106850476Y-84916666D01*
X106898095Y-85011904D01*
X106612380Y-83583333D02*
X106612380Y-83773809D01*
X106660000Y-83869047D01*
X106707619Y-83916666D01*
X106850476Y-84011904D01*
X107040952Y-84059523D01*
X107421904Y-84059523D01*
X107517142Y-84011904D01*
X107564761Y-83964285D01*
X107612380Y-83869047D01*
X107612380Y-83678571D01*
X107564761Y-83583333D01*
X107517142Y-83535714D01*
X107421904Y-83488095D01*
X107183809Y-83488095D01*
X107088571Y-83535714D01*
X107040952Y-83583333D01*
X106993333Y-83678571D01*
X106993333Y-83869047D01*
X107040952Y-83964285D01*
X107088571Y-84011904D01*
X107183809Y-84059523D01*
%TO.C,R15*%
X106182380Y-91592857D02*
X105706190Y-91926190D01*
X106182380Y-92164285D02*
X105182380Y-92164285D01*
X105182380Y-91783333D01*
X105230000Y-91688095D01*
X105277619Y-91640476D01*
X105372857Y-91592857D01*
X105515714Y-91592857D01*
X105610952Y-91640476D01*
X105658571Y-91688095D01*
X105706190Y-91783333D01*
X105706190Y-92164285D01*
X106182380Y-90640476D02*
X106182380Y-91211904D01*
X106182380Y-90926190D02*
X105182380Y-90926190D01*
X105325238Y-91021428D01*
X105420476Y-91116666D01*
X105468095Y-91211904D01*
X105182380Y-89735714D02*
X105182380Y-90211904D01*
X105658571Y-90259523D01*
X105610952Y-90211904D01*
X105563333Y-90116666D01*
X105563333Y-89878571D01*
X105610952Y-89783333D01*
X105658571Y-89735714D01*
X105753809Y-89688095D01*
X105991904Y-89688095D01*
X106087142Y-89735714D01*
X106134761Y-89783333D01*
X106182380Y-89878571D01*
X106182380Y-90116666D01*
X106134761Y-90211904D01*
X106087142Y-90259523D01*
%TO.C,R10*%
X126552380Y-87652857D02*
X126076190Y-87986190D01*
X126552380Y-88224285D02*
X125552380Y-88224285D01*
X125552380Y-87843333D01*
X125600000Y-87748095D01*
X125647619Y-87700476D01*
X125742857Y-87652857D01*
X125885714Y-87652857D01*
X125980952Y-87700476D01*
X126028571Y-87748095D01*
X126076190Y-87843333D01*
X126076190Y-88224285D01*
X126552380Y-86700476D02*
X126552380Y-87271904D01*
X126552380Y-86986190D02*
X125552380Y-86986190D01*
X125695238Y-87081428D01*
X125790476Y-87176666D01*
X125838095Y-87271904D01*
X125552380Y-86081428D02*
X125552380Y-85986190D01*
X125600000Y-85890952D01*
X125647619Y-85843333D01*
X125742857Y-85795714D01*
X125933333Y-85748095D01*
X126171428Y-85748095D01*
X126361904Y-85795714D01*
X126457142Y-85843333D01*
X126504761Y-85890952D01*
X126552380Y-85986190D01*
X126552380Y-86081428D01*
X126504761Y-86176666D01*
X126457142Y-86224285D01*
X126361904Y-86271904D01*
X126171428Y-86319523D01*
X125933333Y-86319523D01*
X125742857Y-86271904D01*
X125647619Y-86224285D01*
X125600000Y-86176666D01*
X125552380Y-86081428D01*
%TO.C,R9*%
X126642380Y-79776666D02*
X126166190Y-80110000D01*
X126642380Y-80348095D02*
X125642380Y-80348095D01*
X125642380Y-79967142D01*
X125690000Y-79871904D01*
X125737619Y-79824285D01*
X125832857Y-79776666D01*
X125975714Y-79776666D01*
X126070952Y-79824285D01*
X126118571Y-79871904D01*
X126166190Y-79967142D01*
X126166190Y-80348095D01*
X126642380Y-79300476D02*
X126642380Y-79110000D01*
X126594761Y-79014761D01*
X126547142Y-78967142D01*
X126404285Y-78871904D01*
X126213809Y-78824285D01*
X125832857Y-78824285D01*
X125737619Y-78871904D01*
X125690000Y-78919523D01*
X125642380Y-79014761D01*
X125642380Y-79205238D01*
X125690000Y-79300476D01*
X125737619Y-79348095D01*
X125832857Y-79395714D01*
X126070952Y-79395714D01*
X126166190Y-79348095D01*
X126213809Y-79300476D01*
X126261428Y-79205238D01*
X126261428Y-79014761D01*
X126213809Y-78919523D01*
X126166190Y-78871904D01*
X126070952Y-78824285D01*
%TO.C,R8*%
X103122380Y-79686666D02*
X102646190Y-80020000D01*
X103122380Y-80258095D02*
X102122380Y-80258095D01*
X102122380Y-79877142D01*
X102170000Y-79781904D01*
X102217619Y-79734285D01*
X102312857Y-79686666D01*
X102455714Y-79686666D01*
X102550952Y-79734285D01*
X102598571Y-79781904D01*
X102646190Y-79877142D01*
X102646190Y-80258095D01*
X102550952Y-79115238D02*
X102503333Y-79210476D01*
X102455714Y-79258095D01*
X102360476Y-79305714D01*
X102312857Y-79305714D01*
X102217619Y-79258095D01*
X102170000Y-79210476D01*
X102122380Y-79115238D01*
X102122380Y-78924761D01*
X102170000Y-78829523D01*
X102217619Y-78781904D01*
X102312857Y-78734285D01*
X102360476Y-78734285D01*
X102455714Y-78781904D01*
X102503333Y-78829523D01*
X102550952Y-78924761D01*
X102550952Y-79115238D01*
X102598571Y-79210476D01*
X102646190Y-79258095D01*
X102741428Y-79305714D01*
X102931904Y-79305714D01*
X103027142Y-79258095D01*
X103074761Y-79210476D01*
X103122380Y-79115238D01*
X103122380Y-78924761D01*
X103074761Y-78829523D01*
X103027142Y-78781904D01*
X102931904Y-78734285D01*
X102741428Y-78734285D01*
X102646190Y-78781904D01*
X102598571Y-78829523D01*
X102550952Y-78924761D01*
%TO.C,R6*%
X141798980Y-83297466D02*
X141322790Y-83630800D01*
X141798980Y-83868895D02*
X140798980Y-83868895D01*
X140798980Y-83487942D01*
X140846600Y-83392704D01*
X140894219Y-83345085D01*
X140989457Y-83297466D01*
X141132314Y-83297466D01*
X141227552Y-83345085D01*
X141275171Y-83392704D01*
X141322790Y-83487942D01*
X141322790Y-83868895D01*
X140798980Y-82440323D02*
X140798980Y-82630800D01*
X140846600Y-82726038D01*
X140894219Y-82773657D01*
X141037076Y-82868895D01*
X141227552Y-82916514D01*
X141608504Y-82916514D01*
X141703742Y-82868895D01*
X141751361Y-82821276D01*
X141798980Y-82726038D01*
X141798980Y-82535561D01*
X141751361Y-82440323D01*
X141703742Y-82392704D01*
X141608504Y-82345085D01*
X141370409Y-82345085D01*
X141275171Y-82392704D01*
X141227552Y-82440323D01*
X141179933Y-82535561D01*
X141179933Y-82726038D01*
X141227552Y-82821276D01*
X141275171Y-82868895D01*
X141370409Y-82916514D01*
%TO.C,R5*%
X87702380Y-88366666D02*
X87226190Y-88700000D01*
X87702380Y-88938095D02*
X86702380Y-88938095D01*
X86702380Y-88557142D01*
X86750000Y-88461904D01*
X86797619Y-88414285D01*
X86892857Y-88366666D01*
X87035714Y-88366666D01*
X87130952Y-88414285D01*
X87178571Y-88461904D01*
X87226190Y-88557142D01*
X87226190Y-88938095D01*
X86702380Y-87461904D02*
X86702380Y-87938095D01*
X87178571Y-87985714D01*
X87130952Y-87938095D01*
X87083333Y-87842857D01*
X87083333Y-87604761D01*
X87130952Y-87509523D01*
X87178571Y-87461904D01*
X87273809Y-87414285D01*
X87511904Y-87414285D01*
X87607142Y-87461904D01*
X87654761Y-87509523D01*
X87702380Y-87604761D01*
X87702380Y-87842857D01*
X87654761Y-87938095D01*
X87607142Y-87985714D01*
%TO.C,R4*%
X142017380Y-88801666D02*
X141541190Y-89135000D01*
X142017380Y-89373095D02*
X141017380Y-89373095D01*
X141017380Y-88992142D01*
X141065000Y-88896904D01*
X141112619Y-88849285D01*
X141207857Y-88801666D01*
X141350714Y-88801666D01*
X141445952Y-88849285D01*
X141493571Y-88896904D01*
X141541190Y-88992142D01*
X141541190Y-89373095D01*
X141350714Y-87944523D02*
X142017380Y-87944523D01*
X140969761Y-88182619D02*
X141684047Y-88420714D01*
X141684047Y-87801666D01*
%TO.C,R3*%
X137542780Y-88736666D02*
X137066590Y-89070000D01*
X137542780Y-89308095D02*
X136542780Y-89308095D01*
X136542780Y-88927142D01*
X136590400Y-88831904D01*
X136638019Y-88784285D01*
X136733257Y-88736666D01*
X136876114Y-88736666D01*
X136971352Y-88784285D01*
X137018971Y-88831904D01*
X137066590Y-88927142D01*
X137066590Y-89308095D01*
X136542780Y-88403333D02*
X136542780Y-87784285D01*
X136923733Y-88117619D01*
X136923733Y-87974761D01*
X136971352Y-87879523D01*
X137018971Y-87831904D01*
X137114209Y-87784285D01*
X137352304Y-87784285D01*
X137447542Y-87831904D01*
X137495161Y-87879523D01*
X137542780Y-87974761D01*
X137542780Y-88260476D01*
X137495161Y-88355714D01*
X137447542Y-88403333D01*
%TO.C,R2*%
X87752380Y-83066666D02*
X87276190Y-83400000D01*
X87752380Y-83638095D02*
X86752380Y-83638095D01*
X86752380Y-83257142D01*
X86800000Y-83161904D01*
X86847619Y-83114285D01*
X86942857Y-83066666D01*
X87085714Y-83066666D01*
X87180952Y-83114285D01*
X87228571Y-83161904D01*
X87276190Y-83257142D01*
X87276190Y-83638095D01*
X86847619Y-82685714D02*
X86800000Y-82638095D01*
X86752380Y-82542857D01*
X86752380Y-82304761D01*
X86800000Y-82209523D01*
X86847619Y-82161904D01*
X86942857Y-82114285D01*
X87038095Y-82114285D01*
X87180952Y-82161904D01*
X87752380Y-82733333D01*
X87752380Y-82114285D01*
%TO.C,R1*%
X92074780Y-83065866D02*
X91598590Y-83399200D01*
X92074780Y-83637295D02*
X91074780Y-83637295D01*
X91074780Y-83256342D01*
X91122400Y-83161104D01*
X91170019Y-83113485D01*
X91265257Y-83065866D01*
X91408114Y-83065866D01*
X91503352Y-83113485D01*
X91550971Y-83161104D01*
X91598590Y-83256342D01*
X91598590Y-83637295D01*
X92074780Y-82113485D02*
X92074780Y-82684914D01*
X92074780Y-82399200D02*
X91074780Y-82399200D01*
X91217638Y-82494438D01*
X91312876Y-82589676D01*
X91360495Y-82684914D01*
%TO.C,Q5*%
X108079761Y-95497619D02*
X107984523Y-95450000D01*
X107889285Y-95354761D01*
X107746428Y-95211904D01*
X107651190Y-95164285D01*
X107555952Y-95164285D01*
X107603571Y-95402380D02*
X107508333Y-95354761D01*
X107413095Y-95259523D01*
X107365476Y-95069047D01*
X107365476Y-94735714D01*
X107413095Y-94545238D01*
X107508333Y-94450000D01*
X107603571Y-94402380D01*
X107794047Y-94402380D01*
X107889285Y-94450000D01*
X107984523Y-94545238D01*
X108032142Y-94735714D01*
X108032142Y-95069047D01*
X107984523Y-95259523D01*
X107889285Y-95354761D01*
X107794047Y-95402380D01*
X107603571Y-95402380D01*
X108936904Y-94402380D02*
X108460714Y-94402380D01*
X108413095Y-94878571D01*
X108460714Y-94830952D01*
X108555952Y-94783333D01*
X108794047Y-94783333D01*
X108889285Y-94830952D01*
X108936904Y-94878571D01*
X108984523Y-94973809D01*
X108984523Y-95211904D01*
X108936904Y-95307142D01*
X108889285Y-95354761D01*
X108794047Y-95402380D01*
X108555952Y-95402380D01*
X108460714Y-95354761D01*
X108413095Y-95307142D01*
%TO.C,Q4*%
X130103419Y-93694438D02*
X130055800Y-93789676D01*
X129960561Y-93884914D01*
X129817704Y-94027771D01*
X129770085Y-94123009D01*
X129770085Y-94218247D01*
X130008180Y-94170628D02*
X129960561Y-94265866D01*
X129865323Y-94361104D01*
X129674847Y-94408723D01*
X129341514Y-94408723D01*
X129151038Y-94361104D01*
X129055800Y-94265866D01*
X129008180Y-94170628D01*
X129008180Y-93980152D01*
X129055800Y-93884914D01*
X129151038Y-93789676D01*
X129341514Y-93742057D01*
X129674847Y-93742057D01*
X129865323Y-93789676D01*
X129960561Y-93884914D01*
X130008180Y-93980152D01*
X130008180Y-94170628D01*
X129341514Y-92884914D02*
X130008180Y-92884914D01*
X128960561Y-93123009D02*
X129674847Y-93361104D01*
X129674847Y-92742057D01*
%TO.C,Q3*%
X121634219Y-92835638D02*
X121586600Y-92930876D01*
X121491361Y-93026114D01*
X121348504Y-93168971D01*
X121300885Y-93264209D01*
X121300885Y-93359447D01*
X121538980Y-93311828D02*
X121491361Y-93407066D01*
X121396123Y-93502304D01*
X121205647Y-93549923D01*
X120872314Y-93549923D01*
X120681838Y-93502304D01*
X120586600Y-93407066D01*
X120538980Y-93311828D01*
X120538980Y-93121352D01*
X120586600Y-93026114D01*
X120681838Y-92930876D01*
X120872314Y-92883257D01*
X121205647Y-92883257D01*
X121396123Y-92930876D01*
X121491361Y-93026114D01*
X121538980Y-93121352D01*
X121538980Y-93311828D01*
X120538980Y-92549923D02*
X120538980Y-91930876D01*
X120919933Y-92264209D01*
X120919933Y-92121352D01*
X120967552Y-92026114D01*
X121015171Y-91978495D01*
X121110409Y-91930876D01*
X121348504Y-91930876D01*
X121443742Y-91978495D01*
X121491361Y-92026114D01*
X121538980Y-92121352D01*
X121538980Y-92407066D01*
X121491361Y-92502304D01*
X121443742Y-92549923D01*
%TO.C,D6*%
X123102380Y-91263095D02*
X122102380Y-91263095D01*
X122102380Y-91025000D01*
X122150000Y-90882142D01*
X122245238Y-90786904D01*
X122340476Y-90739285D01*
X122530952Y-90691666D01*
X122673809Y-90691666D01*
X122864285Y-90739285D01*
X122959523Y-90786904D01*
X123054761Y-90882142D01*
X123102380Y-91025000D01*
X123102380Y-91263095D01*
X122102380Y-89834523D02*
X122102380Y-90025000D01*
X122150000Y-90120238D01*
X122197619Y-90167857D01*
X122340476Y-90263095D01*
X122530952Y-90310714D01*
X122911904Y-90310714D01*
X123007142Y-90263095D01*
X123054761Y-90215476D01*
X123102380Y-90120238D01*
X123102380Y-89929761D01*
X123054761Y-89834523D01*
X123007142Y-89786904D01*
X122911904Y-89739285D01*
X122673809Y-89739285D01*
X122578571Y-89786904D01*
X122530952Y-89834523D01*
X122483333Y-89929761D01*
X122483333Y-90120238D01*
X122530952Y-90215476D01*
X122578571Y-90263095D01*
X122673809Y-90310714D01*
%TO.C,D5*%
X120302380Y-91238095D02*
X119302380Y-91238095D01*
X119302380Y-91000000D01*
X119350000Y-90857142D01*
X119445238Y-90761904D01*
X119540476Y-90714285D01*
X119730952Y-90666666D01*
X119873809Y-90666666D01*
X120064285Y-90714285D01*
X120159523Y-90761904D01*
X120254761Y-90857142D01*
X120302380Y-91000000D01*
X120302380Y-91238095D01*
X119302380Y-89761904D02*
X119302380Y-90238095D01*
X119778571Y-90285714D01*
X119730952Y-90238095D01*
X119683333Y-90142857D01*
X119683333Y-89904761D01*
X119730952Y-89809523D01*
X119778571Y-89761904D01*
X119873809Y-89714285D01*
X120111904Y-89714285D01*
X120207142Y-89761904D01*
X120254761Y-89809523D01*
X120302380Y-89904761D01*
X120302380Y-90142857D01*
X120254761Y-90238095D01*
X120207142Y-90285714D01*
%TO.C,D4*%
X139867380Y-76053095D02*
X138867380Y-76053095D01*
X138867380Y-75815000D01*
X138915000Y-75672142D01*
X139010238Y-75576904D01*
X139105476Y-75529285D01*
X139295952Y-75481666D01*
X139438809Y-75481666D01*
X139629285Y-75529285D01*
X139724523Y-75576904D01*
X139819761Y-75672142D01*
X139867380Y-75815000D01*
X139867380Y-76053095D01*
X139200714Y-74624523D02*
X139867380Y-74624523D01*
X138819761Y-74862619D02*
X139534047Y-75100714D01*
X139534047Y-74481666D01*
%TO.C,D3*%
X91194104Y-78652180D02*
X91194104Y-77652180D01*
X91432200Y-77652180D01*
X91575057Y-77699800D01*
X91670295Y-77795038D01*
X91717914Y-77890276D01*
X91765533Y-78080752D01*
X91765533Y-78223609D01*
X91717914Y-78414085D01*
X91670295Y-78509323D01*
X91575057Y-78604561D01*
X91432200Y-78652180D01*
X91194104Y-78652180D01*
X92098866Y-77652180D02*
X92717914Y-77652180D01*
X92384580Y-78033133D01*
X92527438Y-78033133D01*
X92622676Y-78080752D01*
X92670295Y-78128371D01*
X92717914Y-78223609D01*
X92717914Y-78461704D01*
X92670295Y-78556942D01*
X92622676Y-78604561D01*
X92527438Y-78652180D01*
X92241723Y-78652180D01*
X92146485Y-78604561D01*
X92098866Y-78556942D01*
%TO.C,D2*%
X117652380Y-81063095D02*
X116652380Y-81063095D01*
X116652380Y-80825000D01*
X116700000Y-80682142D01*
X116795238Y-80586904D01*
X116890476Y-80539285D01*
X117080952Y-80491666D01*
X117223809Y-80491666D01*
X117414285Y-80539285D01*
X117509523Y-80586904D01*
X117604761Y-80682142D01*
X117652380Y-80825000D01*
X117652380Y-81063095D01*
X116747619Y-80110714D02*
X116700000Y-80063095D01*
X116652380Y-79967857D01*
X116652380Y-79729761D01*
X116700000Y-79634523D01*
X116747619Y-79586904D01*
X116842857Y-79539285D01*
X116938095Y-79539285D01*
X117080952Y-79586904D01*
X117652380Y-80158333D01*
X117652380Y-79539285D01*
%TO.C,D1*%
X113612380Y-81018095D02*
X112612380Y-81018095D01*
X112612380Y-80780000D01*
X112660000Y-80637142D01*
X112755238Y-80541904D01*
X112850476Y-80494285D01*
X113040952Y-80446666D01*
X113183809Y-80446666D01*
X113374285Y-80494285D01*
X113469523Y-80541904D01*
X113564761Y-80637142D01*
X113612380Y-80780000D01*
X113612380Y-81018095D01*
X113612380Y-79494285D02*
X113612380Y-80065714D01*
X113612380Y-79780000D02*
X112612380Y-79780000D01*
X112755238Y-79875238D01*
X112850476Y-79970476D01*
X112898095Y-80065714D01*
%TO.C,C16*%
X137055942Y-97177457D02*
X137103561Y-97225076D01*
X137151180Y-97367933D01*
X137151180Y-97463171D01*
X137103561Y-97606028D01*
X137008323Y-97701266D01*
X136913085Y-97748885D01*
X136722609Y-97796504D01*
X136579752Y-97796504D01*
X136389276Y-97748885D01*
X136294038Y-97701266D01*
X136198800Y-97606028D01*
X136151180Y-97463171D01*
X136151180Y-97367933D01*
X136198800Y-97225076D01*
X136246419Y-97177457D01*
X137151180Y-96225076D02*
X137151180Y-96796504D01*
X137151180Y-96510790D02*
X136151180Y-96510790D01*
X136294038Y-96606028D01*
X136389276Y-96701266D01*
X136436895Y-96796504D01*
X136151180Y-95367933D02*
X136151180Y-95558409D01*
X136198800Y-95653647D01*
X136246419Y-95701266D01*
X136389276Y-95796504D01*
X136579752Y-95844123D01*
X136960704Y-95844123D01*
X137055942Y-95796504D01*
X137103561Y-95748885D01*
X137151180Y-95653647D01*
X137151180Y-95463171D01*
X137103561Y-95367933D01*
X137055942Y-95320314D01*
X136960704Y-95272695D01*
X136722609Y-95272695D01*
X136627371Y-95320314D01*
X136579752Y-95367933D01*
X136532133Y-95463171D01*
X136532133Y-95653647D01*
X136579752Y-95748885D01*
X136627371Y-95796504D01*
X136722609Y-95844123D01*
%TO.C,C15*%
X107525502Y-70265857D02*
X107573121Y-70313476D01*
X107620740Y-70456333D01*
X107620740Y-70551571D01*
X107573121Y-70694428D01*
X107477883Y-70789666D01*
X107382645Y-70837285D01*
X107192169Y-70884904D01*
X107049312Y-70884904D01*
X106858836Y-70837285D01*
X106763598Y-70789666D01*
X106668360Y-70694428D01*
X106620740Y-70551571D01*
X106620740Y-70456333D01*
X106668360Y-70313476D01*
X106715979Y-70265857D01*
X107620740Y-69313476D02*
X107620740Y-69884904D01*
X107620740Y-69599190D02*
X106620740Y-69599190D01*
X106763598Y-69694428D01*
X106858836Y-69789666D01*
X106906455Y-69884904D01*
X106620740Y-68408714D02*
X106620740Y-68884904D01*
X107096931Y-68932523D01*
X107049312Y-68884904D01*
X107001693Y-68789666D01*
X107001693Y-68551571D01*
X107049312Y-68456333D01*
X107096931Y-68408714D01*
X107192169Y-68361095D01*
X107430264Y-68361095D01*
X107525502Y-68408714D01*
X107573121Y-68456333D01*
X107620740Y-68551571D01*
X107620740Y-68789666D01*
X107573121Y-68884904D01*
X107525502Y-68932523D01*
%TO.C,C14*%
X123032222Y-62960817D02*
X123079841Y-63008436D01*
X123127460Y-63151293D01*
X123127460Y-63246531D01*
X123079841Y-63389388D01*
X122984603Y-63484626D01*
X122889365Y-63532245D01*
X122698889Y-63579864D01*
X122556032Y-63579864D01*
X122365556Y-63532245D01*
X122270318Y-63484626D01*
X122175080Y-63389388D01*
X122127460Y-63246531D01*
X122127460Y-63151293D01*
X122175080Y-63008436D01*
X122222699Y-62960817D01*
X123127460Y-62008436D02*
X123127460Y-62579864D01*
X123127460Y-62294150D02*
X122127460Y-62294150D01*
X122270318Y-62389388D01*
X122365556Y-62484626D01*
X122413175Y-62579864D01*
X122460794Y-61151293D02*
X123127460Y-61151293D01*
X122079841Y-61389388D02*
X122794127Y-61627483D01*
X122794127Y-61008436D01*
%TO.C,C13*%
X127561022Y-62884617D02*
X127608641Y-62932236D01*
X127656260Y-63075093D01*
X127656260Y-63170331D01*
X127608641Y-63313188D01*
X127513403Y-63408426D01*
X127418165Y-63456045D01*
X127227689Y-63503664D01*
X127084832Y-63503664D01*
X126894356Y-63456045D01*
X126799118Y-63408426D01*
X126703880Y-63313188D01*
X126656260Y-63170331D01*
X126656260Y-63075093D01*
X126703880Y-62932236D01*
X126751499Y-62884617D01*
X127656260Y-61932236D02*
X127656260Y-62503664D01*
X127656260Y-62217950D02*
X126656260Y-62217950D01*
X126799118Y-62313188D01*
X126894356Y-62408426D01*
X126941975Y-62503664D01*
X126656260Y-61598902D02*
X126656260Y-60979855D01*
X127037213Y-61313188D01*
X127037213Y-61170331D01*
X127084832Y-61075093D01*
X127132451Y-61027474D01*
X127227689Y-60979855D01*
X127465784Y-60979855D01*
X127561022Y-61027474D01*
X127608641Y-61075093D01*
X127656260Y-61170331D01*
X127656260Y-61456045D01*
X127608641Y-61551283D01*
X127561022Y-61598902D01*
%TO.C,C12*%
X108599302Y-63394977D02*
X108646921Y-63442596D01*
X108694540Y-63585453D01*
X108694540Y-63680691D01*
X108646921Y-63823548D01*
X108551683Y-63918786D01*
X108456445Y-63966405D01*
X108265969Y-64014024D01*
X108123112Y-64014024D01*
X107932636Y-63966405D01*
X107837398Y-63918786D01*
X107742160Y-63823548D01*
X107694540Y-63680691D01*
X107694540Y-63585453D01*
X107742160Y-63442596D01*
X107789779Y-63394977D01*
X108694540Y-62442596D02*
X108694540Y-63014024D01*
X108694540Y-62728310D02*
X107694540Y-62728310D01*
X107837398Y-62823548D01*
X107932636Y-62918786D01*
X107980255Y-63014024D01*
X107789779Y-62061643D02*
X107742160Y-62014024D01*
X107694540Y-61918786D01*
X107694540Y-61680691D01*
X107742160Y-61585453D01*
X107789779Y-61537834D01*
X107885017Y-61490215D01*
X107980255Y-61490215D01*
X108123112Y-61537834D01*
X108694540Y-62109262D01*
X108694540Y-61490215D01*
%TO.C,C11*%
X104146702Y-63349257D02*
X104194321Y-63396876D01*
X104241940Y-63539733D01*
X104241940Y-63634971D01*
X104194321Y-63777828D01*
X104099083Y-63873066D01*
X104003845Y-63920685D01*
X103813369Y-63968304D01*
X103670512Y-63968304D01*
X103480036Y-63920685D01*
X103384798Y-63873066D01*
X103289560Y-63777828D01*
X103241940Y-63634971D01*
X103241940Y-63539733D01*
X103289560Y-63396876D01*
X103337179Y-63349257D01*
X104241940Y-62396876D02*
X104241940Y-62968304D01*
X104241940Y-62682590D02*
X103241940Y-62682590D01*
X103384798Y-62777828D01*
X103480036Y-62873066D01*
X103527655Y-62968304D01*
X104241940Y-61444495D02*
X104241940Y-62015923D01*
X104241940Y-61730209D02*
X103241940Y-61730209D01*
X103384798Y-61825447D01*
X103480036Y-61920685D01*
X103527655Y-62015923D01*
%TO.C,C10*%
X116227542Y-65668457D02*
X116275161Y-65716076D01*
X116322780Y-65858933D01*
X116322780Y-65954171D01*
X116275161Y-66097028D01*
X116179923Y-66192266D01*
X116084685Y-66239885D01*
X115894209Y-66287504D01*
X115751352Y-66287504D01*
X115560876Y-66239885D01*
X115465638Y-66192266D01*
X115370400Y-66097028D01*
X115322780Y-65954171D01*
X115322780Y-65858933D01*
X115370400Y-65716076D01*
X115418019Y-65668457D01*
X116322780Y-64716076D02*
X116322780Y-65287504D01*
X116322780Y-65001790D02*
X115322780Y-65001790D01*
X115465638Y-65097028D01*
X115560876Y-65192266D01*
X115608495Y-65287504D01*
X115322780Y-64097028D02*
X115322780Y-64001790D01*
X115370400Y-63906552D01*
X115418019Y-63858933D01*
X115513257Y-63811314D01*
X115703733Y-63763695D01*
X115941828Y-63763695D01*
X116132304Y-63811314D01*
X116227542Y-63858933D01*
X116275161Y-63906552D01*
X116322780Y-64001790D01*
X116322780Y-64097028D01*
X116275161Y-64192266D01*
X116227542Y-64239885D01*
X116132304Y-64287504D01*
X115941828Y-64335123D01*
X115703733Y-64335123D01*
X115513257Y-64287504D01*
X115418019Y-64239885D01*
X115370400Y-64192266D01*
X115322780Y-64097028D01*
%TO.C,C9*%
X114218382Y-65207506D02*
X114266001Y-65255125D01*
X114313620Y-65397982D01*
X114313620Y-65493220D01*
X114266001Y-65636078D01*
X114170763Y-65731316D01*
X114075525Y-65778935D01*
X113885049Y-65826554D01*
X113742192Y-65826554D01*
X113551716Y-65778935D01*
X113456478Y-65731316D01*
X113361240Y-65636078D01*
X113313620Y-65493220D01*
X113313620Y-65397982D01*
X113361240Y-65255125D01*
X113408859Y-65207506D01*
X114313620Y-64731316D02*
X114313620Y-64540840D01*
X114266001Y-64445601D01*
X114218382Y-64397982D01*
X114075525Y-64302744D01*
X113885049Y-64255125D01*
X113504097Y-64255125D01*
X113408859Y-64302744D01*
X113361240Y-64350363D01*
X113313620Y-64445601D01*
X113313620Y-64636078D01*
X113361240Y-64731316D01*
X113408859Y-64778935D01*
X113504097Y-64826554D01*
X113742192Y-64826554D01*
X113837430Y-64778935D01*
X113885049Y-64731316D01*
X113932668Y-64636078D01*
X113932668Y-64445601D01*
X113885049Y-64350363D01*
X113837430Y-64302744D01*
X113742192Y-64255125D01*
%TO.C,C8*%
X112023822Y-69764266D02*
X112071441Y-69811885D01*
X112119060Y-69954742D01*
X112119060Y-70049980D01*
X112071441Y-70192838D01*
X111976203Y-70288076D01*
X111880965Y-70335695D01*
X111690489Y-70383314D01*
X111547632Y-70383314D01*
X111357156Y-70335695D01*
X111261918Y-70288076D01*
X111166680Y-70192838D01*
X111119060Y-70049980D01*
X111119060Y-69954742D01*
X111166680Y-69811885D01*
X111214299Y-69764266D01*
X111547632Y-69192838D02*
X111500013Y-69288076D01*
X111452394Y-69335695D01*
X111357156Y-69383314D01*
X111309537Y-69383314D01*
X111214299Y-69335695D01*
X111166680Y-69288076D01*
X111119060Y-69192838D01*
X111119060Y-69002361D01*
X111166680Y-68907123D01*
X111214299Y-68859504D01*
X111309537Y-68811885D01*
X111357156Y-68811885D01*
X111452394Y-68859504D01*
X111500013Y-68907123D01*
X111547632Y-69002361D01*
X111547632Y-69192838D01*
X111595251Y-69288076D01*
X111642870Y-69335695D01*
X111738108Y-69383314D01*
X111928584Y-69383314D01*
X112023822Y-69335695D01*
X112071441Y-69288076D01*
X112119060Y-69192838D01*
X112119060Y-69002361D01*
X112071441Y-68907123D01*
X112023822Y-68859504D01*
X111928584Y-68811885D01*
X111738108Y-68811885D01*
X111642870Y-68859504D01*
X111595251Y-68907123D01*
X111547632Y-69002361D01*
%TO.C,C7*%
X122866942Y-59228266D02*
X122914561Y-59275885D01*
X122962180Y-59418742D01*
X122962180Y-59513980D01*
X122914561Y-59656838D01*
X122819323Y-59752076D01*
X122724085Y-59799695D01*
X122533609Y-59847314D01*
X122390752Y-59847314D01*
X122200276Y-59799695D01*
X122105038Y-59752076D01*
X122009800Y-59656838D01*
X121962180Y-59513980D01*
X121962180Y-59418742D01*
X122009800Y-59275885D01*
X122057419Y-59228266D01*
X121962180Y-58894933D02*
X121962180Y-58228266D01*
X122962180Y-58656838D01*
%TO.C,C6*%
X104006982Y-59586306D02*
X104054601Y-59633925D01*
X104102220Y-59776782D01*
X104102220Y-59872020D01*
X104054601Y-60014878D01*
X103959363Y-60110116D01*
X103864125Y-60157735D01*
X103673649Y-60205354D01*
X103530792Y-60205354D01*
X103340316Y-60157735D01*
X103245078Y-60110116D01*
X103149840Y-60014878D01*
X103102220Y-59872020D01*
X103102220Y-59776782D01*
X103149840Y-59633925D01*
X103197459Y-59586306D01*
X103102220Y-58729163D02*
X103102220Y-58919640D01*
X103149840Y-59014878D01*
X103197459Y-59062497D01*
X103340316Y-59157735D01*
X103530792Y-59205354D01*
X103911744Y-59205354D01*
X104006982Y-59157735D01*
X104054601Y-59110116D01*
X104102220Y-59014878D01*
X104102220Y-58824401D01*
X104054601Y-58729163D01*
X104006982Y-58681544D01*
X103911744Y-58633925D01*
X103673649Y-58633925D01*
X103578411Y-58681544D01*
X103530792Y-58729163D01*
X103483173Y-58824401D01*
X103483173Y-59014878D01*
X103530792Y-59110116D01*
X103578411Y-59157735D01*
X103673649Y-59205354D01*
%TO.C,C5*%
X137370942Y-83246666D02*
X137418561Y-83294285D01*
X137466180Y-83437142D01*
X137466180Y-83532380D01*
X137418561Y-83675238D01*
X137323323Y-83770476D01*
X137228085Y-83818095D01*
X137037609Y-83865714D01*
X136894752Y-83865714D01*
X136704276Y-83818095D01*
X136609038Y-83770476D01*
X136513800Y-83675238D01*
X136466180Y-83532380D01*
X136466180Y-83437142D01*
X136513800Y-83294285D01*
X136561419Y-83246666D01*
X136466180Y-82341904D02*
X136466180Y-82818095D01*
X136942371Y-82865714D01*
X136894752Y-82818095D01*
X136847133Y-82722857D01*
X136847133Y-82484761D01*
X136894752Y-82389523D01*
X136942371Y-82341904D01*
X137037609Y-82294285D01*
X137275704Y-82294285D01*
X137370942Y-82341904D01*
X137418561Y-82389523D01*
X137466180Y-82484761D01*
X137466180Y-82722857D01*
X137418561Y-82818095D01*
X137370942Y-82865714D01*
%TO.C,C4*%
X91992142Y-88399466D02*
X92039761Y-88447085D01*
X92087380Y-88589942D01*
X92087380Y-88685180D01*
X92039761Y-88828038D01*
X91944523Y-88923276D01*
X91849285Y-88970895D01*
X91658809Y-89018514D01*
X91515952Y-89018514D01*
X91325476Y-88970895D01*
X91230238Y-88923276D01*
X91135000Y-88828038D01*
X91087380Y-88685180D01*
X91087380Y-88589942D01*
X91135000Y-88447085D01*
X91182619Y-88399466D01*
X91420714Y-87542323D02*
X92087380Y-87542323D01*
X91039761Y-87780419D02*
X91754047Y-88018514D01*
X91754047Y-87399466D01*
%TO.C,C3*%
X120167422Y-70078586D02*
X120215041Y-70126205D01*
X120262660Y-70269062D01*
X120262660Y-70364300D01*
X120215041Y-70507158D01*
X120119803Y-70602396D01*
X120024565Y-70650015D01*
X119834089Y-70697634D01*
X119691232Y-70697634D01*
X119500756Y-70650015D01*
X119405518Y-70602396D01*
X119310280Y-70507158D01*
X119262660Y-70364300D01*
X119262660Y-70269062D01*
X119310280Y-70126205D01*
X119357899Y-70078586D01*
X119262660Y-69745253D02*
X119262660Y-69126205D01*
X119643613Y-69459539D01*
X119643613Y-69316681D01*
X119691232Y-69221443D01*
X119738851Y-69173824D01*
X119834089Y-69126205D01*
X120072184Y-69126205D01*
X120167422Y-69173824D01*
X120215041Y-69221443D01*
X120262660Y-69316681D01*
X120262660Y-69602396D01*
X120215041Y-69697634D01*
X120167422Y-69745253D01*
%TO.C,C2*%
X94857142Y-97116666D02*
X94904761Y-97164285D01*
X94952380Y-97307142D01*
X94952380Y-97402380D01*
X94904761Y-97545238D01*
X94809523Y-97640476D01*
X94714285Y-97688095D01*
X94523809Y-97735714D01*
X94380952Y-97735714D01*
X94190476Y-97688095D01*
X94095238Y-97640476D01*
X94000000Y-97545238D01*
X93952380Y-97402380D01*
X93952380Y-97307142D01*
X94000000Y-97164285D01*
X94047619Y-97116666D01*
X94047619Y-96735714D02*
X94000000Y-96688095D01*
X93952380Y-96592857D01*
X93952380Y-96354761D01*
X94000000Y-96259523D01*
X94047619Y-96211904D01*
X94142857Y-96164285D01*
X94238095Y-96164285D01*
X94380952Y-96211904D01*
X94952380Y-96783333D01*
X94952380Y-96164285D01*
%TO.C,C1*%
X124594622Y-70180186D02*
X124642241Y-70227805D01*
X124689860Y-70370662D01*
X124689860Y-70465900D01*
X124642241Y-70608758D01*
X124547003Y-70703996D01*
X124451765Y-70751615D01*
X124261289Y-70799234D01*
X124118432Y-70799234D01*
X123927956Y-70751615D01*
X123832718Y-70703996D01*
X123737480Y-70608758D01*
X123689860Y-70465900D01*
X123689860Y-70370662D01*
X123737480Y-70227805D01*
X123785099Y-70180186D01*
X124689860Y-69227805D02*
X124689860Y-69799234D01*
X124689860Y-69513520D02*
X123689860Y-69513520D01*
X123832718Y-69608758D01*
X123927956Y-69703996D01*
X123975575Y-69799234D01*
%TO.C,J2*%
X121647380Y-54208333D02*
X122361666Y-54208333D01*
X122504523Y-54255952D01*
X122599761Y-54351190D01*
X122647380Y-54494047D01*
X122647380Y-54589285D01*
X121742619Y-53779761D02*
X121695000Y-53732142D01*
X121647380Y-53636904D01*
X121647380Y-53398809D01*
X121695000Y-53303571D01*
X121742619Y-53255952D01*
X121837857Y-53208333D01*
X121933095Y-53208333D01*
X122075952Y-53255952D01*
X122647380Y-53827380D01*
X122647380Y-53208333D01*
%TD*%
M02*
