<?xml version="1.0" standalone="no"?>
 <!DOCTYPE svg PUBLIC "-//W3C//DTD SVG 1.1//EN" 
 "http://www.w3.org/Graphics/SVG/1.1/DTD/svg11.dtd"> 
<svg xmlns="http://www.w3.org/2000/svg" version="1.1" 
    width="29.7002cm" height="21.0007cm" viewBox="0 0 116930 82680 ">
<title>SVG Picture created as Template-B_Cu.svg date 2021/01/18 22:44:55 </title>
  <desc>Picture generated by PCBNEW </desc>
<g style="fill:#000000; fill-opacity:1;stroke:#000000; stroke-opacity:1;
stroke-linecap:round; stroke-linejoin:round; "
 transform="translate(0 0) scale(1 1)">
</g>
<g style="fill:#000000; fill-opacity:0.0; 
stroke:#000000; stroke-width:-0.000393701; stroke-opacity:1; 
stroke-linecap:round; stroke-linejoin:round;">
<g >
</g>
<g >
</g>
<g >
</g>
<g >
</g>
<g >
</g>
<g >
</g>
<g >
</g>
<g >
</g>
<g style="fill:#000000; fill-opacity:1.0; 
stroke:#000000; stroke-width:0; stroke-opacity:1; 
stroke-linecap:round; stroke-linejoin:round;">
<circle cx="39775" cy="42425.2" r="322.835" /> 
</g>
<g style="fill:#000000; fill-opacity:1.0; 
stroke:#000000; stroke-width:39.3701; stroke-opacity:1; 
stroke-linecap:round; stroke-linejoin:round;">
</g>
<g style="fill:#000000; fill-opacity:1.0; 
stroke:#000000; stroke-width:0; stroke-opacity:1; 
stroke-linecap:round; stroke-linejoin:round;">
<circle cx="39775" cy="43425.2" r="322.835" /> 
</g>
<g style="fill:#000000; fill-opacity:1.0; 
stroke:#000000; stroke-width:39.3701; stroke-opacity:1; 
stroke-linecap:round; stroke-linejoin:round;">
</g>
<g style="fill:#000000; fill-opacity:1.0; 
stroke:#000000; stroke-width:0; stroke-opacity:1; 
stroke-linecap:round; stroke-linejoin:round;">
<circle cx="40775" cy="42425.2" r="322.835" /> 
</g>
<g style="fill:#000000; fill-opacity:1.0; 
stroke:#000000; stroke-width:39.3701; stroke-opacity:1; 
stroke-linecap:round; stroke-linejoin:round;">
</g>
<g style="fill:#000000; fill-opacity:1.0; 
stroke:#000000; stroke-width:0; stroke-opacity:1; 
stroke-linecap:round; stroke-linejoin:round;">
<circle cx="40775" cy="43425.2" r="322.835" /> 
</g>
<g style="fill:#000000; fill-opacity:1.0; 
stroke:#000000; stroke-width:39.3701; stroke-opacity:1; 
stroke-linecap:round; stroke-linejoin:round;">
</g>
<g style="fill:#000000; fill-opacity:1.0; 
stroke:#000000; stroke-width:0; stroke-opacity:1; 
stroke-linecap:round; stroke-linejoin:round;">
<circle cx="41775" cy="42425.2" r="322.835" /> 
</g>
<g style="fill:#000000; fill-opacity:1.0; 
stroke:#000000; stroke-width:39.3701; stroke-opacity:1; 
stroke-linecap:round; stroke-linejoin:round;">
</g>
<g style="fill:#000000; fill-opacity:1.0; 
stroke:#000000; stroke-width:0; stroke-opacity:1; 
stroke-linecap:round; stroke-linejoin:round;">
<circle cx="41775" cy="43425.2" r="322.835" /> 
</g>
<g style="fill:#000000; fill-opacity:1.0; 
stroke:#000000; stroke-width:39.3701; stroke-opacity:1; 
stroke-linecap:round; stroke-linejoin:round;">
</g>
<g style="fill:#000000; fill-opacity:1.0; 
stroke:#000000; stroke-width:0; stroke-opacity:1; 
stroke-linecap:round; stroke-linejoin:round;">
<circle cx="42775" cy="42425.2" r="322.835" /> 
</g>
<g style="fill:#000000; fill-opacity:1.0; 
stroke:#000000; stroke-width:39.3701; stroke-opacity:1; 
stroke-linecap:round; stroke-linejoin:round;">
</g>
<g style="fill:#000000; fill-opacity:1.0; 
stroke:#000000; stroke-width:0; stroke-opacity:1; 
stroke-linecap:round; stroke-linejoin:round;">
<circle cx="42775" cy="43425.2" r="322.835" /> 
</g>
<g style="fill:#000000; fill-opacity:1.0; 
stroke:#000000; stroke-width:39.3701; stroke-opacity:1; 
stroke-linecap:round; stroke-linejoin:round;">
</g>
<g style="fill:#000000; fill-opacity:1.0; 
stroke:#000000; stroke-width:0; stroke-opacity:1; 
stroke-linecap:round; stroke-linejoin:round;">
<circle cx="43775" cy="42425.2" r="322.835" /> 
</g>
<g style="fill:#000000; fill-opacity:1.0; 
stroke:#000000; stroke-width:39.3701; stroke-opacity:1; 
stroke-linecap:round; stroke-linejoin:round;">
</g>
<g style="fill:#000000; fill-opacity:1.0; 
stroke:#000000; stroke-width:0; stroke-opacity:1; 
stroke-linecap:round; stroke-linejoin:round;">
<circle cx="43775" cy="43425.2" r="322.835" /> 
</g>
<g style="fill:#000000; fill-opacity:1.0; 
stroke:#000000; stroke-width:39.3701; stroke-opacity:1; 
stroke-linecap:round; stroke-linejoin:round;">
</g>
<g style="fill:#000000; fill-opacity:1.0; 
stroke:#000000; stroke-width:0; stroke-opacity:1; 
stroke-linecap:round; stroke-linejoin:round;">
<circle cx="44775" cy="42425.2" r="322.835" /> 
</g>
<g style="fill:#000000; fill-opacity:1.0; 
stroke:#000000; stroke-width:39.3701; stroke-opacity:1; 
stroke-linecap:round; stroke-linejoin:round;">
</g>
<g style="fill:#000000; fill-opacity:1.0; 
stroke:#000000; stroke-width:0; stroke-opacity:1; 
stroke-linecap:round; stroke-linejoin:round;">
<circle cx="44775" cy="43425.2" r="322.835" /> 
</g>
<g style="fill:#000000; fill-opacity:1.0; 
stroke:#000000; stroke-width:39.3701; stroke-opacity:1; 
stroke-linecap:round; stroke-linejoin:round;">
</g>
<g style="fill:#000000; fill-opacity:1.0; 
stroke:#000000; stroke-width:0; stroke-opacity:1; 
stroke-linecap:round; stroke-linejoin:round;">
<circle cx="45775" cy="42425.2" r="322.835" /> 
</g>
<g style="fill:#000000; fill-opacity:1.0; 
stroke:#000000; stroke-width:39.3701; stroke-opacity:1; 
stroke-linecap:round; stroke-linejoin:round;">
</g>
<g style="fill:#000000; fill-opacity:1.0; 
stroke:#000000; stroke-width:0; stroke-opacity:1; 
stroke-linecap:round; stroke-linejoin:round;">
<circle cx="45775" cy="43425.2" r="322.835" /> 
</g>
<g style="fill:#000000; fill-opacity:1.0; 
stroke:#000000; stroke-width:39.3701; stroke-opacity:1; 
stroke-linecap:round; stroke-linejoin:round;">
</g>
<g style="fill:#000000; fill-opacity:1.0; 
stroke:#000000; stroke-width:0; stroke-opacity:1; 
stroke-linecap:round; stroke-linejoin:round;">
<circle cx="46775" cy="42425.2" r="322.835" /> 
</g>
<g style="fill:#000000; fill-opacity:1.0; 
stroke:#000000; stroke-width:39.3701; stroke-opacity:1; 
stroke-linecap:round; stroke-linejoin:round;">
</g>
<g style="fill:#000000; fill-opacity:1.0; 
stroke:#000000; stroke-width:0; stroke-opacity:1; 
stroke-linecap:round; stroke-linejoin:round;">
<circle cx="46775" cy="43425.2" r="322.835" /> 
</g>
<g style="fill:#000000; fill-opacity:1.0; 
stroke:#000000; stroke-width:39.3701; stroke-opacity:1; 
stroke-linecap:round; stroke-linejoin:round;">
</g>
<g style="fill:#000000; fill-opacity:1.0; 
stroke:#000000; stroke-width:0; stroke-opacity:1; 
stroke-linecap:round; stroke-linejoin:round;">
<circle cx="47775" cy="42425.2" r="322.835" /> 
</g>
<g style="fill:#000000; fill-opacity:1.0; 
stroke:#000000; stroke-width:39.3701; stroke-opacity:1; 
stroke-linecap:round; stroke-linejoin:round;">
</g>
<g style="fill:#000000; fill-opacity:1.0; 
stroke:#000000; stroke-width:0; stroke-opacity:1; 
stroke-linecap:round; stroke-linejoin:round;">
<circle cx="47775" cy="43425.2" r="322.835" /> 
</g>
<g style="fill:#000000; fill-opacity:1.0; 
stroke:#000000; stroke-width:39.3701; stroke-opacity:1; 
stroke-linecap:round; stroke-linejoin:round;">
</g>
<g style="fill:#000000; fill-opacity:1.0; 
stroke:#000000; stroke-width:0; stroke-opacity:1; 
stroke-linecap:round; stroke-linejoin:round;">
<circle cx="48775" cy="42425.2" r="322.835" /> 
</g>
<g style="fill:#000000; fill-opacity:1.0; 
stroke:#000000; stroke-width:39.3701; stroke-opacity:1; 
stroke-linecap:round; stroke-linejoin:round;">
</g>
<g style="fill:#000000; fill-opacity:1.0; 
stroke:#000000; stroke-width:0; stroke-opacity:1; 
stroke-linecap:round; stroke-linejoin:round;">
<circle cx="48775" cy="43425.2" r="322.835" /> 
</g>
<g style="fill:#000000; fill-opacity:1.0; 
stroke:#000000; stroke-width:39.3701; stroke-opacity:1; 
stroke-linecap:round; stroke-linejoin:round;">
</g>
<g style="fill:#000000; fill-opacity:1.0; 
stroke:#000000; stroke-width:0; stroke-opacity:1; 
stroke-linecap:round; stroke-linejoin:round;">
<circle cx="49775" cy="42425.2" r="322.835" /> 
</g>
<g style="fill:#000000; fill-opacity:1.0; 
stroke:#000000; stroke-width:39.3701; stroke-opacity:1; 
stroke-linecap:round; stroke-linejoin:round;">
</g>
<g style="fill:#000000; fill-opacity:1.0; 
stroke:#000000; stroke-width:0; stroke-opacity:1; 
stroke-linecap:round; stroke-linejoin:round;">
<circle cx="49775" cy="43425.2" r="322.835" /> 
</g>
<g style="fill:#000000; fill-opacity:1.0; 
stroke:#000000; stroke-width:39.3701; stroke-opacity:1; 
stroke-linecap:round; stroke-linejoin:round;">
</g>
<g style="fill:#000000; fill-opacity:1.0; 
stroke:#000000; stroke-width:0; stroke-opacity:1; 
stroke-linecap:round; stroke-linejoin:round;">
<circle cx="50775" cy="42425.2" r="322.835" /> 
</g>
<g style="fill:#000000; fill-opacity:1.0; 
stroke:#000000; stroke-width:39.3701; stroke-opacity:1; 
stroke-linecap:round; stroke-linejoin:round;">
</g>
<g style="fill:#000000; fill-opacity:1.0; 
stroke:#000000; stroke-width:0; stroke-opacity:1; 
stroke-linecap:round; stroke-linejoin:round;">
<circle cx="50775" cy="43425.2" r="322.835" /> 
</g>
<g style="fill:#000000; fill-opacity:1.0; 
stroke:#000000; stroke-width:39.3701; stroke-opacity:1; 
stroke-linecap:round; stroke-linejoin:round;">
</g>
<g >
</g>
<g >
</g>
<g style="fill:#000000; fill-opacity:1.0; 
stroke:#000000; stroke-width:0; stroke-opacity:1; 
stroke-linecap:round; stroke-linejoin:round;">
<path style="fill:#000000; fill-opacity:1.0; 
stroke:#000000; stroke-width:0; stroke-opacity:1; 
stroke-linecap:round; stroke-linejoin:round;fill-rule:evenodd;"
d="M 52627,21584
52627,21053
53159,21053
53159,21584
52627,21584
Z" /> 
</g>
<g >
<path style="fill:#000000; fill-opacity:1.0; 
stroke:#000000; stroke-width:0; stroke-opacity:1; 
stroke-linecap:round; stroke-linejoin:round;fill-rule:evenodd;"
d="M 53838,21584
53838,21053
54370,21053
54370,21584
53838,21584
Z" /> 
</g>
<g >
<path style="fill:#000000; fill-opacity:1.0; 
stroke:#000000; stroke-width:0; stroke-opacity:1; 
stroke-linecap:round; stroke-linejoin:round;fill-rule:evenodd;"
d="M 39311,21663
39311,21131
39842,21131
39842,21663
39311,21663
Z" /> 
</g>
<g >
<path style="fill:#000000; fill-opacity:1.0; 
stroke:#000000; stroke-width:0; stroke-opacity:1; 
stroke-linecap:round; stroke-linejoin:round;fill-rule:evenodd;"
d="M 36909,21663
36909,21131
37440,21131
37440,21663
36909,21663
Z" /> 
</g>
<g >
<path style="fill:#000000; fill-opacity:1.0; 
stroke:#000000; stroke-width:0; stroke-opacity:1; 
stroke-linecap:round; stroke-linejoin:round;fill-rule:evenodd;"
d="M 38110,21663
38110,21131
38641,21131
38641,21663
38110,21663
Z" /> 
</g>
<g >
<path style="fill:#000000; fill-opacity:1.0; 
stroke:#000000; stroke-width:0; stroke-opacity:1; 
stroke-linecap:round; stroke-linejoin:round;fill-rule:evenodd;"
d="M 51407,21584
51407,21053
51938,21053
51938,21584
51407,21584
Z" /> 
</g>
<g >
</g>
<g >
</g>
<g >
</g>
<g >
</g>
<g >
</g>
<g >
</g>
<g >
</g>
<g >
</g>
<g >
</g>
<g >
</g>
<g >
</g>
<g >
</g>
<g >
</g>
<g >
</g>
<g >
</g>
<g >
</g>
<g >
</g>
<g >
</g>
<g >
</g>
<g >
</g>
<g >
</g>
<g >
</g>
<g >
</g>
<g >
</g>
<g >
</g>
<g >
</g>
<g >
</g>
<g >
</g>
<g >
</g>
<g >
</g>
<g >
</g>
<g >
</g>
<g >
</g>
<g >
</g>
<g >
</g>
<g >
</g>
<g >
</g>
<g >
</g>
<g >
</g>
<g >
</g>
<g >
</g>
<g >
</g>
<g >
</g>
<g >
</g>
<g >
</g>
<g >
</g>
<g >
</g>
<g >
</g>
<g >
</g>
<g >
</g>
<g >
</g>
<g >
</g>
<g >
</g>
<g >
</g>
<g >
</g>
<g >
</g>
<g >
</g>
<g >
</g>
<g >
</g>
<g >
<path style="fill:#000000; fill-opacity:1.0; 
stroke:#000000; stroke-width:0; stroke-opacity:1; 
stroke-linecap:round; stroke-linejoin:round;fill-rule:evenodd;"
d="M 47244,21013
47637,21013
47637,21407
47244,21407
47244,21013
Z" /> 
</g>
<g style="fill:#000000; fill-opacity:1.0; 
stroke:#000000; stroke-width:393.701; stroke-opacity:1; 
stroke-linecap:round; stroke-linejoin:round;">
</g>
<g style="fill:#000000; fill-opacity:0.0; 
stroke:#000000; stroke-width:393.701; stroke-opacity:1; 
stroke-linecap:round; stroke-linejoin:round;">
<path d="M46940 21210
L46940 21210
" />
<path d="M46440 21210
L46440 21210
" />
<path d="M45940 21210
L45940 21210
" />
<path d="M45440 21210
L45440 21210
" />
<path d="M44940 21210
L44940 21210
" />
<path d="M44440 21210
L44440 21210
" />
<path d="M43940 21210
L43940 21210
" />
<path d="M43440 21210
L43440 21210
" />
</g>
<g >
</g>
<g style="fill:#000000; fill-opacity:1.0; 
stroke:#000000; stroke-width:0; stroke-opacity:1; 
stroke-linecap:round; stroke-linejoin:round;">
<circle cx="49622" cy="37933.1" r="157.48" /> 
</g>
<g style="fill:#000000; fill-opacity:1.0; 
stroke:#000000; stroke-width:39.3701; stroke-opacity:1; 
stroke-linecap:round; stroke-linejoin:round;">
</g>
<g style="fill:#000000; fill-opacity:1.0; 
stroke:#000000; stroke-width:0; stroke-opacity:1; 
stroke-linecap:round; stroke-linejoin:round;">
<circle cx="46570.9" cy="26791.3" r="157.48" /> 
</g>
<g style="fill:#000000; fill-opacity:1.0; 
stroke:#000000; stroke-width:39.3701; stroke-opacity:1; 
stroke-linecap:round; stroke-linejoin:round;">
</g>
<g style="fill:#000000; fill-opacity:1.0; 
stroke:#000000; stroke-width:0; stroke-opacity:1; 
stroke-linecap:round; stroke-linejoin:round;">
<circle cx="46610.2" cy="34744.1" r="157.48" /> 
</g>
<g style="fill:#000000; fill-opacity:1.0; 
stroke:#000000; stroke-width:39.3701; stroke-opacity:1; 
stroke-linecap:round; stroke-linejoin:round;">
</g>
<g style="fill:#000000; fill-opacity:1.0; 
stroke:#000000; stroke-width:0; stroke-opacity:1; 
stroke-linecap:round; stroke-linejoin:round;">
<circle cx="51884.3" cy="31651.3" r="157.48" /> 
</g>
<g style="fill:#000000; fill-opacity:1.0; 
stroke:#000000; stroke-width:39.3701; stroke-opacity:1; 
stroke-linecap:round; stroke-linejoin:round;">
</g>
<g style="fill:#000000; fill-opacity:1.0; 
stroke:#000000; stroke-width:0; stroke-opacity:1; 
stroke-linecap:round; stroke-linejoin:round;">
<circle cx="51884.3" cy="29171" r="157.48" /> 
</g>
<g style="fill:#000000; fill-opacity:1.0; 
stroke:#000000; stroke-width:39.3701; stroke-opacity:1; 
stroke-linecap:round; stroke-linejoin:round;">
</g>
<g style="fill:#000000; fill-opacity:1.0; 
stroke:#000000; stroke-width:0; stroke-opacity:1; 
stroke-linecap:round; stroke-linejoin:round;">
<circle cx="43173.2" cy="32645.7" r="157.48" /> 
</g>
<g style="fill:#000000; fill-opacity:1.0; 
stroke:#000000; stroke-width:39.3701; stroke-opacity:1; 
stroke-linecap:round; stroke-linejoin:round;">
</g>
<g style="fill:#000000; fill-opacity:1.0; 
stroke:#000000; stroke-width:0; stroke-opacity:1; 
stroke-linecap:round; stroke-linejoin:round;">
<circle cx="43173.5" cy="33141.4" r="157.48" /> 
</g>
<g style="fill:#000000; fill-opacity:1.0; 
stroke:#000000; stroke-width:39.3701; stroke-opacity:1; 
stroke-linecap:round; stroke-linejoin:round;">
</g>
<g style="fill:#000000; fill-opacity:1.0; 
stroke:#000000; stroke-width:0; stroke-opacity:1; 
stroke-linecap:round; stroke-linejoin:round;">
<circle cx="37388.3" cy="31517.5" r="157.48" /> 
</g>
<g style="fill:#000000; fill-opacity:1.0; 
stroke:#000000; stroke-width:39.3701; stroke-opacity:1; 
stroke-linecap:round; stroke-linejoin:round;">
</g>
<g style="fill:#000000; fill-opacity:1.0; 
stroke:#000000; stroke-width:0; stroke-opacity:1; 
stroke-linecap:round; stroke-linejoin:round;">
<circle cx="42805.1" cy="34242.1" r="157.48" /> 
</g>
<g style="fill:#000000; fill-opacity:1.0; 
stroke:#000000; stroke-width:39.3701; stroke-opacity:1; 
stroke-linecap:round; stroke-linejoin:round;">
</g>
<g style="fill:#000000; fill-opacity:1.0; 
stroke:#000000; stroke-width:0; stroke-opacity:1; 
stroke-linecap:round; stroke-linejoin:round;">
<circle cx="40972.4" cy="34242.1" r="157.48" /> 
</g>
<g style="fill:#000000; fill-opacity:1.0; 
stroke:#000000; stroke-width:39.3701; stroke-opacity:1; 
stroke-linecap:round; stroke-linejoin:round;">
</g>
<g style="fill:#000000; fill-opacity:1.0; 
stroke:#000000; stroke-width:0; stroke-opacity:1; 
stroke-linecap:round; stroke-linejoin:round;">
<circle cx="49051.2" cy="32718.5" r="157.48" /> 
</g>
<g style="fill:#000000; fill-opacity:1.0; 
stroke:#000000; stroke-width:39.3701; stroke-opacity:1; 
stroke-linecap:round; stroke-linejoin:round;">
</g>
<g style="fill:#000000; fill-opacity:1.0; 
stroke:#000000; stroke-width:0; stroke-opacity:1; 
stroke-linecap:round; stroke-linejoin:round;">
<circle cx="50978.8" cy="31651.3" r="157.48" /> 
</g>
<g style="fill:#000000; fill-opacity:1.0; 
stroke:#000000; stroke-width:39.3701; stroke-opacity:1; 
stroke-linecap:round; stroke-linejoin:round;">
</g>
<g style="fill:#000000; fill-opacity:1.0; 
stroke:#000000; stroke-width:0; stroke-opacity:1; 
stroke-linecap:round; stroke-linejoin:round;">
<circle cx="43110.2" cy="26622" r="157.48" /> 
</g>
<g style="fill:#000000; fill-opacity:1.0; 
stroke:#000000; stroke-width:39.3701; stroke-opacity:1; 
stroke-linecap:round; stroke-linejoin:round;">
</g>
<g style="fill:#000000; fill-opacity:1.0; 
stroke:#000000; stroke-width:0; stroke-opacity:1; 
stroke-linecap:round; stroke-linejoin:round;">
<circle cx="47110.2" cy="25029.9" r="157.48" /> 
</g>
<g style="fill:#000000; fill-opacity:1.0; 
stroke:#000000; stroke-width:39.3701; stroke-opacity:1; 
stroke-linecap:round; stroke-linejoin:round;">
</g>
<g style="fill:#000000; fill-opacity:1.0; 
stroke:#000000; stroke-width:0; stroke-opacity:1; 
stroke-linecap:round; stroke-linejoin:round;">
<circle cx="48496.1" cy="25795.3" r="157.48" /> 
</g>
<g style="fill:#000000; fill-opacity:1.0; 
stroke:#000000; stroke-width:39.3701; stroke-opacity:1; 
stroke-linecap:round; stroke-linejoin:round;">
</g>
<g style="fill:#000000; fill-opacity:1.0; 
stroke:#000000; stroke-width:0; stroke-opacity:1; 
stroke-linecap:round; stroke-linejoin:round;">
<circle cx="46168.5" cy="24578.7" r="157.48" /> 
</g>
<g style="fill:#000000; fill-opacity:1.0; 
stroke:#000000; stroke-width:39.3701; stroke-opacity:1; 
stroke-linecap:round; stroke-linejoin:round;">
</g>
<g style="fill:#000000; fill-opacity:1.0; 
stroke:#000000; stroke-width:0; stroke-opacity:1; 
stroke-linecap:round; stroke-linejoin:round;">
<circle cx="43366.1" cy="24362.2" r="157.48" /> 
</g>
<g style="fill:#000000; fill-opacity:1.0; 
stroke:#000000; stroke-width:39.3701; stroke-opacity:1; 
stroke-linecap:round; stroke-linejoin:round;">
</g>
<g style="fill:#000000; fill-opacity:1.0; 
stroke:#000000; stroke-width:0; stroke-opacity:1; 
stroke-linecap:round; stroke-linejoin:round;">
<circle cx="43311" cy="25259.8" r="157.48" /> 
</g>
<g style="fill:#000000; fill-opacity:1.0; 
stroke:#000000; stroke-width:39.3701; stroke-opacity:1; 
stroke-linecap:round; stroke-linejoin:round;">
</g>
<g style="fill:#000000; fill-opacity:1.0; 
stroke:#000000; stroke-width:0; stroke-opacity:1; 
stroke-linecap:round; stroke-linejoin:round;">
<circle cx="47015.7" cy="26204.7" r="157.48" /> 
</g>
<g style="fill:#000000; fill-opacity:1.0; 
stroke:#000000; stroke-width:39.3701; stroke-opacity:1; 
stroke-linecap:round; stroke-linejoin:round;">
</g>
<g style="fill:#000000; fill-opacity:1.0; 
stroke:#000000; stroke-width:0; stroke-opacity:1; 
stroke-linecap:round; stroke-linejoin:round;">
<circle cx="46685" cy="23405.5" r="157.48" /> 
</g>
<g style="fill:#000000; fill-opacity:1.0; 
stroke:#000000; stroke-width:39.3701; stroke-opacity:1; 
stroke-linecap:round; stroke-linejoin:round;">
</g>
<g style="fill:#000000; fill-opacity:1.0; 
stroke:#000000; stroke-width:0; stroke-opacity:1; 
stroke-linecap:round; stroke-linejoin:round;">
<circle cx="42807.1" cy="23185" r="157.48" /> 
</g>
<g style="fill:#000000; fill-opacity:1.0; 
stroke:#000000; stroke-width:39.3701; stroke-opacity:1; 
stroke-linecap:round; stroke-linejoin:round;">
</g>
<g style="fill:#000000; fill-opacity:1.0; 
stroke:#000000; stroke-width:0; stroke-opacity:1; 
stroke-linecap:round; stroke-linejoin:round;">
<circle cx="43138.3" cy="26268.8" r="157.48" /> 
</g>
<g style="fill:#000000; fill-opacity:1.0; 
stroke:#000000; stroke-width:39.3701; stroke-opacity:1; 
stroke-linecap:round; stroke-linejoin:round;">
</g>
<g style="fill:#000000; fill-opacity:1.0; 
stroke:#000000; stroke-width:0; stroke-opacity:1; 
stroke-linecap:round; stroke-linejoin:round;">
<circle cx="43177.5" cy="23082.7" r="157.48" /> 
</g>
<g style="fill:#000000; fill-opacity:1.0; 
stroke:#000000; stroke-width:39.3701; stroke-opacity:1; 
stroke-linecap:round; stroke-linejoin:round;">
</g>
<g style="fill:#000000; fill-opacity:1.0; 
stroke:#000000; stroke-width:0; stroke-opacity:1; 
stroke-linecap:round; stroke-linejoin:round;">
<circle cx="43755.9" cy="26370.1" r="157.48" /> 
</g>
<g style="fill:#000000; fill-opacity:1.0; 
stroke:#000000; stroke-width:39.3701; stroke-opacity:1; 
stroke-linecap:round; stroke-linejoin:round;">
</g>
<g style="fill:#000000; fill-opacity:1.0; 
stroke:#000000; stroke-width:0; stroke-opacity:1; 
stroke-linecap:round; stroke-linejoin:round;">
<circle cx="47003.9" cy="25779.5" r="157.48" /> 
</g>
<g style="fill:#000000; fill-opacity:1.0; 
stroke:#000000; stroke-width:39.3701; stroke-opacity:1; 
stroke-linecap:round; stroke-linejoin:round;">
</g>
<g style="fill:#000000; fill-opacity:1.0; 
stroke:#000000; stroke-width:0; stroke-opacity:1; 
stroke-linecap:round; stroke-linejoin:round;">
<circle cx="47367.8" cy="23804.3" r="157.48" /> 
</g>
<g style="fill:#000000; fill-opacity:1.0; 
stroke:#000000; stroke-width:39.3701; stroke-opacity:1; 
stroke-linecap:round; stroke-linejoin:round;">
</g>
<g style="fill:#000000; fill-opacity:1.0; 
stroke:#000000; stroke-width:0; stroke-opacity:1; 
stroke-linecap:round; stroke-linejoin:round;">
<circle cx="45444.9" cy="23169.3" r="157.48" /> 
</g>
<g style="fill:#000000; fill-opacity:1.0; 
stroke:#000000; stroke-width:39.3701; stroke-opacity:1; 
stroke-linecap:round; stroke-linejoin:round;">
</g>
<g style="fill:#000000; fill-opacity:1.0; 
stroke:#000000; stroke-width:0; stroke-opacity:1; 
stroke-linecap:round; stroke-linejoin:round;">
<circle cx="45448.8" cy="26519.7" r="157.48" /> 
</g>
<g style="fill:#000000; fill-opacity:1.0; 
stroke:#000000; stroke-width:39.3701; stroke-opacity:1; 
stroke-linecap:round; stroke-linejoin:round;">
</g>
<g style="fill:#000000; fill-opacity:1.0; 
stroke:#000000; stroke-width:0; stroke-opacity:1; 
stroke-linecap:round; stroke-linejoin:round;">
<circle cx="44693.5" cy="27684.5" r="157.48" /> 
</g>
<g style="fill:#000000; fill-opacity:1.0; 
stroke:#000000; stroke-width:39.3701; stroke-opacity:1; 
stroke-linecap:round; stroke-linejoin:round;">
</g>
<g style="fill:#000000; fill-opacity:1.0; 
stroke:#000000; stroke-width:0; stroke-opacity:1; 
stroke-linecap:round; stroke-linejoin:round;">
<circle cx="44712.6" cy="27330.7" r="157.48" /> 
</g>
<g style="fill:#000000; fill-opacity:1.0; 
stroke:#000000; stroke-width:39.3701; stroke-opacity:1; 
stroke-linecap:round; stroke-linejoin:round;">
</g>
<g style="fill:#000000; fill-opacity:1.0; 
stroke:#000000; stroke-width:0; stroke-opacity:1; 
stroke-linecap:round; stroke-linejoin:round;">
<circle cx="44696.5" cy="26976.7" r="157.48" /> 
</g>
<g style="fill:#000000; fill-opacity:1.0; 
stroke:#000000; stroke-width:39.3701; stroke-opacity:1; 
stroke-linecap:round; stroke-linejoin:round;">
</g>
<g style="fill:#000000; fill-opacity:1.0; 
stroke:#000000; stroke-width:0; stroke-opacity:1; 
stroke-linecap:round; stroke-linejoin:round;">
<circle cx="46185" cy="27767.7" r="157.48" /> 
</g>
<g style="fill:#000000; fill-opacity:1.0; 
stroke:#000000; stroke-width:39.3701; stroke-opacity:1; 
stroke-linecap:round; stroke-linejoin:round;">
</g>
<g style="fill:#000000; fill-opacity:1.0; 
stroke:#000000; stroke-width:0; stroke-opacity:1; 
stroke-linecap:round; stroke-linejoin:round;">
<circle cx="40088.6" cy="38405.5" r="157.48" /> 
</g>
<g style="fill:#000000; fill-opacity:1.0; 
stroke:#000000; stroke-width:39.3701; stroke-opacity:1; 
stroke-linecap:round; stroke-linejoin:round;">
</g>
<g style="fill:#000000; fill-opacity:1.0; 
stroke:#000000; stroke-width:0; stroke-opacity:1; 
stroke-linecap:round; stroke-linejoin:round;">
<circle cx="40866.1" cy="37923.2" r="157.48" /> 
</g>
<g style="fill:#000000; fill-opacity:1.0; 
stroke:#000000; stroke-width:39.3701; stroke-opacity:1; 
stroke-linecap:round; stroke-linejoin:round;">
</g>
<g style="fill:#000000; fill-opacity:1.0; 
stroke:#000000; stroke-width:0; stroke-opacity:1; 
stroke-linecap:round; stroke-linejoin:round;">
<circle cx="55108.3" cy="32364.2" r="157.48" /> 
</g>
<g style="fill:#000000; fill-opacity:1.0; 
stroke:#000000; stroke-width:39.3701; stroke-opacity:1; 
stroke-linecap:round; stroke-linejoin:round;">
</g>
<g style="fill:#000000; fill-opacity:1.0; 
stroke:#000000; stroke-width:0; stroke-opacity:1; 
stroke-linecap:round; stroke-linejoin:round;">
<circle cx="55114.2" cy="34541.3" r="157.48" /> 
</g>
<g style="fill:#000000; fill-opacity:1.0; 
stroke:#000000; stroke-width:39.3701; stroke-opacity:1; 
stroke-linecap:round; stroke-linejoin:round;">
</g>
<g style="fill:#000000; fill-opacity:1.0; 
stroke:#000000; stroke-width:0; stroke-opacity:1; 
stroke-linecap:round; stroke-linejoin:round;">
<circle cx="37689" cy="33889.8" r="157.48" /> 
</g>
<g style="fill:#000000; fill-opacity:1.0; 
stroke:#000000; stroke-width:39.3701; stroke-opacity:1; 
stroke-linecap:round; stroke-linejoin:round;">
</g>
<g style="fill:#000000; fill-opacity:1.0; 
stroke:#000000; stroke-width:0; stroke-opacity:1; 
stroke-linecap:round; stroke-linejoin:round;">
<circle cx="38454.7" cy="33887.8" r="157.48" /> 
</g>
<g style="fill:#000000; fill-opacity:1.0; 
stroke:#000000; stroke-width:39.3701; stroke-opacity:1; 
stroke-linecap:round; stroke-linejoin:round;">
</g>
<g style="fill:#000000; fill-opacity:1.0; 
stroke:#000000; stroke-width:0; stroke-opacity:1; 
stroke-linecap:round; stroke-linejoin:round;">
<circle cx="53296.7" cy="33551.2" r="157.48" /> 
</g>
<g style="fill:#000000; fill-opacity:1.0; 
stroke:#000000; stroke-width:39.3701; stroke-opacity:1; 
stroke-linecap:round; stroke-linejoin:round;">
</g>
<g style="fill:#000000; fill-opacity:1.0; 
stroke:#000000; stroke-width:0; stroke-opacity:1; 
stroke-linecap:round; stroke-linejoin:round;">
<circle cx="55108.3" cy="33053.1" r="157.48" /> 
</g>
<g style="fill:#000000; fill-opacity:1.0; 
stroke:#000000; stroke-width:39.3701; stroke-opacity:1; 
stroke-linecap:round; stroke-linejoin:round;">
</g>
<g style="fill:#000000; fill-opacity:1.0; 
stroke:#000000; stroke-width:0; stroke-opacity:1; 
stroke-linecap:round; stroke-linejoin:round;">
<circle cx="49665.4" cy="32722.4" r="157.48" /> 
</g>
<g style="fill:#000000; fill-opacity:1.0; 
stroke:#000000; stroke-width:39.3701; stroke-opacity:1; 
stroke-linecap:round; stroke-linejoin:round;">
</g>
<g style="fill:#000000; fill-opacity:1.0; 
stroke:#000000; stroke-width:0; stroke-opacity:1; 
stroke-linecap:round; stroke-linejoin:round;">
<circle cx="49082.7" cy="33911.4" r="157.48" /> 
</g>
<g style="fill:#000000; fill-opacity:1.0; 
stroke:#000000; stroke-width:39.3701; stroke-opacity:1; 
stroke-linecap:round; stroke-linejoin:round;">
</g>
<g style="fill:#000000; fill-opacity:1.0; 
stroke:#000000; stroke-width:0; stroke-opacity:1; 
stroke-linecap:round; stroke-linejoin:round;">
<circle cx="47078.7" cy="33106.3" r="157.48" /> 
</g>
<g style="fill:#000000; fill-opacity:1.0; 
stroke:#000000; stroke-width:39.3701; stroke-opacity:1; 
stroke-linecap:round; stroke-linejoin:round;">
</g>
<g style="fill:#000000; fill-opacity:1.0; 
stroke:#000000; stroke-width:0; stroke-opacity:1; 
stroke-linecap:round; stroke-linejoin:round;">
<circle cx="47901.7" cy="33907" r="157.48" /> 
</g>
<g style="fill:#000000; fill-opacity:1.0; 
stroke:#000000; stroke-width:39.3701; stroke-opacity:1; 
stroke-linecap:round; stroke-linejoin:round;">
</g>
<g style="fill:#000000; fill-opacity:1.0; 
stroke:#000000; stroke-width:0; stroke-opacity:1; 
stroke-linecap:round; stroke-linejoin:round;">
<circle cx="47740.2" cy="25065" r="157.48" /> 
</g>
<g style="fill:#000000; fill-opacity:1.0; 
stroke:#000000; stroke-width:39.3701; stroke-opacity:1; 
stroke-linecap:round; stroke-linejoin:round;">
</g>
<g style="fill:#000000; fill-opacity:1.0; 
stroke:#000000; stroke-width:0; stroke-opacity:1; 
stroke-linecap:round; stroke-linejoin:round;">
<circle cx="48860.3" cy="24879.1" r="157.48" /> 
</g>
<g style="fill:#000000; fill-opacity:1.0; 
stroke:#000000; stroke-width:39.3701; stroke-opacity:1; 
stroke-linecap:round; stroke-linejoin:round;">
</g>
<g style="fill:#000000; fill-opacity:1.0; 
stroke:#000000; stroke-width:0; stroke-opacity:1; 
stroke-linecap:round; stroke-linejoin:round;">
<circle cx="48862.2" cy="23557.1" r="157.48" /> 
</g>
<g style="fill:#000000; fill-opacity:1.0; 
stroke:#000000; stroke-width:39.3701; stroke-opacity:1; 
stroke-linecap:round; stroke-linejoin:round;">
</g>
<g style="fill:#000000; fill-opacity:1.0; 
stroke:#000000; stroke-width:0; stroke-opacity:1; 
stroke-linecap:round; stroke-linejoin:round;">
<circle cx="48342.4" cy="27179.9" r="157.48" /> 
</g>
<g style="fill:#000000; fill-opacity:1.0; 
stroke:#000000; stroke-width:39.3701; stroke-opacity:1; 
stroke-linecap:round; stroke-linejoin:round;">
</g>
<g style="fill:#000000; fill-opacity:1.0; 
stroke:#000000; stroke-width:0; stroke-opacity:1; 
stroke-linecap:round; stroke-linejoin:round;">
<circle cx="53296.7" cy="34551.2" r="157.48" /> 
</g>
<g style="fill:#000000; fill-opacity:1.0; 
stroke:#000000; stroke-width:39.3701; stroke-opacity:1; 
stroke-linecap:round; stroke-linejoin:round;">
</g>
<g style="fill:#000000; fill-opacity:1.0; 
stroke:#000000; stroke-width:0; stroke-opacity:1; 
stroke-linecap:round; stroke-linejoin:round;">
<circle cx="46701.5" cy="21637.1" r="157.48" /> 
</g>
<g style="fill:#000000; fill-opacity:1.0; 
stroke:#000000; stroke-width:39.3701; stroke-opacity:1; 
stroke-linecap:round; stroke-linejoin:round;">
</g>
<g style="fill:#000000; fill-opacity:1.0; 
stroke:#000000; stroke-width:0; stroke-opacity:1; 
stroke-linecap:round; stroke-linejoin:round;">
<circle cx="44232.3" cy="24793.3" r="157.48" /> 
</g>
<g style="fill:#000000; fill-opacity:1.0; 
stroke:#000000; stroke-width:39.3701; stroke-opacity:1; 
stroke-linecap:round; stroke-linejoin:round;">
</g>
<g style="fill:#000000; fill-opacity:1.0; 
stroke:#000000; stroke-width:0; stroke-opacity:1; 
stroke-linecap:round; stroke-linejoin:round;">
<circle cx="36816.5" cy="32887.3" r="157.48" /> 
</g>
<g style="fill:#000000; fill-opacity:1.0; 
stroke:#000000; stroke-width:39.3701; stroke-opacity:1; 
stroke-linecap:round; stroke-linejoin:round;">
</g>
<g style="fill:#000000; fill-opacity:1.0; 
stroke:#000000; stroke-width:0; stroke-opacity:1; 
stroke-linecap:round; stroke-linejoin:round;">
<circle cx="42794.3" cy="27749.1" r="157.48" /> 
</g>
<g style="fill:#000000; fill-opacity:1.0; 
stroke:#000000; stroke-width:39.3701; stroke-opacity:1; 
stroke-linecap:round; stroke-linejoin:round;">
</g>
<g style="fill:#000000; fill-opacity:1.0; 
stroke:#000000; stroke-width:0; stroke-opacity:1; 
stroke-linecap:round; stroke-linejoin:round;">
<circle cx="44264.3" cy="25951.1" r="157.48" /> 
</g>
<g style="fill:#000000; fill-opacity:1.0; 
stroke:#000000; stroke-width:39.3701; stroke-opacity:1; 
stroke-linecap:round; stroke-linejoin:round;">
</g>
<g style="fill:#000000; fill-opacity:1.0; 
stroke:#000000; stroke-width:0; stroke-opacity:1; 
stroke-linecap:round; stroke-linejoin:round;">
<circle cx="41417" cy="23019.1" r="157.48" /> 
</g>
<g style="fill:#000000; fill-opacity:1.0; 
stroke:#000000; stroke-width:39.3701; stroke-opacity:1; 
stroke-linecap:round; stroke-linejoin:round;">
</g>
<g style="fill:#000000; fill-opacity:1.0; 
stroke:#000000; stroke-width:0; stroke-opacity:1; 
stroke-linecap:round; stroke-linejoin:round;">
<circle cx="41425" cy="25032" r="157.48" /> 
</g>
<g style="fill:#000000; fill-opacity:1.0; 
stroke:#000000; stroke-width:39.3701; stroke-opacity:1; 
stroke-linecap:round; stroke-linejoin:round;">
</g>
<g >
</g>
<g style="fill:#000000; fill-opacity:1.0; 
stroke:#000000; stroke-width:157.48; stroke-opacity:1; 
stroke-linecap:round; stroke-linejoin:round;">
</g>
<g style="fill:#000000; fill-opacity:0.0; 
stroke:#000000; stroke-width:157.48; stroke-opacity:1; 
stroke-linecap:round; stroke-linejoin:round;">
<path d="M51884 31651
L51884 29171
" />
</g>
<g style="fill:#000000; fill-opacity:0.0; 
stroke:#000000; stroke-width:78.7402; stroke-opacity:1; 
stroke-linecap:round; stroke-linejoin:round;">
<path d="M43173 33141
L43173 33141
" />
<path d="M43173 32645
L43173 33141
" />
<path d="M37388 31615
L37388 31517
" />
<path d="M40014 34242
L37388 31615
" />
<path d="M40972 34242
L40014 34242
" />
<path d="M41198 34242
L42805 34242
" />
<path d="M40972 34242
L41198 34242
" />
<path d="M48872 32897
L49051 32718
" />
<path d="M49051 32472
L49872 31651
" />
<path d="M49051 32718
L49051 32472
" />
<path d="M50978 31651
L50548 31651
" />
<path d="M49872 31651
L50548 31651
" />
<path d="M50548 31651
L50604 31651
" />
<path d="M44775 41968
L43507 40701
" />
<path d="M44775 42425
L44775 41968
" />
<path d="M43507 40701
L43507 27019
" />
<path d="M43507 27019
L43110 26622
" />
<path d="M47604 24183
L47602 24185
" />
<path d="M47604 23690
L47604 24183
" />
<path d="M46440 21210
L46440 22527
" />
<path d="M46440 22527
L47604 23690
" />
<path d="M47604 24183
L47604 24536
" />
<path d="M47604 24536
L47110 25029
" />
<path d="M47110 25029
L47875 25795
" />
<path d="M47875 25795
L48496 25795
" />
<path d="M43403 24399
L43366 24362
" />
<path d="M46168 24578
L45989 24399
" />
<path d="M45989 24399
L43403 24399
" />
<path d="M42902 25668
L43311 25259
" />
<path d="M43110 26622
L42902 26413
" />
<path d="M42902 26413
L42902 25668
" />
<path d="M45775 42425
L43767 40417
" />
<path d="M42807 23185
L42964 23342
" />
<path d="M43735 26866
L43138 26268
" />
<path d="M43735 40385
L45775 42425
" />
<path d="M43735 26866
L43735 40385
" />
<path d="M46685 25874
L47015 26204
" />
<path d="M46685 23405
L46685 25874
" />
<path d="M43027 23405
L42807 23185
" />
<path d="M43295 26111
L43138 26268
" />
<path d="M43846 26111
L43295 26111
" />
<path d="M43940 26204
L43846 26111
" />
<path d="M47015 26204
L43940 26204
" />
<path d="M46685 23405
L45972 23405
" />
<path d="M45972 23405
L45952 23405
" />
<path d="M45952 23405
L43027 23405
" />
<path d="M45940 23393
L45952 23405
" />
<path d="M45940 21210
L45940 23393
" />
<path d="M46775 42425
L46519 42169
" />
<path d="M43885 39536
L46775 42425
" />
<path d="M43885 26722
L43885 39536
" />
<path d="M43755 26592
L43885 26722
" />
<path d="M43755 26370
L43755 26592
" />
<path d="M47251 26027
L47003 25779
" />
<path d="M47251 26318
L47251 26027
" />
<path d="M47042 26527
L47251 26318
" />
<path d="M43755 26370
L43913 26527
" />
<path d="M43913 26527
L47042 26527
" />
<path d="M45440 22488
L45440 21210
" />
<path d="M44846 23082
L45440 22488
" />
<path d="M43177 23082
L44846 23082
" />
<path d="M45440 22488
L45440 23165
" />
<path d="M45440 23165
L45444 23169
" />
<path d="M46803 25578
L46803 24141
" />
<path d="M47003 25779
L46803 25578
" />
<path d="M47140 23804
L47367 23804
" />
<path d="M46803 24141
L47140 23804
" />
<path d="M44693 39343
L44693 27684
" />
<path d="M47775 42425
L44693 39343
" />
<path d="M44870 27488
L44712 27330
" />
<path d="M44929 27547
L44870 27488
" />
<path d="M44929 38579
L44929 27547
" />
<path d="M48775 42425
L44929 38579
" />
<path d="M44853 27134
L44696 26976
" />
<path d="M45047 27328
L44853 27134
" />
<path d="M45047 37698
L45047 27328
" />
<path d="M49775 42425
L45047 37698
" />
<path d="M46185 37835
L46185 27767
" />
<path d="M50775 42425
L46185 37835
" />
<path d="M40383 38405
L40866 37923
" />
<path d="M40088 38405
L40383 38405
" />
<path d="M55344 34311
L55114 34541
" />
<path d="M55344 32600
L55344 34311
" />
<path d="M55108 32364
L55344 32600
" />
<path d="M37688 33889
L38452 33889
" />
<path d="M38452 33889
L38454 33887
" />
<path d="M54610 33551
L55108 33053
" />
<path d="M53296 33551
L54610 33551
" />
<path d="M49665 32722
L49665 33206
" />
<path d="M49665 33328
L49082 33911
" />
<path d="M49665 32722
L49665 33328
" />
<path d="M47301 33106
L47078 33106
" />
<path d="M47347 33106
L47301 33106
" />
<path d="M47901 33660
L47347 33106
" />
<path d="M47901 33907
L47901 33660
" />
</g>
<g style="fill:#000000; fill-opacity:0.0; 
stroke:#000000; stroke-width:157.48; stroke-opacity:1; 
stroke-linecap:round; stroke-linejoin:round;">
<path d="M48674 25064
L48860 24879
" />
<path d="M47740 25064
L48674 25064
" />
<path d="M48860 23559
L48862 23557
" />
<path d="M48860 24879
L48860 23559
" />
<path d="M48860 26662
L48860 24879
" />
<path d="M48342 27179
L48860 26662
" />
<path d="M48568 27179
L48342 27179
" />
<path d="M50301 27179
L48568 27179
" />
<path d="M53021 29899
L50301 27179
" />
<path d="M53021 34275
L53021 29899
" />
<path d="M53296 34551
L53021 34275
" />
<path d="M46942 21637
L48862 23557
" />
<path d="M46701 21637
L46942 21637
" />
<path d="M42195 27749
L42567 27749
" />
<path d="M41663 24793
L44232 24793
" />
<path d="M41425 25032
L41663 24793
" />
<path d="M41425 23027
L41417 23019
" />
<path d="M41425 25032
L41425 23027
" />
<path d="M44264 24825
L44232 24793
" />
<path d="M44264 25951
L44264 24825
" />
<path d="M42567 27749
L42794 27749
" />
<path d="M41386 27749
L42567 27749
" />
<path d="M36816 32887
L36816 31681
" />
<path d="M36816 32729
L36816 32887
" />
<path d="M36816 31681
L36816 32729
" />
<path d="M40748 27749
L36816 31681
" />
<path d="M41425 27708
L41465 27749
" />
<path d="M41425 25032
L41425 27708
" />
<path d="M42794 27749
L41465 27749
" />
<path d="M41465 27749
L40748 27749
" />
<path d="M41613 22822
L41417 23019
" />
<path d="M42910 21525
L41613 22822
" />
<path d="M44125 21525
L42910 21525
" />
<path d="M44440 21210
L44125 21525
" />
</g>
<g >
</g>
<g style="fill:#000000; fill-opacity:1.0; 
stroke:#000000; stroke-width:78.7402; stroke-opacity:1; 
stroke-linecap:round; stroke-linejoin:round;">
<path style="fill:#000000; fill-opacity:1.0; 
stroke:#000000; stroke-width:78.7402; stroke-opacity:1; 
stroke-linecap:round; stroke-linejoin:round;fill-rule:evenodd;"
d="M 57653,19867
57741,19891
58043,20035
58314,20230
58547,20470
58733,20748
58866,21051
58960,45336
58936,45608
58848,45930
58704,46232
58509,46503
58269,46736
57992,46922
57686,47056
57360,47135
57083,47155
33468,47155
33131,47125
32809,47037
32507,46893
32236,46698
32003,46458
31817,46181
31683,45875
31604,45549
31584,45272
31584,43822
39463,43822
39493,43915
39594,43960
39702,43985
39813,43988
39922,43970
40026,43931
40056,43915
40086,43822
39775,43510
39463,43822
31584,43822
31584,43463
39211,43463
39229,43572
39269,43676
39284,43706
39377,43736
39689,43425
39860,43425
40172,43736
40265,43706
40310,43605
40335,43497
40338,43386
40338,43385
40373,43385
40373,43464
40388,43542
40419,43615
40463,43681
40519,43737
40584,43781
40657,43811
40735,43826
40814,43826
40892,43811
40965,43781
41030,43737
41086,43681
41130,43615
41161,43542
41176,43464
41176,43385
41373,43385
41373,43464
41388,43542
41419,43615
41463,43681
41519,43737
41584,43781
41657,43811
41735,43826
41814,43826
41892,43811
41965,43781
42030,43737
42086,43681
42130,43615
42161,43542
42176,43464
42176,43385
42373,43385
42373,43464
42388,43542
42419,43615
42463,43681
42519,43737
42584,43781
42657,43811
42735,43826
42814,43826
42892,43811
42965,43781
43030,43737
43086,43681
43130,43615
43161,43542
43176,43464
43176,43385
43373,43385
43373,43464
43388,43542
43419,43615
43463,43681
43519,43737
43584,43781
43657,43811
43735,43826
43814,43826
43892,43811
43965,43781
44030,43737
44086,43681
44130,43615
44161,43542
44176,43464
44176,43385
44373,43385
44373,43464
44388,43542
44419,43615
44463,43681
44519,43737
44584,43781
44657,43811
44735,43826
44814,43826
44892,43811
44965,43781
45030,43737
45086,43681
45130,43615
45161,43542
45176,43464
45176,43385
45373,43385
45373,43464
45388,43542
45419,43615
45463,43681
45519,43737
45584,43781
45657,43811
45735,43826
45814,43826
45892,43811
45965,43781
46030,43737
46086,43681
46130,43615
46161,43542
46176,43464
46176,43385
46373,43385
46373,43464
46388,43542
46419,43615
46463,43681
46519,43737
46584,43781
46657,43811
46735,43826
46814,43826
46892,43811
46965,43781
47030,43737
47086,43681
47130,43615
47161,43542
47176,43464
47176,43385
47373,43385
47373,43464
47388,43542
47419,43615
47463,43681
47519,43737
47584,43781
47657,43811
47735,43826
47814,43826
47892,43811
47965,43781
48030,43737
48086,43681
48130,43615
48161,43542
48176,43464
48176,43385
48373,43385
48373,43464
48388,43542
48419,43615
48463,43681
48519,43737
48584,43781
48657,43811
48735,43826
48814,43826
48892,43811
48965,43781
49030,43737
49086,43681
49130,43615
49161,43542
49176,43464
49176,43385
49373,43385
49373,43464
49388,43542
49419,43615
49463,43681
49519,43737
49584,43781
49657,43811
49735,43826
49814,43826
49835,43822
50463,43822
50493,43915
50594,43960
50702,43985
50813,43988
50922,43970
51026,43931
51056,43915
51086,43822
50775,43510
50463,43822
49835,43822
49892,43811
49965,43781
50030,43737
50086,43681
50130,43615
50161,43542
50176,43464
50176,43463
50211,43463
50229,43572
50269,43676
50284,43706
50377,43736
50689,43425
50860,43425
51172,43736
51265,43706
51310,43605
51335,43497
51338,43386
51320,43277
51280,43173
51265,43144
51172,43113
50860,43425
50689,43425
50377,43113
50284,43144
50239,43245
50214,43353
50211,43463
50176,43463
50176,43385
50161,43308
50130,43234
50086,43169
50030,43113
49965,43069
49892,43039
49835,43027
50463,43027
50775,43339
51086,43027
51056,42935
50955,42889
50847,42864
50736,42861
50627,42879
50523,42919
50493,42935
50463,43027
49835,43027
49814,43023
49735,43023
49657,43039
49584,43069
49519,43113
49463,43169
49419,43234
49388,43308
49373,43385
49176,43385
49161,43308
49130,43234
49086,43169
49030,43113
48965,43069
48892,43039
48814,43023
48735,43023
48657,43039
48584,43069
48519,43113
48463,43169
48419,43234
48388,43308
48373,43385
48176,43385
48161,43308
48130,43234
48086,43169
48030,43113
47965,43069
47892,43039
47814,43023
47735,43023
47657,43039
47584,43069
47519,43113
47463,43169
47419,43234
47388,43308
47373,43385
47176,43385
47161,43308
47130,43234
47086,43169
47030,43113
46965,43069
46892,43039
46814,43023
46735,43023
46657,43039
46584,43069
46519,43113
46463,43169
46419,43234
46388,43308
46373,43385
46176,43385
46161,43308
46130,43234
46086,43169
46030,43113
45965,43069
45892,43039
45814,43023
45735,43023
45657,43039
45584,43069
45519,43113
45463,43169
45419,43234
45388,43308
45373,43385
45176,43385
45161,43308
45130,43234
45086,43169
45030,43113
44965,43069
44892,43039
44814,43023
44735,43023
44657,43039
44584,43069
44519,43113
44463,43169
44419,43234
44388,43308
44373,43385
44176,43385
44161,43308
44130,43234
44086,43169
44030,43113
43965,43069
43892,43039
43814,43023
43735,43023
43657,43039
43584,43069
43519,43113
43463,43169
43419,43234
43388,43308
43373,43385
43176,43385
43161,43308
43130,43234
43086,43169
43030,43113
42965,43069
42892,43039
42814,43023
42735,43023
42657,43039
42584,43069
42519,43113
42463,43169
42419,43234
42388,43308
42373,43385
42176,43385
42161,43308
42130,43234
42086,43169
42030,43113
41965,43069
41892,43039
41814,43023
41735,43023
41657,43039
41584,43069
41519,43113
41463,43169
41419,43234
41388,43308
41373,43385
41176,43385
41161,43308
41130,43234
41086,43169
41030,43113
40965,43069
40892,43039
40814,43023
40735,43023
40657,43039
40584,43069
40519,43113
40463,43169
40419,43234
40388,43308
40373,43385
40338,43385
40320,43277
40280,43173
40265,43144
40172,43113
39860,43425
39689,43425
39377,43113
39284,43144
39239,43245
39214,43353
39211,43463
31584,43463
31584,43027
39463,43027
39775,43339
40086,43027
40056,42935
39955,42889
39847,42864
39736,42861
39627,42879
39523,42919
39493,42935
39463,43027
31584,43027
31584,42385
39373,42385
39373,42464
39388,42542
39419,42615
39463,42681
39519,42737
39584,42781
39657,42811
39735,42826
39814,42826
39892,42811
39965,42781
40030,42737
40086,42681
40130,42615
40161,42542
40176,42464
40176,42385
40373,42385
40373,42464
40388,42542
40419,42615
40463,42681
40519,42737
40584,42781
40657,42811
40735,42826
40814,42826
40892,42811
40965,42781
41030,42737
41086,42681
41130,42615
41161,42542
41176,42464
41176,42385
41373,42385
41373,42464
41388,42542
41419,42615
41463,42681
41519,42737
41584,42781
41657,42811
41735,42826
41814,42826
41892,42811
41965,42781
42030,42737
42086,42681
42130,42615
42161,42542
42176,42464
42176,42385
42373,42385
42373,42464
42388,42542
42419,42615
42463,42681
42519,42737
42584,42781
42657,42811
42735,42826
42814,42826
42892,42811
42965,42781
43030,42737
43086,42681
43130,42615
43161,42542
43176,42464
43176,42385
43373,42385
43373,42464
43388,42542
43419,42615
43463,42681
43519,42737
43584,42781
43657,42811
43735,42826
43814,42826
43892,42811
43965,42781
44030,42737
44086,42681
44130,42615
44161,42542
44176,42464
44176,42385
44161,42308
44130,42234
44086,42169
44030,42113
43965,42069
43892,42039
43814,42023
43735,42023
43657,42039
43584,42069
43519,42113
43463,42169
43419,42234
43388,42308
43373,42385
43176,42385
43161,42308
43130,42234
43086,42169
43030,42113
42965,42069
42892,42039
42814,42023
42735,42023
42657,42039
42584,42069
42519,42113
42463,42169
42419,42234
42388,42308
42373,42385
42176,42385
42161,42308
42130,42234
42086,42169
42030,42113
41965,42069
41892,42039
41814,42023
41735,42023
41657,42039
41584,42069
41519,42113
41463,42169
41419,42234
41388,42308
41373,42385
41176,42385
41161,42308
41130,42234
41086,42169
41030,42113
40965,42069
40892,42039
40814,42023
40735,42023
40657,42039
40584,42069
40519,42113
40463,42169
40419,42234
40388,42308
40373,42385
40176,42385
40161,42308
40130,42234
40086,42169
40030,42113
39965,42069
39892,42039
39814,42023
39735,42023
39657,42039
39584,42069
39519,42113
39463,42169
39419,42234
39388,42308
39373,42385
31584,42385
31584,38382
39852,38382
39852,38428
39861,38474
39879,38517
39905,38556
39938,38588
39976,38614
40019,38632
40065,38641
40111,38641
40157,38632
40200,38614
40239,38588
40272,38556
40293,38523
40378,38523
40383,38524
40389,38523
40389,38523
40407,38521
40429,38515
40449,38504
40467,38489
40471,38484
40804,38151
40842,38159
40889,38159
40935,38150
40978,38132
41016,38106
41049,38073
41075,38035
41093,37992
41102,37946
41102,37899
41093,37854
41075,37811
41049,37772
41016,37739
40978,37713
40935,37696
40889,37687
40842,37687
40797,37696
40754,37713
40715,37739
40682,37772
40656,37811
40638,37854
40629,37899
40629,37946
40637,37984
40334,38287
40293,38287
40272,38254
40239,38222
40200,38196
40157,38178
40111,38169
40065,38169
40019,38178
39976,38196
39938,38222
39905,38254
39879,38293
39861,38336
39852,38382
31584,38382
31584,33866
37452,33866
37452,33913
37461,33958
37479,34001
37505,34040
37538,34073
37577,34099
37620,34116
37665,34125
37712,34125
37757,34116
37800,34099
37839,34073
37872,34040
37894,34007
38250,34007
38271,34038
38304,34071
38342,34097
38385,34114
38431,34124
38477,34124
38523,34114
38566,34097
38605,34071
38638,34038
38664,33999
38681,33956
38690,33911
38690,33864
38681,33818
38664,33775
38638,33737
38605,33704
38566,33678
38523,33660
38477,33651
38431,33651
38385,33660
38342,33678
38304,33704
38271,33737
38248,33771
37894,33771
37872,33739
37839,33706
37800,33680
37757,33662
37712,33653
37665,33653
37620,33662
37577,33680
37538,33706
37505,33739
37479,33777
37461,33820
37452,33866
31584,33866
31584,32864
36580,32864
36580,32910
36589,32956
36607,32999
36632,33037
36665,33070
36704,33096
36747,33114
36793,33123
36839,33123
36885,33114
36928,33096
36967,33070
36999,33037
37025,32999
37043,32956
37052,32910
37052,32864
37043,32818
37025,32775
36999,32736
36973,32710
36973,31746
37156,31563
37161,31586
37178,31629
37204,31668
37237,31700
37276,31726
37319,31744
37357,31752
39926,34321
39930,34326
39935,34329
39948,34340
39959,34346
39969,34351
39991,34358
40008,34360
40008,34360
40014,34360
40020,34360
40767,34360
40788,34392
40821,34425
40860,34451
40903,34469
40949,34478
40995,34478
41041,34469
41084,34451
41123,34425
41155,34392
41177,34360
42599,34360
42621,34392
42654,34425
42693,34451
42736,34469
42781,34478
42828,34478
42874,34469
42917,34451
42955,34425
42988,34392
43014,34354
43032,34311
43041,34265
43041,34218
43032,34173
43014,34130
42988,34091
42955,34058
42917,34032
42874,34014
42828,34005
42781,34005
42736,34014
42693,34032
42654,34058
42621,34091
42599,34124
41177,34124
41155,34091
41123,34058
41084,34032
41041,34014
40995,34005
40949,34005
40903,34014
40860,34032
40821,34058
40788,34091
40767,34124
40063,34124
37586,31646
37597,31629
37615,31586
37624,31540
37624,31494
37615,31448
37597,31405
37571,31366
37538,31333
37500,31308
37457,31290
37434,31285
40813,27906
41457,27906
41465,27907
41473,27906
42617,27906
42643,27932
42682,27958
42725,27976
42771,27985
42817,27985
42863,27976
42906,27958
42944,27932
42977,27899
43003,27861
43021,27818
43030,27772
43030,27725
43021,27680
43003,27637
42977,27598
42944,27565
42906,27539
42863,27521
42817,27512
42771,27512
42725,27521
42682,27539
42643,27565
42617,27591
41582,27591
41582,26705
42897,26726
42900,26733
42926,26772
42959,26805
42998,26831
43041,26849
43086,26858
43133,26858
43171,26850
43389,27068
43389,32551
43382,32533
43356,32495
43323,32462
43285,32436
43242,32418
43196,32409
43149,32409
43104,32418
43061,32436
43022,32462
42989,32495
42963,32533
42946,32576
42937,32622
42937,32668
42946,32714
42963,32757
42989,32796
43022,32829
43055,32850
43055,32936
43022,32957
42990,32990
42964,33029
42946,33072
42937,33118
42937,33164
42946,33210
42964,33253
42990,33291
43022,33324
43061,33350
43104,33368
43150,33377
43196,33377
43242,33368
43285,33350
43324,33324
43357,33291
43382,33253
43389,33236
43389,40695
43389,40701
43389,40707
43389,40707
43391,40724
43398,40746
43398,40746
43409,40767
43415,40775
43423,40785
43428,40789
44656,42017
44656,42039
44584,42069
44519,42113
44463,42169
44419,42234
44388,42308
44373,42385
44373,42464
44388,42542
44419,42615
44463,42681
44519,42737
44584,42781
44657,42811
44735,42826
44814,42826
44892,42811
44965,42781
45030,42737
45086,42681
45130,42615
45161,42542
45176,42464
45176,42385
45161,42308
45130,42234
45086,42169
45030,42113
44965,42069
44893,42039
44893,41974
44893,41968
44893,41962
44893,41962
44891,41945
44884,41923
44879,41913
44873,41902
44862,41889
44858,41884
44854,41881
43625,40652
43625,40443
43632,40443
43636,40451
43648,40465
43651,40469
43656,40473
43680,40497
45418,42235
45388,42308
45373,42385
45373,42464
45388,42542
45419,42615
45463,42681
45519,42737
45584,42781
45657,42811
45735,42826
45814,42826
45892,42811
45965,42781
46030,42737
46086,42681
46130,42615
46161,42542
46176,42464
46176,42385
46161,42308
46130,42234
46086,42169
46030,42113
45965,42069
45892,42039
45814,42023
45735,42023
45657,42039
45585,42068
43853,40336
43853,39670
46418,42235
46388,42308
46373,42385
46373,42464
46388,42542
46419,42615
46463,42681
46519,42737
46584,42781
46657,42811
46735,42826
46814,42826
46892,42811
46965,42781
47030,42737
47086,42681
47130,42615
47161,42542
47176,42464
47176,42385
47161,42308
47130,42234
47086,42169
47030,42113
46965,42069
46892,42039
46814,42023
46735,42023
46657,42039
46585,42068
44003,39487
44003,26743
44618,26753
44584,26767
44545,26793
44513,26826
44487,26864
44469,26907
44460,26953
44460,27000
44469,27045
44487,27088
44513,27127
44545,27160
44547,27161
44529,27180
44503,27218
44485,27261
44476,27307
44476,27353
44485,27399
44503,27442
44529,27481
44546,27498
44542,27501
44510,27533
44484,27572
44466,27615
44457,27661
44457,27707
44466,27753
44484,27796
44510,27835
44542,27868
44575,27889
44575,39337
44574,39343
44575,39349
44575,39349
44577,39366
44583,39389
44583,39389
44594,39409
44601,39417
44609,39427
44614,39431
47418,42235
47388,42308
47373,42385
47373,42464
47388,42542
47419,42615
47463,42681
47519,42737
47584,42781
47657,42811
47735,42826
47814,42826
47892,42811
47965,42781
48030,42737
48086,42681
48130,42615
48161,42542
48176,42464
48176,42385
48161,42308
48130,42234
48086,42169
48030,42113
47965,42069
47892,42039
47814,42023
47735,42023
47657,42039
47585,42068
44811,39294
44811,38596
44812,38596
44813,38603
44820,38625
44820,38625
44831,38645
44837,38654
44845,38663
44850,38667
48418,42235
48388,42308
48373,42385
48373,42464
48388,42542
48419,42615
48463,42681
48519,42737
48584,42781
48657,42811
48735,42826
48814,42826
48892,42811
48965,42781
49030,42737
49086,42681
49130,42615
49161,42542
49176,42464
49176,42385
49161,42308
49130,42234
49086,42169
49030,42113
48965,42069
48892,42039
48814,42023
48735,42023
48657,42039
48585,42068
45047,38531
45047,37865
49418,42235
49388,42308
49373,42385
49373,42464
49388,42542
49419,42615
49463,42681
49519,42737
49584,42781
49657,42811
49735,42826
49814,42826
49892,42811
49965,42781
50030,42737
50086,42681
50130,42615
50161,42542
50176,42464
50176,42385
50161,42308
50130,42234
50086,42169
50030,42113
49965,42069
49892,42039
49814,42023
49735,42023
49657,42039
49585,42068
45165,37649
45165,27744
45948,27744
45948,27790
45957,27836
45975,27879
46001,27918
46034,27951
46066,27972
46066,37829
46066,37835
46066,37841
46066,37841
46068,37858
46075,37880
46075,37880
46086,37901
46093,37909
46101,37919
46105,37922
50418,42235
50388,42308
50373,42385
50373,42464
50388,42542
50419,42615
50463,42681
50519,42737
50584,42781
50657,42811
50735,42826
50814,42826
50892,42811
50965,42781
51030,42737
51086,42681
51130,42615
51161,42542
51176,42464
51176,42385
51161,42308
51130,42234
51086,42169
51030,42113
50965,42069
50892,42039
50814,42023
50735,42023
50657,42039
50585,42068
46303,37786
46303,33083
46842,33083
46842,33129
46851,33175
46869,33218
46895,33256
46928,33289
46966,33315
47009,33333
47055,33342
47102,33342
47147,33333
47190,33315
47229,33289
47262,33256
47283,33224
47298,33224
47778,33705
47751,33723
47718,33756
47692,33795
47674,33838
47665,33883
47665,33930
47674,33975
47692,34018
47718,34057
47751,34090
47789,34116
47832,34134
47878,34143
47924,34143
47970,34134
48013,34116
48052,34090
48085,34057
48110,34018
48128,33975
48137,33930
48137,33888
48846,33888
48846,33934
48855,33980
48873,34023
48899,34061
48932,34094
48970,34120
49013,34138
49059,34147
49105,34147
49151,34138
49194,34120
49233,34094
49266,34061
49292,34023
49309,33980
49318,33934
49318,33888
49311,33849
49744,33416
49749,33412
49752,33408
49764,33394
49775,33374
49775,33374
49781,33351
49783,33334
49783,33334
49784,33328
49783,33322
49783,32927
49815,32905
49848,32873
49874,32834
49892,32791
49901,32745
49901,32699
49892,32653
49874,32610
49848,32571
49815,32538
49777,32513
49734,32495
49688,32486
49642,32486
49596,32495
49553,32513
49514,32538
49481,32571
49456,32610
49438,32653
49429,32699
49429,32745
49438,32791
49456,32834
49481,32873
49514,32905
49547,32927
49547,33279
49144,33682
49105,33675
49059,33675
49013,33684
48970,33702
48932,33727
48899,33760
48873,33799
48855,33842
48846,33888
48137,33888
48137,33883
48128,33838
48110,33795
48085,33756
48052,33723
48019,33701
48019,33666
48020,33660
48019,33655
48019,33655
48018,33637
48011,33615
48001,33596
48000,33595
47989,33581
47985,33577
47981,33573
47434,33026
47430,33022
47412,33007
47392,32996
47370,32989
47352,32988
47352,32988
47347,32987
47341,32988
47283,32988
47262,32955
47229,32922
47191,32897
48753,32897
48755,32920
48762,32943
48773,32963
48788,32981
48806,32996
48826,33007
48848,33014
48872,33016
48895,33014
48917,33007
48937,32996
48951,32985
48989,32947
49027,32954
49074,32954
49120,32945
49163,32927
49201,32901
49234,32869
49260,32830
49278,32787
49287,32741
49287,32695
49278,32649
49260,32606
49234,32567
49201,32535
49174,32516
49921,31769
50773,31769
50795,31801
50828,31834
50866,31860
50909,31878
50955,31887
51002,31887
51047,31878
51090,31860
51129,31834
51162,31801
51188,31763
51205,31720
51215,31674
51215,31628
51205,31582
51188,31539
51162,31500
51129,31467
51090,31442
51047,31424
51002,31415
50955,31415
50909,31424
50866,31442
50828,31467
50795,31500
50773,31533
49878,31533
49872,31532
49866,31533
49866,31533
49849,31534
49832,31540
49826,31541
49806,31552
49792,31563
49788,31567
49784,31571
48971,32384
48967,32388
48963,32393
48963,32393
48952,32406
48941,32427
48934,32449
48932,32472
48933,32478
48933,32513
48900,32535
48867,32567
48841,32606
48824,32649
48814,32695
48814,32741
48822,32780
48784,32818
48773,32831
48762,32852
48755,32874
48753,32897
47191,32897
47190,32896
47147,32879
47102,32870
47055,32870
47009,32879
46966,32896
46928,32922
46895,32955
46869,32994
46851,33037
46842,33083
46303,33083
46303,27972
46335,27951
46368,27918
46394,27879
46412,27836
46421,27790
46421,27744
46412,27698
46394,27655
46368,27617
46335,27584
46296,27558
46253,27540
46208,27531
46161,27531
46116,27540
46073,27558
46034,27584
46001,27617
45975,27655
45957,27698
45948,27744
45165,27744
45165,27333
45166,27328
45165,27322
45164,27304
45157,27282
45149,27267
45146,27262
45135,27248
45135,27248
45131,27244
45127,27240
44941,27054
44941,27054
44925,27038
44932,27000
44932,26953
44923,26907
44905,26864
44879,26826
44847,26793
44808,26767
44780,26755
48485,26814
48355,26943
48319,26943
48273,26952
48230,26970
48191,26996
48158,27029
48133,27067
48115,27110
48106,27156
48106,27203
48115,27248
48133,27291
48158,27330
48191,27363
48230,27389
48273,27407
48319,27416
48365,27416
48411,27407
48454,27389
48492,27363
48518,27337
50235,27337
51837,28939
51815,28943
51772,28961
51733,28987
51700,29020
51674,29059
51657,29102
51648,29147
51648,29194
51657,29239
51674,29282
51700,29321
51726,29347
51726,31474
51700,31500
51674,31539
51657,31582
51648,31628
51648,31674
51657,31720
51674,31763
51700,31801
51733,31834
51772,31860
51815,31878
51861,31887
51907,31887
51953,31878
51996,31860
52034,31834
52067,31801
52093,31763
52111,31720
52120,31674
52120,31628
52111,31582
52093,31539
52067,31500
52041,31474
52041,29347
52067,29321
52093,29282
52111,29239
52115,29217
52863,29965
52863,34267
52862,34275
52863,34283
52865,34306
52874,34336
52889,34363
52909,34387
52915,34392
53060,34537
53060,34574
53069,34620
53087,34663
53113,34701
53146,34734
53184,34760
53227,34778
53273,34787
53319,34787
53365,34778
53408,34760
53447,34734
53480,34701
53505,34663
53523,34620
53532,34574
53532,34527
53523,34482
53505,34439
53480,34400
53447,34367
53408,34341
53365,34324
53319,34314
53283,34314
53178,34210
53178,33756
53184,33760
53227,33778
53273,33787
53319,33787
53365,33778
53408,33760
53447,33734
53480,33701
53501,33669
54604,33669
54610,33669
54616,33669
54616,33669
54633,33667
54655,33660
54676,33649
54694,33635
54697,33630
55046,33281
55085,33289
55131,33289
55177,33280
55220,33262
55226,33258
55226,34262
55175,34312
55137,34305
55090,34305
55045,34314
55002,34332
54963,34357
54930,34390
54904,34429
54887,34472
54877,34518
54877,34564
54887,34610
54904,34653
54930,34691
54963,34724
55002,34750
55045,34768
55090,34777
55137,34777
55183,34768
55226,34750
55264,34724
55297,34691
55323,34653
55341,34610
55350,34564
55350,34518
55342,34479
55423,34398
55428,34394
55434,34387
55443,34376
55453,34358
55454,34356
55460,34334
55462,34316
55462,34316
55463,34311
55462,34305
55462,32606
55463,32600
55462,32591
55460,32577
55454,32554
55449,32546
55443,32534
55432,32520
55432,32520
55428,32516
55423,32512
55336,32425
55344,32387
55344,32340
55335,32295
55317,32252
55291,32213
55258,32180
55220,32154
55177,32137
55131,32127
55085,32127
55039,32137
54996,32154
54957,32180
54924,32213
54898,32252
54881,32295
54872,32340
54872,32387
54881,32433
54898,32476
54924,32514
54957,32547
54996,32573
55039,32591
55085,32600
55131,32600
55169,32592
55226,32649
55226,32847
55220,32843
55177,32826
55131,32816
55085,32816
55039,32826
54996,32843
54957,32869
54924,32902
54898,32941
54881,32984
54872,33029
54872,33076
54879,33114
54561,33433
53501,33433
53480,33400
53447,33367
53408,33341
53365,33324
53319,33314
53273,33314
53227,33324
53184,33341
53178,33346
53178,29907
53179,29899
53178,29892
53178,29892
53176,29869
53167,29839
53152,29811
53132,29787
53126,29783
50417,27074
50412,27067
50388,27048
50361,27033
50331,27024
50308,27022
50308,27022
50301,27021
50293,27022
48722,27022
48924,26820
49546,26830
49563,26829
49578,26824
49591,26817
49603,26807
49613,26795
49620,26781
49624,26766
49625,26751
49578,21247
49577,21231
49572,21216
49564,21203
49554,21191
49542,21182
49529,21174
49514,21170
49498,21169
47716,21192
47716,21053
51328,21053
51328,21584
51329,21600
51334,21614
51341,21628
51351,21640
51363,21650
51377,21657
51392,21662
51407,21663
51938,21663
51954,21662
51969,21657
51982,21650
51994,21640
52004,21628
52012,21614
52016,21600
52018,21584
52018,21053
52548,21053
52548,21584
52550,21600
52554,21614
52562,21628
52572,21640
52583,21650
52597,21657
52612,21662
52627,21663
53159,21663
53174,21662
53189,21657
53203,21650
53215,21640
53225,21628
53232,21614
53237,21600
53238,21584
53238,21053
53759,21053
53759,21584
53760,21600
53765,21614
53772,21628
53782,21640
53794,21650
53808,21657
53823,21662
53838,21663
54370,21663
54385,21662
54400,21657
54414,21650
54426,21640
54435,21628
54443,21614
54447,21600
54449,21584
54449,21053
54447,21037
54443,21022
54435,21009
54426,20997
54414,20987
54400,20980
54385,20975
54370,20974
53838,20974
53823,20975
53808,20980
53794,20987
53782,20997
53772,21009
53765,21022
53760,21037
53759,21053
53238,21053
53237,21037
53232,21022
53225,21009
53215,20997
53203,20987
53189,20980
53174,20975
53159,20974
52627,20974
52612,20975
52597,20980
52583,20987
52572,20997
52562,21009
52554,21022
52550,21037
52548,21053
52018,21053
52016,21037
52012,21022
52004,21009
51994,20997
51982,20987
51969,20980
51954,20975
51938,20974
51407,20974
51392,20975
51377,20980
51363,20987
51351,20997
51341,21009
51334,21022
51329,21037
51328,21053
47716,21053
47716,21013
47715,20998
47710,20983
47703,20969
47693,20957
47681,20947
47668,20940
47653,20936
47637,20934
47244,20934
47228,20936
47213,20940
47200,20947
47188,20957
47178,20969
47170,20983
47166,20998
47164,21013
47164,21049
47136,21014
47094,20980
47046,20954
46994,20939
46954,20935
46927,20935
46886,20939
46834,20954
46787,20980
46745,21014
46710,21056
46690,21093
46671,21056
46636,21014
46594,20980
46546,20954
46494,20939
46454,20935
46427,20935
46386,20939
46334,20954
46287,20980
46245,21014
46210,21056
46190,21093
46171,21056
46136,21014
46094,20980
46046,20954
45994,20939
45954,20935
45927,20935
45886,20939
45834,20954
45787,20980
45745,21014
45710,21056
45690,21093
45671,21056
45636,21014
45594,20980
45546,20954
45494,20939
45454,20935
45427,20935
45386,20939
45334,20954
45287,20980
45245,21014
45210,21056
45190,21093
45171,21056
45136,21014
45094,20980
45046,20954
44994,20939
44954,20935
44927,20935
44886,20939
44834,20954
44787,20980
44745,21014
44710,21056
44690,21093
44671,21056
44636,21014
44594,20980
44546,20954
44494,20939
44454,20935
44427,20935
44386,20939
44334,20954
44287,20980
44245,21014
44210,21056
44190,21093
44171,21056
44136,21014
44094,20980
44046,20954
43994,20939
43954,20935
43927,20935
43886,20939
43834,20954
43787,20980
43745,21014
43710,21056
43690,21093
43671,21056
43636,21014
43594,20980
43546,20954
43494,20939
43454,20935
43427,20935
43386,20939
43334,20954
43287,20980
43245,21014
43210,21056
43185,21104
43169,21156
43164,21210
43167,21250
40896,21279
40880,21281
40865,21286
40852,21293
40840,21304
40831,21316
40824,21329
40820,21344
40818,21360
40952,26620
40954,26632
40958,26647
40965,26660
40974,26672
40986,26682
41000,26690
41014,26695
41030,26696
41267,26700
41267,27591
40756,27591
40748,27590
40717,27593
40688,27602
40660,27617
40642,27632
40642,27632
40636,27637
40631,27643
36710,31564
36704,31569
36684,31593
36670,31620
36664,31639
36661,31650
36658,31681
36658,31689
36658,32213
36658,32710
36632,32736
36607,32775
36589,32818
36580,32864
31584,32864
31584,21663
36668,21663
36673,21710
36687,21755
36709,21797
36739,21833
36775,21863
36817,21885
36862,21899
36909,21903
37054,21902
37114,21842
37114,21458
37235,21458
37235,21842
37295,21902
37440,21903
37487,21899
37532,21885
37574,21863
37611,21833
37640,21797
37663,21755
37676,21710
37681,21663
37680,21518
37620,21458
37235,21458
37114,21458
36729,21458
36670,21518
36668,21663
31584,21663
31584,21657
31614,21320
31666,21131
36668,21131
36670,21277
36729,21337
37114,21337
37114,20952
37235,20952
37235,21337
37620,21337
37680,21277
37681,21131
38031,21131
38031,21663
38032,21678
38037,21693
38044,21707
38054,21719
38066,21729
38079,21736
38094,21740
38110,21742
38641,21742
38657,21740
38672,21736
38685,21729
38697,21719
38707,21707
38714,21693
38719,21678
38720,21663
38720,21131
39231,21131
39231,21663
39233,21678
39237,21693
39245,21707
39255,21719
39267,21729
39280,21736
39295,21740
39311,21742
39842,21742
39857,21740
39872,21736
39886,21729
39898,21719
39908,21707
39915,21693
39920,21678
39921,21663
39921,21131
39920,21116
39915,21101
39908,21087
39898,21075
39886,21066
39872,21058
39857,21054
39842,21052
39311,21052
39295,21054
39280,21058
39267,21066
39255,21075
39245,21087
39237,21101
39233,21116
39231,21131
38720,21131
38719,21116
38714,21101
38707,21087
38697,21075
38685,21066
38672,21058
38657,21054
38641,21052
38110,21052
38094,21054
38079,21058
38066,21066
38054,21075
38044,21087
38037,21101
38032,21116
38031,21131
37681,21131
37676,21084
37663,21039
37640,20998
37611,20961
37574,20931
37532,20909
37487,20895
37440,20891
37295,20892
37235,20952
37114,20952
37054,20892
36909,20891
36862,20895
36817,20909
36775,20931
36739,20961
36709,20998
36687,21039
36673,21084
36668,21131
31666,21131
31702,20998
31846,20696
32041,20425
32281,20192
32559,20006
32865,19872
33190,19793
33467,19773
46119,19773
57653,19867
Z" /> 
<path style="fill:#000000; fill-opacity:1.0; 
stroke:#000000; stroke-width:78.7402; stroke-opacity:1; 
stroke-linecap:round; stroke-linejoin:round;fill-rule:evenodd;"
d="M 49507,26711
49012,26704
49015,26692
49017,26669
49017,26669
49018,26662
49017,26654
49017,25055
49043,25029
49069,24991
49087,24948
49096,24902
49096,24855
49087,24810
49069,24767
49043,24728
49017,24702
49017,23735
49045,23707
49071,23668
49089,23625
49098,23580
49098,23533
49089,23488
49071,23445
49045,23406
49012,23373
48974,23347
48931,23329
48885,23320
48848,23320
47059,21531
47054,21525
47030,21505
47002,21490
46979,21483
46994,21482
47046,21466
47094,21440
47136,21406
47164,21372
47164,21407
47166,21422
47170,21437
47178,21451
47188,21463
47200,21473
47213,21480
47228,21485
47244,21486
47637,21486
47653,21485
47668,21480
47681,21473
47693,21463
47703,21451
47710,21437
47715,21422
47716,21407
47716,21310
49460,21287
49507,26711
Z" /> 
<path style="fill:#000000; fill-opacity:1.0; 
stroke:#000000; stroke-width:78.7402; stroke-opacity:1; 
stroke-linecap:round; stroke-linejoin:round;fill-rule:evenodd;"
d="M 46926,25180
46959,25213
46998,25239
47041,25257
47086,25266
47133,25266
47171,25258
47787,25874
47791,25879
47796,25882
47809,25893
47815,25897
47830,25904
47852,25911
47869,25913
47869,25913
47875,25913
47881,25913
48290,25913
48312,25945
48345,25978
48384,26004
48427,26022
48472,26031
48519,26031
48564,26022
48607,26004
48646,25978
48679,25945
48702,25911
48702,26596
48601,26697
46773,26668
46757,26645
47036,26645
47042,26646
47048,26645
47048,26645
47065,26643
47087,26637
47108,26626
47126,26611
47130,26606
47331,26405
47335,26402
47341,26394
47350,26384
47361,26363
47364,26352
47368,26341
47370,26323
47370,26323
47370,26318
47370,26312
47370,26033
47370,26027
47370,26021
47370,26021
47368,26004
47361,25982
47351,25963
47350,25961
47339,25948
47335,25943
47331,25939
47232,25841
47240,25802
47240,25756
47231,25710
47213,25667
47187,25628
47154,25596
47115,25570
47072,25552
47027,25543
46980,25543
46942,25550
46921,25529
46921,25172
46926,25180
Z" /> 
<path style="fill:#000000; fill-opacity:1.0; 
stroke:#000000; stroke-width:78.7402; stroke-opacity:1; 
stroke-linecap:round; stroke-linejoin:round;fill-rule:evenodd;"
d="M 46372,26662
45645,26651
45648,26645
46384,26645
46372,26662
Z" /> 
<path style="fill:#000000; fill-opacity:1.0; 
stroke:#000000; stroke-width:78.7402; stroke-opacity:1; 
stroke-linecap:round; stroke-linejoin:round;fill-rule:evenodd;"
d="M 44081,24976
44106,24993
44106,25774
44080,25800
44054,25839
44037,25882
44028,25927
44028,25974
44037,26020
44054,26063
44070,26086
43989,26086
43934,26031
43930,26027
43912,26012
43892,26001
43869,25994
43852,25993
43852,25993
43846,25992
43840,25993
43301,25993
43295,25992
43290,25993
43290,25993
43272,25994
43250,26001
43241,26006
43229,26012
43219,26021
43211,26027
43208,26031
43199,26040
43161,26032
43115,26032
43069,26041
43026,26059
43020,26063
43020,25717
43249,25488
43287,25496
43334,25496
43379,25486
43422,25469
43461,25443
43494,25410
43520,25371
43538,25328
43547,25283
43547,25236
43538,25190
43520,25147
43494,25109
43461,25076
43422,25050
43379,25032
43334,25023
43287,25023
43242,25032
43199,25050
43160,25076
43127,25109
43101,25147
43083,25190
43074,25236
43074,25283
43082,25321
42822,25581
42818,25584
42814,25589
42814,25589
42803,25602
42792,25623
42785,25645
42783,25668
42784,25674
42784,26408
42783,26413
42784,26419
42784,26419
42785,26437
42792,26459
42792,26459
42803,26479
42810,26488
42818,26497
42822,26501
42881,26560
42874,26598
42874,26607
41582,26587
41582,25208
41608,25182
41634,25143
41652,25100
41661,25055
41661,25018
41728,24950
44055,24950
44081,24976
Z" /> 
<path style="fill:#000000; fill-opacity:1.0; 
stroke:#000000; stroke-width:78.7402; stroke-opacity:1; 
stroke-linecap:round; stroke-linejoin:round;fill-rule:evenodd;"
d="M 43546,26258
43528,26301
43519,26346
43519,26393
43528,26438
43546,26481
43572,26520
43605,26553
43637,26575
43637,26586
43637,26592
43638,26601
43366,26330
43374,26292
43374,26245
43371,26229
43565,26229
43546,26258
Z" /> 
<path style="fill:#000000; fill-opacity:1.0; 
stroke:#000000; stroke-width:78.7402; stroke-opacity:1; 
stroke-linecap:round; stroke-linejoin:round;fill-rule:evenodd;"
d="M 42849,21379
42822,21394
42798,21413
42793,21419
41430,22782
41393,22782
41348,22791
41305,22809
41266,22835
41233,22868
41207,22907
41189,22950
41180,22995
41180,23042
41189,23087
41207,23130
41233,23169
41266,23202
41267,23203
41267,24855
41241,24881
41215,24920
41197,24963
41188,25008
41188,25055
41197,25100
41215,25143
41241,25182
41267,25208
41267,26582
41069,26579
40938,21397
42873,21372
42849,21379
Z" /> 
<path style="fill:#000000; fill-opacity:1.0; 
stroke:#000000; stroke-width:78.7402; stroke-opacity:1; 
stroke-linecap:round; stroke-linejoin:round;fill-rule:evenodd;"
d="M 45298,26336
45265,26369
45239,26407
45238,26409
43988,26409
43992,26393
43992,26346
43987,26322
45318,26322
45298,26336
Z" /> 
<path style="fill:#000000; fill-opacity:1.0; 
stroke:#000000; stroke-width:78.7402; stroke-opacity:1; 
stroke-linecap:round; stroke-linejoin:round;fill-rule:evenodd;"
d="M 46832,26355
46865,26388
46896,26409
45658,26409
45658,26407
45632,26369
45599,26336
45579,26322
46810,26322
46832,26355
Z" /> 
<path style="fill:#000000; fill-opacity:1.0; 
stroke:#000000; stroke-width:78.7402; stroke-opacity:1; 
stroke-linecap:round; stroke-linejoin:round;fill-rule:evenodd;"
d="M 45210,21364
45245,21406
45287,21440
45322,21459
45322,22439
44797,22964
43382,22964
43360,22932
43328,22899
43289,22873
43246,22855
43200,22846
43154,22846
43108,22855
43065,22873
43026,22899
42994,22932
42968,22970
42955,23000
42918,22975
42875,22957
42830,22948
42783,22948
42738,22957
42695,22975
42656,23001
42623,23034
42597,23073
42579,23116
42570,23161
42570,23208
42579,23253
42597,23296
42623,23335
42656,23368
42695,23394
42738,23412
42783,23421
42830,23421
42868,23413
42939,23484
42943,23489
42948,23493
42948,23493
42961,23504
42982,23515
42982,23515
43004,23521
43021,23523
43021,23523
43027,23524
43033,23523
45946,23523
45952,23524
45958,23523
46479,23523
46501,23556
46534,23588
46566,23610
46566,25868
46566,25874
46568,25897
46575,25919
46586,25939
46593,25948
46601,25957
46605,25961
46730,26086
44457,26086
44473,26063
44491,26020
44500,25974
44500,25927
44491,25882
44473,25839
44447,25800
44421,25774
44421,24934
44441,24905
44459,24862
44468,24816
44468,24770
44459,24724
44441,24681
44415,24642
44382,24609
44344,24583
44301,24566
44255,24557
44209,24557
44163,24566
44120,24583
44081,24609
44055,24635
41671,24635
41663,24635
41656,24635
41656,24635
41632,24638
41603,24647
41582,24658
41582,24338
43129,24338
43129,24385
43138,24431
43156,24474
43182,24512
43215,24545
43254,24571
43297,24589
43342,24598
43389,24598
43435,24589
43478,24571
43516,24545
43544,24517
45939,24517
45932,24555
45932,24602
45941,24647
45959,24690
45985,24729
46017,24762
46056,24788
46099,24805
46145,24814
46191,24814
46237,24805
46280,24788
46319,24762
46351,24729
46377,24690
46395,24647
46404,24602
46404,24555
46395,24509
46377,24466
46351,24428
46319,24395
46280,24369
46237,24351
46191,24342
46145,24342
46106,24350
46077,24320
46073,24315
46055,24300
46034,24290
46012,24283
45995,24281
45995,24281
45989,24280
45983,24281
43588,24281
43575,24250
43549,24211
43516,24178
43478,24152
43435,24135
43389,24125
43342,24125
43297,24135
43254,24152
43215,24178
43182,24211
43156,24250
43138,24293
43129,24338
41582,24338
41582,23187
41600,23169
41626,23130
41644,23087
41653,23042
41653,23005
42975,21683
44118,21683
44125,21683
44133,21683
44133,21683
44156,21680
44186,21671
44213,21657
44237,21637
44242,21631
44391,21482
44427,21486
44454,21486
44494,21482
44546,21466
44594,21440
44636,21406
44671,21364
44679,21349
44702,21348
44710,21364
44745,21406
44787,21440
44834,21466
44886,21482
44927,21486
44954,21486
44994,21482
45046,21466
45094,21440
45136,21406
45171,21364
45182,21342
45198,21342
45210,21364
Z" /> 
<path style="fill:#000000; fill-opacity:1.0; 
stroke:#000000; stroke-width:78.7402; stroke-opacity:1; 
stroke-linecap:round; stroke-linejoin:round;fill-rule:evenodd;"
d="M 48625,23543
48625,23580
48635,23625
48652,23668
48678,23707
48702,23731
48702,24702
48676,24728
48650,24767
48633,24810
48624,24855
48624,24892
48609,24907
47916,24907
47890,24881
47852,24855
47809,24837
47763,24828
47716,24828
47671,24837
47628,24855
47589,24881
47556,24914
47530,24953
47513,24996
47503,25041
47503,25088
47513,25133
47530,25176
47556,25215
47589,25248
47628,25274
47671,25292
47716,25301
47763,25301
47809,25292
47852,25274
47890,25248
47916,25222
48666,25222
48674,25223
48682,25222
48682,25222
48702,25220
48702,25679
48679,25644
48646,25611
48607,25585
48564,25568
48519,25559
48472,25559
48427,25568
48384,25585
48345,25611
48312,25644
48290,25677
47924,25677
47338,25091
47346,25053
47346,25006
47338,24968
47683,24623
47687,24620
47696,24609
47702,24602
47709,24589
47713,24581
47720,24559
47722,24541
47722,24541
47722,24536
47722,24530
47722,24189
47722,24183
47722,24177
47722,23696
47722,23690
47722,23685
47720,23667
47713,23645
47702,23624
47702,23624
47691,23611
47691,23611
47687,23607
47683,23603
46559,22478
46559,21826
46589,21846
46632,21864
46678,21873
46724,21873
46770,21864
46813,21846
46852,21820
46877,21795
48625,23543
Z" /> 
<path style="fill:#000000; fill-opacity:1.0; 
stroke:#000000; stroke-width:78.7402; stroke-opacity:1; 
stroke-linecap:round; stroke-linejoin:round;fill-rule:evenodd;"
d="M 47184,23954
47217,23987
47255,24013
47298,24031
47344,24040
47391,24040
47436,24031
47479,24013
47485,24009
47485,24162
47483,24185
47485,24207
47485,24487
47171,24801
47133,24793
47086,24793
47041,24802
46998,24820
46959,24846
46926,24879
46921,24887
46921,24190
47173,23938
47184,23954
Z" /> 
<path style="fill:#000000; fill-opacity:1.0; 
stroke:#000000; stroke-width:78.7402; stroke-opacity:1; 
stroke-linecap:round; stroke-linejoin:round;fill-rule:evenodd;"
d="M 46210,21364
46245,21406
46287,21440
46322,21459
46322,22522
46322,22527
46324,22550
46331,22573
46342,22593
46353,22606
46357,22611
46361,22615
47319,23573
47298,23577
47255,23594
47217,23620
47184,23653
47162,23686
47146,23686
47140,23685
47134,23686
47134,23686
47117,23687
47095,23694
47074,23705
47062,23715
47056,23720
47052,23724
46803,23974
46803,23610
46835,23588
46868,23556
46894,23517
46912,23474
46921,23428
46921,23382
46912,23336
46894,23293
46868,23254
46835,23222
46796,23196
46753,23178
46708,23169
46661,23169
46616,23178
46573,23196
46534,23222
46501,23254
46479,23287
46059,23287
46059,21459
46094,21440
46136,21406
46171,21364
46189,21329
46192,21329
46210,21364
Z" /> 
<path style="fill:#000000; fill-opacity:1.0; 
stroke:#000000; stroke-width:78.7402; stroke-opacity:1; 
stroke-linecap:round; stroke-linejoin:round;fill-rule:evenodd;"
d="M 45322,22966
45294,22985
45261,23018
45235,23057
45217,23100
45208,23146
45208,23192
45217,23238
45235,23281
45239,23287
43296,23287
43328,23266
43360,23233
43382,23200
44840,23200
44846,23201
44852,23200
44852,23200
44869,23199
44891,23192
44912,23181
44930,23166
44934,23162
45322,22773
45322,22966
Z" /> 
<path style="fill:#000000; fill-opacity:1.0; 
stroke:#000000; stroke-width:78.7402; stroke-opacity:1; 
stroke-linecap:round; stroke-linejoin:round;fill-rule:evenodd;"
d="M 45710,21364
45745,21406
45787,21440
45822,21459
45822,23287
45650,23287
45654,23281
45672,23238
45681,23192
45681,23146
45672,23100
45654,23057
45628,23018
45595,22985
45559,22961
45559,22493
45559,22488
45559,22482
45559,21459
45594,21440
45636,21406
45671,21364
45686,21336
45695,21336
45710,21364
Z" /> 
<path style="fill:#000000; fill-opacity:1.0; 
stroke:#000000; stroke-width:78.7402; stroke-opacity:1; 
stroke-linecap:round; stroke-linejoin:round;fill-rule:evenodd;"
d="M 46878,21479
46878,21479
46877,21479
46878,21479
Z" /> 
<path style="fill:#000000; fill-opacity:1.0; 
stroke:#000000; stroke-width:78.7402; stroke-opacity:1; 
stroke-linecap:round; stroke-linejoin:round;fill-rule:evenodd;"
d="M 46710,21364
46743,21404
46724,21400
46678,21400
46632,21409
46632,21410
46636,21406
46671,21364
46690,21327
46710,21364
Z" /> 
<path style="fill:#000000; fill-opacity:1.0; 
stroke:#000000; stroke-width:78.7402; stroke-opacity:1; 
stroke-linecap:round; stroke-linejoin:round;fill-rule:evenodd;"
d="M 43710,21364
43713,21368
43668,21368
43671,21364
43672,21362
43709,21361
43710,21364
Z" /> 
<path style="fill:#000000; fill-opacity:1.0; 
stroke:#000000; stroke-width:78.7402; stroke-opacity:1; 
stroke-linecap:round; stroke-linejoin:round;fill-rule:evenodd;"
d="M 43213,21368
43202,21368
43213,21367
43213,21368
Z" /> 
</g>
<g style="fill:#000000; fill-opacity:1.0; 
stroke:#000000; stroke-width:39.3701; stroke-opacity:1; 
stroke-linecap:round; stroke-linejoin:round;">
<path style="fill:#000000; fill-opacity:1.0; 
stroke:#000000; stroke-width:39.3701; stroke-opacity:1; 
stroke-linecap:round; stroke-linejoin:round;fill-rule:evenodd;"
d="M 43637,26906
43637,40345
43606,40343
43606,27024
43606,27019
43604,27000
43599,26981
43590,26964
43588,26963
43577,26949
43574,26946
43344,26717
43338,26608
43637,26906
Z" /> 
</g>
<g style="fill:#000000; fill-opacity:1.0; 
stroke:#000000; stroke-width:78.7402; stroke-opacity:1; 
stroke-linecap:round; stroke-linejoin:round;">
<path style="fill:#000000; fill-opacity:1.0; 
stroke:#000000; stroke-width:78.7402; stroke-opacity:1; 
stroke-linecap:round; stroke-linejoin:round;fill-rule:evenodd;"
d="M 44811,28007
44811,38478
44811,38478
44811,28007
44811,28007
Z" /> 
</g>
</g> 
</svg>
